<?xml version="1.0"?>
<svg version="1.1" xmlns="http://www.w3.org/2000/svg" xmlns:xlink="http://www.w3.org/1999/xlink" width="940" height="500">
    <desc iVinci="yes" version="4.6" gridStep="20" showGrid="no" snapToGrid="no" codePlatform="0"/>
    <g id="Layer1" name="Layer 2" opacity="1">
        <g id="Shape1">
            <desc shapeID="1" type="0" basicInfo-basicType="1" basicInfo-roundedRectRadius="12" basicInfo-polygonSides="6" basicInfo-starPoints="5" bounding="rect(-501.5,-255.5,1003,511)" text="" font-familyName="Helvetica" font-pixelSize="20" font-bold="0" font-underline="0" font-alignment="1" strokeStyle="0" markerStart="0" markerEnd="0" shadowEnabled="0" shadowOffsetX="0" shadowOffsetY="2" shadowBlur="4" shadowOpacity="160" blurEnabled="0" blurRadius="4" transform="matrix(1,0,0,1,500,247)" pers-center="0,0" pers-size="0,0" pers-start="0,0" pers-end="0,0" locked="0" mesh="" flag=""/>
            <path id="shapePath1" d="M-1.5,-8.5 L1001.5,-8.5 L1001.5,502.5 L-1.5,502.5 L-1.5,-8.5 Z" style="stroke:none;fill-rule:evenodd;fill:#79b853;fill-opacity:1;"/>
        </g>
    </g>
    <g id="Layer2" name="Layer 1" opacity="1">
        <g id="Shape2">
            <desc shapeID="2" type="0" basicInfo-basicType="0" basicInfo-roundedRectRadius="12" basicInfo-polygonSides="6" basicInfo-starPoints="5" bounding="rect(-74.3392,-50.75,148.678,101.5)" text="" font-familyName="" font-pixelSize="20" font-bold="0" font-underline="0" font-alignment="1" strokeStyle="0" markerStart="0" markerEnd="0" shadowEnabled="0" shadowOffsetX="0" shadowOffsetY="2" shadowBlur="4" shadowOpacity="160" blurEnabled="0" blurRadius="4" transform="matrix(3.31472,0,0,3.31472,486.132,250)" pers-center="0,0" pers-size="0,0" pers-start="0,0" pers-end="0,0" locked="0" mesh="" flag=""/>
            <path id="shapePath2" d="M504.974,416.565 C516.575,414.908 529.834,411.593 536.464,408.279 C543.093,404.963 548.065,399.991 548.065,396.677 C548.065,396.677 546.408,393.362 544.75,390.047 C541.436,385.075 538.121,378.445 529.834,360.215 C526.52,351.928 519.021,330.219 516.575,320.438 C514.042,305.823 513.811,290.26 516.575,275.689 C518.98,267.167 522.286,258.929 528.177,252.486 C534.787,243.742 542.541,235.118 553.038,230.941 C585.716,217.932 624.304,189.507 644.193,158.016 C650.822,146.415 653.985,141.443 656.401,134.813 C662.38,118.412 667.658,100.989 667.395,83.4352 L667.395,81.7778 L485.086,81.7778 L301.118,81.7778 L301.118,85.0925 C300.846,128.522 326.518,167.667 357.468,196.136 C374.042,211.052 393.931,222.654 417.134,230.941 C425.42,234.255 428.735,235.913 435.365,242.542 C443.652,252.486 450.281,264.088 453.596,277.347 C455.603,296.502 454.101,316.745 448.624,335.354 L445.309,345.298 C443.652,351.928 438.679,361.872 430.393,378.445 C422.106,395.02 422.106,396.677 422.106,398.334 C425.42,408.279 445.309,414.908 475.141,418.222 C481.771,418.222 491.715,418.222 504.974,416.565 M365.755,360.215 C377.357,358.557 387.301,355.243 390.616,350.27 L390.616,348.613 L388.959,343.641 C377.357,322.095 370.727,303.864 370.727,285.634 C370.727,275.689 372.385,270.717 375.7,262.43 C380.672,254.143 382.329,251.469 390.616,248.154 C393.931,246.459 397.886,245.819 399.543,244.802 C403.875,243.521 408.847,240.884 408.847,240.884 C408.847,240.884 405.872,240.244 402.518,238.587 C392.575,235.273 388.959,232.598 380.672,227.625 C354.154,212.709 337.58,197.793 321.007,176.248 C316.034,167.961 313.462,164.3 311.062,160.96 L309.405,158.016 C307.748,156.359 241.453,156.359 239.796,158.016 C238.672,181.22 249.793,201.662 264.656,219.339 C282.02,239.989 296.146,245.857 309.405,249.171 C321.007,252.486 322.664,254.143 327.636,260.773 C330.951,269.06 332.608,274.032 332.608,283.976 C334.266,298.893 329.293,313.809 319.35,335.354 C316.034,341.984 312.72,348.613 312.72,348.613 C312.72,350.27 316.034,353.586 319.35,355.243 C327.636,360.215 350.839,363.529 365.755,360.215 M635.906,360.215 C649.165,358.557 657.452,355.243 659.109,350.27 C659.109,348.613 659.109,346.956 654.136,337.011 C643.71,316.428 636.515,291.964 642.535,269.06 C645.976,259.788 650.4,250.126 660.766,248.516 C677.34,243.544 690.599,235.913 707.172,219.339 C717.116,209.395 726.368,192.618 728.966,182.877 C731.048,175.068 733.667,165.73 732.033,158.016 C730.375,156.359 662.424,156.359 660.766,158.016 C660.766,158.016 659.109,159.674 657.452,161.331 C655.794,166.303 649.165,176.248 644.193,181.22 C637.563,189.507 617.675,209.395 611.045,214.367 C598.821,226.889 575.363,235.327 562.982,240.884 C564.639,242.542 572.926,247.514 579.555,249.171 C592.814,254.143 592.814,254.143 597.786,262.43 C601.101,270.717 602.759,275.689 602.759,285.634 C603.675,308.637 591.946,329.941 582.87,348.613 C594.651,361.879 619.394,361.541 635.906,360.215 Z" style="stroke:none;fill-rule:evenodd;fill:#ffffff;fill-opacity:1;"/>
        </g>
        <g id="Shape3">
            <desc shapeID="3" type="0" basicInfo-basicType="0" basicInfo-roundedRectRadius="12" basicInfo-polygonSides="6" basicInfo-starPoints="5" bounding="rect(-3.75,-28,7.5,56)" text="" font-familyName="" font-pixelSize="20" font-bold="0" font-underline="0" font-alignment="1" strokeStyle="0" markerStart="0" markerEnd="0" shadowEnabled="0" shadowOffsetX="0" shadowOffsetY="2" shadowBlur="4" shadowOpacity="160" blurEnabled="0" blurRadius="4" transform="matrix(1,0,0,1,417.25,99.5)" pers-center="0,0" pers-size="0,0" pers-start="0,0" pers-end="0,0" locked="0" mesh="" flag=""/>
            <path id="shapePath3" d="M413.5,127.5 C414,126.5 416,123 416.5,122.5 C416,123 414,126.5 413.5,127.5 M421,71.5 " style="stroke:none;fill-rule:evenodd;fill:#669020;fill-opacity:1;"/>
        </g>
        <g id="Shape4">
            <desc shapeID="4" type="0" basicInfo-basicType="0" basicInfo-roundedRectRadius="12" basicInfo-polygonSides="6" basicInfo-starPoints="5" bounding="rect(0,0,0,0)" text="" font-familyName="" font-pixelSize="20" font-bold="0" font-underline="0" font-alignment="1" strokeStyle="0" markerStart="0" markerEnd="0" shadowEnabled="0" shadowOffsetX="0" shadowOffsetY="2" shadowBlur="4" shadowOpacity="160" blurEnabled="0" blurRadius="4" transform="matrix(1,0,0,1,0,0)" pers-center="0,0" pers-size="0,0" pers-start="0,0" pers-end="0,0" locked="0" mesh="" flag=""/>
            <path id="shapePath4" d="M0,0 Z" style="stroke:none;fill-rule:evenodd;fill:#4c4c4c;fill-opacity:1;"/>
        </g>
        <g id="Shape5">
            <desc shapeID="5" type="0" basicInfo-basicType="0" basicInfo-roundedRectRadius="12" basicInfo-polygonSides="6" basicInfo-starPoints="5" bounding="rect(0,0,0,0)" text="" font-familyName="" font-pixelSize="20" font-bold="0" font-underline="0" font-alignment="1" strokeStyle="0" markerStart="0" markerEnd="0" shadowEnabled="0" shadowOffsetX="0" shadowOffsetY="2" shadowBlur="4" shadowOpacity="160" blurEnabled="0" blurRadius="4" transform="matrix(1,0,0,1,0,0)" pers-center="0,0" pers-size="0,0" pers-start="0,0" pers-end="0,0" locked="0" mesh="" flag=""/>
            <path id="shapePath5" d="M0,0 Z" style="stroke:none;fill-rule:evenodd;fill:#000000;fill-opacity:1;"/>
        </g>
        <g id="Shape6">
            <desc shapeID="6" type="0" basicInfo-basicType="0" basicInfo-roundedRectRadius="12" basicInfo-polygonSides="6" basicInfo-starPoints="5" bounding="rect(0.000198364,-4.57764e-05,0,0)" text="" font-familyName="" font-pixelSize="20" font-bold="0" font-underline="0" font-alignment="1" strokeStyle="0" markerStart="0" markerEnd="0" shadowEnabled="0" shadowOffsetX="0" shadowOffsetY="2" shadowBlur="4" shadowOpacity="160" blurEnabled="0" blurRadius="4" transform="matrix(1,0,0,1,-0.000198364,4.57764e-05)" pers-center="0,0" pers-size="0,0" pers-start="0,0" pers-end="0,0" locked="0" mesh="" flag=""/>
            <path id="shapePath6" d="M0,0 Z" style="stroke:none;fill-rule:evenodd;fill:#0d0d0d;fill-opacity:1;"/>
        </g>
    </g>
</svg>
