<?xml version="1.0" encoding="utf-8"?>
<!-- Generator: Adobe Illustrator 18.1.1, SVG Export Plug-In . SVG Version: 6.00 Build 0)  -->
<!DOCTYPE svg PUBLIC "-//W3C//DTD SVG 1.1//EN" "http://www.w3.org/Graphics/SVG/1.1/DTD/svg11.dtd">
<svg version="1.1" id="Layer_1" xmlns="http://www.w3.org/2000/svg" xmlns:xlink="http://www.w3.org/1999/xlink" x="0px" y="0px"
	 viewBox="0 0 64 64" enable-background="new 0 0 64 64" xml:space="preserve">
<g id="Shape1">
	
		<desc  type="0" transform="matrix(4.79624,0,0,4.79624,500,250)" shapeID="1" font-familyName="" font-underline="0" font-pixelSize="20" shadowOffsetY="2" font-alignment="1" markerEnd="0" shadowEnabled="0" markerStart="0" strokeStyle="0" shadowBlur="4" font-bold="0" shadowOffsetX="0" shadowOpacity="160" text="" bounding="rect(-74.3392,-50.75,148.678,101.5)" blurEnabled="0" blurRadius="4" pers-center="0,0" flag="" pers-size="0,0" pers-end="0,0" pers-start="0,0" locked="0" mesh="" basicInfo-starPoints="5" basicInfo-polygonSides="6" basicInfo-roundedRectRadius="12" basicInfo-basicType="0">
		</desc>
	<path id="shapePath1" d="M34.4,54.2c1.5-0.2,3.2-0.6,4.1-1.1c0.9-0.4,1.5-1.1,1.5-1.5c0,0-0.2-0.4-0.4-0.9
		c-0.4-0.6-0.9-1.5-1.9-3.9c-0.4-1.1-1.4-3.9-1.7-5.2c-0.3-1.9-0.4-3.9,0-5.8c0.3-1.1,0.7-2.2,1.5-3c0.9-1.1,1.9-2.3,3.2-2.8
		c4.2-1.7,9.3-5.4,11.8-9.5c0.9-1.5,1.3-2.2,1.6-3c0.8-2.1,1.5-4.4,1.4-6.7v-0.2H31.9H8V11c0,5.6,3.3,10.7,7.3,14.4
		c2.2,1.9,4.7,3.4,7.7,4.5c1.1,0.4,1.5,0.6,2.4,1.5c1.1,1.3,1.9,2.8,2.4,4.5c0.3,2.5,0.1,5.1-0.6,7.5l-0.4,1.3
		c-0.2,0.9-0.9,2.2-1.9,4.3c-1.1,2.2-1.1,2.4-1.1,2.6c0.4,1.3,3,2.2,6.9,2.6C31.4,54.4,32.7,54.4,34.4,54.2 M16.4,46.9
		c1.5-0.2,2.8-0.6,3.2-1.3v-0.2l-0.2-0.6C17.9,42,17,39.6,17,37.3c0-1.3,0.2-1.9,0.6-3c0.6-1.1,0.9-1.4,1.9-1.9
		c0.4-0.2,0.9-0.3,1.2-0.4c0.6-0.2,1.2-0.5,1.2-0.5s-0.4-0.1-0.8-0.3c-1.3-0.4-1.8-0.8-2.8-1.4c-3.4-1.9-5.6-3.9-7.7-6.7
		c-0.6-1.1-1-1.6-1.3-2L9,20.6c-0.2-0.2-8.8-0.2-9,0c-0.1,3,1.3,5.7,3.2,8C5.5,31.2,7.3,32,9,32.4c1.5,0.4,1.7,0.6,2.4,1.5
		c0.4,1.1,0.6,1.7,0.6,3c0.2,1.9-0.4,3.9-1.7,6.7c-0.4,0.9-0.9,1.7-0.9,1.7c0,0.2,0.4,0.6,0.9,0.9C11.4,46.9,14.4,47.3,16.4,46.9
		 M51.5,46.9c1.7-0.2,2.8-0.6,3-1.3c0-0.2,0-0.4-0.6-1.7c-1.4-2.7-2.3-5.8-1.5-8.8c0.4-1.2,1-2.5,2.4-2.7c2.2-0.6,3.9-1.6,6-3.8
		c1.3-1.3,2.5-3.5,2.8-4.7c0.3-1,0.6-2.2,0.4-3.2c-0.2-0.2-9-0.2-9.3,0c0,0-0.2,0.2-0.4,0.4c-0.2,0.6-1.1,1.9-1.7,2.6
		c-0.9,1.1-3.4,3.7-4.3,4.3c-1.6,1.6-4.6,2.7-6.2,3.4c0.2,0.2,1.3,0.9,2.2,1.1c1.7,0.6,1.7,0.6,2.4,1.7c0.4,1.1,0.6,1.7,0.6,3
		c0.1,3-1.4,5.8-2.6,8.2C46.1,47.1,49.3,47,51.5,46.9z"/>
</g>
</svg>
