<?xml version="1.0" encoding="utf-8"?>
<!-- Generator: Adobe Illustrator 16.0.0, SVG Export Plug-In . SVG Version: 6.00 Build 0)  -->
<!DOCTYPE svg PUBLIC "-//W3C//DTD SVG 1.1//EN" "http://www.w3.org/Graphics/SVG/1.1/DTD/svg11.dtd">
<svg version="1.1" id="Ebene_1" xmlns="http://www.w3.org/2000/svg" xmlns:xlink="http://www.w3.org/1999/xlink" x="0px" y="0px"
	 width="93.58px" height="93.58px" viewBox="0 0 93.58 93.58" enable-background="new 0 0 93.58 93.58" xml:space="preserve">
<circle fill="none" stroke="#FFFFFF" stroke-width="2.8347" stroke-miterlimit="10" cx="46.848" cy="46.85" r="45.374"/>
<g>
	<g>
		<g>
			<g>
				<polygon fill="#FFFFFF" points="37.811,73.049 35.477,73.049 35.477,57.893 70.041,57.893 70.041,37.458 35.477,37.458 
					35.477,15.992 37.811,15.992 37.811,35.125 72.373,35.125 72.373,60.226 37.811,60.226 				"/>
			</g>
			<g>
				<g>
					<path fill="#FFFFFF" d="M31.688,71.039c-0.107-0.2-0.011-0.361,0.213-0.361h9.486c0.224,0,0.321,0.161,0.213,0.361
						l-4.756,8.556c-0.108,0.2-0.292,0.2-0.4,0L31.688,71.039z"/>
				</g>
			</g>
		</g>
	</g>
	<g>
		<rect x="35.477" y="18.216" fill="#FFFFFF" width="2.4" height="42.01"/>
	</g>
</g>
</svg>
