<?xml version="1.0" encoding="utf-8"?>
<!-- Generator: Adobe Illustrator 16.0.0, SVG Export Plug-In . SVG Version: 6.00 Build 0)  -->
<!DOCTYPE svg PUBLIC "-//W3C//DTD SVG 1.1//EN" "http://www.w3.org/Graphics/SVG/1.1/DTD/svg11.dtd">
<svg version="1.1" id="Ebene_1" xmlns="http://www.w3.org/2000/svg" xmlns:xlink="http://www.w3.org/1999/xlink" x="0px" y="0px"
	 width="93.58px" height="93.58px" viewBox="0 0 93.58 93.58" enable-background="new 0 0 93.58 93.58" xml:space="preserve">
<g>
	<g>
		<circle fill="none" stroke="#FEB672" stroke-width="2.8347" stroke-miterlimit="10" cx="46.88" cy="46.789" r="45.374"/>
	</g>
	<g>
		<g>
			<g>
				<g>
					<polygon fill="#FEB672" points="39.973,72.504 37.639,72.504 37.639,57.348 72.203,57.348 72.203,36.913 37.639,36.913 
						37.639,15.447 39.973,15.447 39.973,34.58 74.535,34.58 74.535,59.681 39.973,59.681 					"/>
				</g>
				<g>
					<g>
						<path fill="#FEB672" d="M33.85,70.494c-0.107-0.199-0.01-0.361,0.214-0.361h9.485c0.224,0,0.321,0.162,0.213,0.361
							l-4.756,8.556c-0.108,0.2-0.291,0.2-0.399,0L33.85,70.494z"/>
					</g>
				</g>
			</g>
		</g>
		<g>
			<rect x="37.639" y="17.671" fill="#FEB672" width="2.399" height="42.01"/>
		</g>
	</g>
</g>
</svg>
