<?xml version="1.0" encoding="UTF-8"?>
<svg width="387px" height="184px" viewBox="0 0 387 184" version="1.1" xmlns="http://www.w3.org/2000/svg" xmlns:xlink="http://www.w3.org/1999/xlink">
    <!-- Generator: Sketch 43.2 (39069) - http://www.bohemiancoding.com/sketch -->
    <title>banner</title>
    <desc>Created with Sketch.</desc>
    <defs></defs>
    <g id="Page-1" stroke="none" stroke-width="1" fill="none" fill-rule="evenodd">
        <g id="banner">
            <polyline id="Fill-1" fill="#D2D2CC" points="19.85 11.665 29.647 12.827 29.677 12.578 19.879 11.416 19.85 11.665"></polyline>
            <polyline id="Fill-2" fill="#D2D2CC" points="19.742 11.566 23.459 29.282 23.703 29.231 19.987 11.515 19.742 11.566"></polyline>
            <polyline id="Fill-3" fill="#D2D2CC" points="23.598 29.381 53.328 25.326 53.294 25.079 23.564 29.133 23.598 29.381"></polyline>
            <polyline id="Fill-4" fill="#D2D2CC" points="53.419 25.265 66.595 2.292 66.378 2.167 53.203 25.14 53.419 25.265"></polyline>
            <polyline id="Fill-5" fill="#D2D2CC" points="66.452 2.109 29.628 12.582 29.697 12.823 66.521 2.35 66.452 2.109"></polyline>
            <polyline id="Fill-6" fill="#D2D2CC" points="29.538 12.719 34.606 50.895 34.854 50.863 29.786 12.686 29.538 12.719"></polyline>
            <polyline id="Fill-7" fill="#D2D2CC" points="5.735 50.988 53.37 25.313 53.251 25.093 5.617 50.768 5.735 50.988"></polyline>
            <polyline id="Fill-8" fill="#D2D2CC" points="53.189 25.23 62.311 65.433 62.555 65.378 53.433 25.175 53.189 25.23"></polyline>
            <polyline id="Fill-9" fill="#D2D2CC" points="62.491 65.295 34.788 50.768 34.671 50.989 62.375 65.516 62.491 65.295"></polyline>
            <polyline id="Fill-10" fill="#D2D2CC" points="34.612 50.835 22.451 83.605 22.685 83.692 34.847 50.922 34.612 50.835"></polyline>
            <polyline id="Fill-11" fill="#D2D2CC" points="22.678 83.591 5.787 50.822 5.565 50.936 22.456 83.706 22.678 83.591"></polyline>
            <polyline id="Fill-12" fill="#D2D2CC" points="5.551 50.871 2.173 106.411 2.423 106.427 5.801 50.886 5.551 50.871"></polyline>
            <polyline id="Fill-13" fill="#D2D2CC" points="2.391 106.502 22.661 83.732 22.474 83.565 2.204 106.336 2.391 106.502"></polyline>
            <polyline id="Fill-14" fill="#D2D2CC" points="22.478 83.736 42.41 104.007 42.589 103.831 22.657 83.561 22.478 83.736"></polyline>
            <polyline id="Fill-15" fill="#D2D2CC" points="42.611 103.976 62.543 65.462 62.321 65.347 42.389 103.861 42.611 103.976"></polyline>
            <polyline id="Fill-16" fill="#D2D2CC" points="62.531 65.483 80.773 42.51 80.577 42.355 62.335 65.327 62.531 65.483"></polyline>
            <polyline id="Fill-17" fill="#D2D2CC" points="80.588 42.522 95.792 57.387 95.966 57.208 80.763 42.343 80.588 42.522"></polyline>
            <polyline id="Fill-18" fill="#D2D2CC" points="95.849 57.176 62.403 65.284 62.462 65.527 95.908 57.419 95.849 57.176"></polyline>
            <polyline id="Fill-19" fill="#D2D2CC" points="62.313 65.44 73.461 103.954 73.702 103.884 62.553 65.37 62.313 65.44"></polyline>
            <polyline id="Fill-20" fill="#D2D2CC" points="73.694 105.471 95.991 57.349 95.764 57.244 73.468 105.366 73.694 105.471"></polyline>
            <polyline id="Fill-21" fill="#D2D2CC" points="60.816 113.142 73.654 104.021 73.509 103.817 60.671 112.938 60.816 113.142"></polyline>
            <polyline id="Fill-22" fill="#D2D2CC" points="60.799 112.928 42.556 103.807 42.444 104.031 60.687 113.152 60.799 112.928"></polyline>
            <polyline id="Fill-23" fill="#D2D2CC" points="42.624 103.901 34.854 50.86 34.606 50.896 42.376 103.937 42.624 103.901"></polyline>
            <polyline id="Fill-24" fill="#D2D2CC" points="34.629 50.952 73.48 103.993 73.681 103.845 34.83 50.805 34.629 50.952"></polyline>
            <polyline id="Fill-25" fill="#D2D2CC" points="42.407 103.835 14.366 134.916 14.552 135.084 42.593 104.003 42.407 103.835"></polyline>
            <polyline id="Fill-26" fill="#D2D2CC" points="14.575 134.951 2.412 106.37 2.182 106.468 14.344 135.049 14.575 134.951"></polyline>
            <polyline id="Fill-27" fill="#D2D2CC" points="2.246 106.533 65.422 135.114 65.525 134.886 2.349 106.305 2.246 106.533"></polyline>
            <polyline id="Fill-28" fill="#D2D2CC" points="65.574 134.926 42.601 103.845 42.4 103.993 65.373 135.074 65.574 134.926"></polyline>
            <polyline id="Fill-29" fill="#D2D2CC" points="14.513 135.113 60.797 113.154 60.69 112.928 14.406 134.887 14.513 135.113"></polyline>
            <polyline id="Fill-30" fill="#D2D2CC" points="60.646 112.962 18.078 166.003 18.273 166.159 60.841 113.118 60.646 112.962"></polyline>
            <polyline id="Fill-31" fill="#D2D2CC" points="18.3 166.066 14.584 134.985 14.335 135.015 18.052 166.096 18.3 166.066"></polyline>
            <polygon id="Fill-32" fill="#D2D2CC" points="14.46 135.125 65.474 135.125 65.474 134.875 14.46 134.875"></polygon>
            <polyline id="Fill-33" fill="#D2D2CC" points="65.354 134.964 51.165 181.586 51.404 181.658 65.593 135.036 65.354 134.964"></polyline>
            <polyline id="Fill-34" fill="#D2D2CC" points="51.337 181.509 18.229 165.968 18.123 166.194 51.231 181.735 51.337 181.509"></polyline>
            <polyline id="Fill-35" fill="#D2D2CC" points="51.315 181.743 87.801 172.284 87.739 172.042 51.252 181.501 51.315 181.743"></polyline>
            <polyline id="Fill-36" fill="#D2D2CC" points="87.885 172.213 102.749 139.106 102.521 139.003 87.657 172.111 87.885 172.213"></polyline>
            <polyline id="Fill-37" fill="#D2D2CC" points="102.701 138.947 60.809 112.934 60.677 113.146 102.569 139.16 102.701 138.947"></polyline>
            <polyline id="Fill-38" fill="#D2D2CC" points="65.595 134.974 60.865 113.015 60.621 113.067 65.351 135.026 65.595 134.974"></polyline>
            <polyline id="Fill-39" fill="#D2D2CC" points="65.46 135.124 102.621 139.178 102.648 138.929 65.487 134.876 65.46 135.124"></polyline>
            <polyline id="Fill-40" fill="#D2D2CC" points="102.757 139.082 110.43 106.448 110.186 106.39 102.514 139.025 102.757 139.082"></polyline>
            <polyline id="Fill-41" fill="#D2D2CC" points="110.316 106.294 73.589 103.794 73.572 104.044 110.299 106.544 110.316 106.294"></polyline>
            <polyline id="Fill-42" fill="#D2D2CC" points="60.76 113.164 110.325 106.543 110.292 106.295 60.727 112.916 60.76 113.164"></polyline>
            <polyline id="Fill-43" fill="#D2D2CC" points="73.485 103.999 102.539 139.133 102.732 138.974 73.677 103.839 73.485 103.999"></polyline>
            <polyline id="Fill-44" fill="#D2D2CC" points="111.73 76.21 110.183 106.413 110.432 106.425 111.979 76.223 111.73 76.21"></polyline>
            <polyline id="Fill-45" fill="#D2D2CC" points="73.657 105.518 111.93 76.315 111.778 76.116 73.505 105.32 73.657 105.518"></polyline>
            <polyline id="Fill-46" fill="#D2D2CC" points="95.784 57.38 111.76 75.623 111.949 75.459 95.972 57.215 95.784 57.38"></polyline>
            <polyline id="Fill-47" fill="#D2D2CC" points="66.422 2.336 99.101 22.273 99.232 22.06 66.552 2.123 66.422 2.336"></polyline>
            <polyline id="Fill-48" fill="#D2D2CC" points="99.074 22.082 80.583 42.348 80.768 42.517 99.259 22.251 99.074 22.082"></polyline>
            <polyline id="Fill-49" fill="#D2D2CC" points="80.742 42.327 53.378 25.097 53.244 25.308 80.609 42.538 80.742 42.327"></polyline>
            <polyline id="Fill-50" fill="#D2D2CC" points="52.477 25.327 99.177 21.291 99.156 21.042 52.455 25.078 52.477 25.327"></polyline>
            <polyline id="Fill-51" fill="#D2D2CC" points="99.084 21.26 117.417 37.427 117.583 37.24 99.249 21.073 99.084 21.26"></polyline>
            <polyline id="Fill-52" fill="#D2D2CC" points="117.415 37.242 95.794 57.205 95.964 57.389 117.585 37.425 117.415 37.242"></polyline>
            <polyline id="Fill-53" fill="#D2D2CC" points="80.692 42.556 117.517 37.457 117.483 37.21 80.658 42.309 80.692 42.556"></polyline>
            <polyline id="Fill-54" fill="#D2D2CC" points="34.73 50.754 5 50.753 5 51.003 34.73 51.004 34.73 50.754"></polyline>
            <polyline id="Fill-55" fill="#D2D2CC" points="23.485 29.177 5.579 50.799 5.772 50.958 23.677 29.336 23.485 29.177"></polyline>
            <polyline id="Fill-56" fill="#D2D2CC" points="117.376 37.316 111.73 77.381 111.978 77.416 117.624 37.351 117.376 37.316"></polyline>
            <polyline id="Fill-57" fill="#D2D2CC" points="111.907 76.33 154.386 56.613 154.281 56.387 111.802 76.103 111.907 76.33"></polyline>
            <polyline id="Fill-58" fill="#D2D2CC" points="154.227 56.566 169.727 81.424 169.94 81.292 154.44 56.434 154.227 56.566"></polyline>
            <polyline id="Fill-59" fill="#D2D2CC" points="169.756 80.569 145.59 99.569 145.744 99.765 169.911 80.765 169.756 80.569"></polyline>
            <polyline id="Fill-60" fill="#D2D2CC" points="145.738 99.564 111.926 76.114 111.783 76.32 145.596 99.77 145.738 99.564"></polyline>
            <polyline id="Fill-61" fill="#D2D2CC" points="111.845 76.341 169.824 80.792 169.843 80.542 111.864 76.092 111.845 76.341"></polyline>
            <polyline id="Fill-62" fill="#D2D2CC" points="154.24 56.417 110.214 106.336 110.402 106.502 154.427 56.583 154.24 56.417"></polyline>
            <polyline id="Fill-63" fill="#D2D2CC" points="110.238 106.522 140.774 127.27 140.914 127.064 110.378 106.316 110.238 106.522"></polyline>
            <polyline id="Fill-64" fill="#D2D2CC" points="102.672 139.174 140.881 127.286 140.807 127.048 102.598 138.935 102.672 139.174"></polyline>
            <polyline id="Fill-65" fill="#D2D2CC" points="140.826 127.291 174.649 132.291 174.685 132.043 140.862 127.043 140.826 127.291"></polyline>
            <polyline id="Fill-66" fill="#D2D2CC" points="174.76 132.084 145.76 99.584 145.574 99.75 174.574 132.25 174.76 132.084"></polyline>
            <polyline id="Fill-67" fill="#D2D2CC" points="110.332 106.542 145.69 99.79 145.644 99.544 110.285 106.296 110.332 106.542"></polyline>
            <polyline id="Fill-68" fill="#D2D2CC" points="145.544 99.645 140.721 127.145 140.967 127.189 145.79 99.689 145.544 99.645"></polyline>
            <polyline id="Fill-69" fill="#D2D2CC" points="102.534 139.128 120.232 163.74 120.435 163.594 102.737 138.982 102.534 139.128"></polyline>
            <polyline id="Fill-70" fill="#D2D2CC" points="120.365 163.788 151.531 155.729 151.469 155.487 120.302 163.546 120.365 163.788"></polyline>
            <polyline id="Fill-71" fill="#D2D2CC" points="151.617 155.564 140.961 127.123 140.727 127.211 151.383 155.652 151.617 155.564"></polyline>
            <polyline id="Fill-72" fill="#D2D2CC" points="140.735 127.106 120.225 163.606 120.442 163.728 140.953 127.228 140.735 127.106"></polyline>
            <polyline id="Fill-73" fill="#D2D2CC" points="102.595 139.173 151.46 155.727 151.54 155.49 102.675 138.936 102.595 139.173"></polyline>
            <polyline id="Fill-74" fill="#D2D2CC" points="151.388 155.553 143.143 172.107 143.367 172.219 151.612 155.664 151.388 155.553"></polyline>
            <polyline id="Fill-75" fill="#D2D2CC" points="143.299 172.046 120.377 163.55 120.29 163.784 143.212 172.28 143.299 172.046"></polyline>
            <polyline id="Fill-76" fill="#D2D2CC" points="87.802 172.284 120.365 163.788 120.302 163.546 87.739 172.042 87.802 172.284"></polyline>
            <polyline id="Fill-77" fill="#D2D2CC" points="151.4 155.684 170.4 180.742 170.6 180.591 151.6 155.533 151.4 155.684"></polyline>
            <polyline id="Fill-78" fill="#D2D2CC" points="171.37 180.547 143.292 172.043 143.219 172.283 171.297 180.787 171.37 180.547"></polyline>
            <polyline id="Fill-79" fill="#D2D2CC" points="143.296 172.281 202.04 152.285 201.96 152.049 143.215 172.045 143.296 172.281"></polyline>
            <polyline id="Fill-80" fill="#D2D2CC" points="200.726 152.232 212.393 171.232 212.606 171.102 200.94 152.102 200.726 152.232"></polyline>
            <polyline id="Fill-81" fill="#D2D2CC" points="212.472 171.045 170.472 180.545 170.528 180.789 212.528 171.289 212.472 171.045"></polyline>
            <polyline id="Fill-82" fill="#D2D2CC" points="151.508 155.733 202.008 152.292 201.991 152.042 151.491 155.484 151.508 155.733"></polyline>
            <polyline id="Fill-83" fill="#D2D2CC" points="151.469 155.73 212.469 171.288 212.531 171.046 151.531 155.487 151.469 155.73"></polyline>
            <polyline id="Fill-84" fill="#D2D2CC" points="212.579 171.264 245.246 144.764 245.088 144.57 212.421 171.07 212.579 171.264"></polyline>
            <polyline id="Fill-85" fill="#D2D2CC" points="245.224 144.556 210.89 127.056 210.776 127.278 245.11 144.778 245.224 144.556"></polyline>
            <polyline id="Fill-86" fill="#D2D2CC" points="210.715 126.007 201.882 152.127 202.118 152.207 210.951 126.087 210.715 126.007"></polyline>
            <polyline id="Fill-87" fill="#D2D2CC" points="202.021 152.29 245.188 144.79 245.146 144.544 201.979 152.044 202.021 152.29"></polyline>
            <polyline id="Fill-88" fill="#D2D2CC" points="245.189 144.544 174.689 132.044 174.645 132.29 245.145 144.79 245.189 144.544"></polyline>
            <polyline id="Fill-89" fill="#D2D2CC" points="151.591 155.694 173.918 132.129 173.736 131.957 151.409 155.522 151.591 155.694"></polyline>
            <polyline id="Fill-90" fill="#D2D2CC" points="151.556 156.779 210.889 127.279 210.777 127.055 151.444 156.555 151.556 156.779"></polyline>
            <polyline id="Fill-91" fill="#D2D2CC" points="145.618 99.782 210.784 127.282 210.882 127.052 145.716 99.552 145.618 99.782"></polyline>
            <polyline id="Fill-92" fill="#D2D2CC" points="194.888 88.944 173.715 131.988 173.939 132.098 195.112 89.055 194.888 88.944"></polyline>
            <polyline id="Fill-93" fill="#D2D2CC" points="169.794 80.786 194.961 89.118 195.039 88.881 169.873 80.548 169.794 80.786"></polyline>
            <polyline id="Fill-94" fill="#D2D2CC" points="145.693 99.789 195.859 89.122 195.807 88.877 145.641 99.545 145.693 99.789"></polyline>
            <polyline id="Fill-95" fill="#D2D2CC" points="195.717 89.045 210.717 127.213 210.949 127.121 195.949 88.954 195.717 89.045"></polyline>
            <polyline id="Fill-96" fill="#D2D2CC" points="210.936 127.237 234.27 93.071 234.064 92.929 210.73 127.096 210.936 127.237"></polyline>
            <polyline id="Fill-97" fill="#D2D2CC" points="234.092 93.1 257.092 110.184 257.242 109.984 234.242 92.9 234.092 93.1"></polyline>
            <polyline id="Fill-98" fill="#D2D2CC" points="257.049 110.043 245.049 144.626 245.285 144.708 257.285 110.125 257.049 110.043"></polyline>
            <polyline id="Fill-99" fill="#D2D2CC" points="210.874 126.165 257.208 110.202 257.126 109.966 210.792 125.929 210.874 126.165"></polyline>
            <polyline id="Fill-100" fill="#D2D2CC" points="257.207 109.966 195.04 88.881 194.96 89.118 257.127 110.202 257.207 109.966"></polyline>
            <polyline id="Fill-101" fill="#D2D2CC" points="195.079 89.096 232.247 58.43 232.087 58.237 194.92 88.903 195.079 89.096"></polyline>
            <polyline id="Fill-102" fill="#D2D2CC" points="232.042 58.34 234.042 93.007 234.292 92.993 232.292 58.326 232.042 58.34"></polyline>
            <polyline id="Fill-103" fill="#D2D2CC" points="234.18 92.876 195.013 88.875 194.987 89.124 234.154 93.124 234.18 92.876"></polyline>
            <polyline id="Fill-104" fill="#D2D2CC" points="195.02 89.123 267.187 77.522 267.147 77.275 194.98 88.876 195.02 89.123"></polyline>
            <polyline id="Fill-105" fill="#D2D2CC" points="267.047 77.362 257.047 110.047 257.286 110.121 267.287 77.435 267.047 77.362"></polyline>
            <polyline id="Fill-106" fill="#D2D2CC" points="257.28 110.03 232.28 58.279 232.054 58.387 257.054 110.138 257.28 110.03"></polyline>
            <polyline id="Fill-107" fill="#D2D2CC" points="195.958 88.997 195.328 52.755 195.078 52.759 195.708 89.002 195.958 88.997"></polyline>
            <polyline id="Fill-108" fill="#D2D2CC" points="195.111 52.673 169.741 80.583 169.926 80.751 195.296 52.841 195.111 52.673"></polyline>
            <polyline id="Fill-109" fill="#D2D2CC" points="154.341 56.625 195.525 54.124 195.51 53.875 154.326 56.375 154.341 56.625"></polyline>
            <polyline id="Fill-110" fill="#D2D2CC" points="195.503 54.124 232.152 58.457 232.182 58.209 195.532 53.875 195.503 54.124"></polyline>
            <polyline id="Fill-111" fill="#D2D2CC" points="219.715 24.208 232.049 58.376 232.285 58.291 219.951 24.124 219.715 24.208"></polyline>
            <polyline id="Fill-112" fill="#D2D2CC" points="219.736 24.087 195.421 53.921 195.614 54.078 219.93 24.245 219.736 24.087"></polyline>
            <polyline id="Fill-113" fill="#D2D2CC" points="195.631 53.947 179.78 20.113 179.553 20.219 195.404 54.052 195.631 53.947"></polyline>
            <polyline id="Fill-114" fill="#D2D2CC" points="179.564 20.095 154.231 56.428 154.436 56.572 179.769 20.237 179.564 20.095"></polyline>
            <polyline id="Fill-115" fill="#D2D2CC" points="154.389 56.612 219.888 24.278 219.778 24.054 154.278 56.388 154.389 56.612"></polyline>
            <polyline id="Fill-116" fill="#D2D2CC" points="219.845 24.042 179.679 20.042 179.654 20.29 219.821 24.29 219.845 24.042"></polyline>
            <polyline id="Fill-117" fill="#D2D2CC" points="179.755 20.077 171.755 12.11 171.578 12.287 179.578 20.255 179.755 20.077"></polyline>
            <polyline id="Fill-118" fill="#D2D2CC" points="171.55 12.153 154.217 56.454 154.45 56.546 171.783 12.244 171.55 12.153"></polyline>
            <polyline id="Fill-119" fill="#D2D2CC" points="135.551 12.247 154.218 56.548 154.449 56.451 135.782 12.15 135.551 12.247"></polyline>
            <polyline id="Fill-120" fill="#D2D2CC" points="135.549 12.155 111.737 76.173 111.972 76.26 135.784 12.242 135.549 12.155"></polyline>
            <polyline id="Fill-121" fill="#D2D2CC" points="117.442 37.444 154.276 56.611 154.391 56.389 117.558 37.223 117.442 37.444"></polyline>
            <polyline id="Fill-122" fill="#D2D2CC" points="117.6 37.408 135.356 13.378 135.155 13.229 117.399 37.259 117.6 37.408"></polyline>
            <polyline id="Fill-123" fill="#D2D2CC" points="135.225 13.182 99.137 22.045 99.196 22.288 135.285 13.425 135.225 13.182"></polyline>
            <polygon id="Fill-124" fill="#D2D2CC" points="135.667 12.323 170.75 12.323 170.75 12.073 135.667 12.073"></polygon>
            <polyline id="Fill-125" fill="#D2D2CC" points="170.699 12.084 116.566 36.441 116.668 36.669 170.801 12.312 170.699 12.084"></polyline>
            <polyline id="Fill-126" fill="#D2D2CC" points="117.533 37.454 179.7 20.286 179.633 20.046 117.467 37.213 117.533 37.454"></polyline>
            <polyline id="Fill-127" fill="#D2D2CC" points="218.985 25.386 258.388 6.446 258.28 6.22 218.876 25.16 218.985 25.386"></polyline>
            <polyline id="Fill-128" fill="#D2D2CC" points="258.209 6.344 261.294 41.24 261.543 41.219 258.458 6.322 258.209 6.344"></polyline>
            <polyline id="Fill-129" fill="#D2D2CC" points="261.392 40.447 286.387 28.863 286.281 28.637 261.287 40.219 261.392 40.447"></polyline>
            <polyline id="Fill-130" fill="#D2D2CC" points="286.426 28.084 305.092 7.584 304.908 7.415 286.242 27.915 286.426 28.084"></polyline>
            <polyline id="Fill-131" fill="#D2D2CC" points="304.882 7.542 319.716 48.875 319.952 48.791 305.118 7.457 304.882 7.542"></polyline>
            <polyline id="Fill-132" fill="#D2D2CC" points="319.949 48.882 334.615 14.382 334.385 14.284 319.719 48.784 319.949 48.882"></polyline>
            <polyline id="Fill-133" fill="#D2D2CC" points="334.464 14.213 286.298 28.63 286.37 28.87 334.536 14.453 334.464 14.213"></polyline>
            <polyline id="Fill-134" fill="#D2D2CC" points="286.217 28.705 267.05 78.397 267.284 78.487 286.451 28.795 286.217 28.705"></polyline>
            <polygon id="Fill-135" fill="#D2D2CC" points="267.167 78.567 283.834 78.567 283.834 78.317 267.167 78.317"></polygon>
            <polyline id="Fill-136" fill="#D2D2CC" points="283.942 78.378 261.448 40.269 261.232 40.397 283.726 78.505 283.942 78.378"></polyline>
            <polyline id="Fill-137" fill="#D2D2CC" points="261.352 38.977 231.017 58.228 231.151 58.439 261.486 39.189 261.352 38.977"></polyline>
            <polyline id="Fill-138" fill="#D2D2CC" points="231.026 58.444 267.109 77.509 267.225 77.288 231.142 58.223 231.026 58.444"></polyline>
            <polyline id="Fill-139" fill="#D2D2CC" points="261.385 40.216 219.878 24.049 219.788 24.283 261.294 40.449 261.385 40.216"></polyline>
            <polyline id="Fill-140" fill="#D2D2CC" points="258.222 6.278 232.055 59.332 232.279 59.443 258.446 6.388 258.222 6.278"></polyline>
            <polyline id="Fill-141" fill="#D2D2CC" points="232.182 59.512 319.849 48.957 319.819 48.709 232.152 59.264 232.182 59.512"></polyline>
            <polyline id="Fill-142" fill="#D2D2CC" points="319.718 48.785 308.884 74.952 309.115 75.047 319.949 48.881 319.718 48.785"></polyline>
            <polyline id="Fill-143" fill="#D2D2CC" points="308.983 74.876 283.817 78.318 283.851 78.566 309.017 75.123 308.983 74.876"></polyline>
            <polyline id="Fill-144" fill="#D2D2CC" points="309.113 76.164 286.447 27.946 286.221 28.053 308.887 76.27 309.113 76.164"></polyline>
            <polyline id="Fill-145" fill="#D2D2CC" points="258.257 6.432 286.257 28.098 286.41 27.901 258.41 6.234 258.257 6.432"></polyline>
            <polyline id="Fill-146" fill="#D2D2CC" points="258.331 6.458 304.997 7.624 305.003 7.375 258.337 6.208 258.331 6.458"></polyline>
            <polyline id="Fill-147" fill="#D2D2CC" points="304.925 7.4 261.265 40.233 261.415 40.433 305.075 7.599 304.925 7.4"></polyline>
            <polyline id="Fill-148" fill="#D2D2CC" points="345.601 52.002 308.934 74.894 309.066 75.106 345.733 52.214 345.601 52.002"></polyline>
            <polyline id="Fill-149" fill="#D2D2CC" points="308.937 75.108 339.937 93.108 340.063 92.892 309.063 74.891 308.937 75.108"></polyline>
            <polyline id="Fill-150" fill="#D2D2CC" points="339.97 92.879 293.303 104.61 293.363 104.853 340.03 93.121 339.97 92.879"></polyline>
            <polyline id="Fill-151" fill="#D2D2CC" points="294.445 105.722 309.112 76.273 308.888 76.161 294.221 105.61 294.445 105.722"></polyline>
            <polyline id="Fill-152" fill="#D2D2CC" points="308.932 76.112 257.099 109.979 257.235 110.189 309.068 76.321 308.932 76.112"></polyline>
            <polyline id="Fill-153" fill="#D2D2CC" points="267.077 77.485 294.243 105.753 294.423 105.579 267.257 77.312 267.077 77.485"></polyline>
            <polyline id="Fill-154" fill="#D2D2CC" points="294.45 105.621 283.951 78.397 283.717 78.487 294.216 105.711 294.45 105.621"></polyline>
            <polyline id="Fill-155" fill="#D2D2CC" points="257.182 110.208 294.348 105.79 294.318 105.542 257.152 109.96 257.182 110.208"></polyline>
            <polyline id="Fill-156" fill="#D2D2CC" points="294.21 105.644 288.044 140.644 288.29 140.688 294.456 105.688 294.21 105.644"></polyline>
            <polyline id="Fill-157" fill="#D2D2CC" points="288.155 140.542 245.155 144.543 245.179 144.791 288.179 140.79 288.155 140.542"></polyline>
            <polyline id="Fill-158" fill="#D2D2CC" points="257.079 110.173 288.079 140.755 288.255 140.577 257.255 109.995 257.079 110.173"></polyline>
            <polyline id="Fill-159" fill="#D2D2CC" points="245.245 144.765 294.411 105.764 294.255 105.568 245.089 144.569 245.245 144.765"></polyline>
            <polyline id="Fill-160" fill="#D2D2CC" points="294.241 105.751 319.742 133.418 319.926 133.248 294.425 105.581 294.241 105.751"></polyline>
            <polyline id="Fill-161" fill="#D2D2CC" points="319.887 133.446 332.553 127.488 332.447 127.262 319.781 133.22 319.887 133.446"></polyline>
            <polyline id="Fill-162" fill="#D2D2CC" points="332.622 127.402 340.122 93.027 339.878 92.973 332.378 127.348 332.622 127.402"></polyline>
            <polyline id="Fill-163" fill="#D2D2CC" points="294.313 105.789 357.313 116.123 357.353 115.877 294.353 105.543 294.313 105.789"></polyline>
            <polyline id="Fill-164" fill="#D2D2CC" points="357.444 116.057 368.444 94.39 368.222 94.276 357.222 115.943 357.444 116.057"></polyline>
            <polyline id="Fill-165" fill="#D2D2CC" points="368.339 94.208 340.006 92.875 339.994 93.125 368.327 94.458 368.339 94.208"></polyline>
            <polyline id="Fill-166" fill="#D2D2CC" points="339.9 93.075 357.233 116.075 357.433 115.925 340.1 92.925 339.9 93.075"></polyline>
            <polyline id="Fill-167" fill="#D2D2CC" points="368.27 94.225 288.104 140.558 288.23 140.774 368.395 94.441 368.27 94.225"></polyline>
            <polyline id="Fill-168" fill="#D2D2CC" points="288.107 140.776 320.94 158.776 321.06 158.556 288.227 140.556 288.107 140.776"></polyline>
            <polyline id="Fill-169" fill="#D2D2CC" points="321.125 158.66 319.959 133.327 319.709 133.339 320.875 158.672 321.125 158.66"></polyline>
            <polyline id="Fill-170" fill="#D2D2CC" points="332.382 127.333 320.76 160.107 320.996 160.19 332.618 127.417 332.382 127.333"></polyline>
            <polyline id="Fill-171" fill="#D2D2CC" points="321.025 158.788 353.025 152.289 352.975 152.044 320.975 158.544 321.025 158.788"></polyline>
            <polyline id="Fill-172" fill="#D2D2CC" points="352.877 152.144 347.71 179.31 347.956 179.356 353.123 152.19 352.877 152.144"></polyline>
            <polygon id="Fill-173" fill="#D2D2CC" points="303.5 179.458 347.833 179.458 347.833 179.208 303.5 179.208"></polygon>
            <polyline id="Fill-174" fill="#D2D2CC" points="303.595 179.414 321.095 158.747 320.905 158.585 303.405 179.252 303.595 179.414"></polyline>
            <polyline id="Fill-175" fill="#D2D2CC" points="288.056 140.608 270.889 173.275 271.111 173.391 288.278 140.724 288.056 140.608"></polyline>
            <polyline id="Fill-176" fill="#D2D2CC" points="270.979 172.456 304.563 178.177 304.605 177.93 271.021 172.21 270.979 172.456"></polyline>
            <polyline id="Fill-177" fill="#D2D2CC" points="245.076 144.752 270.909 172.418 271.091 172.248 245.258 144.582 245.076 144.752"></polyline>
            <polyline id="Fill-178" fill="#D2D2CC" points="212.547 171.283 289.662 139.945 289.568 139.713 212.453 171.051 212.547 171.283"></polyline>
            <polyline id="Fill-179" fill="#D2D2CC" points="271.033 172.454 321.033 158.787 320.967 158.545 270.967 172.212 271.033 172.454"></polyline>
            <polyline id="Fill-180" fill="#D2D2CC" points="288.051 140.713 303.384 178.101 303.616 178.006 288.283 140.619 288.051 140.713"></polyline>
            <polyline id="Fill-181" fill="#D2D2CC" points="303.556 178.165 352.861 153.304 352.748 153.081 303.444 177.942 303.556 178.165"></polyline>
            <polyline id="Fill-182" fill="#D2D2CC" points="320.922 158.764 348.588 180.706 348.744 180.51 321.078 158.568 320.922 158.764"></polyline>
            <polyline id="Fill-183" fill="#D2D2CC" points="347.887 179.446 376.554 165.613 376.446 165.387 347.779 179.22 347.887 179.446"></polyline>
            <polyline id="Fill-184" fill="#D2D2CC" points="375.375 164.341 376.375 179.341 376.625 179.325 375.625 164.325 375.375 164.341"></polyline>
            <polyline id="Fill-185" fill="#D2D2CC" points="376.593 179.249 352.897 153.108 352.712 153.276 376.407 179.417 376.593 179.249"></polyline>
            <polyline id="Fill-186" fill="#D2D2CC" points="353.069 152.271 382.097 132.928 381.958 132.72 352.931 152.063 353.069 152.271"></polyline>
            <polyline id="Fill-187" fill="#D2D2CC" points="382.102 134.4 357.408 115.9 357.258 116.1 381.952 134.6 382.102 134.4"></polyline>
            <polyline id="Fill-188" fill="#D2D2CC" points="331.429 128.017 357.385 116.114 357.281 115.886 331.325 127.79 331.429 128.017"></polyline>
            <polyline id="Fill-189" fill="#D2D2CC" points="357.209 115.985 352.876 152.152 353.124 152.182 357.457 116.015 357.209 115.985"></polyline>
            <polyline id="Fill-190" fill="#D2D2CC" points="331.36 127.291 383.441 134.208 383.473 133.96 331.393 127.043 331.36 127.291"></polyline>
            <polyline id="Fill-191" fill="#D2D2CC" points="332.404 127.455 352.904 152.247 353.096 152.087 332.596 127.295 332.404 127.455"></polyline>
            <polyline id="Fill-192" fill="#D2D2CC" points="376.558 165.389 352.862 153.081 352.747 153.303 376.442 165.611 376.558 165.389"></polyline>
            <polyline id="Fill-193" fill="#D2D2CC" points="375.622 164.36 382.149 134.527 381.905 134.473 375.378 164.306 375.622 164.36"></polyline>
            <polyline id="Fill-194" fill="#D2D2CC" points="368.215 94.373 381.909 134.54 382.146 134.46 368.451 94.293 368.215 94.373"></polyline>
            <polyline id="Fill-195" fill="#D2D2CC" points="340.124 93.017 345.791 52.126 345.543 52.091 339.876 92.983 340.124 93.017"></polyline>
            <polyline id="Fill-196" fill="#D2D2CC" points="345.624 52.226 372.791 62.034 372.875 61.798 345.709 51.991 345.624 52.226"></polyline>
            <polyline id="Fill-197" fill="#D2D2CC" points="372.709 61.904 369.555 94.321 369.804 94.345 372.957 61.928 372.709 61.904"></polyline>
            <polyline id="Fill-198" fill="#D2D2CC" points="369.788 94.271 345.776 52.047 345.558 52.17 369.571 94.395 369.788 94.271"></polyline>
            <polyline id="Fill-199" fill="#D2D2CC" points="340.086 93.091 372.919 62.007 372.747 61.825 339.914 92.909 340.086 93.091"></polyline>
            <polyline id="Fill-200" fill="#D2D2CC" points="372.808 61.794 308.975 74.877 309.025 75.122 372.858 62.038 372.808 61.794"></polyline>
            <polyline id="Fill-201" fill="#D2D2CC" points="319.818 48.957 345.651 52.232 345.683 51.984 319.85 48.709 319.818 48.957"></polyline>
            <polyline id="Fill-202" fill="#D2D2CC" points="345.768 52.182 366.268 23.855 366.066 23.708 345.566 52.035 345.768 52.182"></polyline>
            <polyline id="Fill-203" fill="#D2D2CC" points="366.111 23.893 384.445 32.972 384.555 32.748 366.222 23.669 366.111 23.893"></polyline>
            <polyline id="Fill-204" fill="#D2D2CC" points="384.384 32.814 372.717 61.869 372.949 61.962 384.616 32.907 384.384 32.814"></polyline>
            <polyline id="Fill-205" fill="#D2D2CC" points="372.956 63.533 366.29 23.761 366.044 23.802 372.71 63.574 372.956 63.533"></polyline>
            <polyline id="Fill-206" fill="#D2D2CC" points="366.203 23.661 334.536 14.213 334.464 14.453 366.131 23.901 366.203 23.661"></polyline>
            <polyline id="Fill-207" fill="#D2D2CC" points="319.893 48.943 366.226 23.891 366.107 23.671 319.775 48.723 319.893 48.943"></polyline>
            <polyline id="Fill-208" fill="#D2D2CC" points="334.38 14.368 345.547 52.144 345.787 52.073 334.62 14.298 334.38 14.368"></polyline>
            <polyline id="Fill-209" fill="#D2D2CC" points="345.723 52.22 384.555 32.972 384.444 32.748 345.611 51.996 345.723 52.22"></polyline>
            <polyline id="Fill-210" fill="#D2D2CC" points="384.588 32.772 362.921 11.078 362.745 11.254 384.411 32.949 384.588 32.772"></polyline>
            <polyline id="Fill-211" fill="#D2D2CC" points="362.712 11.198 366.046 23.813 366.288 23.749 362.954 11.134 362.712 11.198"></polyline>
            <polyline id="Fill-212" fill="#D2D2CC" points="362.819 11.042 334.486 14.209 334.514 14.457 362.847 11.29 362.819 11.042"></polyline>
            <polyline id="Fill-213" fill="#D2D2CC" points="334.528 14.211 305.028 7.378 304.972 7.621 334.472 14.455 334.528 14.211"></polyline>
            <polyline id="Fill-214" fill="#D2D2CC" points="305.169 8.266 283.258 79.706 283.497 79.78 305.408 8.339 305.169 8.266"></polyline>
            <polyline id="Fill-215" fill="#D2D2CC" points="308.885 75.048 331.262 127.952 331.492 127.855 309.115 74.951 308.885 75.048"></polyline>
            <polyline id="Fill-216" fill="#D2D2CC" points="319.806 133.211 288.139 140.544 288.195 140.788 319.862 133.455 319.806 133.211"></polyline>
            <polyline id="Fill-217" fill="#D2D2CC" points="62.407 65.528 113.18 76.338 113.232 76.093 62.459 65.284 62.407 65.528"></polyline>
            <polyline id="Fill-218" fill="#D2D2CC" points="51.364 181.718 102.715 139.151 102.555 138.958 51.204 181.526 51.364 181.718"></polyline>
            <polyline id="Fill-219" fill="#D2D2CC" points="87.877 172.099 65.58 134.936 65.366 135.064 87.663 172.227 87.877 172.099"></polyline>
            <polyline id="Fill-220" fill="#D2D2CC" points="14.361 135.077 51.186 181.7 51.382 181.545 14.557 134.923 14.361 135.077"></polyline>
            <polyline id="Fill-221" fill="#D2D2CC" points="22.444 83.629 14.335 134.98 14.583 135.019 22.691 83.668 22.444 83.629"></polyline>
            <polyline id="Fill-222" fill="#D2D2CC" points="169.709 80.679 174.543 132.179 174.791 132.155 169.958 80.655 169.709 80.679"></polyline>
            <polyline id="Fill-223" fill="#D2D2CC" points="234.045 93.026 245.045 144.693 245.289 144.641 234.289 92.974 234.045 93.026"></polyline>
            <polyline id="Fill-224" fill="#D2D2CC" points="154.211 56.475 145.544 99.642 145.79 99.692 154.456 56.525 154.211 56.475"></polyline>
            <polyline id="Fill-225" fill="#D2D2CC" points="29.645 12.827 99.15 22.29 99.183 22.043 29.679 12.579 29.645 12.827"></polyline>
            <polyline id="Fill-226" fill="#D2D2CC" points="23.461 29.223 2.177 106.386 2.418 106.452 23.702 29.29 23.461 29.223"></polyline>
            <polyline id="Fill-227" fill="#D2D2CC" points="2.306 106.544 42.507 104.044 42.492 103.794 2.29 106.294 2.306 106.544"></polyline>
            <path d="M19.865,14.527 C23.082,14.527 23.088,9.527 19.865,9.527 C16.648,9.527 16.642,14.527 19.865,14.527" id="Fill-228" fill="#FEB672"></path>
            <path d="M99.257,24.324 C102.474,24.324 102.48,19.324 99.257,19.324 C96.04,19.324 96.034,24.324 99.257,24.324" id="Fill-229" fill="#FEB672"></path>
            <path d="M42.5,106.419 C45.717,106.419 45.723,101.419 42.5,101.419 C39.283,101.419 39.277,106.419 42.5,106.419" id="Fill-230" fill="#FEB672"></path>
            <path d="M151.622,158.108 C154.838,158.108 154.845,153.108 151.622,153.108 C148.405,153.108 148.398,158.108 151.622,158.108" id="Fill-231" fill="#FEB672"></path>
            <path d="M332.027,130.743 C335.244,130.743 335.25,125.743 332.027,125.743 C328.81,125.743 328.804,130.743 332.027,130.743" id="Fill-232" fill="#FEB672"></path>
            <path d="M267.5,80.067 C270.717,80.067 270.723,75.067 267.5,75.067 C264.283,75.067 264.277,80.067 267.5,80.067" id="Fill-233" fill="#FEB672"></path>
            <path d="M363.108,14.189 C366.325,14.189 366.331,9.189 363.108,9.189 C359.891,9.189 359.885,14.189 363.108,14.189" id="Fill-234" fill="#FEB672"></path>
            <path d="M375.608,167.567 C378.825,167.567 378.831,162.567 375.608,162.567 C372.391,162.567 372.385,167.567 375.608,167.567" id="Fill-235" fill="#FEB672"></path>
            <path d="M53.311,26.703 C55.241,26.703 55.245,23.703 53.311,23.703 C51.381,23.703 51.377,26.703 53.311,26.703" id="Fill-236" fill="#8D8D8D"></path>
            <path d="M117.162,38.527 C119.092,38.527 119.096,35.527 117.162,35.527 C115.232,35.527 115.228,38.527 117.162,38.527" id="Fill-237" fill="#8D8D8D"></path>
            <path d="M73.581,105.419 C75.511,105.419 75.515,102.419 73.581,102.419 C71.651,102.419 71.647,105.419 73.581,105.419" id="Fill-238" fill="#8D8D8D"></path>
            <path d="M14.46,136.5 C16.39,136.5 16.394,133.5 14.46,133.5 C12.529,133.5 12.525,136.5 14.46,136.5" id="Fill-239" fill="#8D8D8D"></path>
            <path d="M119.865,164.878 C121.795,164.878 121.799,161.878 119.865,161.878 C117.935,161.878 117.931,164.878 119.865,164.878" id="Fill-240" fill="#8D8D8D"></path>
            <path d="M210.743,128.054 C212.673,128.054 212.677,125.054 210.743,125.054 C208.814,125.054 208.81,128.054 210.743,128.054" id="Fill-241" fill="#8D8D8D"></path>
            <path d="M309.054,77.04 C310.984,77.04 310.988,74.04 309.054,74.04 C307.124,74.04 307.12,77.04 309.054,77.04" id="Fill-242" fill="#8D8D8D"></path>
            <path d="M334.392,15.892 C336.322,15.892 336.326,12.892 334.392,12.892 C332.462,12.892 332.458,15.892 334.392,15.892" id="Fill-243" fill="#8D8D8D"></path>
            <path d="M320.878,160.148 C322.809,160.148 322.812,157.148 320.878,157.148 C318.948,157.148 318.944,160.148 320.878,160.148" id="Fill-244" fill="#8D8D8D"></path>
            <path d="M382.027,135.824 C383.957,135.824 383.961,132.824 382.027,132.824 C380.097,132.824 380.093,135.824 382.027,135.824" id="Fill-245" fill="#8D8D8D"></path>
            <path d="M23.581,30.757 C25.511,30.757 25.515,27.757 23.581,27.757 C21.651,27.757 21.647,30.757 23.581,30.757" id="Fill-246" fill="#FEB672"></path>
            <path d="M62.433,66.905 C64.362,66.905 64.366,63.905 62.433,63.905 C60.502,63.905 60.499,66.905 62.433,66.905" id="Fill-247" fill="#44515F"></path>
            <path d="M22.567,85.149 C24.497,85.149 24.501,82.149 22.567,82.149 C20.638,82.149 20.634,85.149 22.567,85.149" id="Fill-248" fill="#FEB672"></path>
            <path d="M65.473,136.162 C67.403,136.162 67.407,133.162 65.473,133.162 C63.543,133.162 63.539,136.162 65.473,136.162" id="Fill-249" fill="#FEB672"></path>
            <path d="M87.771,173.662 C89.7,173.662 89.704,170.662 87.771,170.662 C85.84,170.662 85.836,173.662 87.771,173.662" id="Fill-250" fill="#FEB672"></path>
            <path d="M145.878,101.027 C147.809,101.027 147.812,98.027 145.878,98.027 C143.948,98.027 143.944,101.027 145.878,101.027" id="Fill-251" fill="#FEB672"></path>
            <path d="M111.757,77.716 C113.687,77.716 113.691,74.716 111.757,74.716 C109.827,74.716 109.823,77.716 111.757,77.716" id="Fill-252" fill="#44515F"></path>
            <path d="M286.419,29.743 C288.349,29.743 288.353,26.743 286.419,26.743 C284.489,26.743 284.485,29.743 286.419,29.743" id="Fill-253" fill="#FEB672"></path>
            <path d="M294.527,107.108 C296.457,107.108 296.461,104.108 294.527,104.108 C292.597,104.108 292.593,107.108 294.527,107.108" id="Fill-254" fill="#FEB672"></path>
            <path d="M245.203,145.96 C247.133,145.96 247.137,142.96 245.203,142.96 C243.272,142.96 243.269,145.96 245.203,145.96" id="Fill-255" fill="#FEB672"></path>
            <path d="M288.446,142.243 C290.376,142.243 290.38,139.243 288.446,139.243 C286.516,139.243 286.512,142.243 288.446,142.243" id="Fill-256" fill="#FEB672"></path>
            <path d="M270.878,174.338 C272.809,174.338 272.813,171.338 270.878,171.338 C268.948,171.338 268.944,174.338 270.878,174.338" id="Fill-257" fill="#FEB672"></path>
            <path d="M368.852,95.96 C370.781,95.96 370.785,92.96 368.852,92.96 C366.921,92.96 366.917,95.96 368.852,95.96" id="Fill-258" fill="#FEB672"></path>
            <path d="M345.54,53.392 C347.471,53.392 347.475,50.392 345.54,50.392 C343.61,50.392 343.606,53.392 345.54,53.392" id="Fill-259" fill="#FEB672"></path>
            <path d="M195.203,55.757 C197.133,55.757 197.137,52.757 195.203,52.757 C193.272,52.757 193.269,55.757 195.203,55.757" id="Fill-260" fill="#FEB672"></path>
            <path d="M220.203,26.027 C222.133,26.027 222.137,23.027 220.203,23.027 C218.272,23.027 218.269,26.027 220.203,26.027" id="Fill-261" fill="#FEB672"></path>
            <path d="M171.554,14.203 C173.484,14.203 173.488,11.203 171.554,11.203 C169.624,11.203 169.62,14.203 171.554,14.203" id="Fill-262" fill="#FEB672"></path>
            <path d="M110.405,107.784 C112.335,107.784 112.339,104.784 110.405,104.784 C108.476,104.784 108.471,107.784 110.405,107.784" id="Fill-263" fill="#3654A7"></path>
            <path d="M80.676,43.933 C82.605,43.933 82.61,40.933 80.676,40.933 C78.746,40.933 78.742,43.933 80.676,43.933" id="Fill-264" fill="#3654A7"></path>
            <path d="M34.729,52.378 C36.66,52.378 36.664,49.378 34.729,49.378 C32.8,49.378 32.796,52.378 34.729,52.378" id="Fill-265" fill="#3654A7"></path>
            <path d="M66.486,3.729 C68.417,3.729 68.42,0.729 66.486,0.729 C64.557,0.729 64.553,3.729 66.486,3.729" id="Fill-266" fill="#3654A7"></path>
            <path d="M18.176,167.581 C20.106,167.581 20.11,164.581 18.176,164.581 C16.246,164.581 16.242,167.581 18.176,167.581" id="Fill-267" fill="#3654A7"></path>
            <path d="M51.284,183.122 C53.214,183.122 53.218,180.122 51.284,180.122 C49.354,180.122 49.35,183.122 51.284,183.122" id="Fill-268" fill="#3654A7"></path>
            <path d="M174.257,133.46 C176.187,133.46 176.191,130.46 174.257,130.46 C172.327,130.46 172.323,133.46 174.257,133.46" id="Fill-269" fill="#3654A7"></path>
            <path d="M195.54,90.554 C197.471,90.554 197.475,87.554 195.54,87.554 C193.61,87.554 193.606,90.554 195.54,90.554" id="Fill-270" fill="#3654A7"></path>
            <path d="M154.324,58.121 C156.254,58.121 156.258,55.122 154.324,55.122 C152.394,55.122 152.39,58.121 154.324,58.121" id="Fill-271" fill="#3654A7"></path>
            <path d="M261.419,41.229 C263.349,41.229 263.352,38.229 261.419,38.229 C259.489,38.229 259.485,41.229 261.419,41.229" id="Fill-272" fill="#3654A7"></path>
            <path d="M257.027,111.838 C258.957,111.838 258.961,108.838 257.027,108.838 C255.097,108.838 255.093,111.838 257.027,111.838" id="Fill-273" fill="#3654A7"></path>
            <path d="M212.433,172.311 C214.362,172.311 214.366,169.311 212.433,169.311 C210.502,169.311 210.498,172.311 212.433,172.311" id="Fill-274" fill="#3654A7"></path>
            <path d="M339.797,94.946 C341.728,94.946 341.731,91.946 339.797,91.946 C337.867,91.946 337.863,94.946 339.797,94.946" id="Fill-275" fill="#3654A7"></path>
            <path d="M258.378,8.122 C260.309,8.122 260.312,5.121 258.378,5.121 C256.448,5.121 256.444,8.122 258.378,8.122" id="Fill-276" fill="#3654A7"></path>
            <path d="M372.905,64.203 C374.835,64.203 374.84,61.203 372.905,61.203 C370.976,61.203 370.972,64.203 372.905,64.203" id="Fill-277" fill="#3654A7"></path>
            <path d="M95.878,58.797 C97.809,58.797 97.812,55.797 95.878,55.797 C93.948,55.797 93.944,58.797 95.878,58.797" id="Fill-278" fill="#6F6F6F"></path>
            <path d="M135.405,14.54 C137.335,14.54 137.339,11.54 135.405,11.54 C133.476,11.54 133.471,14.54 135.405,14.54" id="Fill-279" fill="#6F6F6F"></path>
            <path d="M140.811,129.067 C142.741,129.067 142.745,126.067 140.811,126.067 C138.881,126.067 138.877,129.067 140.811,129.067" id="Fill-280" fill="#6F6F6F"></path>
            <path d="M102.635,140.554 C104.565,140.554 104.569,137.554 102.635,137.554 C100.705,137.554 100.701,140.554 102.635,140.554" id="Fill-281" fill="#6F6F6F"></path>
            <path d="M170.878,182.108 C172.809,182.108 172.812,179.108 170.878,179.108 C168.948,179.108 168.944,182.108 170.878,182.108" id="Fill-282" fill="#6F6F6F"></path>
            <path d="M201.622,153.73 C203.552,153.73 203.556,150.729 201.622,150.729 C199.691,150.729 199.688,153.73 201.622,153.73" id="Fill-283" fill="#6F6F6F"></path>
            <path d="M303.648,180.081 C305.579,180.081 305.583,177.081 303.648,177.081 C301.719,177.081 301.715,180.081 303.648,180.081" id="Fill-284" fill="#6F6F6F"></path>
            <path d="M352.973,154.405 C354.903,154.405 354.907,151.405 352.973,151.405 C351.043,151.405 351.039,154.405 352.973,154.405" id="Fill-285" fill="#6F6F6F"></path>
            <path d="M347.567,181.095 C349.498,181.095 349.502,178.095 347.567,178.095 C345.638,178.095 345.634,181.095 347.567,181.095" id="Fill-286" fill="#6F6F6F"></path>
            <path d="M319.865,50.014 C321.795,50.014 321.799,47.014 319.865,47.014 C317.935,47.014 317.931,50.014 319.865,50.014" id="Fill-287" fill="#6F6F6F"></path>
            <path d="M232.027,60.149 C233.957,60.149 233.961,57.149 232.027,57.149 C230.097,57.149 230.093,60.149 232.027,60.149" id="Fill-288" fill="#6F6F6F"></path>
            <path d="M234.392,94.946 C236.322,94.946 236.326,91.946 234.392,91.946 C232.462,91.946 232.458,94.946 234.392,94.946" id="Fill-289" fill="#6F6F6F"></path>
            <path d="M305,9.473 C306.93,9.473 306.934,6.473 305,6.473 C303.07,6.473 303.066,9.473 305,9.473" id="Fill-290" fill="#6F6F6F"></path>
            <path d="M5.676,52.378 C7.605,52.378 7.61,49.378 5.676,49.378 C3.746,49.378 3.742,52.378 5.676,52.378" id="Fill-291" fill="#6F6F6F"></path>
            <path d="M2.297,107.784 C4.228,107.784 4.231,104.784 2.297,104.784 C0.367,104.784 0.363,107.784 2.297,107.784" id="Fill-292" fill="#6F6F6F"></path>
            <path d="M357.365,117.243 C359.295,117.243 359.299,114.243 357.365,114.243 C355.435,114.243 355.431,117.243 357.365,117.243" id="Fill-293" fill="#6F6F6F"></path>
            <path d="M384.729,34.473 C386.66,34.473 386.664,31.473 384.729,31.473 C382.8,31.473 382.796,34.473 384.729,34.473" id="Fill-294" fill="#6F6F6F"></path>
            <path d="M169.527,82.108 C171.457,82.108 171.461,79.108 169.527,79.108 C167.597,79.108 167.593,82.108 169.527,82.108" id="Fill-295" fill="#6F6F6F"></path>
            <path d="M29.662,14.203 C31.592,14.203 31.596,11.203 29.662,11.203 C27.732,11.203 27.728,14.203 29.662,14.203" id="Fill-296" fill="#74D8DF"></path>
            <path d="M60.743,114.54 C62.673,114.54 62.677,111.54 60.743,111.54 C58.813,111.54 58.809,114.54 60.743,114.54" id="Fill-297" fill="#74D8DF"></path>
            <path d="M143.176,173.662 C145.105,173.662 145.11,170.662 143.176,170.662 C141.246,170.662 141.242,173.662 143.176,173.662" id="Fill-298" fill="#74D8DF"></path>
            <path d="M283.378,79.743 C285.309,79.743 285.312,76.743 283.378,76.743 C281.448,76.743 281.444,79.743 283.378,79.743" id="Fill-299" fill="#74D8DF"></path>
            <path d="M366.148,25.689 C368.079,25.689 368.083,22.689 366.148,22.689 C364.219,22.689 364.215,25.689 366.148,25.689" id="Fill-300" fill="#74D8DF"></path>
            <path d="M319.865,134.811 C321.795,134.811 321.799,131.811 319.865,131.811 C317.935,131.811 317.931,134.811 319.865,134.811" id="Fill-301" fill="#74D8DF"></path>
            <path d="M376.622,181.095 C378.552,181.095 378.556,178.095 376.622,178.095 C374.691,178.095 374.688,181.095 376.622,181.095" id="Fill-302" fill="#74D8DF"></path>
            <path d="M179.662,21.973 C181.592,21.973 181.596,18.973 179.662,18.973 C177.732,18.973 177.728,21.973 179.662,21.973" id="Fill-303" fill="#74D8DF"></path>
        </g>
    </g>
</svg>