<?xml version="1.0" encoding="UTF-8"?>
<svg width="95px" height="95px" viewBox="0 0 95 95" version="1.1" xmlns="http://www.w3.org/2000/svg" xmlns:xlink="http://www.w3.org/1999/xlink">
    <!-- Generator: Sketch 47.1 (45422) - http://www.bohemiancoding.com/sketch -->
    <title>buildstatus</title>
    <desc>Created with Sketch.</desc>
    <defs></defs>
    <g id="Page-1" stroke="none" stroke-width="1" fill="none" fill-rule="evenodd">
        <g id="buildstatus" transform="translate(2.000000, 2.000000)">
            <circle id="Oval" stroke="#FEB672" stroke-width="2.8347" cx="45.374" cy="45.374" r="45.374"></circle>
            <g id="arrow" transform="translate(17.000000, 16.000000)">
                <g id="Group">
                    <path d="M18.5621661,6.8346775 C18.9456962,6.39438609 20.4290551,4.97886977 19.5876476,4.07594906 L18.0222502,2.27951306 C17.1541801,1.36777476 16.1286987,2.93377787 15.6149325,3.45519107 L9.94709659,9.80737935 L5.23449664,4.40396322 C4.85147932,3.96425965 4.2367032,3.96425965 3.85317314,4.40396322 L2.28726299,6.20039922 C1.90424567,6.64010279 1.90424567,7.34315824 2.28726299,7.78344966 L9.25643484,15.7727696 C9.64099038,16.2136488 10.2537155,16.2136488 10.6382711,15.7727696 L18.5621661,6.8346775 Z" id="Shape" fill="#FEB672" fill-rule="nonzero"></path>
                    <rect id="Rectangle" stroke="#FEB672" x="0.5" y="0.5" width="56" height="17"></rect>
                    <path d="M24.5,8.5 L51.5,8.5" id="Line" stroke="#FEB672" stroke-width="2" stroke-linecap="square"></path>
                </g>
                <g id="Group" transform="translate(0.000000, 20.000000)">
                    <path d="M18.5621661,6.8346775 C18.9456962,6.39438609 20.4290551,4.97886977 19.5876476,4.07594906 L18.0222502,2.27951306 C17.1541801,1.36777476 16.1286987,2.93377787 15.6149325,3.45519107 L9.94709659,9.80737935 L5.23449664,4.40396322 C4.85147932,3.96425965 4.2367032,3.96425965 3.85317314,4.40396322 L2.28726299,6.20039922 C1.90424567,6.64010279 1.90424567,7.34315824 2.28726299,7.78344966 L9.25643484,15.7727696 C9.64099038,16.2136488 10.2537155,16.2136488 10.6382711,15.7727696 L18.5621661,6.8346775 Z" id="Shape" fill="#FEB672" fill-rule="nonzero"></path>
                    <path d="M24.5,9.5 L51.5,9.5" id="Line" stroke="#FEB672" stroke-width="2" stroke-linecap="square"></path>
                    <rect id="Rectangle" stroke="#FEB672" x="0.5" y="0.5" width="56" height="17"></rect>
                </g>
                <g id="Group" transform="translate(0.000000, 40.000000)">
                    <path d="M18.5621661,6.8346775 C18.9456962,6.39438609 20.4290551,4.97886977 19.5876476,4.07594906 L18.0222502,2.27951306 C17.1541801,1.36777476 16.1286987,2.93377787 15.6149325,3.45519107 L9.94709659,9.80737935 L5.23449664,4.40396322 C4.85147932,3.96425965 4.2367032,3.96425965 3.85317314,4.40396322 L2.28726299,6.20039922 C1.90424567,6.64010279 1.90424567,7.34315824 2.28726299,7.78344966 L9.25643484,15.7727696 C9.64099038,16.2136488 10.2537155,16.2136488 10.6382711,15.7727696 L18.5621661,6.8346775 Z" id="Shape" fill="#FEB672" fill-rule="nonzero"></path>
                    <rect id="Rectangle" stroke="#FEB672" x="0.5" y="0.5" width="56" height="17"></rect>
                    <path d="M24.5,9.5 L51.5,9.5" id="Line" stroke="#FEB672" stroke-width="2" stroke-linecap="square"></path>
                </g>
            </g>
        </g>
    </g>
</svg>