<?xml version="1.0" encoding="UTF-8"?>
<svg width="95px" height="95px" viewBox="0 0 95 95" version="1.1" xmlns="http://www.w3.org/2000/svg" xmlns:xlink="http://www.w3.org/1999/xlink">
    <!-- Generator: Sketch 43.2 (39069) - http://www.bohemiancoding.com/sketch -->
    <title>cassandra</title>
    <desc>Created with Sketch.</desc>
    <defs>
        <polygon id="path-1" points="0.00210153453 16.6509173 23.7899097 16.6509173 23.7899097 0.199504078 0.00210153453 0.199504078"></polygon>
        <polygon id="path-3" points="0.108660112 16.4545884 57.33552 16.4545884 57.33552 0.097899879 0.108660112 0.097899879"></polygon>
        <polygon id="path-5" points="0.139967588 19.7503745 53.8585581 19.7503745 53.8585581 0.218554865 0.139967588 0.218554865"></polygon>
    </defs>
    <g id="Page-1" stroke="none" stroke-width="1" fill="none" fill-rule="evenodd">
        <g id="cassandra" transform="translate(2.000000, 2.000000)">
            <circle id="Oval" stroke="#FEB672" stroke-width="2.8347" cx="45.374" cy="45.374" r="45.374"></circle>
            <g id="layer2" transform="translate(16.000000, 28.000000)">
                <g id="Group" transform="translate(0.102454, 0.283878)">
                    <g id="g4555" transform="translate(31.036377, 16.822431) scale(-1, 1) rotate(-180.000000) translate(-31.036377, -16.822431) translate(0.036377, 0.322431)">
                        <g id="Group-2">
                            <g id="g2828" transform="translate(10.830769, 9.687500)" fill-rule="nonzero" fill="#BBE6FB">
                                <g id="g2830-Clipped" transform="translate(-0.000000, 0.000000)">
                                    <g transform="translate(-0.000000, 0.000000)" id="g2830">
                                        <g transform="translate(0.212448, 0.221162)">
                                            <g id="g2836" transform="translate(0.032879, 0.296362)">
                                                <g id="Group" transform="translate(0.236665, 0.127905)">
                                                    <path d="M36.6421405,10.5837707 C37.0689137,5.70147728 29.2450084,1.05467275 19.1673421,0.205589746 C9.08967573,-0.643493259 0.574150011,2.62689189 0.1479157,7.50892074 C-0.278857467,12.3920079 7.5450478,17.0385479 17.6227141,17.8876308 C27.7003806,18.7364493 36.2159062,15.4668579 36.6421405,10.5837707" id="path2838"></path>
                                                </g>
                                            </g>
                                        </g>
                                    </g>
                                </g>
                            </g>
                            <g id="g2840" transform="translate(15.753846, 9.687500)">
                                <g id="g2842-Clipped" transform="translate(-0.000000, 0.000000)">
                                    <g transform="translate(-0.000000, 0.000000)" id="g2842">
                                        <g transform="translate(0.780338, 0.897106)">
                                            <g id="g2848" transform="translate(0.469318, 0.414201)">
                                                <g id="Group">
                                                    <g id="g2856">
                                                        <g id="g2858-Clipped">
                                                            <g>
                                                                <mask id="mask-2" fill="white">
                                                                    <use xlink:href="#path-1"></use>
                                                                </mask>
                                                                <g id="path-5"></g>
                                                                <g id="g2858" opacity="0.35000604" mask="url(#mask-2)">
                                                                    <g transform="translate(-0.686371, -0.675945)" id="g2860">
                                                                        <g transform="translate(0.416944, 0.411350)">
                                                                            <g id="Group" transform="translate(0.103541, 0.244300)" fill-rule="nonzero" fill="#FFFFFF">
                                                                                <path d="M12.3936652,16.6694389 C8.54947356,16.7308247 4.05111195,15.2318982 0.704014068,13.8282256 C0.355644305,12.8423474 0.168122762,11.7937603 0.168122762,10.706807 C0.168122762,4.91536771 5.49308795,0.219877837 12.0619999,0.219877837 C18.6309119,0.219877837 23.9558771,4.91536771 23.9558771,10.706807 C23.9558771,12.5396515 23.4213329,14.261631 22.4839947,15.7608221 C19.8061547,16.1696203 16.1230807,16.6099051 12.3936652,16.6694389" id="path2862"></path>
                                                                            </g>
                                                                        </g>
                                                                    </g>
                                                                </g>
                                                            </g>
                                                        </g>
                                                    </g>
                                                </g>
                                            </g>
                                        </g>
                                    </g>
                                </g>
                            </g>
                            <g id="g2864" transform="translate(17.723077, 11.625000)" fill-rule="nonzero" fill="#FFFFFF">
                                <g id="g2866-Clipped" transform="translate(-0.000000, 0.000000)">
                                    <g transform="translate(-0.000000, 0.000000)" id="g2866">
                                        <g transform="translate(0.870220, 0.311495)">
                                            <g id="g2872" transform="translate(0.565625, 0.649877)">
                                                <g id="Group" transform="translate(0.041169, 0.245464)">
                                                    <path d="M9.69939011,14.817279 C7.57118227,14.9448134 3.90292682,13.8544205 0.844116369,12.7666734 C0.379353925,11.6895101 0.121242376,10.5107427 0.121242376,9.27376447 C0.121242376,4.19937562 4.80604781,0.0857285426 9.76189729,0.0857285426 C14.6851461,0.0857285426 19.0409806,4.20599048 19.4025522,9.27376447 C19.5200226,10.9240389 18.9415618,12.4790594 18.1383984,13.8197586 C14.9672367,14.3682625 11.6018178,14.7032388 9.69939011,14.817279" id="path2874"></path>
                                                </g>
                                            </g>
                                        </g>
                                    </g>
                                </g>
                            </g>
                            <g id="g2876" transform="translate(17.723077, 12.593750)" fill-rule="nonzero" fill="#373535">
                                <g id="g2878-Clipped" transform="translate(-0.000000, 0.000000)">
                                    <g transform="translate(-0.000000, 0.000000)" id="g2878">
                                        <g transform="translate(0.870220, 0.018690)">
                                            <g id="Group" transform="translate(0.565625, 0.503121)">
                                                <g id="g2884" transform="translate(2.662429, 6.745725)">
                                                    <path d="M1.61656503,2.91053695 C1.87764027,3.47835625 2.27315985,3.75644482 2.65628576,4.2324499 C2.61371621,4.34516706 2.5204943,4.71374688 2.5204943,4.84154591 C2.5204943,5.41201115 2.991723,5.87505112 3.57287813,5.87505112 C3.71001673,5.87505112 3.8409585,5.8483271 3.96085373,5.80149391 C5.70270255,7.10514987 7.99580006,7.67349836 10.3002135,7.1675941 C10.5106364,7.12102551 10.7170178,7.06466694 10.9196273,7.00275191 C8.64215663,7.3128564 6.07505136,6.52066113 4.32889171,5.13656852 C4.38223835,5.013003 4.53015405,4.65976965 4.53015405,4.51768252 C4.53015405,3.94695269 4.15403326,3.8080407 3.57287813,3.8080407 C3.44085865,3.8080407 3.31476658,3.83291256 3.19810447,3.87657062 C2.8036626,3.35637829 2.32030967,2.36547276 2.08375232,1.74605757 C3.04938049,0.897768352 3.92178675,0.590309811 5.05877082,0.173044651 C5.05580711,0.226228099 5.0978378,0.275442633 5.0978378,0.329684458 C5.0978378,2.05034098 6.64031026,3.44872169 8.39266678,3.44872169 C9.96289023,3.44872169 11.2631474,2.32737118 11.5169481,0.856227052 C12.3004433,1.34572645 13.0580734,1.72092111 13.6354565,2.4464386 C13.5007428,2.6078411 13.3555213,3.06479541 13.3555213,3.28970053 C13.3555213,3.80751151 13.7833723,4.22742261 14.3106418,4.22742261 C14.3852733,4.22742261 14.456941,4.21683884 14.5267227,4.20096319 C14.8198599,4.79259597 15.0410598,5.41968438 15.1825093,6.06635277 C12.4424316,8.05848305 7.14090658,7.78674469 7.14090658,7.78674469 C7.14090658,7.78674469 2.92221071,8.00291824 0.066279166,6.63602423 C0.256764411,5.28368293 0.806127092,3.99801939 1.61656503,2.91053695" id="path2886"></path>
                                                </g>
                                                <g id="g2888" transform="translate(14.142438, 4.611402)">
                                                    <path d="M3.23313004,5.82107389 C3.42684842,5.64961681 3.532464,5.49906267 3.61571711,5.35247744 C3.87194266,4.90002124 3.35787498,4.48593121 2.83060536,4.48593121 C2.77698928,4.48593121 2.7252592,4.49307526 2.67379855,4.50154228 C2.0797109,3.58975043 1.03918188,2.42050836 0.114776117,1.83205071 C1.53223422,1.60397045 2.86886406,1.04647033 3.93256385,0.184951393 C4.70716792,1.54787647 5.30125557,3.51592863 5.30125557,5.18763522 C5.30125557,6.46006904 4.72926097,7.39276386 3.86574583,8.0770046 C3.820482,7.39540978 3.45001919,6.44207664 3.23313004,5.82107389" id="path2890"></path>
                                                </g>
                                                <g id="g2892" transform="translate(4.252698, 1.800088)">
                                                    <path d="M1.61656503,0 C2.08887143,1.28090085 3.25064283,2.27339395 4.34963762,3.14655503 C4.1887894,3.36272855 3.94765179,3.89800275 3.84715533,4.15148406 C2.5067535,4.55181519 1.32073363,5.30114615 0.400908126,6.29311006 C0.394172438,6.26426929 0.385820186,6.23622229 0.378815071,6.20738152 C0.205573186,5.44508543 0.17378074,4.68120179 0.259997541,3.93610433 C0.901773857,3.81862447 1.38755165,3.26641624 1.38755165,2.60202003 C1.38755165,2.20803916 1.03594875,1.63704473 0.76301869,1.38859072 C1.05965837,0.759914737 1.26199843,0.456689706 1.61656503,0" id="path2894"></path>
                                                </g>
                                                <g id="g2896" transform="translate(0.128140, 0.460209)">
                                                    <path d="M5.65797758,0.264594268 C5.09460467,0.814685752 4.7050125,1.91195818 4.33939938,2.60096165 C4.27096479,2.59064247 4.20091364,2.58349843 4.12924593,2.58349843 C3.36514953,2.58349843 2.56468041,3.21323279 2.74573569,3.9419254 C2.84596272,4.34516706 3.12940046,4.60896755 3.59092977,4.82910998 C3.48585304,5.66443409 3.45729373,6.86516286 3.65478409,7.73356124 C3.71136386,7.98201527 3.8312591,8.09843678 3.91074022,8.33498404 C3.06770156,9.54656115 2.52291915,11.1367727 2.52291915,12.7145483 C2.52291915,12.7722299 2.52588285,12.8291177 2.52722999,12.88627 C1.10249735,12.184566 0.034217293,11.0790912 0.034217293,9.33885468 C0.034217293,5.48953727 2.29175035,1.71351248 5.65070304,0.233372144 C5.65312789,0.243691321 5.65528331,0.254275091 5.65797758,0.264594268" id="path2898"></path>
                                                </g>
                                                <g id="g2900" transform="translate(6.232209, 0.225196)">
                                                    <path d="M7.81339761,5.82107389 C7.37934991,4.60870296 6.2057237,3.73792322 4.82275232,3.73792322 C4.0829044,3.73792322 3.40421651,3.98849399 2.86482265,4.40496537 C1.75289534,3.55455939 0.744158769,2.06066016 0.231438226,0.764677436 C0.461529314,0.521515302 0.621838679,0.321482036 0.879950228,0.105837707 C1.65778743,-0.093137182 2.72903119,0.105837707 3.57099213,0.105837707 C6.95769587,0.105837707 9.95723227,1.58544885 11.676988,4.18006024 C10.5335377,4.95770279 9.18478361,5.69777296 7.81339761,5.82107389" id="path2902"></path>
                                                </g>
                                            </g>
                                        </g>
                                    </g>
                                </g>
                            </g>
                            <g id="g2904" transform="translate(17.723077, 12.593750)" fill-rule="nonzero" fill="#1287B1">
                                <g id="g2906-Clipped" transform="translate(-0.000000, 0.000000)">
                                    <g transform="translate(-0.000000, 0.000000)" id="g2906">
                                        <g transform="translate(0.870220, 0.018690)">
                                            <g id="Group" transform="translate(0.296197, 0.238527)">
                                                <g id="g2912" transform="translate(2.845046, 6.560456)">
                                                    <path d="M1.61656503,2.91053695 C1.87764027,3.47835625 2.20499469,4.00384046 2.58785118,4.47984555 C2.54528163,4.59229811 2.5204943,4.71374688 2.5204943,4.84154591 C2.5204943,5.41201115 2.991723,5.87505112 3.57287813,5.87505112 C3.71001673,5.87505112 3.8409585,5.8483271 3.96085373,5.80149391 C5.70270255,7.10514987 7.99580006,7.67349836 10.3002135,7.1675941 C10.5106364,7.12102551 10.7170178,7.06466694 10.9196273,7.00275191 C8.64215663,7.3128564 6.2889768,6.62729263 4.54281714,5.24293541 C4.59616379,5.11963449 4.62526196,4.98363303 4.62526196,4.84154591 C4.62526196,4.27081608 4.15403326,3.8080407 3.57287813,3.8080407 C3.44085865,3.8080407 3.31476658,3.83291256 3.19810447,3.87657062 C2.8036626,3.35637829 2.48115788,2.78167954 2.24460053,2.16199976 C3.0738984,1.28434058 4.0917955,0.590309811 5.22851014,0.173044651 C5.22581586,0.226228099 5.22015789,0.278882358 5.22015789,0.333124183 C5.22015789,2.05378071 6.64031026,3.44872169 8.39266678,3.44872169 C9.96289023,3.44872169 11.2631474,2.32737118 11.5169481,0.856227052 C12.3004433,1.34572645 12.9966439,1.97440242 13.5737576,2.6999199 C13.4390439,2.86132241 13.3555213,3.06479541 13.3555213,3.28970053 C13.3555213,3.80751151 13.7833723,4.22742261 14.3106418,4.22742261 C14.3852733,4.22742261 14.456941,4.21683884 14.5267227,4.20096319 C14.8198599,4.79259597 15.0410598,5.41968438 15.1825093,6.06635277 C12.4424316,8.05848305 7.14090658,7.78674469 7.14090658,7.78674469 C7.14090658,7.78674469 2.92221071,8.00291824 0.066279166,6.63602423 C0.256764411,5.28368293 0.806127092,3.99801939 1.61656503,2.91053695" id="path2914"></path>
                                                </g>
                                                <g id="g2916" transform="translate(14.559754, 4.987099)">
                                                    <path d="M3.23313004,5.55647962 C3.42684842,5.38502254 3.5510545,5.13921446 3.5510545,4.86297805 C3.5510545,4.34516706 3.12320363,3.92499137 2.595934,3.92499137 C2.54231793,3.92499137 2.49058784,3.93213541 2.43912719,3.94060243 C1.84503955,3.02881058 1.05777238,2.25143263 0.133097187,1.66297497 C1.49963349,1.45315172 2.78588039,0.883744856 3.84931075,0.0222259185 C4.62391482,1.38515099 5.06658421,2.95498878 5.06658421,4.62669536 C5.06658421,5.8991292 4.49458962,6.83182399 3.63107447,7.5160648 C3.58581065,6.83446991 3.45001919,6.17748237 3.23313004,5.55647962" id="path2918"></path>
                                                </g>
                                                <g id="g2920" transform="translate(4.398458, 1.756933)">
                                                    <path d="M1.88599253,0 C2.35829894,1.28090085 3.17897512,2.43029835 4.2779699,3.30319484 C4.11712169,3.51963295 3.98456336,3.75591563 3.88406689,4.00939694 C2.54339563,4.40972806 1.35764519,5.15905903 0.437819694,6.15102294 C0.431084006,6.12218217 0.422462326,6.09413518 0.415726639,6.0652944 C0.242215326,5.30299831 0.21042288,4.53911466 0.296909109,3.79401721 C0.938415994,3.67653735 1.42446321,3.12432911 1.42446321,2.45993291 C1.42446321,2.06595204 1.25229904,1.71166032 0.979368979,1.4632063 C1.22697285,0.947776669 1.53142593,0.456689706 1.88599253,0" id="path2922"></path>
                                                </g>
                                                <g id="g2924" transform="translate(0.124449, 0.740414)">
                                                    <path d="M5.92740509,0.264594268 C5.36403218,0.814685752 4.8911869,1.44653686 4.52584321,2.13527574 C4.45713919,2.12495656 4.38708804,2.11807711 4.31568976,2.11807711 C3.55159336,2.11807711 2.93217953,2.72637933 2.93217953,3.47650408 C2.93217953,4.01415963 3.25118169,4.47772879 3.712711,4.69787122 C3.60790371,5.53293073 3.64346814,6.39974156 3.84122792,7.26813997 C3.8978077,7.51632936 3.96678114,7.75869772 4.04626225,7.99550955 C3.2032236,9.20682216 2.70936298,10.6713514 2.70936298,12.249127 C2.70936298,12.3068086 2.71205725,12.3636963 2.71340439,12.4205841 C1.28867175,11.7191447 0.220391698,10.6134053 0.220391698,8.87343334 C0.220391698,5.02385136 2.56117785,1.71351248 5.92013054,0.233372144 C5.92255539,0.243691321 5.92471081,0.254275091 5.92740509,0.264594268" id="path2926"></path>
                                                </g>
                                                <g id="g2928" transform="translate(6.684254, 0.039927)">
                                                    <path d="M7.54397013,5.82107389 C7.10992243,4.60870296 5.93629619,3.73792322 4.55332481,3.73792322 C3.81347689,3.73792322 3.13478901,3.98849399 2.59539515,4.40496537 C1.48346783,3.55455939 0.644201161,2.39537191 0.13175005,1.09912459 C0.361571711,0.855962454 0.607289594,0.62682382 0.865401142,0.411444086 C1.64350777,0.212469197 2.45960368,0.105837707 3.30156463,0.105837707 C6.68826835,0.105837707 9.66571168,1.8230545 11.3854675,4.4174013 C10.2420172,5.19530845 8.91535613,5.69777296 7.54397013,5.82107389" id="path2930"></path>
                                                </g>
                                            </g>
                                        </g>
                                    </g>
                                </g>
                            </g>
                            <g id="g2932" transform="translate(22.711523, 13.288384)" fill-rule="nonzero" fill="#FFFFFF">
                                <g id="g2934-Clipped">
                                    <g id="g2934" transform="translate(0.341296, 0.091771)">
                                        <g id="g2940">
                                            <g id="g2948">
                                                <g id="g2950-Clipped">
                                                    <g id="g2950" transform="translate(0.416944, 0.000000)">
                                                        <g id="g2952" transform="translate(0.059867, 0.049479)">
                                                            <polygon id="path2954" points="9.69939011 6.08566816 12.630492 6.77229031 9.68834359 6.91966927 12.0827458 8.71679354 9.36583891 7.76028525 11.2122255 10.273137 8.66209426 8.60857448 9.55362985 11.550069 7.80235109 9.12559168 7.76247583 12.1893287 6.61013438 9.46030346 5.6493559 12.2218738 5.70135541 8.96868731 4.0408737 11.8847807 4.93941443 8.78849861 2.24594767 10.7120989 4.35583445 8.10849131 1.0119697 9.31609955 3.65101211 7.39858489 0.267002656 7.2964515 3.72699066 6.41958612 0.264038954 5.68427865 3.6822657 5.44085193 0.799660833 3.6281166 3.76794364 4.68490611 1.70843981 2.123369 4.31084006 4.18455834 3.3737712 0.747214212 5.3828921 3.54450481 5.10134036 0.240780784 6.24182698 3.2357233 7.21257428 0.0878452967 7.44859279 3.2452487 8.88949106 0.551414454 8.03810014 3.6326147 10.6766037 1.62540259 8.97328302 4.18455834 11.8680121 3.07696674 9.65466516 5.21303626 12.6226785 4.98389762"></polygon>
                                                        </g>
                                                    </g>
                                                </g>
                                            </g>
                                        </g>
                                    </g>
                                </g>
                            </g>
                            <g id="g2956" transform="translate(1.434025, 13.288384)">
                                <g id="g2958-Clipped">
                                    <g id="g2958" transform="translate(0.481537, 0.620960)">
                                        <g id="g2964">
                                            <g id="g2972">
                                                <g id="g2974-Clipped">
                                                    <g>
                                                        <mask id="mask-4" fill="white">
                                                            <use xlink:href="#path-3"></use>
                                                        </mask>
                                                        <g id="path-13"></g>
                                                        <g id="g2974" opacity="0.35000604" mask="url(#mask-4)" fill-rule="nonzero" fill="#373535">
                                                            <g id="g2976" transform="translate(0.108660, 0.097926)">
                                                                <path d="M0,0 C9.090484,8.92714599 16.3507469,11.6831599 22.9398659,12.9413056 C23.8117334,13.1077354 23.976623,14.9786815 23.976623,14.9786815 C23.976623,14.9786815 24.0986737,13.6006746 24.7089269,13.4210151 C25.3189108,13.2410909 26.1118359,15.5779875 26.1118359,15.5779875 C26.1118359,15.5779875 25.3798014,13.4808134 26.1118359,13.3609521 C26.8441399,13.2410909 28.1861583,15.3980634 28.1861583,15.3980634 C28.1861583,15.3980634 27.6373345,13.5408762 28.0034865,13.4210151 C28.3690996,13.3011539 30.1993207,16.116966 30.1993207,16.116966 C30.1993207,16.116966 29.1011341,14.2597789 30.13843,14.0798547 C31.1759953,13.9001952 32.6891002,15.3475259 32.6891002,15.3475259 C32.6891002,15.3475259 31.4993084,14.0232316 32.0295417,13.8403969 C34.2870747,13.0611669 36.1137932,15.9425984 36.1137932,15.9425984 C36.1137932,15.9425984 35.6905226,14.6791608 34.5923361,13.3011539 C36.9713809,12.7021124 38.738556,16.22201 38.738556,16.22201 L36.9713809,12.7021124 C37.8866262,12.222403 41.5476071,16.3566885 41.5476071,16.3566885 C41.5476071,16.3566885 39.656226,13.1212297 38.5580395,12.46239 C39.1680234,11.9829452 41.3643964,13.9001952 41.3643964,13.9001952 C41.3643964,13.9001952 39.595066,11.7434874 40.2662099,11.6236262 C41.2423458,10.8446606 44.8416278,15.6377858 44.8416278,15.6377858 C44.8416278,15.6377858 43.4387187,12.8219736 41.3643964,10.6049383 C43.0981624,9.75320929 47.4044222,15.2184039 47.4044222,15.2184039 C47.4044222,15.2184039 47.2823715,13.4808134 44.1707533,10.7247995 C46.4891769,11.0243201 49.4787445,15.3382651 49.4787445,15.3382651 C49.4787445,15.3382651 48.380558,12.1028064 45.756873,9.82623732 C48.033266,10.0588157 51.6745787,15.5779875 51.6745787,15.5779875 C51.6745787,15.5779875 50.2716696,11.7434874 47.4044222,9.526452 C50.576931,8.83744856 55.1526183,13.4808134 55.1526183,13.4808134 C55.1526183,13.4808134 53.3528426,10.1852918 51.0037042,8.83744856 C53.6273892,7.84892436 57.2269407,11.9231469 57.2269407,11.9231469 C57.2269407,11.9231469 53.6273892,6.47065281 47.8926248,6.71037523 C46.0109431,6.78895971 40.3192871,12.3165985 28.1252677,11.863084 C12.0188915,11.263778 8.60255076,4.55340275 0,0" id="path2978"></path>
                                                            </g>
                                                        </g>
                                                    </g>
                                                </g>
                                            </g>
                                        </g>
                                        <g id="g2980" transform="translate(0.481224, 0.775949)" fill-rule="nonzero" fill="#373535">
                                            <path d="M0,0 C9.090484,8.92714599 16.3504775,11.6828953 22.9395965,12.9413056 C23.8117334,13.1077354 23.976623,14.9784169 23.976623,14.9784169 C23.976623,14.9784169 24.0984042,13.6001454 24.7089269,13.4207504 C25.3189108,13.2410909 26.1118359,15.5774583 26.1118359,15.5774583 C26.1118359,15.5774583 25.3798014,13.4802842 26.1118359,13.3606875 C26.8441399,13.2410909 28.1861583,15.3977988 28.1861583,15.3977988 C28.1861583,15.3977988 27.6373345,13.5406117 28.0029476,13.4207504 C28.3690996,13.3008892 30.1993207,16.116966 30.1993207,16.116966 C30.1993207,16.116966 29.1011341,14.2595142 30.13843,14.0798547 C31.1754565,13.8999307 32.6891002,15.3472613 32.6891002,15.3472613 C32.6891002,15.3472613 31.4993084,14.022967 32.0295417,13.8401324 C34.2870747,13.0611669 36.1132544,15.9423338 36.1132544,15.9423338 C36.1132544,15.9423338 35.6899837,14.6788962 34.5923361,13.3008892 C36.9713809,12.7015832 38.738556,16.22201 38.738556,16.22201 L36.9713809,12.7015832 C37.8866262,12.222403 41.5470682,16.3561593 41.5470682,16.3561593 C41.5470682,16.3561593 39.656226,13.1212297 38.5580395,12.4621254 C39.1680234,11.9826806 41.3643964,13.8999307 41.3643964,13.8999307 C41.3643964,13.8999307 39.595066,11.7429582 40.2662099,11.6233616 C41.2423458,10.8441314 44.8416278,15.6375212 44.8416278,15.6375212 C44.8416278,15.6375212 43.4381799,12.8214444 41.3643964,10.6046736 C43.0981624,9.75268009 47.4044222,15.2181393 47.4044222,15.2181393 C47.4044222,15.2181393 47.2823715,13.4802842 44.1707533,10.7242703 C46.4891769,11.0240556 49.4787445,15.3380005 49.4787445,15.3380005 C49.4787445,15.3380005 48.380558,12.1025418 45.756873,9.82570812 C48.033266,10.0582865 51.6745787,15.5774583 51.6745787,15.5774583 C51.6745787,15.5774583 50.2716696,11.7429582 47.4044222,9.52618744 C50.576931,8.83718392 55.1526183,13.4802842 55.1526183,13.4802842 C55.1526183,13.4802842 53.3528426,10.1852918 51.0037042,8.83718392 C53.6273892,7.84865979 57.2269407,11.9228823 57.2269407,11.9228823 C57.2269407,11.9228823 53.6273892,6.47038822 47.8920859,6.71011063 C46.0109431,6.78895971 40.3192871,12.3165985 28.1249983,11.8628194 C12.0188915,11.263778 8.60228136,4.55340275 0,0" id="path2982"></path>
                                        </g>
                                    </g>
                                </g>
                            </g>
                            <g id="g2984" transform="translate(0.747654, 0.445438)">
                                <g id="g2986-Clipped">
                                    <g id="g2986" transform="translate(0.629053, 0.234192)">
                                        <g id="g2992" transform="translate(0.269427, 0.000000)">
                                            <g id="g3000">
                                                <g id="g3002-Clipped">
                                                    <g>
                                                        <mask id="mask-6" fill="white">
                                                            <use xlink:href="#path-5"></use>
                                                        </mask>
                                                        <g id="path-15"></g>
                                                        <g id="g3002" opacity="0.35000604" mask="url(#mask-6)" fill-rule="nonzero" fill="#373535">
                                                            <g id="g3004" transform="translate(0.139967, 0.179977)">
                                                                <path d="M0,12.1713363 C4.80443125,9.80454058 9.19744667,12.5306553 14.7339125,10.9983899 C18.9431783,9.83311675 24.0682283,8.39663451 31.0229605,9.38542327 C37.9779621,10.3736828 43.926652,13.33952 46.763993,18.6422537 C47.6485235,21.0085202 51.2478055,18.102746 51.2478055,18.102746 C51.2478055,18.102746 48.6246593,19.1812323 48.6858194,18.6718883 C48.74671,18.1628089 52.6208081,16.3953192 52.6208081,16.3953192 C52.6208081,16.3953192 49.1125925,17.4738054 49.3262486,16.6649407 C49.5399046,15.8560761 53.7184558,12.6206174 53.7184558,12.6206174 C53.7184558,12.6206174 48.9905419,16.1555968 48.5942141,15.6764166 C48.1973473,15.1969718 50.6073763,13.2495579 50.6073763,13.2495579 C50.6073763,13.2495579 46.6112276,15.6764166 45.2077797,14.9606891 C44.1985043,14.4465824 49.3566939,11.1224847 49.3566939,11.1224847 C49.3566939,11.1224847 46.0009743,13.6393053 45.2077797,12.980201 C44.4148546,12.3208321 48.9905419,6.92866548 48.9905419,6.92866548 C48.9905419,6.92866548 43.8043318,12.4409579 43.2862228,12.1713363 C42.7673054,11.9017147 44.7195771,9.26529745 44.7195771,9.26529745 C44.7195771,9.26529745 42.1573215,12.0215759 41.4560018,11.5421312 C40.7544125,11.0626864 45.1164438,3.90303004 45.1164438,3.90303004 C45.1164438,3.90303004 40.3882605,11.2423459 38.4359888,10.0146285 C41.5018044,3.40876795 40.3578153,2.4649602 40.3578153,2.4649602 C40.3578153,2.4649602 39.9666065,9.20417618 36.1480105,9.02583964 C34.2261841,8.93587764 37.0629863,3.99299209 37.0629863,3.99299209 C37.0629863,3.99299209 34.4519643,8.50749948 32.7130792,8.41753741 C35.9179194,2.46125588 34.7755468,0.0386307631 34.7755468,0.0386307631 C34.7755468,0.0386307631 35.3055107,5.12572016 30.9588368,7.95661422 C32.6058471,6.51907357 29.9253129,0.0386307631 29.9253129,0.0386307631 C29.9253129,0.0386307631 32.2833423,9.58810247 28.1861583,7.76742931 C27.538724,7.48034451 28.1403556,3.00420332 28.1403556,3.00420332 C28.1403556,3.00420332 27.3167158,8.1272775 26.0816601,7.85739137 C25.3614804,7.700487 21.5057034,0.757533391 21.5057034,0.757533391 C21.5057034,0.757533391 24.6631243,8.261956 23.7023458,7.94735344 C23.0023731,7.71795017 21.6889141,4.62193267 21.6889141,4.62193267 C21.6889141,4.62193267 22.3293432,7.67773187 21.6889141,7.85739137 C21.0484849,8.0373155 17.4791093,4.62193267 17.4791093,4.62193267 C17.4791093,4.62193267 20.1332396,7.67773187 19.6754823,8.306937 C18.9819759,9.26027018 18.1691131,9.30498661 17.2045627,8.93587764 C15.8011148,8.39875123 13.9102726,5.880343 13.9102726,5.880343 C13.9102726,5.880343 15.7951874,8.43023794 15.4656776,9.38542327 C14.9367914,10.92007 9.51752661,6.41958612 9.51752661,6.41958612 C9.51752661,6.41958612 12.7204808,9.38542327 11.9884462,10.0146285 C11.2564117,10.643569 7.28127829,10.4490922 6.04002578,10.452532 C2.37958372,10.4636449 1.11111902,11.3069069 0,12.1713363" id="path3006"></path>
                                                            </g>
                                                        </g>
                                                    </g>
                                                </g>
                                            </g>
                                        </g>
                                        <g id="g3008" transform="translate(0.226535, 0.719247)" fill-rule="nonzero" fill="#373535">
                                            <path d="M0,12.1713363 C4.80443125,9.80454058 9.19717727,12.5306553 14.733643,10.9981253 C18.9429089,9.83338138 24.0682283,8.39663451 31.0232299,9.38542327 C37.9782315,10.3739475 43.9263825,13.3397846 46.7637236,18.6419891 C47.6482541,21.0085202 51.2475361,18.1030106 51.2475361,18.1030106 C51.2475361,18.1030106 48.6243899,19.1812323 48.68555,18.6718883 C48.7464406,18.1628089 52.6205387,16.3953192 52.6205387,16.3953192 C52.6205387,16.3953192 49.1123231,17.4735409 49.3259791,16.6646762 C49.5396351,15.8560761 53.7187252,12.6206174 53.7187252,12.6206174 C53.7187252,12.6206174 48.9902724,16.1558614 48.5939446,15.676152 C48.1976167,15.1969718 50.6073763,13.2498226 50.6073763,13.2498226 C50.6073763,13.2498226 46.6109582,15.676152 45.2077797,14.9609537 C44.1982349,14.4465824 49.3564245,11.1227492 49.3564245,11.1227492 C49.3564245,11.1227492 46.0007049,13.6393053 45.2077797,12.980201 C44.4145852,12.3208321 48.9908113,6.92866548 48.9908113,6.92866548 C48.9908113,6.92866548 43.8043318,12.4409579 43.2859534,12.1713363 C42.7675748,11.9014502 44.7198465,9.26556208 44.7198465,9.26556208 C44.7198465,9.26556208 42.1570521,12.0215759 41.4557323,11.5421312 C40.7541431,11.0629509 45.1161744,3.90303004 45.1161744,3.90303004 C45.1161744,3.90303004 40.3879911,11.2426104 38.4357194,10.0143638 C41.501535,3.40876795 40.3575458,2.4649602 40.3575458,2.4649602 C40.3575458,2.4649602 39.9663371,9.20417618 36.1477411,9.02557507 C34.2259147,8.93561301 37.0627168,3.99299209 37.0627168,3.99299209 C37.0627168,3.99299209 34.4516949,8.50776411 32.7130792,8.41780205 C35.9181889,2.46125588 34.7752773,0.0386307631 34.7752773,0.0386307631 C34.7752773,0.0386307631 35.3052413,5.12598475 30.9585673,7.95687885 C32.6055777,6.51907357 29.9250434,0.0386307631 29.9250434,0.0386307631 C29.9250434,0.0386307631 32.2836118,9.58810247 28.1864277,7.76742931 C27.5389935,7.48007994 28.1406251,3.00420332 28.1406251,3.00420332 C28.1406251,3.00420332 27.3164464,8.12701294 26.0816601,7.85739137 C25.3612109,7.700487 21.505434,0.757533391 21.505434,0.757533391 C21.505434,0.757533391 24.6628548,8.261956 23.7020764,7.94708881 C23.0021037,7.7182148 21.6886446,4.62219726 21.6886446,4.62219726 C21.6886446,4.62219726 22.3293432,7.67773187 21.6886446,7.85739137 C21.0482155,8.03705087 17.4791093,4.62219726 17.4791093,4.62219726 C17.4791093,4.62219726 20.1332396,7.67773187 19.6752129,8.306937 C18.9817065,9.26027018 18.1688437,9.30472205 17.2045627,8.93561301 C15.8008454,8.39875123 13.9100032,5.880343 13.9100032,5.880343 C13.9100032,5.880343 15.794918,8.43050257 15.4656776,9.38542327 C14.936522,10.9198054 9.51752661,6.41958612 9.51752661,6.41958612 C9.51752661,6.41958612 12.7204808,9.38542327 11.9881768,10.0143638 C11.2561422,10.643569 7.28100889,10.4488277 6.03975636,10.452532 C2.37931429,10.4639095 1.11111902,11.3069069 0,12.1713363" id="path3010"></path>
                                        </g>
                                    </g>
                                </g>
                            </g>
                        </g>
                    </g>
                </g>
            </g>
        </g>
    </g>
</svg>