<?xml version="1.0" encoding="utf-8"?>
<!-- Generator: Adobe Illustrator 16.0.0, SVG Export Plug-In . SVG Version: 6.00 Build 0)  -->
<!DOCTYPE svg PUBLIC "-//W3C//DTD SVG 1.1//EN" "http://www.w3.org/Graphics/SVG/1.1/DTD/svg11.dtd">
<svg version="1.1" id="Ebene_1" xmlns="http://www.w3.org/2000/svg" xmlns:xlink="http://www.w3.org/1999/xlink" x="0px" y="0px"
	 width="242px" height="165px" viewBox="0 0 242 165" enable-background="new 0 0 242 165" xml:space="preserve">
<path fill="#FFFFFF" d="M81.416,76.921c-2.23,0.982-5.078,2.095-6.19,2.686c-2.051,1.093-5.228,3.488-7.009,6.232
	c-1.322,2.042-2.55,4.818-2.948,6.641c-0.245,1.146-0.366,2.828-0.34,4.795c0.048,4.602,0.841,10.715,2.42,14.913
	c1.797,4.765,2.776,6.35,4.849,11.174c0.879,2.042,1.706,3.991,2.104,4.94c0.168,0.374,0.117,0.805-0.106,1.146
	c-0.551,0.842-1.788,2.425-3.833,3.526c-3.564,1.928-11.072,2.622-14.798,2.646h-0.017c-3.718-0.023-11.227-0.718-14.796-2.646
	c-2.046-1.102-3.277-2.685-3.828-3.526c-0.229-0.342-0.273-0.772-0.112-1.146c0.403-0.949,1.232-2.898,2.109-4.94
	c2.073-4.824,3.051-6.409,4.849-11.174c1.581-4.198,2.373-10.312,2.417-14.913c0.023-1.967-0.093-3.648-0.344-4.795
	c-0.398-1.822-1.625-4.599-2.947-6.641c-1.78-2.744-4.96-5.14-7.007-6.232c-1.541-0.819-6.436-2.652-8.364-3.716
	c-2.454-1.357-5.65-3.466-7.796-5.147c-2.392-1.868-7.086-6.479-8.922-8.758c-3.519-4.365-6.761-9.483-8.33-15.006
	c-1.949-6.846-1.877-9.775-2.133-11.984c-0.046-0.374,0.237-0.71,0.619-0.732c1.881-0.062,8.661-0.217,32.339-0.255
	c0.469-0.007,0.884,0.284,1.053,0.721c6.661,17.644,24.033,32.237,46.958,40.176C82.249,75.227,82.33,76.524,81.416,76.921z
	 M139.716,127.133c2.915,7.739,4.506,10.303,7.871,18.149c1.426,3.311,2.768,6.478,3.421,8.006c0.264,0.62,0.193,1.308-0.174,1.876
	c-0.9,1.368-2.906,3.936-6.225,5.725c-5.787,3.13-17.98,4.262-24.031,4.285h-0.022c-6.05-0.023-18.242-1.155-24.031-4.285
	c-3.317-1.789-5.317-4.356-6.217-5.725c-0.367-0.568-0.439-1.256-0.175-1.876c0.654-1.528,1.989-4.695,3.414-8.006
	c3.367-7.847,4.962-10.41,7.877-18.149c2.565-6.815,3.854-16.742,3.935-24.223c0.031-3.181-0.161-5.918-0.56-7.785
	c-0.645-2.951-2.642-7.449-4.786-10.77c-2.888-4.472-8.058-8.344-11.38-10.117c-2.512-1.339-10.455-4.314-13.584-6.042
	c-3.985-2.196-9.177-5.629-12.661-8.351c-3.881-3.036-11.505-10.517-14.482-14.225c-5.718-7.093-10.986-15.405-13.534-24.362
	C31.213,10.14,31.335,5.39,30.913,1.796c-0.072-0.621,0.39-1.164,1.005-1.187c3.853-0.138,20.327-0.497,88.656-0.427
	c68.319-0.069,84.793,0.289,88.643,0.427c0.622,0.023,1.083,0.566,1.008,1.187c-0.422,3.593-0.302,8.344-3.457,19.462
	c-2.553,8.957-7.817,17.27-13.537,24.362c-2.976,3.708-10.598,11.189-14.479,14.225c-3.488,2.722-8.684,6.155-12.667,8.351
	c-3.126,1.729-11.073,4.704-13.577,6.042c-3.326,1.773-8.488,5.645-11.386,10.117c-2.139,3.32-4.138,7.818-4.777,10.77
	c-0.408,1.867-0.591,4.604-0.561,7.785C135.856,110.391,137.15,120.317,139.716,127.133z M231.192,61.986
	c-1.833,2.28-6.524,6.891-8.915,8.758c-2.148,1.681-5.347,3.79-7.804,5.147c-1.925,1.063-6.819,2.896-8.355,3.716
	c-2.05,1.093-5.234,3.488-7.018,6.232c-1.317,2.042-2.548,4.818-2.942,6.641c-0.254,1.146-0.36,2.828-0.348,4.795
	c0.049,4.602,0.848,10.715,2.422,14.913c1.799,4.765,2.777,6.35,4.852,11.174c0.875,2.042,1.699,3.991,2.107,4.94
	c0.16,0.374,0.116,0.805-0.112,1.146c-0.556,0.842-1.781,2.425-3.828,3.526c-3.573,1.928-11.073,2.622-14.799,2.646h-0.013
	c-3.726-0.023-11.234-0.718-14.799-2.646c-2.051-1.102-3.277-2.685-3.834-3.526c-0.227-0.342-0.271-0.772-0.11-1.146
	c0.403-0.949,1.226-2.898,2.108-4.94c2.073-4.824,3.05-6.409,4.845-11.174c1.581-4.198,2.378-10.312,2.429-14.913
	c0.013-1.967-0.102-3.648-0.348-4.795c-0.398-1.822-1.628-4.599-2.944-6.641c-1.784-2.744-4.962-5.14-7.014-6.232
	c-1.11-0.591-3.964-1.704-6.188-2.686c-0.918-0.397-0.837-1.695,0.104-2.017c22.929-7.939,40.298-22.532,46.956-40.176
	c0.171-0.437,0.592-0.728,1.052-0.721c23.684,0.038,30.461,0.192,32.342,0.255c0.382,0.022,0.663,0.358,0.618,0.732
	c-0.251,2.209-0.184,5.138-2.129,11.984C237.954,52.503,234.711,57.621,231.192,61.986z"/>
</svg>
