<?xml version="1.0" encoding="utf-8"?>
<!-- Generator: Adobe Illustrator 16.0.0, SVG Export Plug-In . SVG Version: 6.00 Build 0)  -->
<!DOCTYPE svg PUBLIC "-//W3C//DTD SVG 1.1//EN" "http://www.w3.org/Graphics/SVG/1.1/DTD/svg11.dtd">
<svg version="1.1" id="Ebene_1" xmlns="http://www.w3.org/2000/svg" xmlns:xlink="http://www.w3.org/1999/xlink" x="0px" y="0px"
	 width="46px" height="45px" viewBox="0 0 46 45" enable-background="new 0 0 46 45" xml:space="preserve">
<g>
	<path fill-rule="evenodd" clip-rule="evenodd" fill="#8C8C8C" d="M23,0C10.259,0-0.07,10.331-0.07,23.071
		c0,10.192,6.611,18.839,15.776,21.887c1.154,0.217,1.577-0.496,1.577-1.107c0-0.548-0.021-2.37-0.033-4.298
		c-6.415,1.396-7.772-2.717-7.772-2.717c-1.048-2.67-2.562-3.377-2.562-3.377c-2.091-1.434,0.157-1.404,0.157-1.404
		c2.32,0.16,3.537,2.378,3.537,2.378c2.06,3.528,5.4,2.507,6.716,1.918c0.205-1.491,0.802-2.512,1.464-3.085
		c-5.125-0.578-10.51-2.561-10.51-11.403c0-2.513,0.901-4.573,2.377-6.189c-0.242-0.583-1.027-2.928,0.225-6.103
		c0,0,1.937-0.622,6.344,2.363c1.839-0.512,3.813-0.771,5.773-0.779c1.959,0.009,3.936,0.268,5.782,0.779
		c4.404-2.985,6.336-2.363,6.336-2.363c1.258,3.175,0.467,5.52,0.227,6.103c1.48,1.616,2.377,3.677,2.377,6.189
		c0,8.866-5.4,10.813-10.535,11.386c0.826,0.714,1.562,2.118,1.562,4.27c0,3.088-0.025,5.572-0.025,6.333
		c0,0.612,0.416,1.335,1.586,1.106C39.467,41.9,46.07,33.258,46.07,23.071C46.07,10.331,35.74,0,23,0z"/>
	<path fill="#FFFFFF" d="M8.667,33.126c-0.047,0.109-0.229,0.145-0.394,0.069c-0.169-0.076-0.262-0.234-0.206-0.348
		c0.051-0.12,0.231-0.152,0.395-0.074C8.633,32.85,8.727,33.007,8.667,33.126L8.667,33.126z M8.385,32.913"/>
	<path fill="#FFFFFF" d="M9.605,34.166c-0.113,0.104-0.326,0.054-0.472-0.109c-0.15-0.158-0.181-0.376-0.07-0.478
		c0.113-0.102,0.325-0.052,0.476,0.106C9.691,33.851,9.719,34.06,9.605,34.166L9.605,34.166z M9.385,33.928"/>
	<path fill="#FFFFFF" d="M10.51,35.494c-0.14,0.098-0.37,0.007-0.512-0.196c-0.144-0.21-0.144-0.454,0.002-0.554
		c0.143-0.098,0.37-0.007,0.516,0.193C10.658,35.148,10.658,35.395,10.51,35.494L10.51,35.494z M10.51,35.494"/>
	<path fill="#FFFFFF" d="M11.758,36.775c-0.125,0.141-0.396,0.104-0.591-0.088c-0.205-0.185-0.26-0.448-0.131-0.59
		c0.126-0.138,0.397-0.1,0.597,0.091C11.833,36.376,11.895,36.641,11.758,36.775L11.758,36.775z M11.758,36.775"/>
	<path fill="#FFFFFF" d="M13.478,37.523c-0.055,0.178-0.314,0.264-0.577,0.184c-0.259-0.075-0.431-0.291-0.378-0.473
		c0.056-0.181,0.314-0.268,0.578-0.184C13.36,37.127,13.534,37.339,13.478,37.523L13.478,37.523z M13.478,37.523"/>
	<path fill="#FFFFFF" d="M15.368,37.66c0.006,0.193-0.217,0.346-0.49,0.355c-0.277,0-0.502-0.152-0.503-0.338
		c0-0.193,0.216-0.348,0.491-0.35C15.141,37.317,15.368,37.473,15.368,37.66L15.368,37.66z M15.368,37.66"/>
	<path fill="#FFFFFF" d="M17.126,37.363c0.027,0.183-0.164,0.375-0.436,0.424c-0.265,0.053-0.515-0.066-0.548-0.249
		c-0.033-0.191,0.158-0.38,0.429-0.429C16.843,37.061,17.086,37.173,17.126,37.363L17.126,37.363z M17.126,37.363"/>
</g>
</svg>
