<?xml version="1.0" encoding="UTF-8"?>
<svg width="48px" height="45px" viewBox="0 0 48 45" version="1.1" xmlns="http://www.w3.org/2000/svg" xmlns:xlink="http://www.w3.org/1999/xlink">
    <!-- Generator: Sketch 43.2 (39069) - http://www.bohemiancoding.com/sketch -->
    <title>github_white</title>
    <desc>Created with Sketch.</desc>
    <defs></defs>
    <g id="Page-1" stroke="none" stroke-width="1" fill="none" fill-rule="evenodd">
        <g id="github_white" fill="#FFFFFF">
            <path d="M24,0 C11.259,0 0.93,10.331 0.93,23.071 C0.93,33.263 7.541,41.91 16.706,44.958 C17.86,45.175 18.283,44.462 18.283,43.851 C18.283,43.303 18.262,41.481 18.25,39.553 C11.835,40.949 10.478,36.836 10.478,36.836 C9.43,34.166 7.916,33.459 7.916,33.459 C5.825,32.025 8.073,32.055 8.073,32.055 C10.393,32.215 11.61,34.433 11.61,34.433 C13.67,37.961 17.01,36.94 18.326,36.351 C18.531,34.86 19.128,33.839 19.79,33.266 C14.665,32.688 9.28,30.705 9.28,21.863 C9.28,19.35 10.181,17.29 11.657,15.674 C11.415,15.091 10.63,12.746 11.882,9.571 C11.882,9.571 13.819,8.949 18.226,11.934 C20.065,11.422 22.039,11.163 23.999,11.155 C25.958,11.164 27.935,11.423 29.781,11.934 C34.185,8.949 36.117,9.571 36.117,9.571 C37.375,12.746 36.584,15.091 36.344,15.674 C37.824,17.29 38.721,19.351 38.721,21.863 C38.721,30.729 33.321,32.676 28.186,33.249 C29.012,33.963 29.748,35.367 29.748,37.519 C29.748,40.607 29.723,43.091 29.723,43.852 C29.723,44.464 30.139,45.187 31.309,44.958 C40.467,41.9 47.07,33.258 47.07,23.071 C47.07,10.331 36.74,0 24,0 Z" id="Shape"></path>
            <path d="M9.667,33.126 C9.62,33.235 9.438,33.271 9.273,33.195 C9.104,33.119 9.011,32.961 9.067,32.847 C9.118,32.727 9.298,32.695 9.462,32.773 C9.633,32.85 9.727,33.007 9.667,33.126 L9.667,33.126 Z" id="Shape" fill-rule="nonzero"></path>
            <path d="M10.605,34.166 C10.492,34.27 10.279,34.22 10.133,34.057 C9.983,33.899 9.952,33.681 10.063,33.579 C10.176,33.477 10.388,33.527 10.539,33.685 C10.691,33.851 10.719,34.06 10.605,34.166 L10.605,34.166 Z" id="Shape" fill-rule="nonzero"></path>
            <path d="M11.51,35.494 C11.37,35.592 11.14,35.501 10.998,35.298 C10.854,35.088 10.854,34.844 11,34.744 C11.143,34.646 11.37,34.737 11.516,34.937 C11.658,35.148 11.658,35.395 11.51,35.494 L11.51,35.494 Z" id="Shape" fill-rule="nonzero"></path>
            <path d="M12.758,36.775 C12.633,36.916 12.362,36.879 12.167,36.687 C11.962,36.502 11.907,36.239 12.036,36.097 C12.162,35.959 12.433,35.997 12.633,36.188 C12.833,36.376 12.895,36.641 12.758,36.775 L12.758,36.775 Z" id="Shape" fill-rule="nonzero"></path>
            <path d="M14.478,37.523 C14.423,37.701 14.164,37.787 13.901,37.707 C13.642,37.632 13.47,37.416 13.523,37.234 C13.579,37.053 13.837,36.966 14.101,37.05 C14.36,37.127 14.534,37.339 14.478,37.523 L14.478,37.523 Z" id="Shape" fill-rule="nonzero"></path>
            <path d="M16.368,37.66 C16.374,37.853 16.151,38.006 15.878,38.015 C15.601,38.015 15.376,37.863 15.375,37.677 C15.375,37.484 15.591,37.329 15.866,37.327 C16.141,37.317 16.368,37.473 16.368,37.66 L16.368,37.66 Z" id="Shape" fill-rule="nonzero"></path>
            <path d="M18.126,37.363 C18.153,37.546 17.962,37.738 17.69,37.787 C17.425,37.84 17.175,37.721 17.142,37.538 C17.109,37.347 17.3,37.158 17.571,37.109 C17.843,37.061 18.086,37.173 18.126,37.363 L18.126,37.363 Z" id="Shape" fill-rule="nonzero"></path>
        </g>
    </g>
</svg>