<?xml version="1.0" encoding="utf-8"?>
<!-- Generator: Adobe Illustrator 16.0.0, SVG Export Plug-In . SVG Version: 6.00 Build 0)  -->
<!DOCTYPE svg PUBLIC "-//W3C//DTD SVG 1.1//EN" "http://www.w3.org/Graphics/SVG/1.1/DTD/svg11.dtd">
<svg version="1.1" id="Ebene_1" xmlns="http://www.w3.org/2000/svg" xmlns:xlink="http://www.w3.org/1999/xlink" x="0px" y="0px"
	 width="93.58px" height="93.58px" viewBox="0 0 93.58 93.58" enable-background="new 0 0 93.58 93.58" xml:space="preserve">
<g>
	<g>
		<circle fill="none" stroke="#FEB672" stroke-width="2.8347" stroke-miterlimit="10" cx="46.789" cy="46.789" r="45.374"/>
	</g>
	<g>
		<path fill="#FFFFFF" d="M38.603,60.376l-7.91-13.7l7.91-13.7h15.82l7.91,13.7l-7.91,13.7H38.603"/>
		<path fill="#FEB672" d="M46.777,52.93c-3.399,0-6.166-2.766-6.166-6.166c0-3.399,2.767-6.164,6.166-6.164
			c3.4,0,6.166,2.765,6.166,6.164C52.942,50.164,50.177,52.93,46.777,52.93"/>
		<path fill="#FEB672" d="M59.181,28.383c-0.486-0.84-1.676-1.527-2.645-1.527H37.044c-0.97,0-2.16,0.688-2.645,1.527l-5.695,9.865
			c-0.045,0.637,0.072,1.303,0.354,1.789l3.854,6.592l6.883-11.89h21.752c0.516,0,1.092,0.195,1.592,0.502L59.181,28.383"/>
		<path fill="#FFCC66" d="M28.953,37.815l-0.25,0.433c-0.045,0.637,0.072,1.303,0.354,1.789l3.855,6.592l2.051-3.543L28.953,37.815"
			/>
		<path fill="#FFFFFF" d="M37.546,31.925c-0.656-0.001-1.189-0.534-1.189-1.19c0-0.655,0.533-1.188,1.189-1.189
			c0.656,0.001,1.189,0.534,1.189,1.189C38.735,31.392,38.203,31.924,37.546,31.925 M57.038,30.734
			c0.008,0.609-0.479,1.109-1.088,1.115c-0.607,0.008-1.107-0.479-1.115-1.086c0-0.01,0-0.02,0-0.029
			c0.008-0.608,0.508-1.095,1.115-1.086C56.548,29.654,57.03,30.139,57.038,30.734z"/>
		<g>
			<path fill="#FEB672" d="M68.927,45.264L63.14,35.24c-0.5-0.306-1.076-0.501-1.592-0.501h-7.844l6.783,11.955l-10.74,18.974
				c-0.236,0.408-0.641,0.781-1.104,1.057h7.893c0.969,0,2.158-0.688,2.645-1.527l9.746-16.881
				C69.411,47.477,69.411,46.104,68.927,45.264"/>
			<path fill="#FFCC66" d="M63.401,35.69l-0.26-0.45c-0.5-0.306-1.076-0.501-1.592-0.501h-7.844l2.043,3.599L63.401,35.69"/>
			<path fill="#FFFFFF" d="M55.937,63.809c-0.656-0.001-1.189-0.533-1.189-1.19c0-0.656,0.533-1.188,1.189-1.19
				c0.656,0.002,1.189,0.534,1.189,1.19C57.126,63.275,56.593,63.808,55.937,63.809 M65.194,47.953
				c-0.658,0-1.189-0.533-1.189-1.189s0.531-1.188,1.189-1.189c0.656,0.001,1.188,0.533,1.189,1.189
				C66.382,47.42,65.851,47.953,65.194,47.953"/>
		</g>
		<g>
			<path fill="#FEB672" d="M39.945,58.652L29.058,40.037c-0.281-0.486-0.398-1.152-0.354-1.789l-4.051,7.016
				c-0.485,0.84-0.485,2.213,0,3.053L34.4,65.197c0.484,0.84,1.675,1.525,2.645,1.525h11.599c0.463-0.273,0.867-0.646,1.104-1.055
				l3.973-7.016H39.945"/>
			<path fill="#FFCC66" d="M47.983,66.723h0.676c0.463-0.273,0.867-0.646,1.104-1.055l3.971-7.016h-4.229L47.983,66.723"/>
			<path fill="#FFFFFF" d="M37.546,63.809c-0.657-0.001-1.189-0.533-1.189-1.19c0-0.656,0.533-1.188,1.189-1.19
				c0.656,0.002,1.189,0.534,1.189,1.19C38.736,63.275,38.203,63.808,37.546,63.809 M28.272,47.953
				c-0.656,0-1.188-0.533-1.188-1.189s0.532-1.188,1.188-1.189c0.657,0.001,1.189,0.533,1.19,1.189
				C29.461,47.42,28.929,47.953,28.272,47.953"/>
		</g>
	</g>
</g>
</svg>
