<?xml version="1.0" encoding="utf-8"?>
<!-- Generator: Adobe Illustrator 16.0.0, SVG Export Plug-In . SVG Version: 6.00 Build 0)  -->
<!DOCTYPE svg PUBLIC "-//W3C//DTD SVG 1.1//EN" "http://www.w3.org/Graphics/SVG/1.1/DTD/svg11.dtd">
<svg version="1.1" id="Ebene_1" xmlns="http://www.w3.org/2000/svg" xmlns:xlink="http://www.w3.org/1999/xlink" x="0px" y="0px"
	 width="93.58px" height="93.58px" viewBox="0 0 93.58 93.58" enable-background="new 0 0 93.58 93.58" xml:space="preserve">
<g>
	<circle fill="none" stroke="#FEB672" stroke-width="2.8347" stroke-miterlimit="10" cx="46.79" cy="46.79" r="45.374"/>
</g>
<path fill="#FEB672" d="M46.79,66.79c-9.465,0-17.143-2.562-17.143-5.714c0-1.725,0-3.611,0-5.715c0-0.496,0.249-0.969,0.605-1.428
	c1.912,2.461,8.559,4.285,16.537,4.285c7.98,0,14.627-1.824,16.538-4.285c0.356,0.459,0.604,0.932,0.604,1.428
	c0,1.654,0,3.41,0,5.715C63.933,64.229,56.255,66.79,46.79,66.79z M46.79,55.361c-9.465,0-17.143-2.561-17.143-5.715
	c0-1.725,0-3.609,0-5.714c0-0.303,0.115-0.597,0.268-0.889l0,0c0.087-0.183,0.201-0.362,0.338-0.54
	c1.912,2.46,8.559,4.286,16.537,4.286c7.98,0,14.627-1.826,16.538-4.286c0.136,0.178,0.251,0.357,0.337,0.54l0,0
	c0.153,0.292,0.268,0.586,0.268,0.889c0,1.655,0,3.409,0,5.714C63.933,52.801,56.255,55.361,46.79,55.361z M46.79,43.933
	c-9.465,0-17.143-2.56-17.143-5.714c0-0.902,0-1.857,0-2.857c0-0.908,0-1.851,0-2.857c0-3.154,7.678-5.714,17.143-5.714
	s17.143,2.56,17.143,5.714c0,0.893,0,1.838,0,2.857c0,0.875,0,1.797,0,2.857C63.933,41.373,56.255,43.933,46.79,43.933z
	 M46.79,29.646c-6.311,0-11.428,1.277-11.428,2.857c0,1.581,5.117,2.857,11.428,2.857c6.312,0,11.43-1.276,11.43-2.857
	C58.22,30.924,53.103,29.646,46.79,29.646z"/>
</svg>
