<?xml version="1.0" encoding="UTF-8"?>
<svg width="501px" height="501px" viewBox="0 0 501 501" version="1.1" xmlns="http://www.w3.org/2000/svg" xmlns:xlink="http://www.w3.org/1999/xlink">
    <!-- Generator: Sketch 47.1 (45422) - http://www.bohemiancoding.com/sketch -->
    <title>gorm-pinned-icon</title>
    <desc>Created with Sketch.</desc>
    <defs></defs>
    <g id="Page-1" stroke="none" stroke-width="1" fill="none" fill-rule="evenodd">
        <g id="gorm-pinned-icon">
            <circle id="Combined-Shape" fill="#000000" cx="250.5" cy="250.5" r="250.5"></circle>
            <path d="M250.888,420 C164.266935,420 94,396.553284 94,367.707051 L94,315.404949 C94,310.865694 96.2787797,306.53693 99.5367931,302.336288 C117.034889,324.85868 177.866397,341.551424 250.878848,341.551424 C323.909603,341.551424 384.741111,324.85868 402.230055,302.336288 C405.488069,306.53693 407.757696,310.865694 407.757696,315.404949 L407.757696,367.707051 C407.776,396.562435 337.509065,420 250.888,420 Z M250.888,328.934848 C164.266935,328.934848 94,305.497284 94,276.632747 L94,224.339798 C94,221.566826 95.0524483,218.876219 96.4526622,216.203915 L96.4526622,216.203915 C97.2488621,214.52915 98.2921585,212.890992 99.545945,211.261984 C117.044041,233.775225 177.875548,250.486272 250.888,250.486272 C323.918755,250.486272 384.750263,233.775225 402.239207,211.261984 C403.483841,212.890992 404.53629,214.52915 405.323338,216.203915 L405.323338,216.203915 C406.723551,218.876219 407.776,221.566826 407.776,224.339798 L407.776,276.632747 C407.776,305.506436 337.509065,328.934848 250.888,328.934848 Z M250.888,237.878848 C164.266935,237.878848 94,214.450435 94,185.585899 L94,159.439424 L94,133.292949 C94,104.428413 164.266935,81 250.888,81 C337.509065,81 407.776,104.428413 407.776,133.292949 L407.776,159.439424 L407.776,185.585899 C407.776,214.450435 337.509065,237.878848 250.888,237.878848 Z M250.888,107.128171 C193.131471,107.128171 146.302101,118.814923 146.302101,133.274646 C146.302101,147.743521 193.131471,159.421121 250.888,159.421121 C308.65368,159.421121 355.492202,147.743521 355.492202,133.274646 C355.492202,118.824074 308.662832,107.128171 250.888,107.128171 Z" id="Shape" fill="#FFFFFF" fill-rule="nonzero"></path>
        </g>
    </g>
</svg>