<?xml version="1.0" encoding="UTF-8"?>
<svg width="130px" height="130px" viewBox="0 0 130 130" version="1.1" xmlns="http://www.w3.org/2000/svg" xmlns:xlink="http://www.w3.org/1999/xlink">
    <!-- Generator: Sketch 43.2 (39069) - http://www.bohemiancoding.com/sketch -->
    <title>gorm_logo</title>
    <desc>Created with Sketch.</desc>
    <defs></defs>
    <g id="Page-1" stroke="none" stroke-width="1" fill="none" fill-rule="evenodd">
        <g id="gorm_logo">
            <path d="M64.917,0 C29.065,0 0,29.061 0,64.915 C0,100.768 29.066,129.832 64.917,129.832 C100.771,129.832 129.835,100.768 129.835,64.915 C129.835,29.061 100.771,0 64.917,0 Z" id="Shape" fill="#FEB672" fill-rule="nonzero"></path>
            <g id="Group" transform="translate(29.000000, 17.000000)" fill="#FFFFFF">
                <path d="M36.2305841,90 C20.6439027,90 8,85.7809744 8,80.5903543 L8,71.1790617 C8,70.3622636 8.4100459,69.5833413 8.9962961,68.8274737 C12.144921,72.8801755 23.0910035,75.8838846 36.2289373,75.8838846 C49.3701646,75.8838846 60.3162471,72.8801755 63.4632252,68.8274737 C64.0494755,69.5833413 64.4578745,70.3622636 64.4578745,71.1790617 L64.4578745,80.5903543 C64.4611681,85.7826211 51.8172654,90 36.2305841,90 Z M36.2305841,73.6136452 C20.6439027,73.6136452 8,69.3962664 8,64.2023527 L8,54.792707 C8,54.2937356 8.1893786,53.8095851 8.4413345,53.3287281 L8.4413345,53.3287281 C8.5846035,53.0273692 8.7723353,52.7325973 8.9979429,52.4394721 C12.1465678,56.4905272 23.0926502,59.4975298 36.2305841,59.4975298 C49.3718114,59.4975298 60.3178939,56.4905272 63.464872,52.4394721 C63.6888328,52.7325973 63.8782114,53.0273692 64.0198336,53.3287281 L64.0198336,53.3287281 C64.2717895,53.8095851 64.4611681,54.2937356 64.4611681,54.792707 L64.4611681,64.2023527 C64.4611681,69.3979132 51.8172654,73.6136452 36.2305841,73.6136452 Z M36.2305841,57.2289372 C20.6439027,57.2289372 8,53.0132052 8,47.8192915 L8,43.1144686 L8,38.4096457 C8,33.2157321 20.6439027,29 36.2305841,29 C51.8172654,29 64.4611681,33.2157321 64.4611681,38.4096457 L64.4611681,43.1144686 L64.4611681,47.8192915 C64.4611681,53.0132052 51.8172654,57.2289372 36.2305841,57.2289372 Z M36.2305841,33.7015293 C25.8378164,33.7015293 17.4112926,35.8044551 17.4112926,38.4063522 C17.4112926,41.0098961 25.8378164,43.1111751 36.2305841,43.1111751 C46.6249985,43.1111751 55.0531691,41.0098961 55.0531691,38.4063522 C55.0531691,35.8061018 46.6266452,33.7015293 36.2305841,33.7015293 Z" id="Shape" fill-rule="nonzero"></path>
                <text id="GORM" font-family="Avenir-Black, Avenir" font-size="22" font-weight="700">
                    <tspan x="0.556" y="22">GORM</tspan>
                </text>
            </g>
        </g>
    </g>
</svg>