<?xml version="1.0" encoding="utf-8"?>
<!-- Generator: Adobe Illustrator 16.0.0, SVG Export Plug-In . SVG Version: 6.00 Build 0)  -->
<!DOCTYPE svg PUBLIC "-//W3C//DTD SVG 1.1//EN" "http://www.w3.org/Graphics/SVG/1.1/DTD/svg11.dtd">
<svg version="1.1" id="Ebene_1" xmlns="http://www.w3.org/2000/svg" xmlns:xlink="http://www.w3.org/1999/xlink" x="0px" y="0px"
	 width="93.58px" height="93.58px" viewBox="0 0 93.58 93.58" enable-background="new 0 0 93.58 93.58" xml:space="preserve">
<g>
	<g>
		<circle fill="none" stroke="#FEB672" stroke-width="2.8347" stroke-miterlimit="10" cx="46.789" cy="46.789" r="45.374"/>
	</g>
	<g>
		<polygon fill="#FEB672" points="42.683,49.096 46.791,49.096 46.791,49.096 46.791,49.096 50.897,49.096 46.791,39.211 		"/>
		<path fill="#FEB672" d="M46.791,23.622L46.791,23.622L46.791,23.622l-22.5,8.024l3.432,29.75l19.068,10.562l0,0l0,0l19.068-10.562
			l3.432-29.75L46.791,23.622z M60.831,60.502h-5.244l0,0l-2.828-7.056h-5.968l0,0l0,0h-5.969l-2.828,7.056l0,0H32.75l0,0
			l14.041-31.538l0,0l0,0l0,0l0,0L60.831,60.502L60.831,60.502z"/>
	</g>
</g>
</svg>
