<?xml version="1.0" encoding="utf-8"?>
<!-- Generator: Adobe Illustrator 16.0.0, SVG Export Plug-In . SVG Version: 6.00 Build 0)  -->
<!DOCTYPE svg PUBLIC "-//W3C//DTD SVG 1.1//EN" "http://www.w3.org/Graphics/SVG/1.1/DTD/svg11.dtd">
<svg version="1.1" id="Ebene_1" xmlns="http://www.w3.org/2000/svg" xmlns:xlink="http://www.w3.org/1999/xlink" x="0px" y="0px"
	 width="130px" height="130px" viewBox="0 0 130 130" enable-background="new 0 0 130 130" xml:space="preserve">
<path fill="#FEB672" d="M65,0.084c-35.852,0-64.917,29.061-64.917,64.915c0,35.853,29.066,64.917,64.917,64.917
	c35.854,0,64.918-29.064,64.918-64.917C129.918,29.145,100.854,0.084,65,0.084z M99.416,31.374c-0.354-0.272-0.807-0.502-1.348-0.69
	c-0.529-0.187-1.107-0.377-1.723-0.562c-0.605-0.184-1.18-0.434-1.701-0.746c-0.518-0.305-0.953-0.719-1.297-1.221
	c-0.34-0.5-0.512-1.17-0.512-1.995c0-0.8,0.158-1.512,0.473-2.108c0.318-0.605,0.744-1.117,1.27-1.521
	c0.529-0.409,1.146-0.719,1.83-0.924c0.693-0.204,1.418-0.309,2.148-0.309c0.852,0,1.684,0.124,2.473,0.362
	c0.76,0.234,1.459,0.62,2.074,1.151l-2.174,2.379c-0.275-0.317-0.639-0.559-1.084-0.713c-0.473-0.168-0.93-0.251-1.352-0.251
	c-0.248,0-0.508,0.026-0.771,0.086c-0.264,0.059-0.516,0.151-0.752,0.277c-0.24,0.129-0.441,0.3-0.59,0.509
	c-0.154,0.215-0.232,0.479-0.232,0.78c0,0.495,0.18,0.861,0.553,1.126c0.348,0.248,0.793,0.464,1.326,0.634
	c0.521,0.173,1.09,0.349,1.689,0.517c0.592,0.171,1.152,0.414,1.668,0.723c0.512,0.308,0.941,0.729,1.273,1.244
	c0.336,0.515,0.504,1.212,0.504,2.084c0,0.826-0.156,1.56-0.465,2.179c-0.309,0.617-0.73,1.135-1.256,1.539
	c-0.525,0.402-1.148,0.713-1.84,0.907c-0.703,0.2-1.451,0.299-2.227,0.299c-0.973,0-1.891-0.148-2.725-0.445
	c-0.809-0.289-1.57-0.754-2.273-1.389l2.26-2.484c0.34,0.43,0.771,0.771,1.27,1.012c0.533,0.25,1.094,0.381,1.662,0.381
	c0.281,0,0.564-0.032,0.848-0.097c0.285-0.066,0.543-0.171,0.775-0.299c0.234-0.136,0.422-0.313,0.568-0.521
	c0.145-0.215,0.219-0.474,0.219-0.76C99.979,32.033,99.793,31.657,99.416,31.374z M81.523,21.686h3.184v12.129h6.217v2.929h-9.4
	V21.686z M74.594,21.686h3.182v15.058h-3.182V21.686z M63.419,21.686h2.663l6.551,15.058h-3.598l-1.311-3.229h-6.035l-1.269,3.229
	h-3.51L63.419,21.686z M43.683,21.686h5.807c0.764,0,1.499,0.074,2.188,0.225c0.679,0.144,1.284,0.396,1.796,0.739
	c0.51,0.344,0.92,0.81,1.221,1.389s0.453,1.318,0.453,2.187c0,1.05-0.276,1.956-0.822,2.692c-0.523,0.705-1.291,1.163-2.281,1.371
	l-0.234,0.05l3.851,6.405h-3.817l-3.183-6.086h-1.794v6.086h-3.184V21.686z M26.95,25.932c0.4-0.973,0.969-1.812,1.691-2.496
	c0.719-0.684,1.584-1.215,2.572-1.586c0.99-0.367,2.088-0.553,3.262-0.553c1.205,0,2.329,0.148,3.344,0.437
	c0.978,0.28,1.854,0.767,2.602,1.442l-2.246,2.451c-0.449-0.447-0.961-0.792-1.516-1.031c-0.582-0.25-1.316-0.37-2.184-0.37
	c-0.725,0-1.391,0.12-1.979,0.37c-0.591,0.249-1.103,0.598-1.525,1.041c-0.423,0.446-0.749,0.98-0.975,1.589
	c-0.225,0.61-0.335,1.279-0.335,1.989c0,0.723,0.11,1.395,0.335,2c0.226,0.601,0.554,1.132,0.975,1.577
	c0.423,0.441,0.935,0.792,1.525,1.04c0.587,0.247,1.255,0.371,1.979,0.371c0.738,0,1.381-0.083,1.919-0.251
	c0.506-0.157,0.922-0.319,1.236-0.485l0.022-0.013l0.035-0.033l0.034-0.061v-2.557h-2.73V27.88h5.786v7.822
	c-0.971,0.499-1.991,0.864-3.03,1.085c-1.063,0.23-2.166,0.342-3.272,0.342c-1.174,0-2.271-0.185-3.262-0.553
	c-0.988-0.365-1.854-0.901-2.572-1.585c-0.719-0.681-1.291-1.524-1.691-2.499c-0.402-0.972-0.607-2.074-0.607-3.277
	C26.343,28.014,26.548,26.91,26.95,25.932z M47.733,77.602c-0.973,0.428-2.215,0.914-2.7,1.172c-0.895,0.477-2.28,1.521-3.058,2.719
	c-0.576,0.891-1.112,2.102-1.286,2.896c-0.106,0.5-0.159,1.232-0.148,2.092c0.021,2.006,0.367,4.674,1.056,6.504
	c0.784,2.078,1.211,2.77,2.115,4.875c0.384,0.891,0.744,1.74,0.918,2.154c0.073,0.164,0.051,0.352-0.047,0.5
	c-0.24,0.367-0.779,1.059-1.672,1.539c-1.555,0.84-4.83,1.143-6.455,1.154h-0.007c-1.622-0.012-4.897-0.314-6.454-1.154
	c-0.893-0.48-1.43-1.172-1.67-1.539c-0.1-0.148-0.119-0.336-0.049-0.5c0.176-0.414,0.537-1.264,0.92-2.154
	c0.904-2.105,1.331-2.797,2.115-4.875c0.689-1.83,1.035-4.498,1.055-6.504c0.01-0.859-0.041-1.592-0.15-2.092
	c-0.174-0.795-0.709-2.006-1.285-2.896c-0.776-1.197-2.164-2.242-3.057-2.719c-0.672-0.357-2.808-1.158-3.648-1.621
	c-1.07-0.592-2.465-1.512-3.401-2.246c-1.043-0.814-3.091-2.826-3.892-3.82c-1.535-1.904-2.949-4.137-3.633-6.545
	c-0.851-2.986-0.819-4.264-0.931-5.228c-0.02-0.163,0.104-0.31,0.27-0.319c0.821-0.027,3.778-0.095,14.107-0.111
	c0.204-0.003,0.386,0.124,0.459,0.314c2.905,7.696,10.483,14.061,20.483,17.524C48.097,76.861,48.132,77.428,47.733,77.602z
	 M73.164,99.504c1.271,3.375,1.965,4.494,3.434,7.916c0.621,1.445,1.207,2.826,1.492,3.492c0.115,0.271,0.084,0.57-0.076,0.818
	c-0.393,0.598-1.268,1.717-2.715,2.498c-2.525,1.365-7.844,1.859-10.483,1.869h-0.01c-2.639-0.01-7.956-0.504-10.482-1.869
	c-1.447-0.781-2.318-1.9-2.711-2.498c-0.16-0.248-0.191-0.547-0.076-0.818c0.285-0.666,0.867-2.047,1.488-3.492
	c1.47-3.422,2.164-4.541,3.436-7.916c1.12-2.973,1.683-7.303,1.717-10.566c0.014-1.387-0.069-2.582-0.244-3.396
	c-0.281-1.287-1.152-3.248-2.088-4.697c-1.26-1.951-3.514-3.639-4.963-4.412c-1.096-0.584-4.561-1.883-5.926-2.637
	c-1.738-0.957-4.003-2.455-5.522-3.643c-1.693-1.324-5.019-4.587-6.317-6.205c-2.494-3.094-4.792-6.72-5.903-10.627
	c-1.378-4.85-1.325-6.922-1.509-8.489c-0.031-0.271,0.17-0.508,0.438-0.518c1.681-0.061,8.866-0.217,38.671-0.187
	c29.802-0.03,36.987,0.126,38.667,0.187c0.271,0.01,0.473,0.247,0.439,0.518c-0.184,1.567-0.131,3.64-1.508,8.489
	c-1.113,3.907-3.41,7.533-5.904,10.627c-1.299,1.617-4.623,4.88-6.316,6.205c-1.521,1.188-3.787,2.686-5.525,3.643
	c-1.363,0.754-4.83,2.053-5.922,2.637c-1.451,0.773-3.703,2.461-4.967,4.412c-0.934,1.449-1.805,3.41-2.084,4.697
	c-0.178,0.814-0.258,2.01-0.244,3.396C71.48,92.201,72.045,96.531,73.164,99.504z M113.066,71.086
	c-0.799,0.994-2.846,3.006-3.889,3.82c-0.938,0.734-2.332,1.654-3.404,2.246c-0.84,0.463-2.975,1.264-3.645,1.621
	c-0.895,0.477-2.283,1.521-3.061,2.719c-0.574,0.891-1.111,2.102-1.283,2.896c-0.111,0.5-0.158,1.232-0.152,2.092
	c0.021,2.006,0.369,4.674,1.057,6.504c0.785,2.078,1.211,2.77,2.115,4.875c0.383,0.891,0.742,1.74,0.92,2.154
	c0.07,0.164,0.051,0.352-0.049,0.5c-0.242,0.367-0.777,1.059-1.67,1.539c-1.559,0.84-4.83,1.143-6.455,1.154h-0.006
	c-1.625-0.012-4.9-0.314-6.455-1.154c-0.895-0.48-1.43-1.172-1.672-1.539c-0.1-0.148-0.119-0.336-0.049-0.5
	c0.176-0.414,0.535-1.264,0.92-2.154c0.904-2.105,1.33-2.797,2.113-4.875c0.689-1.83,1.037-4.498,1.059-6.504
	c0.006-0.859-0.043-1.592-0.15-2.092c-0.174-0.795-0.711-2.006-1.285-2.896c-0.777-1.197-2.164-2.242-3.059-2.719
	c-0.484-0.258-1.73-0.744-2.699-1.172c-0.4-0.174-0.365-0.74,0.045-0.881c10.002-3.463,17.578-9.828,20.482-17.524
	c0.074-0.19,0.258-0.317,0.459-0.314c10.33,0.017,13.287,0.084,14.107,0.111c0.166,0.01,0.289,0.156,0.27,0.319
	c-0.109,0.964-0.08,2.241-0.93,5.228C116.016,66.949,114.602,69.182,113.066,71.086z M51.835,26.201
	c0,0.438-0.099,0.779-0.287,1.022c-0.189,0.242-0.43,0.419-0.717,0.532c-0.277,0.111-0.596,0.178-0.938,0.202
	c-0.34,0.02-0.663,0.032-0.961,0.032h-2.065v-3.636h2.279c0.301,0,0.615,0.02,0.936,0.067c0.324,0.039,0.615,0.129,0.865,0.25
	c0.256,0.13,0.473,0.318,0.635,0.559C51.749,25.471,51.835,25.803,51.835,26.201z M64.653,25.795l1.997,5.056h-3.974L64.653,25.795z
	"/>
</svg>
