<?xml version="1.0" encoding="utf-8"?>
<!-- Generator: Adobe Illustrator 16.0.0, SVG Export Plug-In . SVG Version: 6.00 Build 0)  -->
<!DOCTYPE svg PUBLIC "-//W3C//DTD SVG 1.1//EN" "http://www.w3.org/Graphics/SVG/1.1/DTD/svg11.dtd">
<svg version="1.1" id="Ebene_1" xmlns="http://www.w3.org/2000/svg" xmlns:xlink="http://www.w3.org/1999/xlink" x="0px" y="0px"
	 width="93.58px" height="93.58px" viewBox="0 0 93.58 93.58" enable-background="new 0 0 93.58 93.58" xml:space="preserve">
<g>
	<g>
		<circle fill="none" stroke="#FEB672" stroke-width="2.8347" stroke-miterlimit="10" cx="46.789" cy="46.789" r="45.374"/>
	</g>
	<g>
		<path fill-rule="evenodd" clip-rule="evenodd" fill="#FEB672" d="M45.708,59.723c0,0.17,0,0.303,0,0.436
			c0,1.835-0.003,3.67,0,5.505c0.002,0.512-0.109,0.992-0.35,1.443c-0.186,0.348-0.436,0.643-0.754,0.878
			c-0.863,0.637-2.012,0.618-2.848-0.054c-0.553-0.443-0.875-1.027-0.99-1.723c-0.035-0.219-0.049-0.443-0.05-0.664
			c-0.004-1.803-0.002-3.604-0.003-5.405c0-0.132-0.004-0.263-0.008-0.417c-0.115-0.008-0.211-0.02-0.308-0.02
			c-0.757-0.001-1.513-0.01-2.269,0.004c-0.41,0.007-0.764-0.12-1.086-0.357c-0.346-0.254-0.62-0.571-0.815-0.955
			c-0.128-0.251-0.202-0.516-0.195-0.801c0.005-0.189,0.001-0.379,0.001-0.567c0-5.483,0-10.966,0-16.448
			c0-0.143-0.02-0.287,0.021-0.419c0.03-0.018,0.049-0.038,0.068-0.038c7.674-0.006,15.347-0.01,23.019-0.014
			c0.066,0,0.131,0.01,0.217,0.018c0.01,0.072,0.023,0.135,0.025,0.197c0.006,0.077,0.002,0.155,0.002,0.233
			c0,5.616-0.006,11.232,0.006,16.849c0.002,0.97-0.479,1.607-1.246,2.094c-0.238,0.151-0.508,0.209-0.795,0.207
			c-0.756-0.008-1.512-0.003-2.268-0.002c-0.109,0-0.219,0.009-0.332,0.014c-0.051,0.135-0.031,0.258-0.031,0.377
			c-0.002,1.823-0.002,3.646-0.002,5.471c0,0.279-0.008,0.557-0.076,0.828c-0.166,0.646-0.492,1.188-1.033,1.59
			c-0.883,0.653-2.061,0.621-2.9-0.088c-0.641-0.54-0.939-1.25-0.992-2.074c-0.008-0.122-0.002-0.244-0.002-0.367
			c0-1.779,0-3.559,0-5.338c0-0.121,0-0.242,0-0.377c-0.07-0.014-0.123-0.033-0.174-0.033c-1.213-0.002-2.425-0.002-3.636-0.001
			C45.852,59.703,45.798,59.714,45.708,59.723z"/>
		<path fill-rule="evenodd" clip-rule="evenodd" fill="#FEB672" d="M42.176,29.489c-0.049-0.092-0.098-0.19-0.152-0.285
			c-0.56-0.975-1.119-1.947-1.678-2.921c-0.05-0.087-0.1-0.175-0.135-0.267c-0.037-0.099,0.016-0.196,0.114-0.248
			c0.084-0.043,0.176-0.03,0.24,0.051c0.062,0.077,0.113,0.164,0.162,0.25c0.564,0.971,1.127,1.943,1.689,2.914
			c0.061,0.105,0.125,0.208,0.195,0.324c0.07-0.019,0.135-0.027,0.193-0.053c0.902-0.389,1.84-0.657,2.808-0.818
			c1.069-0.178,2.143-0.217,3.223-0.122c1.318,0.114,2.584,0.427,3.801,0.945c0.029,0.013,0.062,0.024,0.094,0.032
			c0.021,0.006,0.043,0.006,0.086,0.01c0.053-0.086,0.113-0.178,0.168-0.272c0.568-0.98,1.137-1.962,1.707-2.942
			c0.049-0.086,0.098-0.175,0.158-0.254c0.072-0.094,0.178-0.111,0.266-0.061c0.109,0.062,0.146,0.166,0.092,0.283
			c-0.041,0.091-0.094,0.176-0.145,0.264c-0.553,0.963-1.107,1.927-1.662,2.891c-0.053,0.094-0.102,0.192-0.16,0.303
			c0.109,0.061,0.205,0.115,0.303,0.166c1.688,0.904,3.09,2.127,4.143,3.734c0.844,1.285,1.361,2.691,1.547,4.219
			c0.043,0.352,0.055,0.707,0.082,1.076c-0.084,0.02-0.145,0.042-0.205,0.047c-0.09,0.008-0.178,0.003-0.268,0.003
			c-7.418,0-14.833,0-22.251-0.001c-0.141,0-0.286,0.021-0.445-0.034c-0.002-0.112-0.008-0.221-0.003-0.329
			c0.083-2.162,0.835-4.076,2.169-5.767c0.971-1.231,2.168-2.194,3.547-2.933c0.089-0.047,0.177-0.095,0.264-0.145
			C42.14,29.54,42.152,29.518,42.176,29.489z M54.319,33.902c0.033-0.501-0.334-1.108-1.059-1.141
			c-0.621-0.027-1.109,0.454-1.139,1.064c-0.027,0.587,0.453,1.093,1.047,1.118C53.788,34.97,54.302,34.505,54.319,33.902z
			 M43.304,33.864c0.002-0.605-0.496-1.119-1.098-1.105c-0.718,0.016-1.104,0.594-1.103,1.104c0.003,0.592,0.485,1.073,1.085,1.081
			C42.806,34.952,43.302,34.472,43.304,33.864z"/>
		<path fill-rule="evenodd" clip-rule="evenodd" fill="#FEB672" d="M34.693,47.722c0,1.711-0.002,3.423,0.001,5.135
			c0.001,0.394-0.06,0.773-0.199,1.142c-0.161,0.423-0.409,0.787-0.749,1.087c-0.895,0.787-2.176,0.799-3.078,0.02
			c-0.623-0.539-0.918-1.238-0.969-2.051c-0.004-0.045-0.002-0.089-0.002-0.133c0-3.469,0-6.936-0.001-10.403
			c0-0.371,0.063-0.729,0.193-1.076c0.18-0.479,0.466-0.883,0.87-1.198c0.857-0.668,2.02-0.672,2.871,0.002
			c0.678,0.536,1.002,1.258,1.059,2.107c0.008,0.123,0.004,0.245,0.004,0.367C34.693,44.387,34.693,46.054,34.693,47.722z"/>
		<path fill-rule="evenodd" clip-rule="evenodd" fill="#FEB672" d="M65.728,47.699c0,1.733-0.002,3.468,0.002,5.202
			c0.002,0.395-0.064,0.773-0.211,1.139c-0.154,0.388-0.383,0.726-0.691,1.008c-0.939,0.859-2.311,0.844-3.227-0.041
			c-0.572-0.554-0.832-1.245-0.865-2.031c-0.004-0.078-0.002-0.156-0.002-0.233c0-3.356,0-6.713,0-10.069
			c0-0.336,0.027-0.666,0.117-0.989c0.133-0.469,0.363-0.881,0.709-1.228c0.949-0.949,2.396-0.955,3.346-0.006
			c0.51,0.509,0.77,1.134,0.818,1.848c0.008,0.122,0.004,0.244,0.004,0.367C65.728,44.343,65.728,46.021,65.728,47.699z"/>
	</g>
</g>
</svg>
