<?xml version="1.0" encoding="UTF-8"?>
<svg width="501px" height="501px" viewBox="0 0 501 501" version="1.1" xmlns="http://www.w3.org/2000/svg" xmlns:xlink="http://www.w3.org/1999/xlink">
    <!-- Generator: Sketch 47.1 (45422) - http://www.bohemiancoding.com/sketch -->
    <title>grails-pinned-icon</title>
    <desc>Created with Sketch.</desc>
    <defs></defs>
    <g id="Page-1" stroke="none" stroke-width="1" fill="none" fill-rule="evenodd">
        <g id="grails-pinned-icon" fill="#000000">
            <path d="M250.5,501 C112.15267,501 0,388.84733 0,250.5 C0,112.15267 112.15267,0 250.5,0 C388.84733,0 501,112.15267 501,250.5 C501,388.84733 388.84733,501 250.5,501 Z M184.075885,267.773065 C185.621175,267.101778 185.484229,264.908682 183.901743,264.365903 C145.142683,250.941854 115.772023,226.266561 104.510339,196.432334 C104.224612,195.693411 103.522976,195.201359 102.730043,195.213195 C62.6978933,195.277449 51.2350175,195.539539 48.0548303,195.644375 C47.4089868,195.681574 46.9305216,196.249717 47.0082934,196.882113 C47.4411099,200.617309 47.3193803,205.569953 50.6145344,217.14585 C53.2672265,226.484687 58.7484423,235.138709 64.6979792,242.519485 C67.8020854,246.373044 75.7381826,254.169781 79.7823122,257.328381 C83.4105322,260.170782 88.8139763,263.736889 92.9629287,266.031439 C96.2225783,267.830556 104.498504,270.929974 107.103857,272.314821 C110.564699,274.161283 115.941092,278.212678 118.950519,282.852505 C121.185611,286.305322 123.260087,291.000949 123.932982,294.081767 C124.357345,296.021229 124.553465,298.863631 124.514579,302.189629 C124.440189,309.969457 123.101162,320.307615 120.428182,327.40601 C117.388322,335.463146 115.734828,338.143221 112.230028,346.300119 C110.747293,349.752935 109.345711,353.048498 108.664363,354.653162 C108.392162,355.285558 108.466553,356.012645 108.853721,356.590932 C109.785291,358.012978 111.86653,360.689672 115.325681,362.553043 C121.359752,365.813097 134.055141,366.988272 140.341125,367.027163 L140.369866,367.027163 C146.669376,366.986581 159.363074,365.813097 165.388692,362.553043 C168.846152,360.691363 170.937535,358.014669 171.869105,356.590932 C172.246129,356.014335 172.332354,355.285558 172.048318,354.653162 C171.375424,353.048498 169.977224,349.752935 168.491107,346.300119 C164.986308,338.143221 163.331123,335.463146 160.292953,327.40601 C157.623354,320.307615 156.282637,309.971148 156.201484,302.189629 C156.157526,298.863631 156.3621,296.019538 156.776319,294.081767 C157.449213,290.999258 159.52538,286.305322 161.760472,282.852505 C164.77159,278.212678 170.142911,274.162974 173.610516,272.314821 C175.490562,271.315499 180.305647,269.433529 184.075885,267.773065 Z M282.643091,352.6765 C278.304781,341.151331 276.117029,324.367464 275.995299,311.717847 C275.944579,306.339096 276.253975,301.711105 276.943776,298.554196 C278.024127,293.562661 281.403816,285.956996 285.020201,280.343211 C289.919819,272.781509 298.647159,266.234347 304.270393,263.236383 C308.50388,260.973959 321.939791,255.943534 327.224886,253.019969 C333.958903,249.306754 342.743727,243.501897 348.640852,238.899269 C355.202419,233.765699 368.088855,221.116081 373.120348,214.846227 C382.791092,202.854369 391.690883,188.797923 396.007213,173.652539 C401.341339,154.85312 401.138456,146.819658 401.851927,140.744257 C401.978729,139.694208 401.199321,138.77605 400.147712,138.737159 C393.638557,138.503815 365.786136,137.898473 250.27991,138.015145 C134.756777,137.896782 106.904356,138.503815 100.390128,138.737159 C99.3503542,138.77605 98.5692556,139.694208 98.6909852,140.744257 C99.4044563,146.821349 99.1981921,154.85312 104.539081,173.652539 C108.846958,188.797923 117.753511,202.852678 127.420874,214.846227 C132.454058,221.116081 145.343875,233.765699 151.905442,238.899269 C157.795805,243.501897 166.573865,249.306754 173.311264,253.019969 C178.601431,255.941843 192.030579,260.972268 196.277592,263.236383 C201.894063,266.234347 210.634928,272.781509 215.51764,280.343211 C219.142479,285.958687 222.518786,293.564352 223.609281,298.554196 C224.283866,301.711105 224.608478,306.339096 224.556067,311.717847 C224.419121,324.367464 222.239822,341.153022 217.903203,352.6765 C212.974843,365.76237 210.278193,370.096145 204.585641,383.364631 C202.176408,388.963199 199.919337,394.318277 198.813626,396.901971 C198.367284,397.950329 198.489014,399.113667 199.109497,400.074098 C200.631118,402.388939 204.012497,406.729478 209.620514,409.754497 C219.407917,415.047011 240.020805,416.961109 250.249477,417 L250.286673,417 C260.517036,416.961109 281.131614,415.047011 290.915635,409.754497 C296.527034,406.729478 299.918558,402.387248 301.440179,400.074098 C302.060662,399.113667 302.180701,397.950329 301.734359,396.901971 C300.630338,394.318277 298.361433,388.963199 295.950509,383.364631 C290.261339,370.097836 287.571451,365.76237 282.643091,352.6765 Z M437.300617,242.519485 C443.250154,235.138709 448.733061,226.484687 451.392515,217.142468 C454.680907,205.566572 454.567631,200.613928 454.991994,196.878731 C455.068075,196.246335 454.592991,195.678193 453.947148,195.640993 C450.76696,195.534466 439.309157,195.274068 399.266863,195.209813 C398.489146,195.197977 397.777365,195.690029 397.488257,196.428952 C386.231646,226.263179 356.866057,250.938472 318.100234,264.362522 C316.509295,264.906991 316.372349,267.101778 317.924403,267.773065 C321.684496,269.433529 326.509725,271.315499 328.38639,272.314821 C331.855685,274.161283 337.228697,278.212678 340.244887,282.852505 C342.469835,286.305322 344.549383,291.000949 345.222278,294.081767 C345.638187,296.021229 345.832617,298.863631 345.810638,302.189629 C345.724412,309.969457 344.376933,320.307615 341.703952,327.40601 C338.669165,335.463146 337.017361,338.143221 333.512561,346.300119 C332.021373,349.752935 330.629935,353.048498 329.948587,354.653162 C329.676386,355.285558 329.750777,356.012645 330.134563,356.590932 C331.076277,358.012978 333.149063,360.689672 336.616667,362.553043 C342.643976,365.813097 355.337674,366.988272 361.637183,367.027163 L361.659162,367.027163 C367.958672,366.986581 380.638844,365.813097 386.679679,362.553043 C390.14052,360.691363 392.211615,358.014669 393.151638,356.590932 C393.537116,356.014335 393.611506,355.285558 393.340996,354.653162 C392.651194,353.048498 391.258066,349.752935 389.778713,346.300119 C386.270532,338.143221 384.617037,335.463146 381.575486,327.40601 C378.914341,320.307615 377.56348,309.971148 377.480636,302.189629 C377.460348,298.863631 377.639561,296.019538 378.068996,294.081767 C378.735128,290.999258 380.816367,286.305322 383.043005,282.852505 C386.059195,278.212678 391.442351,274.162974 394.908265,272.314821 C397.505164,270.928283 405.779399,267.828865 409.033977,266.031439 C413.188002,263.736889 418.596518,260.170782 422.228119,257.328381 C426.270558,254.171472 434.201583,246.374735 437.300617,242.519485 Z" id="Combined-Shape"></path>
        </g>
    </g>
</svg>