<?xml version="1.0" encoding="utf-8"?>
<!-- Generator: Adobe Illustrator 16.0.0, SVG Export Plug-In . SVG Version: 6.00 Build 0)  -->
<!DOCTYPE svg PUBLIC "-//W3C//DTD SVG 1.1//EN" "http://www.w3.org/Graphics/SVG/1.1/DTD/svg11.dtd">
<svg version="1.1" id="Ebene_1" xmlns="http://www.w3.org/2000/svg" xmlns:xlink="http://www.w3.org/1999/xlink" x="0px" y="0px"
	 width="93.58px" height="93.58px" viewBox="0 0 93.58 93.58" enable-background="new 0 0 93.58 93.58" xml:space="preserve">
<g>
	<circle fill="none" stroke="#FEB672" stroke-width="2.8347" stroke-miterlimit="10" cx="46.79" cy="46.791" r="45.374"/>
</g>
<path fill="#FEB672" d="M51.062,56.707c0.65,1.727,1.005,2.299,1.756,4.049c0.316,0.738,0.617,1.445,0.762,1.786
	c0.06,0.138,0.043,0.291-0.038,0.417c-0.201,0.307-0.649,0.879-1.389,1.277c-1.29,0.699-4.011,0.951-5.36,0.956h-0.005
	c-1.35-0.005-4.068-0.257-5.36-0.956c-0.739-0.398-1.186-0.971-1.387-1.277c-0.082-0.126-0.098-0.279-0.039-0.417
	c0.146-0.341,0.444-1.048,0.761-1.786c0.751-1.75,1.107-2.322,1.757-4.049c0.573-1.52,0.86-3.734,0.878-5.402
	c0.007-0.71-0.036-1.32-0.125-1.736c-0.144-0.659-0.589-1.662-1.067-2.402c-0.645-0.998-1.797-1.861-2.539-2.257
	c-0.56-0.299-2.332-0.962-3.03-1.349c-0.889-0.489-2.047-1.255-2.825-1.862c-0.865-0.677-2.566-2.346-3.23-3.173
	c-1.275-1.582-2.45-3.437-3.019-5.434c-0.705-2.48-0.678-3.54-0.772-4.342c-0.016-0.138,0.087-0.26,0.224-0.265
	c0.86-0.03,4.534-0.11,19.775-0.096c15.239-0.015,18.913,0.065,19.772,0.096c0.139,0.005,0.242,0.127,0.225,0.265
	c-0.094,0.802-0.067,1.861-0.771,4.342c-0.568,1.997-1.743,3.852-3.02,5.434c-0.663,0.827-2.363,2.496-3.229,3.173
	c-0.778,0.607-1.938,1.373-2.826,1.862c-0.697,0.387-2.47,1.05-3.028,1.349c-0.742,0.396-1.894,1.259-2.54,2.257
	c-0.477,0.74-0.922,1.743-1.064,2.402c-0.092,0.416-0.133,1.026-0.126,1.736C50.2,52.973,50.489,55.188,51.062,56.707z"/>
</svg>
