<?xml version="1.0" encoding="utf-8"?>
<!-- Generator: Adobe Illustrator 16.0.0, SVG Export Plug-In . SVG Version: 6.00 Build 0)  -->
<!DOCTYPE svg PUBLIC "-//W3C//DTD SVG 1.1//EN" "http://www.w3.org/Graphics/SVG/1.1/DTD/svg11.dtd">
<svg version="1.1" id="Ebene_1" xmlns="http://www.w3.org/2000/svg" xmlns:xlink="http://www.w3.org/1999/xlink" x="0px" y="0px"
	 width="93.58px" height="93.58px" viewBox="0 0 93.58 93.58" enable-background="new 0 0 93.58 93.58" xml:space="preserve">
<g>
	<g>
		<circle fill="none" stroke="#FEB672" stroke-width="2.8347" stroke-miterlimit="10" cx="46.79" cy="46.789" r="45.374"/>
	</g>
	<path fill="#FEB672" d="M46.982,49.006c0,0.309-0.236,0.662-0.542,0.709l-3.656,0.566c-0.188,0.613-0.447,1.203-0.755,1.793
		c0.66,0.943,1.367,1.816,2.122,2.711c0.094,0.143,0.166,0.285,0.166,0.473c0,0.166-0.047,0.33-0.166,0.447
		c-0.471,0.639-3.112,3.516-3.798,3.516c-0.188,0-0.353-0.072-0.494-0.166l-2.712-2.123c-0.59,0.309-1.18,0.543-1.817,0.732
		c-0.117,1.203-0.236,2.5-0.541,3.656c-0.096,0.328-0.379,0.566-0.709,0.566h-4.387c-0.331,0-0.66-0.26-0.709-0.59l-0.541-3.609
		c-0.613-0.188-1.203-0.447-1.77-0.732l-2.782,2.1c-0.12,0.119-0.308,0.166-0.473,0.166c-0.189,0-0.354-0.072-0.496-0.189
		c-0.612-0.564-3.396-3.09-3.396-3.773c0-0.164,0.069-0.307,0.165-0.447c0.684-0.896,1.391-1.77,2.074-2.689
		c-0.33-0.637-0.612-1.275-0.824-1.936l-3.586-0.564c-0.329-0.047-0.566-0.354-0.566-0.684v-4.365c0-0.307,0.237-0.658,0.542-0.707
		l3.656-0.566c0.189-0.613,0.448-1.203,0.756-1.791c-0.661-0.943-1.368-1.818-2.123-2.715c-0.094-0.141-0.165-0.307-0.165-0.471
		s0.046-0.33,0.165-0.473c0.471-0.637,3.114-3.49,3.798-3.49c0.188,0,0.353,0.072,0.495,0.166l2.711,2.123
		c0.591-0.309,1.18-0.543,1.818-0.756c0.117-1.18,0.235-2.475,0.541-3.631c0.096-0.332,0.378-0.568,0.709-0.568h4.387
		c0.33,0,0.661,0.26,0.709,0.592l0.541,3.607c0.613,0.188,1.203,0.447,1.77,0.73l2.783-2.098c0.142-0.119,0.307-0.166,0.471-0.166
		c0.189,0,0.354,0.072,0.496,0.189c0.613,0.566,3.396,3.111,3.396,3.773c0,0.164-0.069,0.307-0.165,0.447
		c-0.684,0.92-1.391,1.77-2.051,2.689c0.308,0.637,0.589,1.275,0.801,1.936l3.586,0.541c0.33,0.072,0.566,0.377,0.566,0.709V49.006z
		 M31.887,40.752c-3.326,0-6.039,2.713-6.039,6.037c0,3.326,2.713,6.039,6.039,6.039s6.038-2.713,6.038-6.039
		C37.925,43.465,35.213,40.752,31.887,40.752z"/>
	<path fill="#FEB672" d="M76.616,42.441c0.124,0.279,0.052,0.699-0.207,0.867L73.3,45.314c0.077,0.635,0.081,1.281,0.038,1.941
		c0.988,0.594,1.988,1.105,3.042,1.615c0.144,0.092,0.269,0.195,0.344,0.365c0.069,0.15,0.093,0.32,0.03,0.475
		c-0.169,0.775-1.414,4.479-2.039,4.756c-0.17,0.076-0.35,0.078-0.517,0.053l-3.345-0.838c-0.413,0.521-0.855,0.977-1.36,1.408
		c0.379,1.146,0.799,2.377,0.992,3.559c0.048,0.342-0.117,0.67-0.418,0.807l-4.007,1.785c-0.301,0.135-0.708,0.031-0.887-0.248
		l-1.965-3.08c-0.635,0.078-1.279,0.08-1.913,0.053l-1.688,3.047c-0.059,0.156-0.214,0.277-0.366,0.348
		c-0.172,0.074-0.35,0.074-0.526,0.025c-0.792-0.266-4.362-1.441-4.64-2.066c-0.066-0.148-0.062-0.309-0.03-0.475
		c0.26-1.1,0.549-2.184,0.804-3.301c-0.563-0.447-1.081-0.916-1.543-1.432l-3.503,0.939c-0.323,0.09-0.662-0.09-0.798-0.393
		l-1.776-3.986c-0.123-0.281-0.05-0.699,0.207-0.865l3.112-2.008c-0.08-0.637-0.081-1.279-0.04-1.943
		c-0.988-0.592-1.989-1.104-3.042-1.613c-0.144-0.092-0.277-0.213-0.344-0.367c-0.069-0.148-0.089-0.318-0.039-0.496
		c0.171-0.773,1.423-4.453,2.051-4.734c0.168-0.076,0.35-0.076,0.517-0.049l3.342,0.834c0.413-0.521,0.857-0.977,1.354-1.426
		c-0.372-1.129-0.792-2.359-0.984-3.541c-0.046-0.342,0.116-0.672,0.42-0.805l4.006-1.783c0.302-0.139,0.706-0.033,0.886,0.248
		l1.965,3.08c0.634-0.08,1.278-0.084,1.91-0.053l1.689-3.051c0.081-0.168,0.215-0.277,0.366-0.342
		c0.171-0.076,0.354-0.078,0.53-0.031c0.789,0.271,4.366,1.465,4.636,2.066c0.067,0.154,0.063,0.309,0.029,0.477
		c-0.247,1.121-0.548,2.182-0.777,3.291c0.54,0.459,1.055,0.924,1.518,1.441l3.495-0.961c0.333-0.068,0.674,0.111,0.806,0.414
		L76.616,42.441z M59.467,41.039c-3.035,1.354-4.412,4.936-3.059,7.973c1.354,3.041,4.933,4.412,7.973,3.061
		c3.037-1.354,4.412-4.936,3.058-7.971C66.088,41.059,62.506,39.688,59.467,41.039z"/>
</g>
</svg>
