<?xml version="1.0" encoding="UTF-8"?>
<svg width="95px" height="95px" viewBox="0 0 95 95" version="1.1" xmlns="http://www.w3.org/2000/svg" xmlns:xlink="http://www.w3.org/1999/xlink">
    <!-- Generator: Sketch 43.2 (39069) - http://www.bohemiancoding.com/sketch -->
    <title>graphql</title>
    <desc>Created with Sketch.</desc>
    <defs></defs>
    <g id="Page-1" stroke="none" stroke-width="1" fill="none" fill-rule="evenodd">
        <g id="graphql" transform="translate(2.000000, 2.000000)">
            <circle id="Oval" stroke="#FEB672" stroke-width="2.8347" cx="45.374" cy="45.374" r="45.374"></circle>
            <g id="Group" transform="translate(21.000000, 19.000000)" fill-rule="nonzero" fill="#E535AB">
                <rect id="Rectangle-path" transform="translate(14.261665, 21.067514) rotate(-149.999272) translate(-14.261665, -21.067514) " x="13.1381352" y="-0.584943614" width="2.24705879" height="43.3049146"></rect>
                <rect id="Rectangle-path" x="2.00344589" y="36.2617347" width="43.3583593" height="2.24438776"></rect>
                <rect id="Rectangle-path" transform="translate(14.266823, 42.803977) rotate(-149.999272) translate(-14.266823, -42.803977) " x="1.74556147" y="41.6818075" width="25.0425226" height="2.24433838"></rect>
                <rect id="Rectangle-path" transform="translate(33.106578, 10.209111) rotate(-149.999272) translate(-33.106578, -10.209111) " x="20.5853163" y="9.08694203" width="25.0425226" height="2.24433838"></rect>
                <rect id="Rectangle-path" transform="translate(14.272833, 10.200566) rotate(-120.000728) translate(-14.272833, -10.200566) " x="13.1493033" y="-2.30553642" width="2.24705879" height="25.0122048"></rect>
                <rect id="Rectangle-path" transform="translate(33.121996, 21.067919) rotate(-120.000728) translate(-33.121996, -21.067919) " x="11.4432929" y="19.9457497" width="43.3574054" height="2.24433838"></rect>
                <rect id="Rectangle-path" x="3.72261905" y="13.9936224" width="2.24710822" height="25.0127551"></rect>
                <rect id="Rectangle-path" x="41.4090606" y="13.9936224" width="2.24710822" height="25.0127551"></rect>
                <rect id="Rectangle-path" transform="translate(33.106483, 42.791496) rotate(-120.000728) translate(-33.106483, -42.791496) " x="32.125087" y="31.9145672" width="1.96279232" height="21.7538581"></rect>
                <path d="M46.634264,39.7364796 C45.3347316,41.9943878 42.4378572,42.765051 40.1772121,41.4670918 C37.9165671,40.1691327 37.1449697,37.2757653 38.4445022,35.0178572 C39.7440346,32.759949 42.6409091,31.9892857 44.9015541,33.2872449 C47.175736,34.5987245 47.9473333,37.4785715 46.634264,39.7364796" id="Shape"></path>
                <path d="M8.92074888,17.9821428 C7.62121645,20.240051 4.72434199,21.0107143 2.46369697,19.7127551 C0.203051948,18.414796 -0.568545455,15.5214285 0.730987013,13.2635204 C2.03051948,11.0056122 4.92739394,10.234949 7.18803896,11.5329082 C9.44868397,12.8443878 10.2202814,15.7242347 8.92074888,17.9821428" id="Shape"></path>
                <path d="M0.744523809,39.7364796 C-0.555008658,37.4785715 0.216588745,34.5987245 2.47723376,33.2872449 C4.73787879,31.9892857 7.62121645,32.759949 8.93428573,35.0178572 C10.2338182,37.2757653 9.46222081,40.1556122 7.20157576,41.4670918 C4.92739394,42.765051 2.04405628,41.9943878 0.744523809,39.7364796" id="Shape"></path>
                <path d="M38.458039,17.9821428 C37.1585065,15.7242347 37.9301039,12.8443878 40.1907489,11.5329082 C42.4513939,10.234949 45.3347316,11.0056122 46.6478009,13.2635204 C47.9473333,15.5214285 47.175736,18.4012755 44.9150909,19.7127551 C42.6544459,21.0107143 39.7575715,20.240051 38.458039,17.9821428" id="Shape"></path>
                <path d="M23.6893939,52.9729592 C21.0767922,52.9729592 18.9650519,50.8637755 18.9650519,48.2543367 C18.9650519,45.6448979 21.0767922,43.5357143 23.6893939,43.5357143 C26.3019957,43.5357143 28.413736,45.6448979 28.413736,48.2543367 C28.413736,50.8502551 26.3019957,52.9729592 23.6893939,52.9729592" id="Shape"></path>
                <path d="M23.6893939,9.46428573 C21.0767922,9.46428573 18.9650519,7.35510204 18.9650519,4.74566327 C18.9650519,2.13622449 21.0767922,0.0270408163 23.6893939,0.0270408163 C26.3019957,0.0270408163 28.413736,2.13622449 28.413736,4.74566327 C28.413736,7.35510204 26.3019957,9.46428573 23.6893939,9.46428573" id="Shape"></path>
            </g>
        </g>
    </g>
</svg>