<?xml version="1.0" encoding="utf-8"?>
<!-- Generator: Adobe Illustrator 16.0.0, SVG Export Plug-In . SVG Version: 6.00 Build 0)  -->
<!DOCTYPE svg PUBLIC "-//W3C//DTD SVG 1.1//EN" "http://www.w3.org/Graphics/SVG/1.1/DTD/svg11.dtd">
<svg version="1.1" id="Ebene_1" xmlns="http://www.w3.org/2000/svg" xmlns:xlink="http://www.w3.org/1999/xlink" x="0px" y="0px"
	 width="93.58px" height="93.58px" viewBox="0 0 93.58 93.58" enable-background="new 0 0 93.58 93.58" xml:space="preserve">
<g>
	<g>
		<circle fill="none" stroke="#FEB672" stroke-width="2.8347" stroke-miterlimit="10" cx="46.789" cy="46.789" r="45.374"/>
	</g>
	<g>
		<path fill="#FEB672" d="M25.97,35.803c0,0.494-0.301,0.863-0.818,0.863c-0.43,0-0.754-0.369-0.754-0.863
			c0-0.473,0.345-0.861,0.797-0.861C25.669,34.941,25.97,35.33,25.97,35.803z M24.779,61.695V41.889h0.812v19.807H24.779z"/>
		<path fill="#FEB672" d="M52.593,47.582c0,9.986-5.542,14.526-11.611,14.526c-6.197,0-11.217-4.911-11.217-14.112
			c0-9.449,5.194-14.524,11.654-14.524C47.749,33.472,52.593,38.464,52.593,47.582z M30.587,47.789
			c0,7.572,3.67,13.454,10.434,13.454c6.812,0,10.718-6.064,10.718-13.538c0-6.935-3.131-13.263-10.274-13.263
			C34.323,34.442,30.587,40.401,30.587,47.789z"/>
		<path fill="#FEB672" d="M55.573,59.549c1.361,0.909,3.713,1.784,5.734,1.784c3.838,0,7.25-2.685,7.25-6.636
			c0-3.667-2.273-5.58-6.133-7.224c-3.453-1.471-6.561-3.067-6.561-6.987c0-4.084,3.219-6.973,7.592-6.973
			c2.354,0,4.125,0.659,4.951,1.236l-0.328,0.713c-0.701-0.493-2.596-1.125-4.658-1.125c-4.623,0-6.637,3.491-6.637,6.063
			c0,3.552,2.752,4.739,6.301,6.432c4.127,2.021,6.312,3.804,6.312,7.684c0,4.167-2.969,7.55-8.252,7.55
			c-2.188,0-4.703-0.742-5.941-1.693L55.573,59.549z"/>
	</g>
</g>
</svg>
