<?xml version="1.0" encoding="utf-8"?>
<!-- Generator: Adobe Illustrator 16.0.0, SVG Export Plug-In . SVG Version: 6.00 Build 0)  -->
<!DOCTYPE svg PUBLIC "-//W3C//DTD SVG 1.1//EN" "http://www.w3.org/Graphics/SVG/1.1/DTD/svg11.dtd">
<svg version="1.1" id="Ebene_1" xmlns="http://www.w3.org/2000/svg" xmlns:xlink="http://www.w3.org/1999/xlink" x="0px" y="0px"
	 width="27.5px" height="32px" viewBox="0 0 27.5 32" enable-background="new 0 0 27.5 32" xml:space="preserve">
<g>
	<path fill="#FFFFFF" d="M27.411,9.739V30.23c0,0.942-0.766,1.707-1.708,1.707H1.796c-0.942,0-1.707-0.765-1.707-1.707V1.77
		c0-0.942,0.765-1.707,1.707-1.707h15.938c0.942,0,2.259,0.552,2.917,1.209l5.55,5.55C26.859,7.479,27.411,8.796,27.411,9.739z
		 M25.134,11.446h-7.399c-0.942,0-1.708-0.765-1.708-1.707v-7.4H2.366V29.66h22.768V11.446z M18.304,9.17h6.688
		c-0.107-0.303-0.267-0.605-0.392-0.73l-5.567-5.567c-0.124-0.124-0.427-0.284-0.729-0.391V9.17z"/>
	<path fill="#FFFFFF" d="M20.366,15.924l-5.818,5.818l-1.092,1.092c-0.146,0.145-0.346,0.226-0.547,0.226s-0.402-0.081-0.547-0.226
		l-1.092-1.092l-2.91-2.91c-0.145-0.145-0.225-0.345-0.225-0.546c0-0.2,0.08-0.401,0.225-0.546l1.094-1.093
		c0.145-0.145,0.345-0.226,0.546-0.226s0.401,0.081,0.546,0.226l2.363,2.37l5.271-5.279c0.145-0.145,0.346-0.225,0.547-0.225
		s0.401,0.08,0.546,0.225l1.093,1.093c0.145,0.145,0.226,0.346,0.226,0.547C20.592,15.578,20.511,15.779,20.366,15.924z"/>
</g>
</svg>
