<?xml version="1.0" encoding="utf-8"?>
<!-- Generator: Adobe Illustrator 16.0.0, SVG Export Plug-In . SVG Version: 6.00 Build 0)  -->
<!DOCTYPE svg PUBLIC "-//W3C//DTD SVG 1.1//EN" "http://www.w3.org/Graphics/SVG/1.1/DTD/svg11.dtd">
<svg version="1.1" id="Ebene_1" xmlns="http://www.w3.org/2000/svg" xmlns:xlink="http://www.w3.org/1999/xlink" x="0px" y="0px"
	 width="45px" height="45px" viewBox="0 0 45 45" enable-background="new 0 0 45 45" xml:space="preserve">
<path fill="#8C8C8C" d="M22.502,0C10.073,0,0,10.073,0,22.499C0,34.927,10.073,45,22.502,45C34.927,45,45,34.927,45,22.499
	C45,10.073,34.927,0,22.502,0z M17.423,30.378h-4.15V17.926h4.15V30.378z M15.349,15.575c-1.387,0-2.49-1.107-2.49-2.484
	c0-1.383,1.104-2.492,2.49-2.492c1.379,0,2.481,1.109,2.481,2.492C17.83,14.468,16.728,15.575,15.349,15.575z M32.634,30.378h-4.151
	v-7.334c0-1.105-0.966-2.072-2.079-2.072c-1.102,0-2.069,0.967-2.069,2.072v7.334h-4.151V17.926h4.151v1.661
	c0.69-1.107,2.21-1.94,3.455-1.94c2.629,0,4.845,2.216,4.845,4.843V30.378z"/>
</svg>
