<?xml version="1.0" encoding="UTF-8"?>
<svg width="729px" height="712px" viewBox="0 0 729 712" version="1.1" xmlns="http://www.w3.org/2000/svg" xmlns:xlink="http://www.w3.org/1999/xlink">
    <!-- Generator: Sketch 42 (36781) - http://www.bohemiancoding.com/sketch -->
    <title>Circle Services</title>
    <desc>Created with Sketch.</desc>
    <defs>
        <polygon id="path-1" points="0.123692308 268 267.659846 268 267.659846 0.3484 0.123692308 0.3484"></polygon>
    </defs>
    <g id="Page-1" stroke="none" stroke-width="1" fill="none" fill-rule="evenodd">
        <g id="Circle-Services" transform="translate(-10.000000, -19.000000)">
            <g id="Plugin-Development" transform="translate(341.000000, 19.000000)">
                <circle id="Oval-2" fill="#7B7C81" cx="115.5" cy="115.5" r="115.5"></circle>
                <text id="PLUG-IN-DEVELOPMENT" font-family="OpenSans-Extrabold, Open Sans" font-size="24" font-weight="600" fill="#FFFFFF">
                    <tspan x="64.96875" y="109">PLUG-IN</tspan>
                    <tspan x="25.78125" y="142">DEVELOPMENT</tspan>
                </text>
            </g>
            <circle id="Oval-2" fill="#255AA8" cx="623.5" cy="326.5" r="115.5"></circle>
            <text id="UPGRADE-SERVICES" font-family="OpenSans-Extrabold, Open Sans" font-size="24" font-weight="600" fill="#FFFFFF">
                <tspan x="565.726562" y="320">UPGRADE </tspan>
                <tspan x="568.064453" y="353">SERVICES</tspan>
            </text>
            <g id="Grails-Help-Desk" transform="translate(92.000000, 68.000000)">
                <circle id="Oval-2" fill="#66D8E0" cx="115.5" cy="115.5" r="115.5"></circle>
                <text id="GRAILS-HELP-DESK" font-family="OpenSans-Extrabold, Open Sans" font-size="24" font-weight="600" fill="#FFFFFF">
                    <tspan x="38.2324219" y="109">GRAILS HELP </tspan>
                    <tspan x="84.9375" y="142">DESK</tspan>
                </text>
            </g>
            <g id="Training" transform="translate(179.000000, 500.000000)">
                <circle id="Oval-2" fill="#7B7C81" cx="115.5" cy="115.5" r="115.5"></circle>
                <text id="TRAINING" font-family="OpenSans-Extrabold, Open Sans" font-size="24" font-weight="600" fill="#FFFFFF">
                    <tspan x="54.3222656" y="125">TRAINING</tspan>
                </text>
            </g>
            <g id="Staff-Augmentation" transform="translate(427.000000, 449.000000)">
                <circle id="Oval-2" fill="#66D8E0" cx="115.5" cy="115.5" r="115.5"></circle>
                <text id="STAFF-AUGMENTATION" font-family="OpenSans-Extrabold, Open Sans" font-size="24" font-weight="600" fill="#FFFFFF">
                    <tspan x="79.3339844" y="107">STAFF </tspan>
                    <tspan x="13.4863281" y="140">AUGMENTATION</tspan>
                </text>
            </g>
            <g id="Project-Outsourcing" transform="translate(10.000000, 310.000000)">
                <circle id="Oval-2" fill="#255AA8" cx="115.5" cy="115.5" r="115.5"></circle>
                <text id="PROJECT-OUTSOURCING" font-family="OpenSans-Extrabold, Open Sans" font-size="24" font-weight="600" fill="#FFFFFF">
                    <tspan x="64.546875" y="109">PROJECT </tspan>
                    <tspan x="25.21875" y="142">OUTSOURCING</tspan>
                </text>
            </g>
            <g id="1_Grails_RGB" transform="translate(240.000000, 240.000000)">
                <mask id="mask-2" fill="white">
                    <use xlink:href="#path-1"></use>
                </mask>
                <g id="Clip-2"></g>
                <path d="M133.1156,53.3526154 L137.232492,63.7757538 L129.042,63.7757538 L133.1156,53.3526154 Z M106.688738,54.1896 C106.688738,55.0925538 106.486708,55.7955385 106.099138,56.2964923 C105.707446,56.7953846 105.212677,57.1602769 104.621015,57.3932308 C104.047908,57.6241231 103.392338,57.7601846 102.685231,57.8117231 C101.984308,57.8508923 101.318431,57.8776923 100.704092,57.8776923 L96.4470154,57.8776923 L96.4470154,50.3819385 L101.145262,50.3819385 C101.765785,50.3819385 102.413108,50.4231692 103.074862,50.5200615 C103.740738,50.6004615 104.340646,50.786 104.858092,51.0354462 C105.385846,51.3034462 105.831138,51.6930769 106.167169,52.1878462 C106.513508,52.6846769 106.688738,53.3691077 106.688738,54.1896 Z M232.920862,146.721754 C231.271631,148.772985 227.051662,152.918738 224.901477,154.598892 C222.969815,156.11 220.093969,158.006615 217.886062,159.227046 C216.154369,160.1836 211.750923,161.832831 210.369692,162.5688 C208.524615,163.552154 205.665262,165.7044 204.061385,168.174123 C202.876,170.008892 201.771015,172.505415 201.414369,174.144338 C201.1876,175.175108 201.088646,176.688277 201.101015,178.457077 C201.146369,182.594585 201.863785,188.092708 203.282123,191.867385 C204.898369,196.151262 205.778646,197.575785 207.640215,201.915323 C208.429785,203.752154 209.171938,205.504462 209.536831,206.357938 C209.681138,206.693969 209.639908,207.081538 209.437877,207.388708 C208.938985,208.145292 207.834,209.569815 205.995108,210.559354 C202.783231,212.293108 196.037877,212.917754 192.687877,212.938369 L192.673446,212.938369 C189.323446,212.917754 182.573969,212.293108 179.366215,210.559354 C177.521138,209.569815 176.418215,208.145292 175.921385,207.388708 C175.717292,207.081538 175.676062,206.693969 175.820369,206.357938 C176.181138,205.504462 176.923292,203.752154 177.714923,201.915323 C179.578554,197.575785 180.458831,196.151262 182.075077,191.867385 C183.495477,188.092708 184.210831,182.594585 184.256185,178.457077 C184.268554,176.688277 184.167538,175.175108 183.944892,174.144338 C183.588246,172.505415 182.4812,170.008892 181.295815,168.174123 C179.691938,165.7044 176.834646,163.552154 174.991631,162.5688 C173.993846,162.036923 171.425169,161.037077 169.425477,160.152677 C168.602923,159.796031 168.675077,158.6292 169.520308,158.338523 C190.135692,151.199415 205.758031,138.077723 211.744738,122.212123 C211.895231,121.818369 212.274554,121.556554 212.690985,121.562738 C233.986677,121.597785 240.082646,121.735908 241.773108,121.793631 C242.115323,121.812185 242.370954,122.115231 242.329723,122.451262 C242.102954,124.438585 242.1648,127.071169 240.414554,133.228985 C239.000338,138.195231 236.083262,142.796585 232.920862,146.721754 Z M150.659292,205.304492 C153.279508,212.264246 154.710215,214.569046 157.738615,221.625692 C159.018831,224.604615 160.226892,227.4516 160.814431,228.826646 C161.051508,229.383262 160.985538,230.001723 160.655692,230.512985 C159.847569,231.743723 158.045785,234.052646 155.060677,235.660646 C149.853231,238.474646 138.892031,239.493046 133.449569,239.513662 L133.431015,239.513662 C127.988554,239.493046 117.027354,238.474646 111.819908,235.660646 C108.836862,234.052646 107.041262,231.743723 106.229015,230.512985 C105.899169,230.001723 105.837323,229.383262 106.072338,228.826646 C106.659877,227.4516 107.861754,224.604615 109.141969,221.625692 C112.172431,214.569046 113.601077,212.264246 116.223354,205.304492 C118.534338,199.1776 119.692923,190.251138 119.765077,183.524338 C119.791877,180.662923 119.620769,178.201446 119.26,176.521292 C118.680708,173.868092 116.883046,169.825415 114.957569,166.838246 C112.357969,162.816185 107.711262,159.336308 104.724092,157.740677 C102.466708,156.536738 95.3214154,153.860862 92.5094769,152.306462 C88.9265231,150.331508 84.2571385,147.245385 81.1236,144.798338 C77.6334154,142.068862 70.7767385,135.34 68.1008615,132.006492 C62.9593846,125.628092 58.2219692,118.152954 55.9295385,110.098523 C53.0908,100.100062 53.198,95.8285538 52.8186769,92.5981231 C52.7568308,92.0394462 53.1712,91.5508615 53.7236923,91.5302462 C57.1891385,91.4044923 72.0012923,91.0828923 133.443385,91.1447385 C194.881354,91.0828923 209.695569,91.4044923 213.158954,91.5302462 C213.717631,91.5508615 214.132,92.0394462 214.061908,92.5981231 C213.684646,95.8285538 213.793908,100.100062 210.955169,110.098523 C208.660677,118.152954 203.925323,125.628092 198.783846,132.006492 C196.105908,135.34 189.251292,142.068862 185.761108,144.798338 C182.625508,147.245385 177.956123,150.331508 174.373169,152.306462 C171.559169,153.860862 164.413877,156.536738 162.162677,157.740677 C159.169323,159.336308 154.526738,162.816185 151.923015,166.838246 C149.997538,169.825415 148.204,173.868092 147.624708,176.521292 C147.261877,178.201446 147.096954,180.662923 147.123754,183.524338 C147.187662,190.251138 148.350369,199.1776 150.659292,205.304492 Z M98.2343692,160.152677 C96.2305538,161.037077 93.6680615,162.036923 92.6682154,162.5688 C90.8231385,163.552154 87.9658462,165.7044 86.3640308,168.174123 C85.1765846,170.008892 84.0716,172.505415 83.7128923,174.144338 C83.4923077,175.175108 83.3851077,176.688277 83.4057231,178.457077 C83.4510769,182.594585 84.1643692,188.092708 85.5847692,191.867385 C87.1989538,196.151262 88.0792308,197.575785 89.9428615,201.915323 C90.7344923,203.752154 91.4766462,205.504462 91.8353538,206.357938 C91.9879077,206.693969 91.9425538,207.081538 91.7384615,207.388708 C91.2436923,208.145292 90.1325231,209.569815 88.2936308,210.559354 C85.0879385,212.293108 78.3343385,212.917754 74.9843385,212.938369 L74.9719692,212.938369 C71.6260923,212.917754 64.8766154,212.293108 61.6668,210.559354 C59.8279077,209.569815 58.7188,208.145292 58.2240308,207.388708 C58.0178769,207.081538 57.9787077,206.693969 58.1209538,206.357938 C58.4858462,205.504462 59.2300615,203.752154 60.0196308,201.915323 C61.8832615,197.575785 62.7635385,196.151262 64.3797846,191.867385 C65.8001846,188.092708 66.5155385,182.594585 66.5526462,178.457077 C66.5732615,176.688277 66.4701846,175.175108 66.2434154,174.144338 C65.8867692,172.505415 64.7817846,170.008892 63.5964,168.174123 C61.9945846,165.7044 59.1331692,163.552154 57.2922154,162.5688 C55.9068615,161.832831 51.5054769,160.1836 49.7717231,159.227046 C47.5638154,158.006615 44.6900308,156.11 42.7604308,154.598892 C40.6102462,152.918738 36.3882154,148.772985 34.7389846,146.721754 C31.5745231,142.796585 28.6574462,138.195231 27.2473538,133.228985 C25.4950462,127.071169 25.5589538,124.438585 25.3301231,122.451262 C25.2888923,122.115231 25.5424615,121.812185 25.8867385,121.793631 C27.5772,121.735908 33.6752308,121.597785 54.9688615,121.562738 C55.3873538,121.556554 55.7625538,121.818369 55.9151077,122.212123 C61.9038769,138.077723 77.5262154,151.199415 98.1416,158.338523 C98.9847692,158.6292 99.0569231,159.796031 98.2343692,160.152677 Z M55.3894154,53.6350462 C56.2140308,51.6291692 57.3870462,49.8995385 58.8754769,48.4894462 C60.3556615,47.0793538 62.1409538,45.9846769 64.1777538,45.2198462 C66.2207385,44.4632615 68.4822462,44.0798154 70.9024923,44.0798154 C73.3866462,44.0798154 75.7038154,44.3869846 77.7942154,44.9807077 C79.8104,45.5579385 81.6163077,46.5619077 83.1583385,47.9534462 L78.5281231,53.0062769 C77.6045538,52.0847692 76.5469846,51.3735385 75.4028308,50.8808308 C74.2050769,50.3654462 72.6898462,50.1180615 70.9024923,50.1180615 C69.4078769,50.1180615 68.0348923,50.3654462 66.8227077,50.8808308 C65.6043385,51.3941538 64.5488308,52.1136308 63.6768,53.0268923 C62.8068308,53.9484 62.1347692,55.0492615 61.6688615,56.3026769 C61.2050154,57.5602154 60.9761846,58.9393846 60.9761846,60.4030769 C60.9761846,61.8935692 61.2050154,63.2789231 61.6688615,64.5261538 C62.1347692,65.7651385 62.8088923,66.8598154 63.6768,67.7792615 C64.5488308,68.6884 65.6043385,69.4099385 66.8227077,69.9232615 C68.0328308,70.4324615 69.4078769,70.6880923 70.9024923,70.6880923 C72.4239077,70.6880923 73.7474154,70.5169846 74.8585846,70.1706462 C75.9017231,69.8449231 76.7593231,69.5109538 77.4066462,69.1687385 L77.4540615,69.144 L77.5262154,69.0739077 L77.5963077,68.9502154 L77.5963077,63.6788615 L71.9683077,63.6788615 L71.9683077,57.6509231 L83.8963692,57.6509231 L83.8963692,73.7783385 C81.8966769,74.8070462 79.7918462,75.5595077 77.6499077,76.0151077 C75.4564308,76.4892615 73.1846154,76.7180923 70.9024923,76.7180923 C68.4822462,76.7180923 66.2207385,76.3387692 64.1777538,75.5801231 C62.1409538,74.8256 60.3556615,73.7206154 58.8754769,72.3125846 C57.3932308,70.9086769 56.2140308,69.1687385 55.3894154,67.1608 C54.5586154,65.1569846 54.136,62.8831077 54.136,60.4030769 C54.136,57.9271692 54.5586154,55.6512308 55.3894154,53.6350462 Z M89.8830769,44.8817538 L101.854431,44.8817538 C103.427385,44.8817538 104.944677,45.0343077 106.365077,45.3456 C107.764862,45.6404 109.014154,46.1599077 110.069662,46.8690769 C111.118985,47.5782462 111.964215,48.5368615 112.582677,49.7325538 C113.2032,50.9261846 113.516554,52.4496615 113.516554,54.2390769 C113.516554,56.4036923 112.949631,58.2714462 111.824031,59.7908 C110.745846,61.2441846 109.162585,62.1883692 107.121662,62.6171692 L106.6372,62.7181846 L114.576185,75.9244 L106.705231,75.9244 L100.145415,63.3778769 L96.4470154,63.3778769 L96.4470154,75.9244 L89.8830769,75.9244 L89.8830769,44.8817538 Z M130.571662,44.8817538 L136.059477,44.8817538 L149.562554,75.9244 L142.1472,75.9244 L139.444523,69.2656308 L127.0052,69.2656308 L124.389108,75.9244 L117.155169,75.9244 L130.571662,44.8817538 Z M153.605231,75.9244 L160.165046,75.9244 L160.165046,44.8817538 L153.605231,44.8817538 L153.605231,75.9244 Z M167.889631,44.8817538 L174.453569,44.8817538 L174.453569,69.8861538 L187.270154,69.8861538 L187.270154,75.9244 L167.889631,75.9244 L167.889631,44.8817538 Z M204.776738,64.8539385 C204.051077,64.2911385 203.113077,63.8190462 202.001908,63.4294154 C200.907231,63.0459692 199.715662,62.6522154 198.447815,62.2728923 C197.202646,61.8935692 196.017262,61.3781846 194.941138,60.7349846 C193.875323,60.1062154 192.978554,59.2527385 192.267323,58.2178462 C191.568462,57.1870769 191.211815,55.8058462 191.211815,54.1050769 C191.211815,52.4558462 191.541662,50.9880308 192.188985,49.7572923 C192.842492,48.5100615 193.720708,47.4545538 194.805077,46.6216923 C195.893569,45.7785231 197.1676,45.1394462 198.579754,44.7168308 C200.0084,44.2962769 201.500954,44.0798154 203.007938,44.0798154 C204.760246,44.0798154 206.477508,44.3354462 208.106123,44.8281538 C209.670831,45.3105538 211.111846,46.1063077 212.379692,47.2009846 L207.897908,52.1053846 C207.333046,51.4518769 206.580585,50.9529846 205.6632,50.6355077 C204.690154,50.2891692 203.750092,50.1180615 202.878062,50.1180615 C202.3668,50.1180615 201.8308,50.1716615 201.286554,50.2953538 C200.744369,50.4169846 200.224862,50.6066462 199.736277,50.8664 C199.243569,51.1323385 198.827138,51.4848615 198.519969,51.9157231 C198.202492,52.3589538 198.043754,52.9032 198.043754,53.5237231 C198.043754,54.5462462 198.414831,55.3007692 199.183785,55.8450154 C199.899138,56.3562769 200.818585,56.8015692 201.915323,57.1520308 C202.991446,57.5086769 204.164462,57.8715077 205.397262,58.2178462 C206.619754,58.5703692 207.774215,59.0713231 208.835908,59.7062769 C209.893477,60.3412308 210.777877,61.2112 211.462308,62.2728923 C212.154985,63.3325231 212.503385,64.7714769 212.503385,66.5691385 C212.503385,68.2719692 212.179723,69.7830769 211.540646,71.0591692 C210.907754,72.3311385 210.037785,73.3990154 208.953415,74.2318769 C207.869046,75.0626769 206.586769,75.7017538 205.160185,76.1037538 C203.710923,76.5160615 202.166831,76.7180923 200.5712,76.7180923 C198.565323,76.7180923 196.670769,76.4129846 194.953508,75.8007077 C193.287785,75.2049231 191.718954,74.2463077 190.267631,72.9372308 L194.926708,67.8163692 C195.627631,68.7028308 196.514092,69.4058154 197.540738,69.9026462 C198.6416,70.4180308 199.796062,70.6880923 200.969077,70.6880923 C201.548369,70.6880923 202.133846,70.6200615 202.7152,70.4881231 C203.3048,70.3520615 203.836677,70.1356 204.317015,69.8717231 C204.797354,69.5913538 205.184923,69.2264615 205.485908,68.7976615 C205.784831,68.3544308 205.937385,67.8204923 205.937385,67.2308923 C205.937385,66.2124923 205.553938,65.4373538 204.776738,64.8539385 Z M133.830954,0.3484 C59.9206769,0.3484 0,60.2587692 0,134.173169 C0,208.083446 59.9206769,268 133.830954,268 C207.743292,268 267.659846,208.083446 267.659846,134.173169 C267.659846,60.2587692 207.743292,0.3484 133.830954,0.3484 L133.830954,0.3484 Z" id="Fill-1" fill="#FEB672" mask="url(#mask-2)"></path>
            </g>
        </g>
    </g>
</svg>