<?xml version="1.0" encoding="UTF-8"?>
<svg width="649px" height="253px" viewBox="0 0 649 253" version="1.1" xmlns="http://www.w3.org/2000/svg" xmlns:xlink="http://www.w3.org/1999/xlink">
    <!-- Generator: Sketch 52.6 (67491) - http://www.bohemiancoding.com/sketch -->
    <title>OCI_HTM_V1_Whitecolored</title>
    <desc>Created with Sketch.</desc>
    <defs>
        <polygon id="path-1" points="0 0.9733136 241.334594 0.9733136 241.334594 252.94 0 252.94"></polygon>
    </defs>
    <g id="OCI_HTM_V1_Whitecolored" stroke="none" stroke-width="1" fill="none" fill-rule="evenodd">
        <g id="Group-4">
            <mask id="mask-2" fill="white">
                <use xlink:href="#path-1"></use>
            </mask>
            <g id="Clip-2"></g>
            <path d="M95.411,139.218 C95.411,136.973 93.581,134.588 91.355,133.902 L41.535,118.596 C39.32,117.911 37.502,119.198 37.502,121.439 L37.502,180.381 C37.502,182.629 39.32,185.019 41.535,185.695 L91.355,200.997 C93.581,201.685 95.411,200.405 95.411,198.168 L95.411,139.218 Z M137.572,249.926 C137.572,252.171 135.748,253.49 133.512,252.83 L4.063,215.078 C1.836,214.419 0,212.059 0,209.817 L0,72.64 C0,70.387 1.836,69.093 4.063,69.75 L133.512,107.499 C135.748,108.153 137.572,110.527 137.572,112.766 L137.572,249.926 Z" id="Fill-1" fill="#FFFFFE" mask="url(#mask-2)"></path>
            <path d="M208.07,28.792 L239.563,37.556 C241.841,38.215 241.938,39.87 239.762,41.204 L147.749,99.139 C145.576,100.493 141.91,101.048 139.616,100.378 L6.8,61.843 C4.509,61.181 4.412,59.533 6.604,58.181 L103.953,2.489 C106.135,1.154 109.797,0.593 112.085,1.246 L134.737,8.011 L136.572,8.572 C139.622,9.335 140.062,10.489 140.081,11.143 C140.108,12.44 138.784,13.343 138.784,13.343 L80.669,48.304 C78.492,49.645 78.537,51.315 80.773,51.991 L131.432,66.761 C133.668,67.443 137.298,66.887 139.474,65.546 L196.44,31.397 C196.44,31.397 199.455,29.929 201.82,28.929 C205.076,27.55 208.07,28.792 208.07,28.792" id="Fill-3" fill="#6AC2C3" mask="url(#mask-2)"></path>
        </g>
        <path d="M214.988,129.94 C215.021,126.393 216.84,124.64 219.112,123.208 L245.951,106.128 C248.227,104.697 251.188,106.103 251.188,109.241 L251.166,184.384 C250.998,187.357 251.207,189.244 246.468,192.476 L218.381,212.806 C216.104,214.241 214.829,212.998 214.829,210.721 L214.988,129.94" id="Fill-5" fill="#F0AA73"></path>
        <path d="M213.752,73.41 C213.752,71.135 215.611,68.107 217.873,66.678 L247.275,47.403 C249.539,45.977 251.207,47.568 251.207,49.848 L251.066,86.493 C250.902,89.196 249.699,91.268 247.24,92.9 L217.691,111.533 C215.428,112.966 213.758,112.081 213.758,109.81 L213.752,73.41" id="Fill-6" fill="#F0AA73"></path>
        <path d="M312.743,67.187 C312.743,68.69 312.974,70.069 313.438,71.311 C313.902,72.547 314.567,73.626 315.44,74.536 C316.312,75.453 317.348,76.163 318.567,76.679 C319.784,77.19 321.133,77.437 322.633,77.437 C324.128,77.437 325.485,77.19 326.697,76.679 C327.914,76.163 328.952,75.453 329.823,74.536 C330.688,73.626 331.359,72.547 331.82,71.311 C332.291,70.069 332.521,68.69 332.521,67.187 C332.521,65.722 332.291,64.36 331.82,63.101 C331.359,61.843 330.688,60.755 329.823,59.843 C328.952,58.928 327.914,58.216 326.697,57.708 C325.485,57.195 324.128,56.948 322.633,56.948 C321.133,56.948 319.784,57.195 318.567,57.708 C317.348,58.216 316.312,58.928 315.44,59.843 C314.567,60.755 313.902,61.843 313.438,63.101 C312.974,64.36 312.743,65.722 312.743,67.187 Z M305.462,67.187 C305.462,64.646 305.889,62.337 306.742,60.269 C307.594,58.205 308.789,56.442 310.319,54.989 C311.839,53.535 313.655,52.419 315.754,51.639 C317.848,50.859 320.139,50.474 322.633,50.474 C325.117,50.474 327.408,50.859 329.508,51.639 C331.606,52.419 333.42,53.535 334.947,54.989 C336.469,56.442 337.667,58.205 338.519,60.269 C339.379,62.337 339.799,64.646 339.799,67.187 C339.799,69.737 339.379,72.047 338.519,74.113 C337.667,76.179 336.469,77.937 334.947,79.393 C333.42,80.855 331.606,81.965 329.508,82.745 C327.408,83.523 325.117,83.91 322.633,83.91 C320.139,83.91 317.848,83.523 315.754,82.745 C313.655,81.965 311.839,80.855 310.319,79.393 C308.789,77.937 307.594,76.179 306.742,74.113 C305.889,72.047 305.462,69.737 305.462,67.187 Z" id="Fill-7" fill="#FFFFFE"></path>
        <path d="M359.676,77.173 L365.954,77.173 C366.504,77.173 367.051,77.108 367.607,76.987 C368.152,76.871 368.654,76.663 369.108,76.361 C369.553,76.064 369.922,75.67 370.207,75.19 C370.492,74.712 370.636,74.129 370.636,73.44 C370.636,72.69 370.44,72.085 370.08,71.618 C369.701,71.154 369.234,70.805 368.654,70.561 C368.083,70.325 367.471,70.151 366.816,70.069 C366.152,69.981 365.539,69.931 364.971,69.931 L359.676,69.931 L359.676,77.173 Z M359.676,64.005 L364.751,64.005 C365.286,64.005 365.828,63.937 366.339,63.822 C366.866,63.701 367.344,63.508 367.756,63.234 C368.188,62.964 368.521,62.607 368.768,62.157 C369.021,61.711 369.152,61.167 369.152,60.535 C369.152,59.878 369.006,59.332 368.729,58.898 C368.438,58.464 368.066,58.123 367.627,57.887 C367.168,57.651 366.663,57.472 366.1,57.368 C365.52,57.263 364.971,57.211 364.438,57.211 L359.676,57.211 L359.676,64.005 Z M352.651,51.283 L364.52,51.283 C365.904,51.283 367.292,51.375 368.677,51.574 C370.08,51.766 371.328,52.156 372.438,52.736 C373.542,53.321 374.443,54.145 375.125,55.189 C375.822,56.239 376.163,57.631 376.163,59.368 C376.163,61.167 375.658,62.66 374.658,63.849 C373.652,65.025 372.339,65.876 370.686,66.382 L370.686,66.472 C371.737,66.623 372.686,66.911 373.531,67.349 C374.381,67.783 375.125,68.338 375.74,69.014 C376.355,69.69 376.822,70.47 377.163,71.371 C377.487,72.272 377.646,73.234 377.646,74.25 C377.646,75.926 377.293,77.325 376.575,78.453 C375.85,79.575 374.916,80.482 373.778,81.168 C372.646,81.861 371.366,82.355 369.946,82.652 C368.521,82.949 367.097,83.102 365.69,83.102 L352.651,83.102 L352.651,51.283 Z" id="Fill-8" fill="#FFFFFE"></path>
        <path d="M406.332,72.448 C406.332,73.915 406.197,75.344 405.939,76.723 C405.689,78.102 405.206,79.322 404.48,80.382 C403.77,81.449 402.744,82.3 401.403,82.943 C400.071,83.588 398.329,83.91 396.17,83.91 C393.647,83.91 391.516,83.311 389.79,82.116 C388.046,80.913 386.925,79.044 386.405,76.5 L392.829,74.92 C392.928,75.696 393.279,76.361 393.89,76.899 C394.516,77.437 395.205,77.712 395.982,77.712 C396.791,77.712 397.417,77.506 397.873,77.099 C398.329,76.696 398.653,76.196 398.865,75.596 C399.076,74.997 399.203,74.349 399.247,73.64 C399.293,72.937 399.313,72.288 399.313,71.687 L399.313,51.283 L406.332,51.283 L406.332,72.448" id="Fill-9" fill="#FFFFFE"></path>
        <polyline id="Fill-10" fill="#FFFFFE" points="420.701 51.283 442.331 51.283 442.331 57.755 427.718 57.755 427.718 63.684 441.523 63.684 441.523 70.151 427.718 70.151 427.718 76.629 443.137 76.629 443.137 83.102 420.701 83.102 420.701 51.283"></polyline>
        <path d="M477.657,59.549 C476.971,58.711 476.121,58.063 475.113,57.617 C474.107,57.169 472.948,56.948 471.635,56.948 C470.316,56.948 469.085,57.195 467.965,57.708 C466.844,58.216 465.877,58.928 465.053,59.843 C464.233,60.755 463.577,61.843 463.112,63.101 C462.65,64.36 462.418,65.722 462.418,67.187 C462.418,68.69 462.65,70.069 463.112,71.311 C463.577,72.547 464.217,73.626 465.02,74.536 C465.835,75.453 466.777,76.163 467.882,76.679 C468.97,77.19 470.143,77.437 471.404,77.437 C472.847,77.437 474.124,77.143 475.231,76.541 C476.333,75.946 477.248,75.105 477.965,74.022 L483.812,78.388 C482.465,80.27 480.762,81.663 478.693,82.558 C476.621,83.459 474.495,83.91 472.309,83.91 C469.813,83.91 467.525,83.523 465.426,82.745 C463.332,81.965 461.514,80.855 459.991,79.393 C458.453,77.937 457.271,76.179 456.42,74.113 C455.565,72.047 455.134,69.737 455.134,67.187 C455.134,64.646 455.565,62.337 456.42,60.269 C457.271,58.205 458.453,56.442 459.991,54.989 C461.514,53.535 463.332,52.419 465.426,51.639 C467.525,50.859 469.813,50.474 472.309,50.474 C473.209,50.474 474.148,50.557 475.113,50.716 C476.088,50.878 477.056,51.142 477.995,51.504 C478.943,51.865 479.844,52.348 480.718,52.947 C481.586,53.54 482.366,54.28 483.059,55.145 L477.657,59.549" id="Fill-11" fill="#FFFFFE"></path>
        <polyline id="Fill-12" fill="#FFFFFE" points="501.889 57.48 492.801 57.48 492.801 51.283 517.975 51.283 517.975 57.48 508.895 57.48 508.895 83.102 501.889 83.102 501.889 57.48"></polyline>
        <path d="M327.979,117.357 C327.29,116.519 326.447,115.876 325.436,115.425 C324.436,114.978 323.271,114.752 321.957,114.752 C320.639,114.752 319.416,115.01 318.295,115.51 C317.169,116.03 316.199,116.733 315.369,117.651 C314.551,118.568 313.902,119.648 313.438,120.91 C312.974,122.17 312.743,123.538 312.743,124.999 C312.743,126.505 312.974,127.869 313.438,129.116 C313.902,130.357 314.539,131.443 315.35,132.358 C316.158,133.261 317.105,133.976 318.199,134.484 C319.295,135 320.479,135.244 321.727,135.244 C323.169,135.244 324.446,134.956 325.549,134.352 C326.661,133.758 327.578,132.92 328.296,131.832 L334.14,136.196 C332.793,138.083 331.084,139.479 329.013,140.374 C326.952,141.273 324.814,141.729 322.633,141.729 C320.139,141.729 317.848,141.33 315.754,140.547 C313.655,139.775 311.839,138.662 310.319,137.196 C308.789,135.753 307.594,133.997 306.742,131.923 C305.889,129.857 305.462,127.546 305.462,124.999 C305.462,122.461 305.889,120.145 306.742,118.079 C307.594,116.016 308.789,114.249 310.319,112.79 C311.839,111.343 313.655,110.233 315.754,109.445 C317.848,108.669 320.139,108.283 322.633,108.283 C323.529,108.283 324.469,108.362 325.436,108.527 C326.411,108.692 327.373,108.955 328.32,109.312 C329.263,109.672 330.164,110.153 331.035,110.746 C331.903,111.354 332.688,112.084 333.381,112.952 L327.979,117.357" id="Fill-13" fill="#FFFFFE"></path>
        <path d="M351.624,124.999 C351.624,126.505 351.857,127.869 352.327,129.116 C352.783,130.357 353.453,131.443 354.322,132.358 C355.189,133.261 356.234,133.976 357.442,134.484 C358.657,135 360.02,135.244 361.515,135.244 C363.009,135.244 364.363,135 365.58,134.484 C366.789,133.976 367.839,133.261 368.701,132.358 C369.569,131.443 370.24,130.357 370.701,129.116 C371.163,127.869 371.404,126.505 371.404,124.999 C371.404,123.538 371.163,122.17 370.701,120.91 C370.24,119.648 369.569,118.568 368.701,117.651 C367.839,116.733 366.789,116.03 365.58,115.51 C364.363,115.01 363.009,114.752 361.515,114.752 C360.02,114.752 358.657,115.01 357.442,115.51 C356.234,116.03 355.189,116.733 354.322,117.651 C353.453,118.568 352.783,119.648 352.327,120.91 C351.857,122.17 351.624,123.538 351.624,124.999 Z M344.338,124.999 C344.338,122.461 344.77,120.145 345.621,118.079 C346.48,116.016 347.668,114.249 349.195,112.79 C350.723,111.343 352.536,110.233 354.638,109.445 C356.736,108.669 359.025,108.283 361.515,108.283 C364.001,108.283 366.287,108.669 368.389,109.445 C370.487,110.233 372.298,111.343 373.828,112.79 C375.361,114.249 376.545,116.016 377.402,118.079 C378.252,120.145 378.675,122.461 378.675,124.999 C378.675,127.546 378.252,129.857 377.402,131.923 C376.545,133.997 375.361,135.753 373.828,137.196 C372.298,138.662 370.487,139.775 368.389,140.547 C366.287,141.33 364.001,141.729 361.515,141.729 C359.025,141.729 356.736,141.33 354.638,140.547 C352.536,139.775 350.723,138.662 349.195,137.196 C347.668,135.753 346.48,133.997 345.621,131.923 C344.77,129.857 344.338,127.546 344.338,124.999 Z" id="Fill-14" fill="#FFFFFE"></path>
        <polyline id="Fill-15" fill="#FFFFFE" points="391.537 109.087 402.148 109.087 409.473 129.857 409.566 129.857 416.935 109.087 427.498 109.087 427.498 140.918 420.481 140.918 420.481 116.505 420.396 116.505 412.03 140.918 406.682 140.918 398.637 116.505 398.543 116.505 398.543 140.918 391.537 140.918 391.537 109.087"></polyline>
        <path d="M449.073,122.577 L453.738,122.577 C454.373,122.577 454.98,122.516 455.565,122.39 C456.15,122.275 456.667,122.072 457.14,121.788 C457.612,121.508 457.975,121.11 458.261,120.615 C458.547,120.115 458.695,119.502 458.695,118.749 C458.695,117.939 458.502,117.296 458.129,116.796 C457.755,116.307 457.271,115.919 456.684,115.648 C456.106,115.378 455.453,115.205 454.732,115.134 C454.008,115.06 453.329,115.021 452.667,115.021 L449.073,115.021 L449.073,122.577 Z M442.063,109.087 L453.884,109.087 C455.524,109.087 457.079,109.236 458.555,109.535 C460.02,109.831 461.305,110.351 462.396,111.093 C463.497,111.824 464.354,112.81 465.003,114.054 C465.646,115.296 465.976,116.86 465.976,118.749 C465.976,120.613 465.662,122.17 465.063,123.423 C464.47,124.681 463.64,125.687 462.596,126.443 C461.552,127.19 460.308,127.728 458.871,128.038 C457.439,128.349 455.867,128.503 454.189,128.503 L449.073,128.503 L449.073,140.918 L442.063,140.918 L442.063,109.087 Z" id="Fill-16" fill="#FFFFFE"></path>
        <path d="M505.301,128.637 C505.301,130.528 505.019,132.267 504.438,133.861 C503.873,135.443 503.035,136.827 501.916,137.995 C500.79,139.152 499.387,140.08 497.707,140.74 C496.031,141.394 494.092,141.729 491.908,141.729 C489.69,141.729 487.746,141.394 486.062,140.74 C484.383,140.08 482.987,139.152 481.86,137.995 C480.74,136.827 479.888,135.443 479.324,133.861 C478.756,132.267 478.471,130.528 478.471,128.637 L478.471,109.087 L485.481,109.087 L485.481,128.373 C485.481,129.363 485.636,130.275 485.951,131.113 C486.268,131.94 486.701,132.682 487.278,133.291 C487.842,133.912 488.531,134.39 489.322,134.737 C490.125,135.077 490.974,135.244 491.908,135.244 C492.831,135.244 493.693,135.077 494.466,134.737 C495.254,134.39 495.916,133.912 496.493,133.291 C497.064,132.682 497.504,131.94 497.817,131.113 C498.131,130.275 498.295,129.363 498.295,128.373 L498.295,109.087 L505.301,109.087 L505.301,128.637" id="Fill-17" fill="#FFFFFE"></path>
        <polyline id="Fill-18" fill="#FFFFFE" points="526.021 115.286 516.939 115.286 516.939 109.087 542.116 109.087 542.116 115.286 533.033 115.286 533.033 140.918 526.021 140.918 526.021 115.286"></polyline>
        <polygon id="Fill-19" fill="#FFFFFE" points="553.672 140.918 560.675 140.918 560.675 109.087 553.672 109.087"></polygon>
        <polyline id="Fill-20" fill="#FFFFFE" points="575.15 109.087 584.673 109.087 598.207 131.212 598.303 131.212 598.303 109.087 605.314 109.087 605.314 140.918 596.141 140.918 582.261 118.263 582.165 118.263 582.165 140.918 575.15 140.918 575.15 109.087"></polyline>
        <path d="M648.679,138.671 C646.615,139.743 644.456,140.523 642.209,141.009 C639.959,141.482 637.676,141.729 635.329,141.729 C632.846,141.729 630.549,141.33 628.45,140.547 C626.359,139.775 624.546,138.662 623.026,137.196 C621.499,135.753 620.299,133.997 619.444,131.923 C618.595,129.857 618.158,127.546 618.158,124.999 C618.158,122.461 618.595,120.145 619.444,118.079 C620.299,116.016 621.499,114.249 623.026,112.79 C624.546,111.343 626.359,110.233 628.45,109.445 C630.549,108.669 632.846,108.283 635.329,108.283 C637.873,108.283 640.225,108.581 642.368,109.202 C644.517,109.818 646.388,110.862 648.014,112.368 L643.066,117.763 C642.109,116.772 641.033,116.03 639.835,115.51 C638.637,115.01 637.132,114.752 635.329,114.752 C633.838,114.752 632.483,115.01 631.269,115.51 C630.052,116.03 629.016,116.733 628.137,117.651 C627.264,118.568 626.609,119.648 626.14,120.91 C625.681,122.17 625.455,123.538 625.455,124.999 C625.455,126.505 625.681,127.869 626.14,129.116 C626.609,130.357 627.264,131.443 628.137,132.358 C629.016,133.261 630.052,133.976 631.269,134.484 C632.483,135 633.838,135.244 635.329,135.244 C636.862,135.244 638.179,135.077 639.291,134.737 C640.396,134.39 641.285,134.036 641.953,133.679 L641.953,128.503 L636.236,128.503 L636.236,122.038 L648.679,122.038 L648.679,138.671" id="Fill-21" fill="#FFFFFE"></path>
        <polyline id="Fill-22" fill="#FFFFFE" points="309.751 167.142 312.433 167.142 312.433 175.161 322.131 175.161 322.131 167.142 324.84 167.142 324.84 186.322 322.131 186.322 322.131 177.543 312.433 177.543 312.433 186.322 309.751 186.322 309.751 167.142"></polyline>
        <path d="M348.415,176.705 C348.415,175.656 348.244,174.667 347.901,173.739 C347.558,172.81 347.068,171.992 346.437,171.287 C345.805,170.584 345.041,170.027 344.146,169.622 C343.255,169.216 342.247,169.01 341.129,169.01 C340.024,169.01 339.027,169.216 338.134,169.622 C337.241,170.027 336.48,170.584 335.859,171.287 C335.235,171.992 334.752,172.81 334.408,173.739 C334.068,174.667 333.893,175.656 333.893,176.705 C333.893,177.769 334.068,178.772 334.408,179.711 C334.752,180.651 335.238,181.47 335.87,182.161 C336.502,182.86 337.264,183.404 338.145,183.799 C339.032,184.198 340.024,184.398 341.129,184.398 C342.228,184.398 343.233,184.198 344.135,183.799 C345.035,183.404 345.805,182.86 346.437,182.161 C347.068,181.47 347.558,180.651 347.901,179.711 C348.244,178.772 348.415,177.769 348.415,176.705 Z M351.311,176.705 C351.311,178.184 351.053,179.543 350.541,180.783 C350.024,182.019 349.316,183.085 348.415,183.975 C347.508,184.87 346.437,185.569 345.189,186.063 C343.942,186.561 342.588,186.808 341.129,186.808 C339.662,186.808 338.315,186.561 337.079,186.063 C335.838,185.569 334.769,184.87 333.87,183.975 C332.967,183.085 332.26,182.019 331.755,180.783 C331.249,179.543 330.996,178.184 330.996,176.705 C330.996,175.205 331.249,173.837 331.755,172.601 C332.26,171.365 332.967,170.307 333.87,169.433 C334.769,168.557 335.838,167.875 337.079,167.386 C338.315,166.898 339.662,166.656 341.129,166.656 C342.588,166.656 343.942,166.898 345.189,167.386 C346.437,167.875 347.508,168.557 348.415,169.433 C349.316,170.307 350.024,171.365 350.541,172.601 C351.053,173.837 351.311,175.205 351.311,176.705 Z" id="Fill-23" fill="#FFFFFE"></path>
        <polyline id="Fill-24" fill="#FFFFFE" points="367.357 181.876 367.413 181.876 373.072 167.142 377.246 167.142 377.246 186.322 374.562 186.322 374.562 170.283 374.51 170.283 368.141 186.322 366.438 186.322 360.097 170.283 360.045 170.283 360.045 186.322 357.442 186.322 357.442 167.142 361.613 167.142 367.357 181.876"></polyline>
        <polyline id="Fill-25" fill="#FFFFFE" points="388.142 183.937 398.162 183.937 398.162 186.322 385.461 186.322 385.461 167.142 397.755 167.142 397.755 169.499 388.142 169.499 388.142 175.244 397.189 175.244 397.189 177.543 388.142 177.543 388.142 183.937"></polyline>
        <polyline id="Fill-26" fill="#FFFFFE" points="417.429 186.322 414.748 186.322 414.748 169.499 408.599 169.499 408.599 167.142 423.578 167.142 423.578 169.499 417.429 169.499 417.429 186.322"></polyline>
        <path d="M445.313,176.705 C445.313,175.656 445.139,174.667 444.799,173.739 C444.452,172.81 443.963,171.992 443.334,171.287 C442.702,170.584 441.941,170.027 441.045,169.622 C440.152,169.216 439.145,169.01 438.023,169.01 C436.925,169.01 435.924,169.216 435.029,169.622 C434.139,170.027 433.381,170.584 432.757,171.287 C432.133,171.992 431.649,172.81 431.309,173.739 C430.963,174.667 430.792,175.656 430.792,176.705 C430.792,177.769 430.963,178.772 431.309,179.711 C431.649,180.651 432.139,181.47 432.771,182.161 C433.402,182.86 434.16,183.404 435.045,183.799 C435.93,184.198 436.925,184.398 438.023,184.398 C439.128,184.398 440.128,184.198 441.029,183.799 C441.936,183.404 442.702,182.86 443.334,182.161 C443.963,181.47 444.452,180.651 444.799,179.711 C445.139,178.772 445.313,177.769 445.313,176.705 Z M448.211,176.705 C448.211,178.184 447.952,179.543 447.436,180.783 C446.925,182.019 446.213,183.085 445.313,183.975 C444.408,184.87 443.334,185.569 442.09,186.063 C440.842,186.561 439.485,186.808 438.023,186.808 C436.562,186.808 435.21,186.561 433.974,186.063 C432.737,185.569 431.666,184.87 430.765,183.975 C429.863,183.085 429.16,182.019 428.649,180.783 C428.149,179.543 427.896,178.184 427.896,176.705 C427.896,175.205 428.149,173.837 428.649,172.601 C429.16,171.365 429.863,170.307 430.765,169.433 C431.666,168.557 432.737,167.875 433.974,167.386 C435.21,166.898 436.562,166.656 438.023,166.656 C439.485,166.656 440.842,166.898 442.09,167.386 C443.334,167.875 444.408,168.557 445.313,169.433 C446.213,170.307 446.925,171.365 447.436,172.601 C447.952,173.837 448.211,175.205 448.211,176.705 Z" id="Fill-27" fill="#FFFFFE"></path>
        <polyline id="Fill-28" fill="#FFFFFE" points="469.129 181.876 469.185 181.876 474.847 167.142 479.015 167.142 479.015 186.322 476.336 186.322 476.336 170.283 476.281 170.283 469.915 186.322 468.212 186.322 461.871 170.283 461.815 170.283 461.815 186.322 459.217 186.322 459.217 167.142 463.387 167.142 469.129 181.876"></polyline>
        <polygon id="Fill-29" fill="#FFFFFE" points="487.231 186.322 489.916 186.322 489.916 167.142 487.231 167.142"></polygon>
        <path d="M514.571,183.343 C513.813,184.37 512.829,185.206 511.62,185.846 C510.408,186.487 508.958,186.808 507.258,186.808 C505.796,186.808 504.444,186.561 503.208,186.063 C501.972,185.569 500.905,184.87 500.013,183.975 C499.119,183.085 498.422,182.019 497.911,180.783 C497.408,179.543 497.158,178.184 497.158,176.705 C497.158,175.205 497.414,173.837 497.928,172.601 C498.443,171.365 499.152,170.307 500.067,169.433 C500.977,168.557 502.06,167.875 503.304,167.386 C504.549,166.898 505.906,166.656 507.367,166.656 C508.021,166.656 508.675,166.722 509.346,166.842 C510.01,166.972 510.656,167.161 511.269,167.413 C511.881,167.666 512.441,167.98 512.947,168.348 C513.453,168.719 513.887,169.148 514.247,169.634 L512.134,171.26 C511.664,170.612 510.999,170.074 510.143,169.651 C509.291,169.224 508.361,169.01 507.367,169.01 C506.246,169.01 505.241,169.216 504.346,169.622 C503.455,170.027 502.691,170.584 502.06,171.287 C501.428,171.992 500.938,172.81 500.595,173.739 C500.252,174.667 500.081,175.656 500.081,176.705 C500.081,177.788 500.249,178.799 500.581,179.739 C500.916,180.675 501.395,181.494 502.018,182.19 C502.639,182.887 503.4,183.431 504.293,183.827 C505.186,184.225 506.186,184.423 507.285,184.423 C508.367,184.423 509.354,184.206 510.241,183.772 C511.123,183.343 511.856,182.708 512.434,181.876 L514.571,183.343" id="Fill-30" fill="#FFFFFE"></path>
        <path d="M523.549,175.54 L526.638,175.54 C527.27,175.54 527.854,175.486 528.396,175.376 C528.935,175.269 529.412,175.09 529.813,174.848 C530.226,174.604 530.544,174.29 530.78,173.904 C531.012,173.513 531.132,173.03 531.132,172.452 C531.132,171.873 531.012,171.392 530.78,171.002 C530.544,170.615 530.23,170.304 529.841,170.068 C529.456,169.834 529,169.667 528.473,169.568 C527.951,169.469 527.401,169.419 526.824,169.419 L523.549,169.419 L523.549,175.54 Z M523.549,186.322 L520.865,186.322 L520.865,167.142 L527.011,167.142 C527.935,167.142 528.811,167.238 529.643,167.425 C530.473,167.618 531.198,167.919 531.824,168.331 C532.445,168.749 532.935,169.296 533.297,169.972 C533.66,170.651 533.838,171.475 533.838,172.452 C533.838,173.86 533.407,174.996 532.539,175.865 C531.674,176.733 530.555,177.283 529.182,177.519 L534.545,186.322 L531.291,186.322 L526.418,177.788 L523.549,177.788 L523.549,186.322 Z" id="Fill-31" fill="#FFFFFE"></path>
        <path d="M557.496,176.705 C557.496,175.656 557.326,174.667 556.985,173.739 C556.639,172.81 556.15,171.992 555.523,171.287 C554.889,170.584 554.125,170.027 553.227,169.622 C552.336,169.216 551.331,169.01 550.21,169.01 C549.108,169.01 548.111,169.216 547.215,169.622 C546.322,170.027 545.564,170.584 544.943,171.287 C544.316,171.992 543.836,172.81 543.49,173.739 C543.149,174.667 542.977,175.656 542.977,176.705 C542.977,177.769 543.149,178.772 543.49,179.711 C543.836,180.651 544.322,181.47 544.954,182.161 C545.586,182.86 546.348,183.404 547.232,183.799 C548.116,184.198 549.108,184.398 550.21,184.398 C551.309,184.398 552.314,184.198 553.216,183.799 C554.119,183.404 554.889,182.86 555.523,182.161 C556.15,181.47 556.639,180.651 556.985,179.711 C557.326,178.772 557.496,177.769 557.496,176.705 Z M560.395,176.705 C560.395,178.184 560.137,179.543 559.623,180.783 C559.105,182.019 558.397,183.085 557.496,183.975 C556.595,184.87 555.523,185.569 554.273,186.063 C553.023,186.561 551.672,186.808 550.21,186.808 C548.748,186.808 547.396,186.561 546.16,186.063 C544.924,185.569 543.853,184.87 542.949,183.975 C542.048,183.085 541.347,182.019 540.836,180.783 C540.33,179.543 540.083,178.184 540.083,176.705 C540.083,175.205 540.33,173.837 540.836,172.601 C541.347,171.365 542.048,170.307 542.949,169.433 C543.853,168.557 544.924,167.875 546.16,167.386 C547.396,166.898 548.748,166.656 550.21,166.656 C551.672,166.656 553.023,166.898 554.273,167.386 C555.523,167.875 556.595,168.557 557.496,169.433 C558.397,170.307 559.105,171.365 559.623,172.601 C560.137,173.837 560.395,175.205 560.395,176.705 Z" id="Fill-32" fill="#FFFFFE"></path>
        <polyline id="Fill-33" fill="#FFFFFE" points="582.591 186.322 568.829 167.903 568.746 167.903 568.746 186.322 568.15 186.322 568.15 167.142 568.991 167.142 582.777 185.536 582.859 185.536 582.859 167.142 583.459 167.142 583.459 186.322 582.591 186.322"></polyline>
        <path d="M582.651,186.201 L583.338,186.201 L583.338,167.26 L582.98,167.26 L582.98,185.654 L582.717,185.654 L582.684,185.607 L568.931,167.26 L568.271,167.26 L568.271,186.201 L568.629,186.201 L568.629,167.783 L568.89,167.783 L568.925,167.831 L582.651,186.201 Z M583.577,186.44 L582.53,186.44 L582.492,186.393 L568.865,168.15 L568.865,186.44 L568.029,186.44 L568.029,167.024 L569.052,167.024 L569.087,167.071 L582.742,185.286 L582.742,167.024 L583.577,167.024 L583.577,186.44 Z" id="Fill-34" fill="#FFFFFE"></path>
        <path d="M599.036,167.524 L593.597,180.308 L604.322,180.308 L599.036,167.524 Z M606.787,186.322 L604.51,180.822 L593.38,180.822 L591.022,186.322 L590.371,186.322 L598.69,167.142 L599.445,167.142 L607.438,186.322 L606.787,186.322 Z" id="Fill-35" fill="#FFFFFE"></path>
        <path d="M593.778,180.189 L604.141,180.189 L599.036,167.831 L593.778,180.189 Z M606.866,186.201 L607.257,186.201 L599.366,167.26 L599.059,167.26 L599.146,167.477 L604.498,180.425 L593.415,180.425 L593.486,180.261 L599.02,167.26 L598.768,167.26 L590.556,186.201 L590.942,186.201 L593.3,180.701 L604.592,180.701 L604.619,180.777 L606.866,186.201 Z M607.619,186.44 L606.707,186.44 L606.677,186.366 L604.433,180.942 L593.459,180.942 L591.102,186.44 L590.189,186.44 L598.61,167.024 L599.525,167.024 L599.556,167.095 L607.619,186.44 Z" id="Fill-36" fill="#FFFFFE"></path>
        <path d="M628.002,182.107 C627.752,183.058 627.334,183.882 626.755,184.585 C626.181,185.291 625.425,185.846 624.494,186.255 C623.565,186.66 622.422,186.86 621.067,186.86 C619.713,186.86 618.573,186.66 617.642,186.255 C616.713,185.846 615.955,185.291 615.383,184.585 C614.801,183.882 614.386,183.058 614.136,182.107 C613.883,181.161 613.754,180.146 613.754,179.063 L613.754,167.142 L614.351,167.142 L614.351,178.952 C614.351,179.711 614.428,180.519 614.581,181.376 C614.735,182.234 615.051,183.031 615.529,183.761 C616.01,184.492 616.686,185.102 617.56,185.588 C618.438,186.077 619.606,186.322 621.067,186.322 C622.494,186.322 623.645,186.085 624.521,185.619 C625.397,185.146 626.079,184.546 626.565,183.816 C627.055,183.085 627.379,182.288 627.543,181.431 C627.705,180.574 627.791,179.747 627.791,178.952 L627.791,167.142 L628.384,167.142 L628.384,179.063 C628.384,180.146 628.255,181.161 628.002,182.107" id="Fill-37" fill="#FFFFFE"></path>
        <path d="M613.872,167.26 L613.872,179.063 C613.872,180.129 614.002,181.143 614.252,182.077 C614.496,183.002 614.908,183.822 615.475,184.511 C616.031,185.195 616.779,185.744 617.691,186.146 C618.601,186.541 619.735,186.742 621.067,186.742 C622.4,186.742 623.537,186.541 624.447,186.146 C625.361,185.744 626.104,185.195 626.661,184.511 C627.23,183.824 627.643,183.005 627.887,182.079 C628.137,181.14 628.264,180.126 628.264,179.063 L628.264,167.26 L627.908,167.26 L627.908,178.952 C627.908,179.744 627.823,180.585 627.658,181.453 C627.494,182.322 627.158,183.14 626.667,183.882 C626.17,184.626 625.467,185.244 624.579,185.722 C623.691,186.198 622.51,186.44 621.067,186.44 C619.592,186.44 618.392,186.19 617.502,185.693 C616.614,185.201 615.916,184.572 615.428,183.827 C614.946,183.085 614.619,182.269 614.463,181.398 C614.309,180.53 614.229,179.708 614.229,178.952 L614.229,167.26 L613.872,167.26 Z M621.067,186.981 C619.702,186.981 618.535,186.772 617.592,186.366 C616.647,185.948 615.872,185.376 615.29,184.662 C614.702,183.948 614.273,183.099 614.021,182.14 C613.763,181.184 613.636,180.148 613.636,179.063 L613.636,167.024 L614.471,167.024 L614.471,178.952 C614.471,179.695 614.548,180.502 614.699,181.354 C614.851,182.195 615.164,182.984 615.631,183.695 C616.095,184.41 616.763,185.008 617.617,185.484 C618.472,185.958 619.631,186.201 621.067,186.201 C622.469,186.201 623.611,185.97 624.467,185.511 C625.318,185.052 625.994,184.458 626.467,183.749 C626.944,183.033 627.264,182.244 627.422,181.41 C627.587,180.558 627.67,179.728 627.67,178.952 L627.67,167.024 L628.502,167.024 L628.502,179.063 C628.502,180.146 628.373,181.184 628.117,182.14 C627.862,183.102 627.434,183.948 626.846,184.662 C626.266,185.376 625.491,185.948 624.543,186.366 C623.604,186.772 622.434,186.981 621.067,186.981 Z" id="Fill-38" fill="#FFFFFE"></path>
        <polyline id="Fill-39" fill="#FFFFFE" points="642.151 167.686 642.151 186.322 641.555 186.322 641.555 167.686 635.027 167.686 635.027 167.142 648.679 167.142 648.679 167.686 642.151 167.686"></polyline>
        <path d="M641.676,186.201 L642.033,186.201 L642.033,167.568 L648.561,167.568 L648.561,167.26 L635.148,167.26 L635.148,167.568 L641.676,167.568 L641.676,186.201 Z M642.27,186.44 L641.434,186.44 L641.434,167.804 L634.906,167.804 L634.906,167.024 L648.797,167.024 L648.797,167.804 L642.27,167.804 L642.27,186.44 Z" id="Fill-40" fill="#FFFFFE"></path>
    </g>
</svg>