<?xml version="1.0" encoding="UTF-8"?>
<svg width="195px" height="205px" viewBox="0 0 195 205" version="1.1" xmlns="http://www.w3.org/2000/svg" xmlns:xlink="http://www.w3.org/1999/xlink">
    <!-- Generator: Sketch 43.2 (39069) - http://www.bohemiancoding.com/sketch -->
    <title>oci_software_engineers</title>
    <desc>Created with Sketch.</desc>
    <defs>
        <polygon id="path-1" points="0.06 17.256 0.06 0.68 17.021 0.68 17.021 17.256 0.06 17.256"></polygon>
        <polygon id="path-3" points="0.06 0.982199098 0.06 206 57.7444874 206 115.428975 206 115.428975 0.982199098 0.06 0.982199098"></polygon>
    </defs>
    <g id="Page-1" stroke="none" stroke-width="1" fill="none" fill-rule="evenodd">
        <g id="oci_software_engineers" transform="translate(0.000000, -1.000000)">
            <g id="Group-3" transform="translate(0.000000, 166.000000)">
                <mask id="mask-2" fill="white">
                    <use xlink:href="#path-1"></use>
                </mask>
                <g id="Clip-2"></g>
                <path d="M3.608,8.972 C3.608,9.707 3.722,10.389 3.956,11.004 C4.182,11.622 4.514,12.154 4.943,12.606 C5.377,13.062 5.89,13.417 6.493,13.674 C7.093,13.926 7.766,14.043 8.51,14.043 C9.253,14.043 9.922,13.926 10.528,13.674 C11.131,13.417 11.642,13.062 12.074,12.606 C12.5,12.154 12.836,11.622 13.065,11.004 C13.295,10.389 13.408,9.707 13.408,8.972 C13.408,8.236 13.295,7.568 13.065,6.939 C12.836,6.313 12.5,5.777 12.074,5.325 C11.642,4.869 11.131,4.525 10.528,4.265 C9.922,4.013 9.253,3.892 8.51,3.892 C7.766,3.892 7.093,4.013 6.493,4.265 C5.89,4.525 5.377,4.869 4.943,5.325 C4.514,5.777 4.182,6.313 3.956,6.939 C3.722,7.568 3.608,8.236 3.608,8.972 M0,8.972 C0,7.704 0.208,6.561 0.63,5.536 C1.056,4.511 1.646,3.647 2.402,2.916 C3.162,2.203 4.061,1.648 5.102,1.257 C6.141,0.872 7.273,0.68 8.51,0.68 C9.743,0.68 10.88,0.872 11.919,1.257 C12.96,1.648 13.857,2.203 14.615,2.916 C15.373,3.647 15.963,4.511 16.383,5.536 C16.81,6.561 17.021,7.704 17.021,8.972 C17.021,10.23 16.81,11.373 16.383,12.398 C15.963,13.425 15.373,14.292 14.615,15.015 C13.857,15.739 12.96,16.286 11.919,16.679 C10.88,17.063 9.743,17.256 8.51,17.256 C7.273,17.256 6.141,17.063 5.102,16.679 C4.061,16.286 3.162,15.739 2.402,15.015 C1.646,14.292 1.056,13.425 0.63,12.398 C0.208,11.373 0,10.23 0,8.972" id="Fill-1" fill="#7B7C81" mask="url(#mask-2)"></path>
            </g>
            <path d="M32.669,171.181 C32.33,170.767 31.911,170.446 31.409,170.221 C30.916,170.002 30.342,169.892 29.683,169.892 C29.03,169.892 28.431,170.013 27.871,170.269 C27.315,170.514 26.826,170.869 26.421,171.325 C26.014,171.781 25.697,172.316 25.467,172.942 C25.233,173.561 25.116,174.236 25.116,174.968 C25.116,175.714 25.233,176.389 25.467,177.004 C25.697,177.622 26.01,178.157 26.412,178.606 C26.813,179.062 27.281,179.417 27.824,179.67 C28.367,179.926 28.951,180.051 29.577,180.051 C30.284,180.051 30.921,179.899 31.468,179.601 C32.017,179.304 32.469,178.892 32.827,178.353 L35.725,180.514 C35.056,181.453 34.211,182.139 33.186,182.588 C32.156,183.033 31.104,183.256 30.02,183.256 C28.789,183.256 27.65,183.059 26.613,182.679 C25.572,182.29 24.675,181.739 23.915,181.015 C23.159,180.292 22.571,179.421 22.145,178.395 C21.723,177.377 21.512,176.23 21.512,174.968 C21.512,173.708 21.723,172.558 22.145,171.536 C22.571,170.511 23.159,169.636 23.915,168.923 C24.675,168.199 25.572,167.644 26.613,167.257 C27.65,166.872 28.789,166.68 30.02,166.68 C30.463,166.68 30.931,166.718 31.409,166.801 C31.896,166.884 32.369,167.015 32.838,167.188 C33.308,167.37 33.755,167.603 34.189,167.905 C34.62,168.199 35.007,168.565 35.346,168.991 L32.669,171.181" id="Fill-4" fill="#7B7C81"></path>
            <polygon id="Fill-5" fill="#7B7C81" points="42.19 182.848 45.667 182.848 45.667 167.079 42.19 167.079"></polygon>
            <polyline id="Fill-6" fill="#7B7C81" points="84.044 147.306 85.188 147.306 88.153 157.871 88.188 157.871 91.2 147.306 92.618 147.306 95.637 157.871 95.673 157.871 98.636 147.306 99.783 147.306 96.314 159.232 94.944 159.232 91.928 148.614 91.895 148.614 88.878 159.232 87.513 159.232 84.044 147.306"></polyline>
            <polyline id="Fill-7" fill="#7B7C81" points="103.183 147.306 110.484 147.306 110.484 148.316 104.296 148.316 104.296 152.558 110.095 152.558 110.095 153.573 104.296 153.573 104.296 158.225 110.751 158.225 110.751 159.232 103.183 159.232 103.183 147.306"></polyline>
            <path d="M125.107,148.513 L122.328,155.058 L127.802,155.058 L125.107,148.513 Z M124.589,147.306 L125.732,147.306 L130.755,159.232 L129.507,159.232 L128.208,156.065 L121.892,156.065 L120.544,159.232 L119.378,159.232 L124.589,147.306 L124.589,147.306 Z" id="Fill-8" fill="#7B7C81"></path>
            <path d="M135.271,152.558 L137.632,152.558 C138.212,152.558 138.687,152.491 139.054,152.344 C139.419,152.196 139.703,152.019 139.902,151.805 C140.105,151.594 140.244,151.363 140.314,151.114 C140.392,150.869 140.427,150.639 140.427,150.435 C140.427,150.24 140.392,150.014 140.314,149.764 C140.244,149.519 140.105,149.289 139.902,149.074 C139.703,148.863 139.419,148.683 139.054,148.535 C138.687,148.389 138.212,148.312 137.632,148.312 L135.271,148.312 L135.271,152.558 Z M134.162,147.306 L137.292,147.306 C137.453,147.306 137.664,147.309 137.935,147.325 C138.205,147.336 138.496,147.366 138.81,147.423 C139.123,147.479 139.441,147.566 139.771,147.694 C140.095,147.815 140.388,147.996 140.644,148.233 C140.906,148.464 141.121,148.765 141.289,149.124 C141.455,149.485 141.539,149.919 141.539,150.435 C141.539,151.013 141.441,151.484 141.248,151.857 C141.048,152.23 140.802,152.528 140.503,152.755 C140.205,152.992 139.876,153.162 139.519,153.271 C139.156,153.385 138.814,153.456 138.488,153.505 L141.958,159.232 L140.697,159.232 L137.343,153.573 L135.271,153.573 L135.271,159.232 L134.162,159.232 L134.162,147.306 L134.162,147.306 Z" id="Fill-9" fill="#7B7C81"></path>
            <polyline id="Fill-10" fill="#7B7C81" points="145.833 147.306 153.13 147.306 153.13 148.316 146.945 148.316 146.945 152.558 152.749 152.558 152.749 153.573 146.945 153.573 146.945 158.225 153.402 158.225 153.402 159.232 145.833 159.232 145.833 147.306"></polyline>
            <path d="M85.114,178.919 C85.407,179.429 85.786,179.802 86.25,180.055 C86.719,180.296 87.249,180.42 87.845,180.42 C88.216,180.42 88.563,180.367 88.891,180.254 C89.219,180.14 89.5,179.986 89.737,179.783 C89.982,179.579 90.173,179.338 90.316,179.048 C90.454,178.757 90.522,178.436 90.522,178.078 C90.522,177.664 90.438,177.316 90.264,177.049 C90.088,176.781 89.856,176.558 89.561,176.386 C89.27,176.212 88.943,176.064 88.58,175.94 C88.21,175.819 87.833,175.687 87.448,175.571 C87.061,175.442 86.684,175.303 86.321,175.144 C85.955,174.99 85.627,174.787 85.335,174.538 C85.043,174.273 84.81,173.957 84.634,173.58 C84.46,173.203 84.374,172.723 84.374,172.162 C84.374,171.635 84.481,171.167 84.683,170.756 C84.896,170.345 85.175,170.006 85.525,169.73 C85.884,169.455 86.291,169.244 86.747,169.104 C87.207,168.969 87.69,168.893 88.199,168.893 C88.848,168.893 89.454,169.006 90.007,169.236 C90.567,169.473 91.05,169.854 91.451,170.397 L90.487,171.088 C90.205,170.695 89.881,170.397 89.508,170.201 C89.128,170.006 88.686,169.911 88.165,169.911 C87.803,169.911 87.464,169.953 87.136,170.047 C86.812,170.144 86.53,170.284 86.287,170.473 C86.044,170.654 85.85,170.888 85.707,171.167 C85.562,171.449 85.486,171.785 85.486,172.162 C85.486,172.758 85.635,173.218 85.944,173.539 C86.246,173.859 86.625,174.115 87.079,174.297 C87.531,174.477 88.029,174.639 88.561,174.787 C89.097,174.926 89.587,175.111 90.047,175.348 C90.499,175.586 90.878,175.906 91.182,176.336 C91.483,176.755 91.634,177.336 91.634,178.078 C91.634,178.617 91.536,179.097 91.332,179.512 C91.129,179.93 90.861,180.276 90.518,180.567 C90.173,180.849 89.775,181.068 89.326,181.216 C88.88,181.355 88.414,181.434 87.932,181.434 C87.144,181.434 86.419,181.295 85.756,181.019 C85.094,180.74 84.526,180.28 84.053,179.628 L85.114,178.919" id="Fill-11" fill="#7B7C81"></path>
            <path d="M95.953,175.16 C95.953,175.902 96.072,176.597 96.306,177.237 C96.54,177.879 96.879,178.44 97.32,178.904 C97.757,179.372 98.285,179.749 98.916,180.017 C99.533,180.288 100.236,180.42 101.009,180.42 C101.781,180.42 102.482,180.288 103.105,180.017 C103.73,179.749 104.261,179.372 104.699,178.904 C105.134,178.44 105.476,177.879 105.71,177.237 C105.947,176.597 106.06,175.902 106.06,175.16 C106.06,174.425 105.947,173.73 105.71,173.094 C105.476,172.449 105.134,171.89 104.699,171.423 C104.261,170.948 103.73,170.582 103.105,170.31 C102.482,170.043 101.781,169.911 101.009,169.911 C100.236,169.911 99.533,170.043 98.916,170.31 C98.285,170.582 97.757,170.948 97.32,171.423 C96.879,171.89 96.54,172.449 96.306,173.094 C96.072,173.73 95.953,174.425 95.953,175.16 M94.841,175.16 C94.841,174.255 94.992,173.418 95.297,172.656 C95.601,171.89 96.02,171.223 96.559,170.677 C97.098,170.115 97.746,169.678 98.503,169.364 C99.261,169.056 100.095,168.893 101.009,168.893 C101.917,168.893 102.753,169.056 103.511,169.364 C104.269,169.678 104.917,170.115 105.455,170.677 C105.996,171.223 106.419,171.89 106.72,172.656 C107.025,173.418 107.177,174.255 107.177,175.16 C107.177,176.072 107.025,176.917 106.72,177.686 C106.419,178.451 105.996,179.115 105.455,179.674 C104.917,180.223 104.269,180.653 103.511,180.967 C102.753,181.275 101.917,181.434 101.009,181.434 C100.095,181.434 99.261,181.275 98.503,180.967 C97.746,180.653 97.098,180.223 96.559,179.674 C96.02,179.115 95.601,178.451 95.297,177.686 C94.992,176.917 94.841,176.072 94.841,175.16" id="Fill-12" fill="#7B7C81"></path>
            <polyline id="Fill-13" fill="#7B7C81" points="110.593 169.198 117.738 169.198 117.738 170.213 111.708 170.213 111.708 174.459 117.32 174.459 117.32 175.465 111.708 175.465 111.708 181.129 110.593 181.129 110.593 169.198"></polyline>
            <polyline id="Fill-14" fill="#7B7C81" points="124.294 170.209 120.216 170.209 120.216 169.198 129.482 169.198 129.482 170.209 125.406 170.209 125.406 181.129 124.294 181.129 124.294 170.209"></polyline>
            <polyline id="Fill-15" fill="#7B7C81" points="132.017 169.198 133.162 169.198 136.132 179.767 136.165 179.767 139.175 169.198 140.591 169.198 143.611 179.767 143.642 179.767 146.611 169.198 147.755 169.198 144.287 181.129 142.919 181.129 139.902 170.511 139.869 170.511 136.855 181.129 135.49 181.129 132.017 169.198"></polyline>
            <path d="M154.66,170.409 L151.878,176.951 L157.361,176.951 L154.66,170.409 Z M154.136,169.202 L155.283,169.202 L160.304,181.129 L159.056,181.129 L157.763,177.962 L151.445,177.962 L150.095,181.129 L148.933,181.129 L154.136,169.202 L154.136,169.202 Z" id="Fill-16" fill="#7B7C81"></path>
            <path d="M164.316,174.451 L166.673,174.451 C167.257,174.451 167.734,174.387 168.099,174.236 C168.46,174.093 168.748,173.912 168.949,173.697 C169.15,173.485 169.29,173.252 169.359,173.007 C169.435,172.765 169.472,172.535 169.472,172.332 C169.472,172.132 169.435,171.906 169.359,171.657 C169.29,171.412 169.15,171.181 168.949,170.963 C168.748,170.756 168.46,170.575 168.099,170.424 C167.734,170.284 167.257,170.209 166.673,170.209 L164.316,170.209 L164.316,174.451 Z M163.205,169.198 L166.337,169.198 C166.488,169.198 166.706,169.206 166.976,169.214 C167.244,169.221 167.54,169.255 167.853,169.311 C168.167,169.368 168.484,169.459 168.816,169.583 C169.14,169.711 169.429,169.892 169.691,170.122 C169.947,170.356 170.162,170.661 170.331,171.015 C170.498,171.378 170.583,171.815 170.583,172.332 C170.583,172.905 170.486,173.376 170.287,173.75 C170.089,174.119 169.843,174.417 169.542,174.647 C169.249,174.881 168.921,175.058 168.562,175.16 C168.203,175.273 167.857,175.356 167.533,175.401 L171.005,181.129 L169.744,181.129 L166.39,175.469 L164.316,175.469 L164.316,181.129 L163.205,181.129 L163.205,169.198 L163.205,169.198 Z" id="Fill-17" fill="#7B7C81"></path>
            <polyline id="Fill-18" fill="#7B7C81" points="174.113 169.198 181.414 169.198 181.414 170.213 175.226 170.213 175.226 174.459 181.021 174.459 181.021 175.465 175.226 175.465 175.226 180.114 181.681 180.114 181.681 181.129 174.113 181.129 174.113 169.198"></polyline>
            <polyline id="Fill-19" fill="#7B7C81" points="85.462 191.068 92.758 191.068 92.758 192.082 86.57 192.082 86.57 196.328 92.369 196.328 92.369 197.335 86.57 197.335 86.57 201.992 93.022 201.992 93.022 203.002 85.462 203.002 85.462 191.068"></polyline>
            <polyline id="Fill-20" fill="#7B7C81" points="97.14 191.068 98.566 191.068 105.83 201.52 105.867 201.52 105.867 191.068 106.978 191.068 106.978 203.002 105.542 203.002 98.281 192.554 98.252 192.554 98.252 203.002 97.14 203.002 97.14 191.068"></polyline>
            <path d="M121.023,202.229 C120.326,202.617 119.607,202.896 118.859,203.058 C118.113,203.221 117.345,203.3 116.576,203.3 C115.667,203.3 114.831,203.149 114.074,202.84 C113.316,202.531 112.664,202.094 112.126,201.543 C111.585,200.985 111.165,200.321 110.863,199.556 C110.558,198.787 110.404,197.949 110.404,197.041 C110.404,196.129 110.558,195.287 110.863,194.522 C111.165,193.761 111.585,193.1 112.126,192.546 C112.664,191.988 113.316,191.551 114.074,191.242 C114.831,190.925 115.667,190.767 116.576,190.767 C118.351,190.767 119.781,191.317 120.873,192.418 L120.064,193.267 C119.884,193.048 119.658,192.855 119.4,192.671 C119.134,192.482 118.847,192.32 118.537,192.191 C118.228,192.063 117.904,191.962 117.572,191.89 C117.234,191.81 116.898,191.781 116.576,191.781 C115.8,191.781 115.099,191.913 114.476,192.181 C113.859,192.452 113.324,192.821 112.886,193.293 C112.447,193.767 112.109,194.322 111.874,194.963 C111.638,195.6 111.517,196.291 111.517,197.041 C111.517,197.776 111.638,198.47 111.874,199.111 C112.109,199.752 112.447,200.303 112.886,200.777 C113.324,201.253 113.859,201.618 114.476,201.887 C115.099,202.161 115.8,202.29 116.576,202.29 C117.214,202.29 117.814,202.244 118.378,202.142 C118.937,202.037 119.449,201.852 119.914,201.588 L119.914,197.572 L117.046,197.572 L117.046,196.562 L121.023,196.562 L121.023,202.229" id="Fill-21" fill="#7B7C81"></path>
            <polygon id="Fill-22" fill="#7B7C81" points="126.197 203.006 127.308 203.006 127.308 191.068 126.197 191.068"></polygon>
            <polyline id="Fill-23" fill="#7B7C81" points="132.734 191.068 134.167 191.068 141.429 201.52 141.462 201.52 141.462 191.068 142.578 191.068 142.578 203.002 141.146 203.002 133.882 192.554 133.851 192.554 133.851 203.002 132.734 203.002 132.734 191.068"></polyline>
            <polyline id="Fill-24" fill="#7B7C81" points="147.533 191.068 154.826 191.068 154.826 192.082 148.638 192.082 148.638 196.328 154.439 196.328 154.439 197.335 148.638 197.335 148.638 201.992 155.095 201.992 155.095 203.002 147.533 203.002 147.533 191.068"></polyline>
            <polyline id="Fill-25" fill="#7B7C81" points="159.21 191.068 166.503 191.068 166.503 192.082 160.316 192.082 160.316 196.328 166.121 196.328 166.121 197.335 160.316 197.335 160.316 201.992 166.773 201.992 166.773 203.002 159.21 203.002 159.21 191.068"></polyline>
            <path d="M172.353,196.328 L174.716,196.328 C175.3,196.328 175.775,196.261 176.14,196.109 C176.499,195.97 176.79,195.781 176.986,195.574 C177.191,195.355 177.33,195.129 177.402,194.881 C177.476,194.639 177.513,194.405 177.513,194.209 C177.513,194.002 177.476,193.775 177.402,193.534 C177.33,193.285 177.191,193.052 176.986,192.841 C176.79,192.625 176.499,192.448 176.14,192.301 C175.775,192.154 175.3,192.075 174.716,192.075 L172.353,192.075 L172.353,196.328 Z M171.242,191.072 L174.376,191.072 C174.535,191.072 174.749,191.076 175.019,191.091 C175.287,191.098 175.58,191.133 175.896,191.188 C176.208,191.245 176.527,191.336 176.857,191.453 C177.179,191.581 177.472,191.762 177.732,192 C177.988,192.233 178.201,192.531 178.374,192.893 C178.54,193.248 178.626,193.685 178.626,194.209 C178.626,194.778 178.529,195.25 178.328,195.619 C178.132,195.996 177.884,196.294 177.585,196.524 C177.292,196.754 176.964,196.924 176.601,197.041 C176.242,197.146 175.902,197.225 175.574,197.27 L179.046,202.998 L177.783,202.998 L174.425,197.343 L172.353,197.343 L172.353,202.998 L171.242,202.998 L171.242,191.072 L171.242,191.072 Z" id="Fill-26" fill="#7B7C81"></path>
            <path d="M183.24,201.008 C183.529,201.513 183.914,201.893 184.376,202.139 C184.843,202.384 185.376,202.512 185.968,202.512 C186.341,202.512 186.691,202.459 187.017,202.339 C187.341,202.229 187.623,202.074 187.865,201.871 C188.109,201.671 188.3,201.423 188.441,201.143 C188.581,200.849 188.646,200.525 188.646,200.171 C188.646,199.756 188.566,199.409 188.39,199.142 C188.212,198.87 187.982,198.647 187.691,198.477 C187.4,198.297 187.07,198.157 186.703,198.029 C186.341,197.9 185.962,197.784 185.576,197.655 C185.185,197.535 184.814,197.395 184.447,197.233 C184.083,197.075 183.755,196.871 183.46,196.618 C183.171,196.37 182.935,196.049 182.759,195.668 C182.589,195.287 182.503,194.812 182.503,194.255 C182.503,193.726 182.607,193.255 182.812,192.848 C183.019,192.437 183.298,192.094 183.652,191.818 C184.003,191.539 184.414,191.336 184.878,191.2 C185.335,191.05 185.82,190.985 186.326,190.985 C186.978,190.985 187.581,191.098 188.138,191.332 C188.691,191.562 189.173,191.943 189.578,192.486 L188.617,193.18 C188.335,192.78 188.011,192.49 187.63,192.29 C187.251,192.094 186.808,191.992 186.292,191.992 C185.933,191.992 185.591,192.041 185.263,192.136 C184.937,192.233 184.656,192.377 184.41,192.561 C184.173,192.738 183.98,192.976 183.83,193.255 C183.687,193.538 183.611,193.874 183.611,194.255 C183.611,194.85 183.761,195.306 184.064,195.627 C184.367,195.947 184.751,196.2 185.206,196.385 C185.658,196.569 186.152,196.731 186.687,196.871 C187.22,197.014 187.718,197.203 188.169,197.436 C188.624,197.675 189.007,198.002 189.304,198.425 C189.607,198.844 189.765,199.428 189.765,200.171 C189.765,200.71 189.662,201.181 189.462,201.596 C189.251,202.018 188.984,202.373 188.64,202.655 C188.3,202.942 187.9,203.157 187.453,203.304 C187.007,203.447 186.54,203.518 186.056,203.518 C185.271,203.518 184.54,203.387 183.88,203.107 C183.222,202.833 182.654,202.373 182.179,201.717 L183.24,201.008" id="Fill-27" fill="#7B7C81"></path>
            <path d="M192.544,202.512 C192.544,202.286 192.619,202.098 192.777,201.939 C192.935,201.78 193.128,201.701 193.351,201.701 C193.578,201.701 193.771,201.78 193.925,201.939 C194.083,202.098 194.164,202.286 194.164,202.512 C194.164,202.738 194.083,202.927 193.925,203.085 C193.771,203.247 193.578,203.319 193.351,203.319 C193.128,203.319 192.935,203.247 192.777,203.085 C192.619,202.927 192.544,202.738 192.544,202.512" id="Fill-28" fill="#7B7C81"></path>
            <g id="Group-33">
                <mask id="mask-4" fill="white">
                    <use xlink:href="#path-3"></use>
                </mask>
                <g id="Clip-30"></g>
                <path d="M64.538,206 C63.939,206 63.452,205.517 63.452,204.922 L63.452,145.017 C63.452,144.418 63.939,143.931 64.538,143.931 C65.134,143.931 65.62,144.418 65.62,145.017 L65.62,204.922 C65.62,205.517 65.134,206 64.538,206" id="Fill-29" fill="#255AA8" mask="url(#mask-4)"></path>
                <path d="M45.659,67.082 C45.659,66.008 44.786,64.865 43.723,64.537 L19.907,57.222 C18.846,56.893 17.977,57.509 17.977,58.579 L17.977,86.758 C17.977,87.836 18.846,88.978 19.907,89.303 L43.723,96.617 C44.786,96.945 45.659,96.335 45.659,95.264 L45.659,67.082 Z M65.82,120.011 C65.82,121.085 64.945,121.715 63.882,121.398 L1.987,103.351 C0.922,103.035 0.049,101.908 0.049,100.833 L0.049,35.25 C0.049,34.172 0.922,33.55 1.987,33.866 L63.882,51.913 C64.945,52.225 65.82,53.364 65.82,54.435 L65.82,120.011 L65.82,120.011 Z" id="Fill-31" fill="#255AA8" mask="url(#mask-4)"></path>
                <path d="M99.527,14.285 L114.581,18.471 C115.673,18.788 115.716,19.583 114.677,20.217 L70.687,47.916 C69.646,48.564 67.895,48.828 66.793,48.512 L3.297,30.085 C2.198,29.764 2.159,28.983 3.201,28.339 L49.742,1.71 C50.79,1.069 52.544,0.798 53.64,1.115 L64.463,4.349 L65.342,4.614 C66.801,4.979 67.008,5.534 67.018,5.847 C67.034,6.469 66.401,6.899 66.401,6.899 L38.611,23.61 C37.571,24.255 37.593,25.051 38.66,25.375 L62.883,32.441 C63.954,32.766 65.688,32.494 66.732,31.853 L93.964,15.526 C93.964,15.526 95.408,14.828 96.54,14.35 C98.097,13.689 99.527,14.285 99.527,14.285" id="Fill-32" fill="#66D8E0" mask="url(#mask-4)"></path>
            </g>
            <path d="M102.835,62.647 C102.849,60.947 103.72,60.11 104.804,59.424 L117.636,51.261 C118.726,50.574 120.14,51.245 120.14,52.746 L120.128,88.677 C120.05,90.095 120.148,90.999 117.888,92.545 L104.456,102.265 C103.365,102.952 102.757,102.356 102.757,101.266 L102.835,62.647" id="Fill-34" fill="#FEB672"></path>
            <path d="M102.244,35.616 C102.244,34.53 103.134,33.082 104.216,32.396 L118.267,23.185 C119.351,22.502 120.148,23.264 120.148,24.349 L120.083,41.872 C120.003,43.165 119.427,44.153 118.257,44.934 L104.126,53.848 C103.046,54.525 102.246,54.107 102.246,53.021 L102.244,35.616" id="Fill-35" fill="#FEB672"></path>
        </g>
    </g>
</svg>