<?xml version="1.0" encoding="utf-8"?>
<!-- Generator: Adobe Illustrator 16.0.0, SVG Export Plug-In . SVG Version: 6.00 Build 0)  -->
<!DOCTYPE svg PUBLIC "-//W3C//DTD SVG 1.1//EN" "http://www.w3.org/Graphics/SVG/1.1/DTD/svg11.dtd">
<svg version="1.1" id="Ebene_1" xmlns="http://www.w3.org/2000/svg" xmlns:xlink="http://www.w3.org/1999/xlink" x="0px" y="0px"
	 width="325px" height="65px" viewBox="0 0 325 65" enable-background="new 0 0 325 65" xml:space="preserve">
<g>
	<path fill="#255AA8" d="M24.842,35.654c0-0.58-0.47-1.193-1.042-1.373l-12.851-3.943c-0.571-0.18-1.039,0.152-1.039,0.73V46.27
		c0,0.58,0.468,1.195,1.039,1.373L23.8,51.588c0.572,0.176,1.042-0.152,1.042-0.73V35.654z M35.719,64.209
		c0,0.58-0.473,0.918-1.045,0.746l-33.39-9.736c-0.575-0.17-1.045-0.779-1.045-1.357V18.484c0-0.58,0.471-0.916,1.045-0.746
		l33.39,9.736c0.572,0.166,1.045,0.779,1.045,1.357V64.209z"/>
	<path fill="#72C7D5" d="M53.901,7.176l8.121,2.258c0.588,0.172,0.611,0.598,0.051,0.943L38.346,25.316
		c-0.564,0.35-1.508,0.492-2.1,0.32L1.991,15.699c-0.591-0.17-0.614-0.598-0.051-0.945L27.049,0.393
		c0.563-0.346,1.507-0.492,2.099-0.322l5.839,1.744l0.474,0.145c0.788,0.197,0.898,0.494,0.903,0.662
		c0.01,0.334-0.332,0.568-0.332,0.568l-14.988,9.018c-0.563,0.346-0.55,0.773,0.026,0.953l13.064,3.809
		c0.58,0.172,1.515,0.029,2.078-0.314L50.9,7.846c0,0,0.781-0.379,1.389-0.639C53.129,6.854,53.901,7.176,53.901,7.176"/>
	<path fill="#FEB672" d="M55.685,33.264c0.008-0.918,0.479-1.371,1.065-1.738l6.921-4.404c0.586-0.367,1.349-0.006,1.349,0.803
		l-0.005,19.381c-0.042,0.768,0.011,1.25-1.208,2.084l-7.247,5.244c-0.585,0.373-0.917,0.051-0.917-0.537L55.685,33.264z"/>
	<path fill="#FEB672" d="M55.366,18.684c0-0.586,0.48-1.371,1.064-1.736l7.583-4.975c0.583-0.369,1.013,0.045,1.013,0.633
		l-0.037,9.453c-0.043,0.693-0.352,1.23-0.984,1.646l-7.622,4.812c-0.585,0.365-1.015,0.137-1.015-0.447L55.366,18.684z"/>
	<path fill="#8C8C8C" d="M81.406,37.748c0,0.41,0.063,0.781,0.19,1.123c0.129,0.342,0.31,0.639,0.547,0.883
		c0.237,0.254,0.523,0.447,0.856,0.586c0.332,0.141,0.701,0.211,1.113,0.211c0.409,0,0.779-0.07,1.112-0.211
		c0.331-0.139,0.618-0.332,0.855-0.586c0.238-0.244,0.419-0.541,0.548-0.883c0.125-0.342,0.19-0.713,0.19-1.123
		c0-0.404-0.065-0.775-0.19-1.121c-0.129-0.344-0.31-0.639-0.548-0.891c-0.237-0.252-0.524-0.445-0.855-0.582
		c-0.333-0.139-0.703-0.211-1.112-0.211c-0.412,0-0.782,0.072-1.113,0.211c-0.333,0.137-0.619,0.33-0.856,0.582
		c-0.238,0.252-0.418,0.547-0.547,0.891C81.469,36.973,81.406,37.344,81.406,37.748 M79.414,37.748c0-0.699,0.116-1.328,0.35-1.898
		c0.233-0.562,0.56-1.045,0.978-1.443c0.417-0.395,0.916-0.697,1.49-0.912c0.572-0.215,1.2-0.32,1.881-0.32s1.307,0.105,1.882,0.32
		c0.572,0.215,1.068,0.518,1.487,0.912c0.417,0.398,0.745,0.881,0.977,1.443c0.235,0.57,0.351,1.199,0.351,1.898
		c0,0.695-0.116,1.326-0.351,1.895c-0.232,0.562-0.561,1.045-0.977,1.443c-0.419,0.396-0.916,0.701-1.487,0.914
		c-0.576,0.215-1.202,0.32-1.882,0.32s-1.309-0.105-1.881-0.32c-0.574-0.213-1.072-0.518-1.49-0.914
		c-0.418-0.398-0.744-0.881-0.978-1.443C79.53,39.074,79.414,38.443,79.414,37.748"/>
	<path fill="#8C8C8C" d="M97.448,35.654c-0.188-0.229-0.42-0.406-0.694-0.525c-0.275-0.125-0.594-0.186-0.952-0.186
		c-0.362,0-0.695,0.074-1.004,0.207c-0.308,0.141-0.573,0.338-0.797,0.586c-0.226,0.252-0.401,0.547-0.531,0.891
		c-0.126,0.344-0.189,0.717-0.189,1.121c0,0.41,0.063,0.783,0.189,1.123c0.13,0.342,0.302,0.639,0.524,0.885
		c0.221,0.252,0.48,0.445,0.78,0.584c0.3,0.141,0.62,0.209,0.966,0.209c0.394,0,0.741-0.08,1.044-0.244s0.554-0.393,0.75-0.689
		l1.598,1.197c-0.366,0.516-0.833,0.895-1.4,1.141c-0.567,0.244-1.147,0.367-1.746,0.367c-0.681,0-1.307-0.105-1.88-0.32
		c-0.575-0.215-1.071-0.518-1.489-0.914c-0.418-0.398-0.744-0.881-0.978-1.445s-0.352-1.197-0.352-1.893
		c0-0.699,0.118-1.328,0.352-1.898c0.233-0.564,0.56-1.045,0.978-1.445c0.418-0.393,0.914-0.697,1.489-0.912
		c0.573-0.213,1.199-0.318,1.88-0.318c0.247,0,0.501,0.021,0.769,0.066c0.265,0.045,0.528,0.115,0.787,0.217
		c0.257,0.096,0.506,0.23,0.742,0.391c0.24,0.166,0.452,0.367,0.641,0.602L97.448,35.654z"/>
	<rect x="102.703" y="33.393" fill="#8C8C8C" width="1.918" height="8.705"/>
	<polygon fill="#8C8C8C" points="123.062,33.709 123.845,33.709 125.876,40.943 125.898,40.943 127.965,33.709 128.933,33.709 
		130.998,40.943 131.021,40.943 133.051,33.709 133.833,33.709 131.457,41.875 130.525,41.875 128.46,34.607 128.434,34.607 
		126.373,41.875 125.438,41.875 	"/>
	<polygon fill="#8C8C8C" points="136.167,33.709 141.163,33.709 141.163,34.398 136.927,34.398 136.927,37.305 140.896,37.305 
		140.896,38 136.927,38 136.927,41.184 141.344,41.184 141.344,41.875 136.167,41.875 	"/>
	<path fill="#8C8C8C" d="M151.173,34.533l-1.902,4.482h3.75L151.173,34.533z M150.815,33.709h0.782l3.442,8.166h-0.856l-0.887-2.17
		h-4.328l-0.92,2.17h-0.797L150.815,33.709z"/>
	<path fill="#8C8C8C" d="M158.13,37.305h1.612c0.399,0,0.726-0.047,0.976-0.152c0.252-0.102,0.446-0.221,0.581-0.367
		c0.14-0.145,0.235-0.303,0.285-0.473c0.05-0.168,0.078-0.324,0.078-0.459c0-0.143-0.027-0.295-0.078-0.463
		c-0.05-0.17-0.145-0.328-0.285-0.473c-0.134-0.146-0.328-0.271-0.581-0.371c-0.25-0.098-0.576-0.148-0.976-0.148h-1.612V37.305z
		 M157.369,33.709h2.146c0.108,0,0.252,0.002,0.438,0.01c0.186,0.004,0.382,0.025,0.596,0.066c0.216,0.041,0.434,0.102,0.661,0.184
		c0.221,0.084,0.424,0.211,0.599,0.371c0.179,0.16,0.323,0.363,0.438,0.613c0.115,0.246,0.171,0.543,0.171,0.9
		c0,0.389-0.063,0.711-0.197,0.967c-0.137,0.258-0.307,0.459-0.509,0.617c-0.204,0.156-0.429,0.277-0.678,0.354
		c-0.245,0.08-0.479,0.131-0.701,0.158l2.376,3.926h-0.865L159.55,38h-1.419v3.875h-0.761V33.709z"/>
	<polygon fill="#8C8C8C" points="165.362,33.709 170.357,33.709 170.357,34.398 166.124,34.398 166.124,37.305 170.091,37.305 
		170.091,38 166.124,38 166.124,41.184 170.54,41.184 170.54,41.875 165.362,41.875 	"/>
	<path fill="#8C8C8C" d="M177.728,40.365c0.199,0.346,0.461,0.604,0.776,0.771c0.321,0.166,0.686,0.256,1.092,0.256
		c0.254,0,0.494-0.039,0.715-0.115c0.222-0.082,0.42-0.186,0.584-0.324c0.165-0.139,0.296-0.307,0.392-0.504
		c0.098-0.193,0.146-0.418,0.146-0.662c0-0.283-0.062-0.518-0.18-0.705c-0.121-0.186-0.283-0.338-0.48-0.455
		c-0.201-0.119-0.424-0.219-0.674-0.305c-0.252-0.084-0.508-0.17-0.775-0.256c-0.262-0.084-0.521-0.182-0.771-0.291
		c-0.249-0.107-0.477-0.242-0.675-0.42c-0.2-0.172-0.36-0.389-0.478-0.65c-0.121-0.262-0.18-0.586-0.18-0.969
		c0-0.361,0.073-0.686,0.213-0.965c0.142-0.279,0.334-0.516,0.577-0.703s0.521-0.33,0.838-0.426
		c0.314-0.096,0.646-0.145,0.989-0.145c0.447,0,0.859,0.076,1.239,0.236c0.382,0.156,0.713,0.424,0.99,0.789l-0.657,0.475
		c-0.193-0.27-0.42-0.473-0.674-0.605c-0.26-0.137-0.568-0.203-0.92-0.203c-0.248,0-0.48,0.035-0.703,0.102
		c-0.225,0.062-0.415,0.158-0.584,0.285c-0.162,0.125-0.295,0.289-0.398,0.477c-0.1,0.195-0.148,0.424-0.148,0.684
		c0,0.408,0.104,0.723,0.31,0.941c0.21,0.219,0.472,0.391,0.782,0.518c0.312,0.127,0.646,0.238,1.015,0.338
		c0.364,0.092,0.7,0.221,1.017,0.385c0.31,0.16,0.568,0.387,0.773,0.672c0.209,0.295,0.312,0.689,0.312,1.197
		c0,0.369-0.067,0.695-0.207,0.982c-0.137,0.283-0.322,0.523-0.558,0.719s-0.507,0.344-0.813,0.443
		c-0.309,0.1-0.627,0.15-0.959,0.15c-0.539,0-1.035-0.094-1.488-0.281c-0.455-0.189-0.842-0.506-1.164-0.953L177.728,40.365z"/>
	<path fill="#8C8C8C" d="M185.147,37.791c0,0.506,0.081,0.982,0.242,1.42c0.161,0.436,0.391,0.818,0.691,1.141
		c0.301,0.324,0.664,0.578,1.091,0.766c0.427,0.18,0.904,0.275,1.437,0.275c0.529,0,1.008-0.096,1.436-0.275
		c0.427-0.188,0.788-0.441,1.09-0.766c0.302-0.322,0.531-0.705,0.691-1.141c0.163-0.438,0.243-0.914,0.243-1.42
		c0-0.51-0.08-0.984-0.243-1.42c-0.16-0.438-0.39-0.818-0.691-1.141c-0.302-0.326-0.663-0.576-1.09-0.766
		c-0.428-0.184-0.906-0.275-1.436-0.275c-0.532,0-1.01,0.092-1.437,0.275c-0.427,0.189-0.79,0.439-1.091,0.766
		c-0.301,0.322-0.53,0.703-0.691,1.141C185.229,36.807,185.147,37.281,185.147,37.791 M184.387,37.791
		c0-0.623,0.104-1.199,0.312-1.721c0.204-0.523,0.495-0.977,0.864-1.354c0.367-0.383,0.812-0.682,1.332-0.896
		c0.516-0.215,1.089-0.324,1.713-0.324c0.619,0,1.194,0.109,1.711,0.324c0.519,0.215,0.966,0.514,1.333,0.896
		c0.37,0.377,0.657,0.83,0.865,1.354c0.208,0.521,0.312,1.098,0.312,1.721s-0.104,1.197-0.312,1.727
		c-0.208,0.525-0.495,0.979-0.865,1.359c-0.367,0.381-0.814,0.678-1.333,0.889c-0.517,0.213-1.092,0.316-1.711,0.316
		c-0.624,0-1.197-0.104-1.713-0.316c-0.52-0.211-0.965-0.508-1.332-0.889c-0.369-0.381-0.66-0.834-0.864-1.359
		C184.491,38.988,184.387,38.414,184.387,37.791"/>
	<polygon fill="#8C8C8C" points="195.169,33.709 200.058,33.709 200.058,34.398 195.931,34.398 195.931,37.305 199.772,37.305 
		199.772,38 195.931,38 195.931,41.875 195.169,41.875 	"/>
	<polygon fill="#8C8C8C" points="204.547,34.398 201.753,34.398 201.753,33.709 208.099,33.709 208.099,34.398 205.308,34.398 
		205.308,41.875 204.547,41.875 	"/>
	<polygon fill="#8C8C8C" points="209.835,33.709 210.616,33.709 212.648,40.943 212.673,40.943 214.733,33.709 215.704,33.709 
		217.772,40.943 217.795,40.943 219.825,33.709 220.607,33.709 218.232,41.875 217.297,41.875 215.233,34.607 215.209,34.607 
		213.144,41.875 212.211,41.875 	"/>
	<path fill="#8C8C8C" d="M225.333,34.533l-1.902,4.482h3.75L225.333,34.533z M224.978,33.709h0.781l3.44,8.166h-0.853l-0.89-2.17
		h-4.327l-0.919,2.17h-0.797L224.978,33.709z"/>
	<path fill="#8C8C8C" d="M231.944,37.305h1.614c0.399,0,0.725-0.047,0.974-0.152c0.252-0.102,0.444-0.221,0.581-0.367
		c0.141-0.145,0.235-0.303,0.288-0.473c0.049-0.168,0.073-0.324,0.073-0.459c0-0.143-0.024-0.295-0.073-0.463
		c-0.053-0.17-0.147-0.328-0.288-0.473c-0.137-0.146-0.329-0.271-0.581-0.371c-0.249-0.098-0.574-0.148-0.974-0.148h-1.614V37.305z
		 M231.183,33.709h2.146c0.108,0,0.254,0.002,0.438,0.01c0.185,0.004,0.385,0.025,0.6,0.066c0.213,0.041,0.434,0.102,0.656,0.184
		c0.223,0.084,0.425,0.211,0.602,0.371c0.178,0.16,0.323,0.363,0.439,0.613c0.114,0.246,0.171,0.543,0.171,0.9
		c0,0.389-0.065,0.711-0.2,0.967c-0.137,0.258-0.307,0.459-0.51,0.617c-0.203,0.156-0.43,0.277-0.678,0.354
		c-0.24,0.08-0.477,0.131-0.699,0.158l2.377,3.926h-0.866L233.363,38h-1.419v3.875h-0.762V33.709z"/>
	<polygon fill="#8C8C8C" points="238.649,33.709 243.646,33.709 243.646,34.398 239.413,34.398 239.413,37.305 243.381,37.305 
		243.381,38 239.413,38 239.413,41.184 243.829,41.184 243.829,41.875 238.649,41.875 	"/>
	<polygon fill="#8C8C8C" points="251.311,33.709 256.308,33.709 256.308,34.398 252.072,34.398 252.072,37.305 256.042,37.305 
		256.042,38 252.072,38 252.072,41.184 256.489,41.184 256.489,41.875 251.311,41.875 	"/>
	<polygon fill="#8C8C8C" points="259.305,33.709 260.286,33.709 265.257,40.859 265.278,40.859 265.278,33.709 266.04,33.709 
		266.04,41.875 265.058,41.875 260.088,34.721 260.065,34.721 260.065,41.875 259.305,41.875 	"/>
	<path fill="#8C8C8C" d="M275.657,41.344c-0.479,0.27-0.971,0.461-1.482,0.57c-0.516,0.113-1.033,0.168-1.564,0.168
		c-0.623,0-1.196-0.104-1.71-0.316c-0.52-0.211-0.966-0.508-1.333-0.887c-0.369-0.381-0.66-0.836-0.866-1.363
		c-0.209-0.527-0.312-1.102-0.312-1.725s0.103-1.193,0.312-1.719c0.206-0.525,0.497-0.977,0.866-1.355
		c0.367-0.383,0.813-0.68,1.333-0.895c0.514-0.215,1.087-0.324,1.71-0.324c1.213,0,2.194,0.375,2.943,1.131l-0.557,0.58
		c-0.118-0.148-0.274-0.287-0.455-0.414c-0.18-0.127-0.375-0.23-0.586-0.32c-0.212-0.092-0.432-0.16-0.664-0.209
		s-0.457-0.076-0.682-0.076c-0.529,0-1.008,0.092-1.434,0.279c-0.428,0.186-0.791,0.436-1.094,0.758
		c-0.299,0.326-0.529,0.705-0.693,1.145c-0.16,0.438-0.238,0.91-0.238,1.42c0,0.506,0.078,0.982,0.238,1.422
		c0.164,0.436,0.395,0.816,0.693,1.139c0.303,0.324,0.666,0.578,1.094,0.764c0.426,0.184,0.904,0.277,1.434,0.277
		c0.44,0,0.852-0.035,1.234-0.105c0.385-0.072,0.734-0.193,1.051-0.383V38.16h-1.961v-0.691h2.723V41.344z"/>
	<rect x="279.05" y="33.707" fill="#8C8C8C" width="0.756" height="8.168"/>
	<polygon fill="#8C8C8C" points="283.202,33.709 284.181,33.709 289.153,40.859 289.177,40.859 289.177,33.709 289.939,33.709 
		289.939,41.875 288.957,41.875 283.983,34.721 283.964,34.721 283.964,41.875 283.202,41.875 	"/>
	<polygon fill="#8C8C8C" points="293.327,33.709 298.321,33.709 298.321,34.398 294.092,34.398 294.092,37.305 298.057,37.305 
		298.057,38 294.092,38 294.092,41.184 298.511,41.184 298.511,41.875 293.327,41.875 	"/>
	<polygon fill="#8C8C8C" points="301.325,33.709 306.317,33.709 306.317,34.398 302.086,34.398 302.086,37.305 306.052,37.305 
		306.052,38 302.086,38 302.086,41.184 306.504,41.184 306.504,41.875 301.325,41.875 	"/>
	<path fill="#8C8C8C" d="M310.078,37.305h1.614c0.401,0,0.726-0.047,0.973-0.152c0.253-0.102,0.447-0.221,0.584-0.367
		c0.141-0.145,0.232-0.303,0.286-0.473c0.046-0.168,0.071-0.324,0.071-0.459c0-0.143-0.025-0.295-0.071-0.463
		c-0.054-0.17-0.146-0.328-0.286-0.473c-0.137-0.146-0.331-0.271-0.584-0.371c-0.247-0.098-0.571-0.148-0.973-0.148h-1.614V37.305z
		 M309.317,33.709h2.146c0.105,0,0.255,0.002,0.439,0.01c0.185,0.004,0.38,0.025,0.597,0.066c0.215,0.041,0.434,0.102,0.66,0.184
		c0.223,0.084,0.422,0.211,0.602,0.371c0.176,0.16,0.319,0.363,0.436,0.613c0.115,0.246,0.17,0.543,0.17,0.9
		c0,0.389-0.062,0.711-0.197,0.967c-0.137,0.258-0.303,0.459-0.509,0.617c-0.206,0.156-0.429,0.277-0.677,0.354
		c-0.246,0.08-0.48,0.131-0.701,0.158l2.376,3.926h-0.866L311.497,38h-1.419v3.875h-0.761V33.709z"/>
	<path fill="#8C8C8C" d="M317.53,40.365c0.2,0.346,0.455,0.604,0.775,0.771c0.32,0.166,0.686,0.256,1.094,0.256
		c0.254,0,0.491-0.039,0.715-0.115c0.222-0.082,0.417-0.186,0.582-0.324c0.164-0.139,0.295-0.307,0.392-0.504
		c0.097-0.193,0.146-0.418,0.146-0.662c0-0.283-0.061-0.518-0.18-0.705c-0.116-0.186-0.277-0.338-0.478-0.455
		c-0.2-0.119-0.427-0.219-0.677-0.305c-0.252-0.084-0.506-0.17-0.77-0.256c-0.267-0.084-0.525-0.182-0.775-0.291
		c-0.25-0.107-0.479-0.242-0.673-0.42c-0.2-0.172-0.361-0.389-0.48-0.65c-0.123-0.262-0.179-0.586-0.179-0.969
		c0-0.361,0.069-0.686,0.213-0.965s0.336-0.516,0.579-0.703c0.239-0.188,0.517-0.33,0.833-0.426s0.649-0.145,0.993-0.145
		c0.446,0,0.859,0.076,1.24,0.236c0.382,0.156,0.709,0.424,0.987,0.789l-0.659,0.475c-0.192-0.27-0.415-0.473-0.673-0.605
		c-0.258-0.137-0.562-0.203-0.918-0.203c-0.248,0-0.479,0.035-0.703,0.102c-0.225,0.062-0.418,0.158-0.584,0.285
		c-0.168,0.125-0.297,0.289-0.398,0.477c-0.103,0.195-0.149,0.424-0.149,0.684c0,0.408,0.101,0.723,0.308,0.941
		c0.213,0.219,0.473,0.391,0.783,0.518c0.312,0.127,0.65,0.238,1.014,0.338c0.366,0.092,0.706,0.221,1.016,0.385
		c0.311,0.16,0.572,0.387,0.779,0.672c0.205,0.295,0.309,0.689,0.309,1.197c0,0.369-0.066,0.695-0.206,0.982
		c-0.138,0.283-0.327,0.523-0.559,0.719c-0.235,0.195-0.509,0.344-0.812,0.443c-0.311,0.1-0.627,0.15-0.959,0.15
		c-0.537,0-1.039-0.094-1.486-0.281c-0.453-0.189-0.846-0.506-1.167-0.953L317.53,40.365z"/>
	<path fill="#8C8C8C" d="M323.653,41.393c0-0.156,0.055-0.287,0.163-0.395s0.235-0.162,0.391-0.162s0.282,0.055,0.396,0.162
		c0.103,0.107,0.158,0.238,0.158,0.395c0,0.152-0.056,0.285-0.158,0.393c-0.113,0.107-0.24,0.16-0.396,0.16s-0.282-0.053-0.391-0.16
		S323.653,41.545,323.653,41.393"/>
	<path fill="#255AA8" d="M114.3,47.559c-0.348,0-0.627-0.283-0.627-0.631v-18.15c0-0.346,0.279-0.627,0.627-0.627
		c0.347,0,0.625,0.281,0.625,0.627v18.15C114.924,47.275,114.646,47.559,114.3,47.559"/>
</g>
</svg>
