<?xml version="1.0" encoding="UTF-8"?>
<svg width="306px" height="97px" viewBox="0 0 306 97" version="1.1" xmlns="http://www.w3.org/2000/svg" xmlns:xlink="http://www.w3.org/1999/xlink">
    <!-- Generator: Sketch 43.2 (39069) - http://www.bohemiancoding.com/sketch -->
    <title>oci_home_to_grails</title>
    <desc>Created with Sketch.</desc>
    <defs>
        <polygon id="path-1" points="0.0475862069 0.780928791 0.0475862069 96.5866496 45.7973521 96.5866496 91.547118 96.5866496 91.547118 0.780928791 0.0475862069 0.780928791"></polygon>
    </defs>
    <g id="Page-1" stroke="none" stroke-width="1" fill="none" fill-rule="evenodd">
        <g id="oci_home_to_grails">
            <g id="cube" transform="translate(0.231000, 0.000000)">
                <mask id="mask-2" fill="white">
                    <use xlink:href="#path-1"></use>
                </mask>
                <g id="Clip-30"></g>
                <path d="M36.2123103,53.3356885 C36.2123103,52.4817705 35.519931,51.5729918 34.6768621,51.3122049 L15.7883103,45.4961803 C14.9468276,45.2345984 14.2576207,45.7243689 14.2576207,46.5751066 L14.2576207,68.9797213 C14.2576207,69.8368197 14.9468276,70.7448033 15.7883103,71.0032049 L34.6768621,76.8184344 C35.519931,77.0792213 36.2123103,76.5942213 36.2123103,75.7426885 L36.2123103,53.3356885 Z M52.202069,95.418582 C52.202069,96.2725 51.5081034,96.7734016 50.6650345,96.5213607 L1.57589655,82.1725164 C0.731241379,81.9212705 0.038862069,81.0252131 0.038862069,80.1705 L0.038862069,28.0266393 C0.038862069,27.169541 0.731241379,26.675 1.57589655,26.9262459 L50.6650345,41.2750902 C51.5081034,41.5231557 52.202069,42.4287541 52.202069,43.2802869 L52.202069,95.418582 L52.202069,95.418582 Z" id="Fill-31" fill="#255AA8" mask="url(#mask-2)"></path>
                <path d="M78.9352069,11.3577459 L90.8745862,14.685959 C91.7406552,14.938 91.7747586,15.5700902 90.9507241,16.0741721 L56.0621034,38.0971475 C55.2364828,38.6123607 53.8477586,38.8222623 52.9737586,38.5710164 L2.61486207,23.920041 C1.74324138,23.6648197 1.71231034,23.0438607 2.53872414,22.5318279 L39.4505517,1.35959016 C40.2817241,0.849942623 41.6728276,0.63447541 42.542069,0.886516393 L51.1258276,3.45781148 L51.8229655,3.6685082 C52.9801034,3.95871311 53.1442759,4.39998361 53.1522069,4.64884426 C53.1648966,5.14338525 52.6628621,5.48527049 52.6628621,5.48527049 L30.6225172,18.7718852 C29.7976897,19.2847131 29.8151379,19.9175984 30.6613793,20.1752049 L49.8727241,25.7932541 C50.7221379,26.0516557 52.0973793,25.8353934 52.9253793,25.3257459 L74.5231724,12.3444426 C74.5231724,12.3444426 75.6684138,11.7894754 76.5662069,11.4094262 C77.801069,10.883877 78.9352069,11.3577459 78.9352069,11.3577459" id="Fill-32" fill="#66D8E0" mask="url(#mask-2)"></path>
                <path d="M81.5587931,49.8095 C81.5698966,48.4578607 82.2606897,47.792377 83.1204138,47.2469508 L93.2975172,40.7566967 C94.162,40.2104754 95.2834483,40.7439754 95.2834483,41.9373934 L95.273931,70.5054836 C95.212069,71.6329098 95.2897931,72.3516639 93.4973793,73.5808607 L82.8444138,81.3090574 C81.9791379,81.8552787 81.496931,81.3814098 81.496931,80.5147705 L81.5587931,49.8095" id="Fill-34" fill="#FEB672" mask="url(#mask-2)"></path>
                <path d="M81.090069,28.3176393 C81.090069,27.4541803 81.795931,26.3029016 82.654069,25.7574754 L93.7979655,18.4339754 C94.6576897,17.8909344 95.2897931,18.4967869 95.2897931,19.3594508 L95.2382414,33.2916721 C95.1747931,34.3197131 94.7179655,35.1052541 93.7900345,35.7262131 L82.5826897,42.8135738 C81.7261379,43.3518443 81.0916552,43.0195 81.0916552,42.156041 L81.090069,28.3176393" id="Fill-35" fill="#FEB672" mask="url(#mask-2)"></path>
            </g>
            <path d="M102.494,48.835 C102.494,47.901 102.649,47.064 102.961,46.307 C103.273,45.555 103.706,44.915 104.264,44.383 C104.82,43.856 105.482,43.447 106.248,43.163 C107.01,42.879 107.846,42.738 108.754,42.738 C109.661,42.738 110.494,42.879 111.261,43.163 C112.025,43.447 112.685,43.856 113.243,44.383 C113.8,44.915 114.235,45.555 114.546,46.307 C114.858,47.064 115.013,47.901 115.013,48.835 C115.013,49.761 114.858,50.602 114.546,51.356 C114.235,52.109 113.8,52.752 113.243,53.282 C112.685,53.81 112.025,54.22 111.261,54.504 C110.494,54.785 109.661,54.927 108.754,54.927 C107.846,54.927 107.01,54.785 106.248,54.504 C105.482,54.22 104.82,53.81 104.264,53.282 C103.706,52.752 103.273,52.109 102.961,51.356 C102.649,50.602 102.494,49.761 102.494,48.835 M105.148,48.835 C105.148,49.379 105.232,49.878 105.402,50.332 C105.572,50.785 105.813,51.179 106.13,51.508 C106.448,51.845 106.828,52.103 107.27,52.286 C107.713,52.475 108.206,52.568 108.754,52.568 C109.299,52.568 109.793,52.475 110.236,52.286 C110.676,52.103 111.058,51.845 111.374,51.508 C111.691,51.179 111.935,50.785 112.102,50.332 C112.271,49.878 112.36,49.379 112.36,48.835 C112.36,48.298 112.271,47.799 112.102,47.338 C111.935,46.883 111.691,46.488 111.374,46.154 C111.058,45.82 110.676,45.56 110.236,45.376 C109.793,45.19 109.299,45.097 108.754,45.097 C108.206,45.097 107.713,45.19 107.27,45.376 C106.828,45.56 106.448,45.82 106.13,46.154 C105.813,46.488 105.572,46.883 105.402,47.338 C105.232,47.799 105.148,48.298 105.148,48.835" id="Fill-7" fill="#7B7C81"></path>
            <path d="M126.524,46.047 C126.272,45.741 125.963,45.505 125.598,45.345 C125.232,45.178 124.807,45.097 124.328,45.097 C123.847,45.097 123.403,45.19 122.992,45.376 C122.581,45.563 122.228,45.822 121.928,46.154 C121.627,46.488 121.394,46.883 121.222,47.338 C121.054,47.799 120.969,48.298 120.969,48.835 C120.969,49.379 121.054,49.878 121.222,50.332 C121.394,50.785 121.624,51.179 121.919,51.513 C122.215,51.845 122.562,52.103 122.959,52.289 C123.359,52.473 123.785,52.568 124.246,52.568 C124.77,52.568 125.235,52.458 125.638,52.241 C126.041,52.022 126.377,51.716 126.639,51.324 L128.768,52.914 C128.277,53.602 127.656,54.107 126.899,54.435 C126.145,54.762 125.371,54.927 124.573,54.927 C123.667,54.927 122.832,54.785 122.068,54.504 C121.303,54.215 120.642,53.812 120.085,53.282 C119.527,52.752 119.094,52.109 118.782,51.356 C118.472,50.604 118.313,49.761 118.313,48.835 C118.313,47.904 118.472,47.064 118.782,46.307 C119.094,45.553 119.527,44.915 120.085,44.383 C120.642,43.856 121.303,43.447 122.068,43.163 C122.832,42.879 123.667,42.738 124.573,42.738 C124.901,42.738 125.241,42.768 125.598,42.827 C125.952,42.889 126.302,42.982 126.645,43.115 C126.991,43.244 127.322,43.421 127.637,43.639 C127.954,43.856 128.236,44.125 128.491,44.438 L126.524,46.047" id="Fill-8" fill="#7B7C81"></path>
            <polygon id="Fill-9" fill="#7B7C81" points="133.526 54.636 136.081 54.636 136.081 43.032 133.526 43.032"></polygon>
            <path d="M148.977,61.758 C148.512,61.758 148.138,61.384 148.138,60.923 L148.138,36.737 C148.138,36.276 148.512,35.903 148.977,35.903 C149.437,35.903 149.81,36.276 149.81,36.737 L149.81,60.923 C149.81,61.384 149.437,61.758 148.977,61.758" id="Fill-10" fill="#FEB672"></path>
            <polyline id="Fill-11" fill="#7B7C81" points="160.073 43.07 161.147 43.07 161.147 48.148 167.594 48.148 167.594 43.07 168.667 43.07 168.667 54.595 167.594 54.595 167.594 49.121 161.147 49.121 161.147 54.595 160.073 54.595 160.073 43.07"></polyline>
            <path d="M171.973,48.832 C171.973,47.951 172.118,47.145 172.411,46.405 C172.705,45.67 173.112,45.03 173.633,44.493 C174.154,43.956 174.779,43.536 175.514,43.232 C176.245,42.927 177.051,42.774 177.93,42.774 C178.809,42.774 179.615,42.927 180.349,43.232 C181.081,43.536 181.709,43.956 182.227,44.493 C182.75,45.03 183.156,45.67 183.45,46.405 C183.742,47.145 183.888,47.951 183.888,48.832 C183.888,49.711 183.742,50.523 183.45,51.265 C183.156,52.007 182.75,52.649 182.227,53.184 C181.709,53.724 181.081,54.139 180.349,54.44 C179.615,54.738 178.809,54.886 177.93,54.886 C177.051,54.886 176.245,54.738 175.514,54.44 C174.779,54.139 174.154,53.724 173.633,53.184 C173.112,52.649 172.705,52.007 172.411,51.265 C172.118,50.523 171.973,49.711 171.973,48.832 M173.047,48.832 C173.047,49.549 173.161,50.217 173.389,50.833 C173.617,51.451 173.941,51.988 174.366,52.446 C174.789,52.9 175.302,53.258 175.903,53.521 C176.508,53.778 177.181,53.91 177.93,53.91 C178.68,53.91 179.355,53.778 179.957,53.521 C180.56,53.258 181.072,52.9 181.496,52.446 C181.92,51.988 182.245,51.451 182.473,50.833 C182.7,50.217 182.814,49.549 182.814,48.832 C182.814,48.116 182.7,47.445 182.473,46.827 C182.245,46.209 181.92,45.675 181.496,45.216 C181.072,44.763 180.56,44.404 179.957,44.142 C179.355,43.882 178.68,43.753 177.93,43.753 C177.181,43.753 176.508,43.882 175.903,44.142 C175.302,44.404 174.789,44.763 174.366,45.216 C173.941,45.675 173.617,46.209 173.389,46.827 C173.161,47.445 173.047,48.116 173.047,48.832" id="Fill-12" fill="#7B7C81"></path>
            <polyline id="Fill-13" fill="#7B7C81" points="187.406 43.07 189.018 43.07 193.217 52.735 197.418 43.07 198.947 43.07 198.947 54.595 197.874 54.595 197.874 44.438 197.84 44.438 193.444 54.595 192.973 54.595 188.513 44.438 188.48 44.438 188.48 54.595 187.406 54.595 187.406 43.07"></polyline>
            <polyline id="Fill-14" fill="#7B7C81" points="203.213 43.07 210.262 43.07 210.262 44.044 204.287 44.044 204.287 48.148 209.888 48.148 209.888 49.121 204.287 49.121 204.287 53.618 210.522 53.618 210.522 54.595 203.213 54.595 203.213 43.07"></polyline>
            <polyline id="Fill-15" fill="#7B7C81" points="219.655 44.044 215.714 44.044 215.714 43.07 224.669 43.07 224.669 44.044 220.729 44.044 220.729 54.593 219.655 54.593 219.655 44.044"></polyline>
            <path d="M226.914,48.832 C226.914,47.951 227.06,47.145 227.354,46.405 C227.646,45.67 228.053,45.03 228.575,44.493 C229.097,43.956 229.724,43.536 230.456,43.232 C231.187,42.927 231.993,42.774 232.873,42.774 C233.753,42.774 234.557,42.927 235.29,43.232 C236.023,43.536 236.65,43.956 237.171,44.493 C237.692,45.03 238.099,45.67 238.391,46.405 C238.685,47.145 238.831,47.951 238.831,48.832 C238.831,49.711 238.685,50.523 238.391,51.265 C238.099,52.007 237.692,52.649 237.171,53.184 C236.65,53.724 236.023,54.139 235.29,54.44 C234.557,54.738 233.753,54.886 232.873,54.886 C231.993,54.886 231.187,54.738 230.456,54.44 C229.724,54.139 229.097,53.724 228.575,53.184 C228.053,52.649 227.646,52.007 227.354,51.265 C227.06,50.523 226.914,49.711 226.914,48.832 M227.99,48.832 C227.99,49.549 228.102,50.217 228.331,50.833 C228.559,51.451 228.885,51.988 229.307,52.446 C229.73,52.9 230.244,53.258 230.846,53.521 C231.448,53.778 232.125,53.91 232.873,53.91 C233.623,53.91 234.297,53.778 234.899,53.521 C235.501,53.258 236.016,52.9 236.438,52.446 C236.863,51.988 237.187,51.451 237.414,50.833 C237.643,50.217 237.757,49.549 237.757,48.832 C237.757,48.116 237.643,47.445 237.414,46.827 C237.187,46.209 236.863,45.675 236.438,45.216 C236.016,44.763 235.501,44.404 234.899,44.142 C234.297,43.882 233.623,43.753 232.873,43.753 C232.125,43.753 231.448,43.882 230.846,44.142 C230.244,44.404 229.73,44.763 229.307,45.216 C228.885,45.675 228.559,46.209 228.331,46.827 C228.102,47.445 227.99,48.116 227.99,48.832" id="Fill-16" fill="#7B7C81"></path>
            <path d="M256.201,53.846 C255.527,54.225 254.831,54.494 254.109,54.652 C253.386,54.81 252.651,54.886 251.903,54.886 C251.023,54.886 250.219,54.738 249.486,54.44 C248.753,54.142 248.127,53.724 247.604,53.184 C247.085,52.649 246.679,52.01 246.385,51.265 C246.094,50.523 245.945,49.711 245.945,48.832 C245.945,47.951 246.094,47.145 246.385,46.405 C246.679,45.67 247.085,45.03 247.604,44.493 C248.127,43.956 248.753,43.536 249.486,43.232 C250.219,42.927 251.023,42.774 251.903,42.774 C253.617,42.774 255.002,43.307 256.055,44.371 L255.273,45.186 C255.099,44.978 254.885,44.786 254.63,44.606 C254.374,44.429 254.097,44.275 253.799,44.149 C253.502,44.027 253.19,43.927 252.863,43.858 C252.537,43.786 252.219,43.753 251.903,43.753 C251.154,43.753 250.478,43.882 249.877,44.142 C249.275,44.402 248.762,44.763 248.34,45.216 C247.915,45.672 247.59,46.212 247.361,46.827 C247.134,47.445 247.019,48.116 247.019,48.832 C247.019,49.549 247.134,50.217 247.361,50.833 C247.59,51.453 247.915,51.988 248.34,52.444 C248.762,52.9 249.275,53.258 249.877,53.521 C250.478,53.778 251.154,53.91 251.903,53.91 C252.521,53.91 253.102,53.862 253.646,53.764 C254.188,53.666 254.682,53.487 255.126,53.227 L255.126,49.353 L252.359,49.353 L252.359,48.377 L256.201,48.377 L256.201,53.846" id="Fill-17" fill="#7B7C81"></path>
            <path d="M260.418,43.07 L263.443,43.07 C263.598,43.07 263.803,43.075 264.063,43.085 C264.324,43.094 264.607,43.13 264.91,43.183 C265.214,43.237 265.523,43.323 265.838,43.442 C266.152,43.565 266.434,43.736 266.684,43.963 C266.935,44.192 267.14,44.481 267.302,44.827 C267.467,45.173 267.548,45.598 267.548,46.097 C267.548,46.65 267.452,47.107 267.263,47.465 C267.073,47.82 266.834,48.114 266.547,48.334 C266.258,48.558 265.94,48.723 265.593,48.832 C265.247,48.942 264.915,49.017 264.6,49.06 L267.956,54.595 L266.734,54.595 L263.493,49.121 L261.492,49.121 L261.492,54.595 L260.418,54.595 L260.418,43.07 Z M261.492,48.148 L263.771,48.148 C264.335,48.148 264.793,48.078 265.146,47.938 C265.497,47.794 265.771,47.622 265.968,47.415 C266.163,47.209 266.297,46.987 266.369,46.749 C266.435,46.51 266.472,46.29 266.472,46.097 C266.472,45.901 266.435,45.684 266.369,45.445 C266.297,45.207 266.163,44.984 265.968,44.779 C265.771,44.571 265.497,44.399 265.146,44.257 C264.793,44.113 264.335,44.044 263.771,44.044 L261.492,44.044 L261.492,48.148 L261.492,48.148 Z" id="Fill-18" fill="#7B7C81"></path>
            <path d="M274.824,43.07 L275.931,43.07 L280.782,54.595 L279.576,54.595 L278.325,51.532 L272.217,51.532 L270.917,54.595 L269.794,54.595 L274.824,43.07 Z M275.329,44.24 L272.642,50.559 L277.934,50.559 L275.329,44.24 L275.329,44.24 Z" id="Fill-19" fill="#7B7C81"></path>
            <polygon id="Fill-20" fill="#7B7C81" points="283.662 54.593 284.739 54.593 284.739 43.07 283.662 43.07"></polygon>
            <polyline id="Fill-21" fill="#7B7C81" points="289.117 43.07 290.191 43.07 290.191 53.618 295.563 53.618 295.563 54.595 289.117 54.595 289.117 43.07"></polyline>
            <path d="M298.784,52.463 C299.067,52.95 299.434,53.313 299.885,53.552 C300.335,53.79 300.848,53.91 301.424,53.91 C301.78,53.91 302.117,53.857 302.433,53.747 C302.747,53.64 303.021,53.487 303.255,53.291 C303.488,53.096 303.673,52.859 303.807,52.582 C303.942,52.308 304.011,51.995 304.011,51.649 C304.011,51.246 303.926,50.914 303.759,50.656 C303.592,50.394 303.365,50.182 303.083,50.012 C302.802,49.845 302.482,49.699 302.131,49.58 C301.777,49.46 301.415,49.344 301.039,49.222 C300.665,49.103 300.303,48.969 299.949,48.815 C299.599,48.663 299.278,48.465 298.997,48.222 C298.714,47.976 298.489,47.673 298.321,47.303 C298.153,46.933 298.068,46.477 298.068,45.933 C298.068,45.424 298.168,44.971 298.371,44.574 C298.572,44.178 298.843,43.849 299.185,43.581 C299.526,43.316 299.919,43.113 300.364,42.98 C300.81,42.844 301.276,42.774 301.766,42.774 C302.394,42.774 302.977,42.887 303.516,43.108 C304.053,43.33 304.516,43.703 304.907,44.224 L303.978,44.892 C303.709,44.512 303.39,44.226 303.026,44.034 C302.663,43.849 302.231,43.753 301.732,43.753 C301.384,43.753 301.052,43.798 300.739,43.892 C300.426,43.982 300.149,44.118 299.917,44.297 C299.685,44.477 299.495,44.703 299.354,44.973 C299.215,45.245 299.145,45.567 299.145,45.933 C299.145,46.51 299.29,46.951 299.584,47.26 C299.876,47.569 300.243,47.815 300.682,47.992 C301.121,48.171 301.6,48.331 302.115,48.465 C302.63,48.601 303.109,48.782 303.546,49.012 C303.986,49.238 304.354,49.556 304.646,49.964 C304.94,50.37 305.086,50.931 305.086,51.649 C305.086,52.17 304.988,52.63 304.792,53.031 C304.598,53.435 304.334,53.772 304.004,54.048 C303.673,54.325 303.291,54.535 302.854,54.676 C302.421,54.816 301.971,54.889 301.504,54.889 C300.744,54.889 300.045,54.755 299.403,54.489 C298.764,54.225 298.216,53.776 297.76,53.146 L298.784,52.463" id="Fill-22" fill="#7B7C81"></path>
        </g>
    </g>
</svg>