<?xml version="1.0" encoding="UTF-8"?>
<svg width="649px" height="253px" viewBox="0 0 649 253" version="1.1" xmlns="http://www.w3.org/2000/svg" xmlns:xlink="http://www.w3.org/1999/xlink">
    <!-- Generator: Sketch 52.6 (67491) - http://www.bohemiancoding.com/sketch -->
    <title>oci_home_to_grails</title>
    <desc>Created with Sketch.</desc>
    <defs>
        <polygon id="path-1" points="0 0.9733136 241.334594 0.9733136 241.334594 252.94 0 252.94"></polygon>
        <polygon id="path-3" points="0 0.9733136 241.334594 0.9733136 241.334594 252.94 0 252.94"></polygon>
    </defs>
    <g id="Page-1" stroke="none" stroke-width="1" fill="none" fill-rule="evenodd">
        <g id="oci_home_to_grails">
            <g id="Group" transform="translate(459.000000, 166.000000)" fill="#747675" stroke="#747675">
                <path d="M17.2579833,18.6459899 C16.1534682,19.2837269 15.0112619,19.7363688 13.8297258,20.0039155 C12.6432733,20.2680968 11.4387947,20.3959808 10.2130124,20.3959808 C8.77255431,20.3959808 7.45500219,20.1469436 6.25380106,19.6455039 C5.05096119,19.1440642 4.02674468,18.4407025 3.16804156,17.5320533 C2.31753217,16.6335003 1.65220112,15.5565828 1.17204842,14.3029836 C0.695173216,13.0544323 0.451,11.6880933 0.451,10.2090144 C0.451,8.72657019 0.695173216,7.37032723 1.17204842,6.12514138 C1.65220112,4.88836895 2.31753217,3.81145146 3.16804156,2.90785038 C4.02674468,2.0042493 5.05096119,1.2975222 6.25380106,0.787669078 C7.45500219,0.272767903 8.77255431,0.017 10.2130124,0.017 C13.0234625,0.017 15.2931263,0.912187662 17.0187263,2.70256299 L15.7372266,4.0739501 C15.450446,3.72395192 15.101393,3.40087667 14.6818739,3.09799363 C14.2623548,2.80015863 13.808422,2.54270805 13.3217144,2.33068992 C12.8350067,2.12540252 12.322079,1.95545148 11.7878477,1.841029 C11.2536164,1.71819309 10.732495,1.66266454 10.2130124,1.66266454 C8.98723009,1.66266454 7.87943751,1.87973072 6.89455091,2.31722845 C5.90802557,2.75640886 5.06734866,3.36217495 4.37579767,4.12443061 C3.6776917,4.89173432 3.14673786,5.80038345 2.77146493,6.83523385 C2.39783074,7.87681498 2.21101365,9.00421298 2.21101365,10.2090144 C2.21101365,11.4154985 2.39783074,12.5395312 2.77146493,13.5760643 C3.14673786,14.6193281 3.6776917,15.5195638 4.37579767,16.2885502 C5.06734866,17.0558539 5.90802557,17.6565719 6.89455091,18.0991177 C7.87943751,18.5332501 8.98723009,18.7536816 10.2130124,18.7536816 C11.2273964,18.7536816 12.1778694,18.6745955 13.0709862,18.5080098 C13.957548,18.3431068 14.7687274,18.0435891 15.4946921,17.6044087 L15.4946921,11.0856926 L10.9619195,11.0856926 L10.9619195,9.44339339 L17.2579833,9.44339339 L17.2579833,18.6459899" id="Fill-11"></path>
                <path d="M24.1685769,0.515074338 L29.1257848,0.515074338 C29.3797905,0.515074338 29.7157335,0.521805073 30.1401688,0.538631908 C30.5695204,0.553776061 31.0332856,0.614352669 31.5298258,0.703534899 C32.026366,0.796082495 32.5343774,0.939110599 33.0505825,1.14103263 C33.5651489,1.34632002 34.0256366,1.6357416 34.4353232,2.01602809 C34.8450098,2.40304531 35.1825916,2.88765818 35.4480685,3.4698667 C35.7201004,4.05207521 35.8512001,4.76721573 35.8512001,5.60687484 C35.8512001,6.53908154 35.6938805,7.30638525 35.3841574,7.90878597 C35.0727956,8.50782132 34.6827739,9.00084761 34.2124537,9.371038 C33.738856,9.74795912 33.2160959,10.0256019 32.6474509,10.2090144 C32.0804446,10.3957923 31.5363808,10.5203109 31.0201757,10.5926663 L36.5198086,19.9063199 L34.5188993,19.9063199 L29.2060834,10.69531 L25.9285906,10.69531 L25.9285906,19.9063199 L24.1685769,19.9063199 L24.1685769,0.515074338 Z M25.9285906,9.05805885 L29.6632936,9.05805885 C30.5859079,9.05805885 31.3380925,8.940271 31.91657,8.7046953 C32.4901312,8.46238887 32.9407865,8.17296729 33.2619808,7.82465179 C33.5815363,7.47801897 33.8027671,7.1061459 33.9207568,6.70398453 C34.0289141,6.30182315 34.087909,5.93163277 34.087909,5.60687484 C34.087909,5.27875154 34.0289141,4.91192652 33.9207568,4.50976515 C33.8027671,4.10928646 33.5815363,3.73404802 33.2619808,3.38909789 C32.9407865,3.0390997 32.4901312,2.75136081 31.91657,2.51073706 C31.3380925,2.26843062 30.5859079,2.15232546 29.6632936,2.15232546 L25.9285906,2.15232546 L25.9285906,9.05805885 Z" id="Fill-12" fill-rule="nonzero"></path>
                <path d="M47.7763578,0.515074338 L49.5888113,0.515074338 L57.5383702,19.9063199 L55.5636808,19.9063199 L53.5119702,14.7522601 L43.5041459,14.7522601 L41.3721368,19.9063199 L39.5318246,19.9063199 L47.7763578,0.515074338 Z M48.602286,2.48213144 L44.1973356,13.115009 L52.8712204,13.115009 L48.602286,2.48213144 Z" id="Fill-13" fill-rule="nonzero"></path>
                <polygon id="Fill-14" points="62.2595986 19.9029545 64.0228898 19.9029545 64.0228898 0.515074338 62.2595986 0.515074338"></polygon>
                <polyline id="Fill-15" points="71.1989603 0.515074338 72.958974 0.515074338 72.958974 18.262338 81.760681 18.262338 81.760681 19.9063199 71.1989603 19.9063199 71.1989603 0.515074338"></polyline>
                <path d="M87.0390832,16.3188385 C87.5028484,17.1383054 88.1042684,17.7491195 88.8449818,18.1512809 C89.5807789,18.5517596 90.4230946,18.7536816 91.3670125,18.7536816 C91.9487675,18.7536816 92.5026638,18.6661821 93.0188689,18.4794042 C93.5334353,18.299357 93.9840905,18.0435891 94.3659184,17.7121005 C94.7493851,17.3839772 95.0509144,16.9868639 95.2721452,16.5190778 C95.4917372,16.0580225 95.6048107,15.5313426 95.6048107,14.9508167 C95.6048107,14.2710126 95.467156,13.7123616 95.1918466,13.2782293 C94.9198147,12.8373662 94.5478193,12.4806372 94.0840541,12.194581 C93.6235663,11.9135729 93.1008062,11.6679011 92.5256062,11.4676617 C91.94549,11.2657397 91.350625,11.0705484 90.7360951,10.865261 C90.1215652,10.6650217 89.5299778,10.4395421 88.9498615,10.1820915 C88.3746615,9.92464089 87.8486239,9.59146954 87.3881362,9.18257744 C86.924371,8.76863728 86.555653,8.25878415 86.2803436,7.63619123 C86.0050342,7.01359831 85.8673795,6.2462946 85.8673795,5.33091473 C85.8673795,4.47442879 86.0312542,3.71217313 86.3639197,3.04414775 C86.6933077,2.37780506 87.1357692,1.82420216 87.6978593,1.37324296 C88.255033,0.929014498 88.8990604,0.585747049 89.6283025,0.361950133 C90.3608222,0.133105167 91.1228393,0.017 91.925825,0.017 C92.953319,0.017 93.9103469,0.20546056 94.7936313,0.579016314 C95.6752768,0.950889384 96.4323777,1.57853036 97.0731275,2.4552085 L95.5523708,3.57924113 C95.1115481,2.93982137 94.5871492,2.45857387 93.9906455,2.13549862 C93.3957806,1.82420216 92.6878421,1.66266454 91.8717464,1.66266454 C91.2998239,1.66266454 90.7557601,1.7383853 90.2428324,1.89655755 C89.7315436,2.04968176 89.2759721,2.27684404 88.8957829,2.5780444 C88.513955,2.88092745 88.2042319,3.26121393 87.9731687,3.7155385 C87.7470217,4.17322843 87.6306707,4.71505254 87.6306707,5.33091473 C87.6306707,6.30182315 87.8682889,7.04388661 88.3517191,7.56383584 C88.8285943,8.08546774 89.4300142,8.4994079 90.1510626,8.79556021 C90.8704723,9.09676057 91.6537931,9.36598995 92.4993863,9.59146954 C93.3417019,9.82031451 94.1283002,10.1248802 94.8427936,10.5118975 C95.5654808,10.8921839 96.1669007,11.4272773 96.6470534,12.1138122 C97.1272061,12.7969818 97.3681019,13.7409672 97.3681019,14.9508167 C97.3681019,15.8258122 97.2075047,16.5998466 96.8846717,17.2746028 C96.5683936,17.9544069 96.1357646,18.5214713 95.5949782,18.9858919 C95.0509144,19.4519953 94.4265521,19.8053588 93.7087811,20.0426172 C92.9992039,20.2798756 92.2634068,20.4010288 91.4981122,20.4010288 C90.2526649,20.4010288 89.1071812,20.1755492 88.0534672,19.7279554 C87.007947,19.2837269 86.1082752,18.5298847 85.3626456,17.4681114 L87.0390832,16.3188385" id="Fill-16"></path>
            </g>
            <g id="Group-4">
                <g id="Fill-1-Clipped">
                    <mask id="mask-2" fill="white">
                        <use xlink:href="#path-1"></use>
                    </mask>
                    <g id="path-1"></g>
                    <path d="M95.411,139.218 C95.411,136.973 93.581,134.588 91.355,133.902 L41.535,118.596 C39.32,117.911 37.502,119.198 37.502,121.439 L37.502,180.381 C37.502,182.629 39.32,185.019 41.535,185.695 L91.355,200.997 C93.581,201.685 95.411,200.405 95.411,198.168 L95.411,139.218 Z M137.572,249.926 C137.572,252.171 135.748,253.49 133.512,252.83 L4.063,215.078 C1.836,214.419 0,212.059 0,209.817 L0,72.64 C0,70.387 1.836,69.093 4.063,69.75 L133.512,107.499 C135.748,108.153 137.572,110.527 137.572,112.766 L137.572,249.926 Z" id="Fill-1" fill="#295191" fill-rule="nonzero" mask="url(#mask-2)"></path>
                </g>
                <g id="Fill-3-Clipped">
                    <mask id="mask-4" fill="white">
                        <use xlink:href="#path-3"></use>
                    </mask>
                    <g id="path-1"></g>
                    <path d="M208.07,28.792 L239.563,37.556 C241.841,38.215 241.938,39.87 239.762,41.204 L147.749,99.139 C145.576,100.493 141.91,101.048 139.616,100.378 L6.8,61.843 C4.509,61.181 4.412,59.533 6.604,58.181 L103.953,2.489 C106.135,1.154 109.797,0.593 112.085,1.246 L134.737,8.011 L136.572,8.572 C139.622,9.335 140.062,10.489 140.081,11.143 C140.108,12.44 138.784,13.343 138.784,13.343 L80.669,48.304 C78.492,49.645 78.537,51.315 80.773,51.991 L131.432,66.761 C133.668,67.443 137.298,66.887 139.474,65.546 L196.44,31.397 C196.44,31.397 199.455,29.929 201.82,28.929 C205.076,27.55 208.07,28.792 208.07,28.792" id="Fill-3" fill="#6AC2C3" mask="url(#mask-4)"></path>
                </g>
            </g>
            <path d="M214.988,129.94 C215.021,126.393 216.84,124.64 219.112,123.208 L245.951,106.128 C248.227,104.697 251.188,106.103 251.188,109.241 L251.166,184.384 C250.998,187.357 251.207,189.244 246.468,192.476 L218.381,212.806 C216.104,214.241 214.829,212.998 214.829,210.721 L214.988,129.94" id="Fill-5" fill="#F0AA73"></path>
            <path d="M213.752,73.41 C213.752,71.135 215.611,68.107 217.873,66.678 L247.275,47.403 C249.539,45.977 251.207,47.568 251.207,49.848 L251.066,86.493 C250.902,89.196 249.699,91.268 247.24,92.9 L217.691,111.533 C215.428,112.966 213.758,112.081 213.758,109.81 L213.752,73.41" id="Fill-6" fill="#F0AA73"></path>
            <path d="M312.743,67.187 C312.743,68.69 312.974,70.069 313.438,71.311 C313.902,72.547 314.567,73.626 315.44,74.536 C316.312,75.453 317.348,76.163 318.567,76.679 C319.784,77.19 321.133,77.437 322.633,77.437 C324.128,77.437 325.485,77.19 326.697,76.679 C327.914,76.163 328.952,75.453 329.823,74.536 C330.688,73.626 331.359,72.547 331.82,71.311 C332.291,70.069 332.521,68.69 332.521,67.187 C332.521,65.722 332.291,64.36 331.82,63.101 C331.359,61.843 330.688,60.755 329.823,59.843 C328.952,58.928 327.914,58.216 326.697,57.708 C325.485,57.195 324.128,56.948 322.633,56.948 C321.133,56.948 319.784,57.195 318.567,57.708 C317.348,58.216 316.312,58.928 315.44,59.843 C314.567,60.755 313.902,61.843 313.438,63.101 C312.974,64.36 312.743,65.722 312.743,67.187 Z M305.462,67.187 C305.462,64.646 305.889,62.337 306.742,60.269 C307.594,58.205 308.789,56.442 310.319,54.989 C311.839,53.535 313.655,52.419 315.754,51.639 C317.848,50.859 320.139,50.474 322.633,50.474 C325.117,50.474 327.408,50.859 329.508,51.639 C331.606,52.419 333.42,53.535 334.947,54.989 C336.469,56.442 337.667,58.205 338.519,60.269 C339.379,62.337 339.799,64.646 339.799,67.187 C339.799,69.737 339.379,72.047 338.519,74.113 C337.667,76.179 336.469,77.937 334.947,79.393 C333.42,80.855 331.606,81.965 329.508,82.745 C327.408,83.523 325.117,83.91 322.633,83.91 C320.139,83.91 317.848,83.523 315.754,82.745 C313.655,81.965 311.839,80.855 310.319,79.393 C308.789,77.937 307.594,76.179 306.742,74.113 C305.889,72.047 305.462,69.737 305.462,67.187 Z" id="Fill-7" fill="#747675" fill-rule="nonzero"></path>
            <path d="M359.676,77.173 L365.954,77.173 C366.504,77.173 367.051,77.108 367.607,76.987 C368.152,76.871 368.654,76.663 369.108,76.361 C369.553,76.064 369.922,75.67 370.207,75.19 C370.492,74.712 370.636,74.129 370.636,73.44 C370.636,72.69 370.44,72.085 370.08,71.618 C369.701,71.154 369.234,70.805 368.654,70.561 C368.083,70.325 367.471,70.151 366.816,70.069 C366.152,69.981 365.539,69.931 364.971,69.931 L359.676,69.931 L359.676,77.173 Z M359.676,64.005 L364.751,64.005 C365.286,64.005 365.828,63.937 366.339,63.822 C366.866,63.701 367.344,63.508 367.756,63.234 C368.188,62.964 368.521,62.607 368.768,62.157 C369.021,61.711 369.152,61.167 369.152,60.535 C369.152,59.878 369.006,59.332 368.729,58.898 C368.438,58.464 368.066,58.123 367.627,57.887 C367.168,57.651 366.663,57.472 366.1,57.368 C365.52,57.263 364.971,57.211 364.438,57.211 L359.676,57.211 L359.676,64.005 Z M352.651,51.283 L364.52,51.283 C365.904,51.283 367.292,51.375 368.677,51.574 C370.08,51.766 371.328,52.156 372.438,52.736 C373.542,53.321 374.443,54.145 375.125,55.189 C375.822,56.239 376.163,57.631 376.163,59.368 C376.163,61.167 375.658,62.66 374.658,63.849 C373.652,65.025 372.339,65.876 370.686,66.382 L370.686,66.472 C371.737,66.623 372.686,66.911 373.531,67.349 C374.381,67.783 375.125,68.338 375.74,69.014 C376.355,69.69 376.822,70.47 377.163,71.371 C377.487,72.272 377.646,73.234 377.646,74.25 C377.646,75.926 377.293,77.325 376.575,78.453 C375.85,79.575 374.916,80.482 373.778,81.168 C372.646,81.861 371.366,82.355 369.946,82.652 C368.521,82.949 367.097,83.102 365.69,83.102 L352.651,83.102 L352.651,51.283 Z" id="Fill-8" fill="#747675" fill-rule="nonzero"></path>
            <path d="M406.332,72.448 C406.332,73.915 406.197,75.344 405.939,76.723 C405.689,78.102 405.206,79.322 404.48,80.382 C403.77,81.449 402.744,82.3 401.403,82.943 C400.071,83.588 398.329,83.91 396.17,83.91 C393.647,83.91 391.516,83.311 389.79,82.116 C388.046,80.913 386.925,79.044 386.405,76.5 L392.829,74.92 C392.928,75.696 393.279,76.361 393.89,76.899 C394.516,77.437 395.205,77.712 395.982,77.712 C396.791,77.712 397.417,77.506 397.873,77.099 C398.329,76.696 398.653,76.196 398.865,75.596 C399.076,74.997 399.203,74.349 399.247,73.64 C399.293,72.937 399.313,72.288 399.313,71.687 L399.313,51.283 L406.332,51.283 L406.332,72.448" id="Fill-9" fill="#747675"></path>
            <polyline id="Fill-10" fill="#747675" points="420.701 51.283 442.331 51.283 442.331 57.755 427.718 57.755 427.718 63.684 441.523 63.684 441.523 70.151 427.718 70.151 427.718 76.629 443.137 76.629 443.137 83.102 420.701 83.102 420.701 51.283"></polyline>
            <path d="M477.657,59.549 C476.971,58.711 476.121,58.063 475.113,57.617 C474.107,57.169 472.948,56.948 471.635,56.948 C470.316,56.948 469.085,57.195 467.965,57.708 C466.844,58.216 465.877,58.928 465.053,59.843 C464.233,60.755 463.577,61.843 463.112,63.101 C462.65,64.36 462.418,65.722 462.418,67.187 C462.418,68.69 462.65,70.069 463.112,71.311 C463.577,72.547 464.217,73.626 465.02,74.536 C465.835,75.453 466.777,76.163 467.882,76.679 C468.97,77.19 470.143,77.437 471.404,77.437 C472.847,77.437 474.124,77.143 475.231,76.541 C476.333,75.946 477.248,75.105 477.965,74.022 L483.812,78.388 C482.465,80.27 480.762,81.663 478.693,82.558 C476.621,83.459 474.495,83.91 472.309,83.91 C469.813,83.91 467.525,83.523 465.426,82.745 C463.332,81.965 461.514,80.855 459.991,79.393 C458.453,77.937 457.271,76.179 456.42,74.113 C455.565,72.047 455.134,69.737 455.134,67.187 C455.134,64.646 455.565,62.337 456.42,60.269 C457.271,58.205 458.453,56.442 459.991,54.989 C461.514,53.535 463.332,52.419 465.426,51.639 C467.525,50.859 469.813,50.474 472.309,50.474 C473.209,50.474 474.148,50.557 475.113,50.716 C476.088,50.878 477.056,51.142 477.995,51.504 C478.943,51.865 479.844,52.348 480.718,52.947 C481.586,53.54 482.366,54.28 483.059,55.145 L477.657,59.549" id="Fill-11" fill="#747675"></path>
            <polyline id="Fill-12" fill="#747675" points="501.889 57.48 492.801 57.48 492.801 51.283 517.975 51.283 517.975 57.48 508.895 57.48 508.895 83.102 501.889 83.102 501.889 57.48"></polyline>
            <path d="M327.979,117.357 C327.29,116.519 326.447,115.876 325.436,115.425 C324.436,114.978 323.271,114.752 321.957,114.752 C320.639,114.752 319.416,115.01 318.295,115.51 C317.169,116.03 316.199,116.733 315.369,117.651 C314.551,118.568 313.902,119.648 313.438,120.91 C312.974,122.17 312.743,123.538 312.743,124.999 C312.743,126.505 312.974,127.869 313.438,129.116 C313.902,130.357 314.539,131.443 315.35,132.358 C316.158,133.261 317.105,133.976 318.199,134.484 C319.295,135 320.479,135.244 321.727,135.244 C323.169,135.244 324.446,134.956 325.549,134.352 C326.661,133.758 327.578,132.92 328.296,131.832 L334.14,136.196 C332.793,138.083 331.084,139.479 329.013,140.374 C326.952,141.273 324.814,141.729 322.633,141.729 C320.139,141.729 317.848,141.33 315.754,140.547 C313.655,139.775 311.839,138.662 310.319,137.196 C308.789,135.753 307.594,133.997 306.742,131.923 C305.889,129.857 305.462,127.546 305.462,124.999 C305.462,122.461 305.889,120.145 306.742,118.079 C307.594,116.016 308.789,114.249 310.319,112.79 C311.839,111.343 313.655,110.233 315.754,109.445 C317.848,108.669 320.139,108.283 322.633,108.283 C323.529,108.283 324.469,108.362 325.436,108.527 C326.411,108.692 327.373,108.955 328.32,109.312 C329.263,109.672 330.164,110.153 331.035,110.746 C331.903,111.354 332.688,112.084 333.381,112.952 L327.979,117.357" id="Fill-13" fill="#747675"></path>
            <path d="M351.624,124.999 C351.624,126.505 351.857,127.869 352.327,129.116 C352.783,130.357 353.453,131.443 354.322,132.358 C355.189,133.261 356.234,133.976 357.442,134.484 C358.657,135 360.02,135.244 361.515,135.244 C363.009,135.244 364.363,135 365.58,134.484 C366.789,133.976 367.839,133.261 368.701,132.358 C369.569,131.443 370.24,130.357 370.701,129.116 C371.163,127.869 371.404,126.505 371.404,124.999 C371.404,123.538 371.163,122.17 370.701,120.91 C370.24,119.648 369.569,118.568 368.701,117.651 C367.839,116.733 366.789,116.03 365.58,115.51 C364.363,115.01 363.009,114.752 361.515,114.752 C360.02,114.752 358.657,115.01 357.442,115.51 C356.234,116.03 355.189,116.733 354.322,117.651 C353.453,118.568 352.783,119.648 352.327,120.91 C351.857,122.17 351.624,123.538 351.624,124.999 Z M344.338,124.999 C344.338,122.461 344.77,120.145 345.621,118.079 C346.48,116.016 347.668,114.249 349.195,112.79 C350.723,111.343 352.536,110.233 354.638,109.445 C356.736,108.669 359.025,108.283 361.515,108.283 C364.001,108.283 366.287,108.669 368.389,109.445 C370.487,110.233 372.298,111.343 373.828,112.79 C375.361,114.249 376.545,116.016 377.402,118.079 C378.252,120.145 378.675,122.461 378.675,124.999 C378.675,127.546 378.252,129.857 377.402,131.923 C376.545,133.997 375.361,135.753 373.828,137.196 C372.298,138.662 370.487,139.775 368.389,140.547 C366.287,141.33 364.001,141.729 361.515,141.729 C359.025,141.729 356.736,141.33 354.638,140.547 C352.536,139.775 350.723,138.662 349.195,137.196 C347.668,135.753 346.48,133.997 345.621,131.923 C344.77,129.857 344.338,127.546 344.338,124.999 Z" id="Fill-14" fill="#747675" fill-rule="nonzero"></path>
            <polyline id="Fill-15" fill="#747675" points="391.537 109.087 402.148 109.087 409.473 129.857 409.566 129.857 416.935 109.087 427.498 109.087 427.498 140.918 420.481 140.918 420.481 116.505 420.396 116.505 412.03 140.918 406.682 140.918 398.637 116.505 398.543 116.505 398.543 140.918 391.537 140.918 391.537 109.087"></polyline>
            <path d="M449.073,122.577 L453.738,122.577 C454.373,122.577 454.98,122.516 455.565,122.39 C456.15,122.275 456.667,122.072 457.14,121.788 C457.612,121.508 457.975,121.11 458.261,120.615 C458.547,120.115 458.695,119.502 458.695,118.749 C458.695,117.939 458.502,117.296 458.129,116.796 C457.755,116.307 457.271,115.919 456.684,115.648 C456.106,115.378 455.453,115.205 454.732,115.134 C454.008,115.06 453.329,115.021 452.667,115.021 L449.073,115.021 L449.073,122.577 Z M442.063,109.087 L453.884,109.087 C455.524,109.087 457.079,109.236 458.555,109.535 C460.02,109.831 461.305,110.351 462.396,111.093 C463.497,111.824 464.354,112.81 465.003,114.054 C465.646,115.296 465.976,116.86 465.976,118.749 C465.976,120.613 465.662,122.17 465.063,123.423 C464.47,124.681 463.64,125.687 462.596,126.443 C461.552,127.19 460.308,127.728 458.871,128.038 C457.439,128.349 455.867,128.503 454.189,128.503 L449.073,128.503 L449.073,140.918 L442.063,140.918 L442.063,109.087 Z" id="Fill-16" fill="#747675" fill-rule="nonzero"></path>
            <path d="M505.301,128.637 C505.301,130.528 505.019,132.267 504.438,133.861 C503.873,135.443 503.035,136.827 501.916,137.995 C500.79,139.152 499.387,140.08 497.707,140.74 C496.031,141.394 494.092,141.729 491.908,141.729 C489.69,141.729 487.746,141.394 486.062,140.74 C484.383,140.08 482.987,139.152 481.86,137.995 C480.74,136.827 479.888,135.443 479.324,133.861 C478.756,132.267 478.471,130.528 478.471,128.637 L478.471,109.087 L485.481,109.087 L485.481,128.373 C485.481,129.363 485.636,130.275 485.951,131.113 C486.268,131.94 486.701,132.682 487.278,133.291 C487.842,133.912 488.531,134.39 489.322,134.737 C490.125,135.077 490.974,135.244 491.908,135.244 C492.831,135.244 493.693,135.077 494.466,134.737 C495.254,134.39 495.916,133.912 496.493,133.291 C497.064,132.682 497.504,131.94 497.817,131.113 C498.131,130.275 498.295,129.363 498.295,128.373 L498.295,109.087 L505.301,109.087 L505.301,128.637" id="Fill-17" fill="#747675"></path>
            <polyline id="Fill-18" fill="#747675" points="526.021 115.286 516.939 115.286 516.939 109.087 542.116 109.087 542.116 115.286 533.033 115.286 533.033 140.918 526.021 140.918 526.021 115.286"></polyline>
            <polygon id="Fill-19" fill="#747675" points="553.672 140.918 560.675 140.918 560.675 109.087 553.672 109.087"></polygon>
            <polyline id="Fill-20" fill="#747675" points="575.15 109.087 584.673 109.087 598.207 131.212 598.303 131.212 598.303 109.087 605.314 109.087 605.314 140.918 596.141 140.918 582.261 118.263 582.165 118.263 582.165 140.918 575.15 140.918 575.15 109.087"></polyline>
            <path d="M648.679,138.671 C646.615,139.743 644.456,140.523 642.209,141.009 C639.959,141.482 637.676,141.729 635.329,141.729 C632.846,141.729 630.549,141.33 628.45,140.547 C626.359,139.775 624.546,138.662 623.026,137.196 C621.499,135.753 620.299,133.997 619.444,131.923 C618.595,129.857 618.158,127.546 618.158,124.999 C618.158,122.461 618.595,120.145 619.444,118.079 C620.299,116.016 621.499,114.249 623.026,112.79 C624.546,111.343 626.359,110.233 628.45,109.445 C630.549,108.669 632.846,108.283 635.329,108.283 C637.873,108.283 640.225,108.581 642.368,109.202 C644.517,109.818 646.388,110.862 648.014,112.368 L643.066,117.763 C642.109,116.772 641.033,116.03 639.835,115.51 C638.637,115.01 637.132,114.752 635.329,114.752 C633.838,114.752 632.483,115.01 631.269,115.51 C630.052,116.03 629.016,116.733 628.137,117.651 C627.264,118.568 626.609,119.648 626.14,120.91 C625.681,122.17 625.455,123.538 625.455,124.999 C625.455,126.505 625.681,127.869 626.14,129.116 C626.609,130.357 627.264,131.443 628.137,132.358 C629.016,133.261 630.052,133.976 631.269,134.484 C632.483,135 633.838,135.244 635.329,135.244 C636.862,135.244 638.179,135.077 639.291,134.737 C640.396,134.39 641.285,134.036 641.953,133.679 L641.953,128.503 L636.236,128.503 L636.236,122.038 L648.679,122.038 L648.679,138.671" id="Fill-21" fill="#747675"></path>
            <polyline id="Fill-22" fill="#747675" points="309.751 167.142 312.433 167.142 312.433 175.161 322.131 175.161 322.131 167.142 324.84 167.142 324.84 186.322 322.131 186.322 322.131 177.543 312.433 177.543 312.433 186.322 309.751 186.322 309.751 167.142"></polyline>
            <path d="M348.415,176.705 C348.415,175.656 348.244,174.667 347.901,173.739 C347.558,172.81 347.068,171.992 346.437,171.287 C345.805,170.584 345.041,170.027 344.146,169.622 C343.255,169.216 342.247,169.01 341.129,169.01 C340.024,169.01 339.027,169.216 338.134,169.622 C337.241,170.027 336.48,170.584 335.859,171.287 C335.235,171.992 334.752,172.81 334.408,173.739 C334.068,174.667 333.893,175.656 333.893,176.705 C333.893,177.769 334.068,178.772 334.408,179.711 C334.752,180.651 335.238,181.47 335.87,182.161 C336.502,182.86 337.264,183.404 338.145,183.799 C339.032,184.198 340.024,184.398 341.129,184.398 C342.228,184.398 343.233,184.198 344.135,183.799 C345.035,183.404 345.805,182.86 346.437,182.161 C347.068,181.47 347.558,180.651 347.901,179.711 C348.244,178.772 348.415,177.769 348.415,176.705 Z M351.311,176.705 C351.311,178.184 351.053,179.543 350.541,180.783 C350.024,182.019 349.316,183.085 348.415,183.975 C347.508,184.87 346.437,185.569 345.189,186.063 C343.942,186.561 342.588,186.808 341.129,186.808 C339.662,186.808 338.315,186.561 337.079,186.063 C335.838,185.569 334.769,184.87 333.87,183.975 C332.967,183.085 332.26,182.019 331.755,180.783 C331.249,179.543 330.996,178.184 330.996,176.705 C330.996,175.205 331.249,173.837 331.755,172.601 C332.26,171.365 332.967,170.307 333.87,169.433 C334.769,168.557 335.838,167.875 337.079,167.386 C338.315,166.898 339.662,166.656 341.129,166.656 C342.588,166.656 343.942,166.898 345.189,167.386 C346.437,167.875 347.508,168.557 348.415,169.433 C349.316,170.307 350.024,171.365 350.541,172.601 C351.053,173.837 351.311,175.205 351.311,176.705 Z" id="Fill-23" fill="#747675" fill-rule="nonzero"></path>
            <polyline id="Fill-24" fill="#747675" points="367.357 181.876 367.413 181.876 373.072 167.142 377.246 167.142 377.246 186.322 374.562 186.322 374.562 170.283 374.51 170.283 368.141 186.322 366.438 186.322 360.097 170.283 360.045 170.283 360.045 186.322 357.442 186.322 357.442 167.142 361.613 167.142 367.357 181.876"></polyline>
            <polyline id="Fill-25" fill="#747675" points="388.142 183.937 398.162 183.937 398.162 186.322 385.461 186.322 385.461 167.142 397.755 167.142 397.755 169.499 388.142 169.499 388.142 175.244 397.189 175.244 397.189 177.543 388.142 177.543 388.142 183.937"></polyline>
            <polyline id="Fill-26" fill="#747675" points="417.429 186.322 414.748 186.322 414.748 169.499 408.599 169.499 408.599 167.142 423.578 167.142 423.578 169.499 417.429 169.499 417.429 186.322"></polyline>
            <path d="M445.313,176.705 C445.313,175.656 445.139,174.667 444.799,173.739 C444.452,172.81 443.963,171.992 443.334,171.287 C442.702,170.584 441.941,170.027 441.045,169.622 C440.152,169.216 439.145,169.01 438.023,169.01 C436.925,169.01 435.924,169.216 435.029,169.622 C434.139,170.027 433.381,170.584 432.757,171.287 C432.133,171.992 431.649,172.81 431.309,173.739 C430.963,174.667 430.792,175.656 430.792,176.705 C430.792,177.769 430.963,178.772 431.309,179.711 C431.649,180.651 432.139,181.47 432.771,182.161 C433.402,182.86 434.16,183.404 435.045,183.799 C435.93,184.198 436.925,184.398 438.023,184.398 C439.128,184.398 440.128,184.198 441.029,183.799 C441.936,183.404 442.702,182.86 443.334,182.161 C443.963,181.47 444.452,180.651 444.799,179.711 C445.139,178.772 445.313,177.769 445.313,176.705 Z M448.211,176.705 C448.211,178.184 447.952,179.543 447.436,180.783 C446.925,182.019 446.213,183.085 445.313,183.975 C444.408,184.87 443.334,185.569 442.09,186.063 C440.842,186.561 439.485,186.808 438.023,186.808 C436.562,186.808 435.21,186.561 433.974,186.063 C432.737,185.569 431.666,184.87 430.765,183.975 C429.863,183.085 429.16,182.019 428.649,180.783 C428.149,179.543 427.896,178.184 427.896,176.705 C427.896,175.205 428.149,173.837 428.649,172.601 C429.16,171.365 429.863,170.307 430.765,169.433 C431.666,168.557 432.737,167.875 433.974,167.386 C435.21,166.898 436.562,166.656 438.023,166.656 C439.485,166.656 440.842,166.898 442.09,167.386 C443.334,167.875 444.408,168.557 445.313,169.433 C446.213,170.307 446.925,171.365 447.436,172.601 C447.952,173.837 448.211,175.205 448.211,176.705 Z" id="Fill-27" fill="#747675" fill-rule="nonzero"></path>
        </g>
    </g>
</svg>