<?xml version="1.0" encoding="utf-8"?>
<!-- Generator: Adobe Illustrator 16.0.0, SVG Export Plug-In . SVG Version: 6.00 Build 0)  -->
<!DOCTYPE svg PUBLIC "-//W3C//DTD SVG 1.1//EN" "http://www.w3.org/Graphics/SVG/1.1/DTD/svg11.dtd">
<svg version="1.1" id="Ebene_1" xmlns="http://www.w3.org/2000/svg" xmlns:xlink="http://www.w3.org/1999/xlink" x="0px" y="0px"
	 width="32.285px" height="29.611px" viewBox="0 0 32.285 29.611" enable-background="new 0 0 32.285 29.611" xml:space="preserve">
<path fill="#FEB672" d="M21.523,16.378c0,0.219-0.168,0.471-0.387,0.504l-2.606,0.404c-0.135,0.438-0.319,0.857-0.538,1.277
	c0.471,0.673,0.975,1.295,1.514,1.935c0.066,0.101,0.117,0.201,0.117,0.336c0,0.118-0.033,0.235-0.117,0.319
	c-0.336,0.454-2.22,2.506-2.707,2.506c-0.135,0-0.252-0.051-0.354-0.118l-1.934-1.513c-0.421,0.218-0.841,0.387-1.295,0.521
	c-0.084,0.858-0.168,1.783-0.387,2.606c-0.067,0.236-0.27,0.404-0.504,0.404H9.197c-0.234,0-0.471-0.186-0.504-0.421l-0.387-2.573
	c-0.438-0.135-0.857-0.319-1.262-0.521l-1.983,1.496c-0.085,0.084-0.219,0.118-0.337,0.118c-0.135,0-0.252-0.051-0.353-0.135
	c-0.438-0.403-2.421-2.203-2.421-2.69c0-0.118,0.049-0.219,0.117-0.319c0.488-0.639,0.992-1.262,1.479-1.918
	c-0.235-0.453-0.438-0.907-0.589-1.378l-2.555-0.403C0.168,16.781,0,16.562,0,16.327v-3.111c0-0.218,0.168-0.471,0.387-0.504
	l2.606-0.403c0.135-0.438,0.319-0.857,0.538-1.278c-0.471-0.672-0.975-1.294-1.514-1.934C1.951,8.996,1.9,8.878,1.9,8.761
	c0-0.118,0.033-0.235,0.117-0.336c0.336-0.455,2.22-2.489,2.707-2.489c0.135,0,0.252,0.05,0.354,0.118l1.934,1.513
	C7.433,7.348,7.853,7.18,8.307,7.028c0.084-0.841,0.168-1.766,0.387-2.59c0.067-0.235,0.27-0.403,0.504-0.403h3.129
	c0.234,0,0.471,0.185,0.504,0.42l0.387,2.573c0.438,0.135,0.857,0.32,1.262,0.521l1.983-1.497c0.101-0.084,0.219-0.118,0.337-0.118
	c0.135,0,0.252,0.05,0.353,0.135c0.438,0.403,2.421,2.219,2.421,2.69c0,0.117-0.05,0.218-0.117,0.319
	c-0.488,0.656-0.992,1.261-1.463,1.917c0.219,0.454,0.42,0.908,0.572,1.378l2.555,0.387c0.236,0.05,0.404,0.269,0.404,0.504V16.378z
	 M10.762,10.492c-2.371,0-4.305,1.934-4.305,4.305c0,2.371,1.934,4.306,4.305,4.306s4.305-1.935,4.305-4.306
	C15.066,12.426,13.133,10.492,10.762,10.492z M32.285,7.365c0,0.252-2.169,0.488-2.506,0.521c-0.134,0.319-0.302,0.605-0.504,0.875
	c0.151,0.336,0.857,2.018,0.857,2.32c0,0.05-0.017,0.084-0.067,0.118c-0.202,0.118-2.001,1.194-2.085,1.194
	c-0.219,0-1.48-1.682-1.647-1.934c-0.169,0.017-0.337,0.033-0.505,0.033s-0.336-0.017-0.505-0.033
	c-0.167,0.252-1.429,1.934-1.647,1.934c-0.084,0-1.883-1.076-2.085-1.194c-0.05-0.034-0.067-0.084-0.067-0.118
	c0-0.286,0.706-1.984,0.857-2.32c-0.201-0.27-0.369-0.555-0.504-0.875c-0.336-0.034-2.506-0.269-2.506-0.521V5.011
	c0-0.252,2.17-0.488,2.506-0.521c0.135-0.303,0.303-0.605,0.504-0.875c-0.151-0.336-0.857-2.035-0.857-2.32
	c0-0.034,0.018-0.084,0.067-0.118C21.793,1.076,23.592,0,23.676,0c0.219,0,1.48,1.665,1.647,1.917
	c0.169-0.017,0.337-0.034,0.505-0.034s0.336,0.017,0.505,0.034c0.471-0.656,0.976-1.312,1.547-1.883L27.98,0
	c0.084,0,1.883,1.059,2.085,1.177c0.051,0.033,0.067,0.084,0.067,0.118c0,0.303-0.706,1.984-0.857,2.32
	c0.202,0.27,0.37,0.572,0.504,0.875c0.337,0.034,2.506,0.269,2.506,0.521V7.365z M32.285,24.583c0,0.253-2.169,0.488-2.506,0.522
	c-0.134,0.319-0.302,0.604-0.504,0.874c0.151,0.336,0.857,2.018,0.857,2.32c0,0.051-0.017,0.084-0.067,0.117
	c-0.202,0.118-2.001,1.194-2.085,1.194c-0.219,0-1.48-1.682-1.647-1.934c-0.169,0.017-0.337,0.034-0.505,0.034
	s-0.336-0.018-0.505-0.034c-0.167,0.252-1.429,1.934-1.647,1.934c-0.084,0-1.883-1.076-2.085-1.194
	c-0.05-0.033-0.067-0.083-0.067-0.117c0-0.285,0.706-1.984,0.857-2.32c-0.201-0.27-0.369-0.555-0.504-0.874
	c-0.336-0.034-2.506-0.27-2.506-0.522v-2.354c0-0.252,2.17-0.487,2.506-0.521c0.135-0.303,0.303-0.605,0.504-0.874
	c-0.151-0.336-0.857-2.034-0.857-2.32c0-0.034,0.018-0.085,0.067-0.118c0.202-0.101,2.001-1.177,2.085-1.177
	c0.219,0,1.48,1.665,1.647,1.917c0.169-0.017,0.337-0.033,0.505-0.033s0.336,0.017,0.505,0.033c0.471-0.656,0.976-1.312,1.547-1.884
	l0.101-0.033c0.084,0,1.883,1.06,2.085,1.177c0.051,0.033,0.067,0.084,0.067,0.118c0,0.303-0.706,1.984-0.857,2.32
	c0.202,0.269,0.37,0.571,0.504,0.874c0.337,0.034,2.506,0.27,2.506,0.521V24.583z M25.828,4.035c-1.177,0-2.152,0.976-2.152,2.152
	c0,1.194,0.976,2.152,2.152,2.152c1.194,0,2.152-0.975,2.152-2.152C27.98,5.011,27.005,4.035,25.828,4.035z M25.828,21.255
	c-1.177,0-2.152,0.975-2.152,2.152c0,1.193,0.976,2.152,2.152,2.152c1.194,0,2.152-0.977,2.152-2.152
	C27.98,22.229,27.005,21.255,25.828,21.255z"/>
</svg>
