<?xml version="1.0" encoding="utf-8"?>
<!-- Generator: Adobe Illustrator 16.0.0, SVG Export Plug-In . SVG Version: 6.00 Build 0)  -->
<!DOCTYPE svg PUBLIC "-//W3C//DTD SVG 1.1//EN" "http://www.w3.org/Graphics/SVG/1.1/DTD/svg11.dtd">
<svg version="1.1" id="Ebene_1" xmlns="http://www.w3.org/2000/svg" xmlns:xlink="http://www.w3.org/1999/xlink" x="0px" y="0px"
	 width="93.58px" height="93.58px" viewBox="0 0 93.58 93.58" enable-background="new 0 0 93.58 93.58" xml:space="preserve">
<circle fill="none" stroke="#FFFFFF" stroke-width="2.8347" stroke-miterlimit="10" cx="46.879" cy="46.783" r="45.374"/>
<g>
	<g>
		<defs>
			<rect id="SVGID_1_" x="20" y="19.202" width="55" height="53.301"/>
		</defs>
		<defs>
			<path id="SVGID_2_" d="M50.783,55.253c4.123-1.583,6.529-5.882,5.725-10.224c-0.805-4.341-4.592-7.491-9.008-7.491
				s-8.204,3.15-9.008,7.491c-0.805,4.342,1.602,8.641,5.724,10.224l-6.171,16.081c-11.874-4.558-18.806-16.938-16.489-29.441
				C23.874,29.387,34.781,20.313,47.5,20.313c12.718,0,23.626,9.073,25.943,21.579c2.318,12.504-4.615,24.884-16.488,29.441
				L50.783,55.253L50.783,55.253z"/>
		</defs>
		<clipPath id="SVGID_3_">
			<use xlink:href="#SVGID_1_"  overflow="visible"/>
		</clipPath>
		<clipPath id="SVGID_4_" clip-path="url(#SVGID_3_)">
			<use xlink:href="#SVGID_2_"  overflow="visible"/>
		</clipPath>
		<rect x="20.64" y="19.842" clip-path="url(#SVGID_4_)" fill="#FFFFFF" width="53.719" height="51.963"/>
	</g>
	<g>
		<path fill="#F5F5F5" d="M56.955,72.434c-0.153,0-0.306-0.033-0.447-0.096c-0.267-0.119-0.476-0.338-0.58-0.611l-6.17-16.081
			c-0.219-0.565,0.064-1.201,0.631-1.419c3.628-1.393,5.746-5.177,5.039-8.996c-0.709-3.82-4.043-6.592-7.928-6.592
			c-3.886,0-7.219,2.771-7.928,6.592c-0.708,3.819,1.411,7.604,5.038,8.996c0.566,0.218,0.85,0.854,0.632,1.419l-6.171,16.081
			c-0.104,0.273-0.313,0.492-0.58,0.611c-0.266,0.118-0.568,0.127-0.84,0.021c-12.367-4.746-19.59-17.644-17.177-30.669
			C22.888,28.668,34.254,19.216,47.5,19.216c13.245,0,24.611,9.452,27.024,22.475c2.413,13.025-4.81,25.923-17.177,30.669
			C57.222,72.408,57.088,72.434,56.955,72.434z M52.183,55.831l5.396,14.06c10.753-4.667,16.938-16.179,14.785-27.799
			C70.142,30.11,59.686,21.413,47.5,21.413c-12.187,0-22.643,8.697-24.863,20.679c-2.153,11.62,4.032,23.132,14.784,27.799
			l5.396-14.06c-3.995-2.046-6.24-6.503-5.407-11.001c0.902-4.862,5.145-8.393,10.09-8.393c4.944,0,9.188,3.53,10.089,8.393
			C58.422,49.328,56.178,53.785,52.183,55.831z"/>
	</g>
</g>
</svg>
