<?xml version="1.0" encoding="utf-8"?>
<!-- Generator: Adobe Illustrator 16.0.0, SVG Export Plug-In . SVG Version: 6.00 Build 0)  -->
<!DOCTYPE svg PUBLIC "-//W3C//DTD SVG 1.1//EN" "http://www.w3.org/Graphics/SVG/1.1/DTD/svg11.dtd">
<svg version="1.1" id="Ebene_1" xmlns="http://www.w3.org/2000/svg" xmlns:xlink="http://www.w3.org/1999/xlink" x="0px" y="0px"
	 width="93.58px" height="93.58px" viewBox="0 0 93.58 93.58" enable-background="new 0 0 93.58 93.58" xml:space="preserve">
<g>
	<circle fill="none" stroke="#FFFFFF" stroke-width="2.8347" stroke-miterlimit="10" cx="46.88" cy="46.85" r="45.374"/>
</g>
<path fill="#FFFFFF" d="M69.379,49.899c0.005,0.455-0.342,0.985-0.795,1.063l-5.431,0.903c-0.271,0.912-0.646,1.799-1.095,2.675
	c1,1.395,2.062,2.685,3.201,4.004c0.143,0.209,0.252,0.424,0.254,0.703c0.006,0.244-0.061,0.49-0.238,0.664
	c-0.688,0.961-4.576,5.283-5.593,5.293c-0.277,0.004-0.523-0.101-0.737-0.232l-4.074-3.121c-0.871,0.471-1.744,0.831-2.688,1.121
	c-0.159,1.791-0.312,3.719-0.745,5.448c-0.137,0.494-0.556,0.846-1.048,0.855l-6.527,0.072c-0.49,0.008-0.986-0.375-1.064-0.861
	l-0.866-5.369c-0.913-0.267-1.795-0.646-2.645-1.058l-4.104,3.166c-0.172,0.179-0.455,0.252-0.705,0.26
	c-0.278,0-0.521-0.105-0.734-0.277c-0.925-0.828-5.108-4.544-5.118-5.561c-0.003-0.242,0.097-0.461,0.239-0.666
	c1.004-1.35,2.039-2.661,3.046-4.036c-0.505-0.943-0.936-1.889-1.262-2.865l-5.34-0.786c-0.494-0.068-0.851-0.514-0.858-1.007
	l-0.073-6.494c-0.002-0.456,0.345-0.983,0.794-1.062l5.437-0.905c0.267-0.916,0.645-1.795,1.093-2.677
	c-1.001-1.394-2.066-2.682-3.204-4c-0.142-0.211-0.253-0.455-0.252-0.705c-0.007-0.244,0.066-0.488,0.239-0.701
	c0.69-0.955,4.572-5.244,5.596-5.256c0.275-0.006,0.523,0.101,0.734,0.238l4.072,3.111c0.872-0.468,1.748-0.827,2.691-1.148
	c0.158-1.76,0.311-3.689,0.745-5.419c0.14-0.493,0.556-0.85,1.049-0.85l6.524-0.072c0.494-0.012,0.983,0.371,1.063,0.862
	l0.866,5.367c0.913,0.267,1.795,0.641,2.64,1.057l4.109-3.17c0.21-0.184,0.456-0.254,0.702-0.252
	c0.277-0.003,0.529,0.102,0.742,0.271c0.918,0.837,5.099,4.579,5.112,5.561c0.001,0.249-0.095,0.458-0.241,0.667
	c-1,1.387-2.037,2.657-3.004,4.038c0.466,0.945,0.895,1.884,1.222,2.865l5.341,0.749c0.495,0.104,0.855,0.551,0.855,1.043
	L69.379,49.899z M46.781,37.859c-4.944,0.056-8.939,4.138-8.884,9.085c0.055,4.955,4.133,8.939,9.083,8.889
	c4.947-0.059,8.941-4.137,8.881-9.085C55.814,41.794,51.731,37.808,46.781,37.859z"/>
</svg>
