<?xml version="1.0" encoding="UTF-8"?>
<svg width="95px" height="95px" viewBox="0 0 95 95" version="1.1" xmlns="http://www.w3.org/2000/svg" xmlns:xlink="http://www.w3.org/1999/xlink">
    <!-- Generator: Sketch 43.2 (39069) - http://www.bohemiancoding.com/sketch -->
    <title>profiles</title>
    <desc>Created with Sketch.</desc>
    <defs></defs>
    <g id="Page-1" stroke="none" stroke-width="1" fill="none" fill-rule="evenodd">
        <g id="profiles" transform="translate(2.000000, 2.000000)">
            <circle id="Oval" stroke="#FEB672" stroke-width="2.8347" cx="45.374" cy="45.374" r="45.374"></circle>
            <g id="Group" transform="translate(25.000000, 12.000000)" fill-rule="nonzero" fill="#FFB373">
                <path d="M42.2259317,55.841175 L35.8433398,49.4414814 C35.5789555,49.176483 35.1502901,49.176483 34.8859961,49.4414814 C34.6216119,49.7066608 34.6216119,50.1363782 34.8859961,50.4014671 L40.1129336,55.6424262 L1.35396518,55.6424262 L1.35396518,51.5697047 L3.38491296,51.5697047 C3.75878788,51.5697047 4.06189555,51.2658796 4.06189555,50.8909178 C4.06189555,50.5159559 3.75878788,50.2121308 3.38491296,50.2121308 L1.35396518,50.2121308 L1.35396518,47.4969832 L3.38491296,47.4969832 C3.75878788,47.4969832 4.06189555,47.1931581 4.06189555,46.8181963 C4.06189555,46.4432344 3.75878788,46.1394093 3.38491296,46.1394093 L1.35396518,46.1394093 L1.35396518,43.4242617 L3.38491296,43.4242617 C3.75878788,43.4242617 4.06189555,43.1204366 4.06189555,42.7454748 C4.06189555,42.3705129 3.75878788,42.0666878 3.38491296,42.0666878 L1.35396518,42.0666878 L1.35396518,39.3515402 L3.38491296,39.3515402 C3.75878788,39.3515402 4.06189555,39.0477151 4.06189555,38.6727533 C4.06189555,38.2977914 3.75878788,37.9939663 3.38491296,37.9939663 L1.35396518,37.9939663 L1.35396518,35.2788187 L3.38491296,35.2788187 C3.75878788,35.2788187 4.06189555,34.9749936 4.06189555,34.6000318 C4.06189555,34.2250699 3.75878788,33.9212448 3.38491296,33.9212448 L1.35396518,33.9212448 L1.35396518,31.2060972 L3.38491296,31.2060972 C3.75878788,31.2060972 4.06189555,30.9022721 4.06189555,30.5273103 C4.06189555,30.1523484 3.75878788,29.8485233 3.38491296,29.8485233 L1.35396518,29.8485233 L1.35396518,27.1333757 L3.38491296,27.1333757 C3.75878788,27.1333757 4.06189555,26.8295507 4.06189555,26.4545888 C4.06189555,26.0796269 3.75878788,25.7758018 3.38491296,25.7758018 L1.35396518,25.7758018 L1.35396518,23.0606542 L3.38491296,23.0606542 C3.75878788,23.0606542 4.06189555,22.7568292 4.06189555,22.3818673 C4.06189555,22.0069054 3.75878788,21.7030803 3.38491296,21.7030803 L1.35396518,21.7030803 L1.35396518,16.7802461 L32.9711283,48.4816767 C33.2355126,48.7466751 33.6641779,48.7466751 33.928472,48.4816767 C34.1928562,48.2164973 34.1928562,47.7867799 33.928472,47.521691 L1.15565442,14.6614354 C0.96212766,14.4673928 0.670844616,14.4092887 0.41792392,14.5143649 C0.164912959,14.6194411 0,14.8669721 0,15.1414735 L0,56.3212131 C0,56.696175 0.303107672,57 0.676982592,57 L41.7472598,57 C42.0211219,57 42.2679046,56.8346475 42.3727015,56.5809622 C42.4774984,56.3273674 42.4195487,56.0353985 42.2259317,55.841175 Z" id="Shape"></path>
                <path d="M14.6698517,40.3711686 C14.934236,40.636167 15.3629014,40.636167 15.6271954,40.3711686 C15.8915796,40.1059892 15.8915796,39.6762718 15.6271954,39.4111829 L8.3767118,32.141375 C8.18309478,31.947242 7.891902,31.8893188 7.6389813,31.9943045 C7.38597034,32.0992903 7.22105738,32.3469117 7.22105738,32.6214131 L7.22105738,49.0808193 C7.22105738,49.4557812 7.52416505,49.7596062 7.89803997,49.7596062 L24.3137847,49.7596062 C24.5876467,49.7596062 24.8344294,49.5942537 24.9392263,49.3405684 C25.0440232,49.0868831 24.9860735,48.7950048 24.7924565,48.6007812 L17.5419729,41.3309733 C17.2775887,41.0659749 16.8489233,41.0659749 16.5846293,41.3309733 C16.320245,41.5961527 16.320245,42.0258701 16.5846293,42.290959 L22.6794584,48.4020324 L8.57511283,48.4020324 L8.57511283,34.2600048 L14.6698517,40.3711686 Z" id="Shape"></path>
                <path d="M35.6574891,-3.09537373 L23.8400198,-3.09537373 C23.2491463,-3.09537373 22.8552691,-2.70044677 22.8552691,-2.10799848 L22.8552691,55.1619644 C22.8552691,55.7544127 23.2491463,56.1493397 23.8400198,56.1493397 L35.6574891,56.1493397 C36.2483626,56.1493397 36.6422398,55.7544127 36.6422398,55.1619644 L36.6422398,-2.10788277 C36.6423552,-2.70033106 36.2483626,-3.09537373 35.6574891,-3.09537373 Z M34.6727385,54.1747049 L24.8248858,54.1747049 L24.8248858,52.1998387 L29.7488699,52.1998387 C30.3397433,52.1998387 30.7336205,51.8049117 30.7336205,51.2124634 C30.7336205,50.6200151 30.3397433,50.2250882 29.7488699,50.2250882 L24.8248858,50.2250882 L24.8248858,47.2628467 L27.7792532,47.2628467 C28.3701266,47.2628467 28.7640038,46.8679198 28.7640038,46.2754715 C28.7640038,45.6830232 28.3701266,45.2880962 27.7792532,45.2880962 L24.8248858,45.2880962 L24.8248858,42.3258548 L29.7488699,42.3258548 C30.3397433,42.3258548 30.7336205,41.9309278 30.7336205,41.3384795 C30.7336205,40.7460312 30.3397433,40.3511043 29.7488699,40.3511043 L24.8248858,40.3511043 L24.8248858,37.3888628 L27.7792532,37.3888628 C28.3701266,37.3888628 28.7640038,36.9939359 28.7640038,36.4014876 C28.7640038,35.8090393 28.3701266,35.4141123 27.7792532,35.4141123 L24.8248858,35.4141123 L24.8248858,32.4518709 L29.7488699,32.4518709 C30.3397433,32.4518709 30.7336205,32.0569439 30.7336205,31.4644956 C30.7336205,30.8720473 30.3397433,30.4771204 29.7488699,30.4771204 L24.8248858,30.4771204 L24.8248858,27.5148789 L27.7792532,27.5148789 C28.3701266,27.5148789 28.7640038,27.119952 28.7640038,26.5275037 C28.7640038,25.9350554 28.3701266,25.5401284 27.7792532,25.5401284 L24.8248858,25.5401284 L24.8248858,22.577887 L29.7488699,22.577887 C30.3397433,22.577887 30.7336205,22.18296 30.7336205,21.5905117 C30.7336205,20.9980634 30.3397433,20.6031365 29.7488699,20.6031365 L24.8248858,20.6031365 L24.8248858,17.640895 L27.7792532,17.640895 C28.3701266,17.640895 28.7640038,17.2459681 28.7640038,16.6535198 C28.7640038,16.0610715 28.3701266,15.6661445 27.7792532,15.6661445 L24.8248858,15.6661445 L24.8248858,12.7039031 L29.7488699,12.7039031 C30.3397433,12.7039031 30.7336205,12.3089761 30.7336205,11.7165278 C30.7336205,11.1240795 30.3397433,10.7291526 29.7488699,10.7291526 L24.8248858,10.7291526 L24.8248858,7.76691112 L27.7792532,7.76691112 C28.3701266,7.76691112 28.7640038,7.37198416 28.7640038,6.77953587 C28.7640038,6.18708758 28.3701266,5.79216062 27.7792532,5.79216062 L24.8248858,5.79216062 L24.8248858,-1.12050752 L34.6727385,-1.12050752 L34.6727385,54.1747049 L34.6727385,54.1747049 Z" id="Shape" transform="translate(29.748754, 26.526983) scale(-1, 1) rotate(45.000000) translate(-29.748754, -26.526983) "></path>
            </g>
        </g>
    </g>
</svg>