<?xml version="1.0" encoding="utf-8"?>
<!-- Generator: Adobe Illustrator 16.0.0, SVG Export Plug-In . SVG Version: 6.00 Build 0)  -->
<!DOCTYPE svg PUBLIC "-//W3C//DTD SVG 1.1//EN" "http://www.w3.org/Graphics/SVG/1.1/DTD/svg11.dtd">
<svg version="1.1" id="Ebene_1" xmlns="http://www.w3.org/2000/svg" xmlns:xlink="http://www.w3.org/1999/xlink" x="0px" y="0px"
	 width="93.58px" height="93.58px" viewBox="0 0 93.58 93.58" enable-background="new 0 0 93.58 93.58" xml:space="preserve">
<g>
	<g>
		<circle fill="none" stroke="#FEB672" stroke-width="2.8347" stroke-miterlimit="10" cx="46.79" cy="46.789" r="45.374"/>
	</g>
	<g>
		<path fill="#FEB672" d="M50.548,32.783l0.233,0.252l0.281-0.193c1.553-1.074,2.965-1.688,3.875-1.688l0.119,0.002
			c0.345,0.002,0.605,0.064,0.864,0.211c0.589,0.295,1.182,1.559,1.176,3.715c0.001,0.371-0.028,0.785-0.061,1.197l-0.027,0.346
			l0.335,0.072c1.184,0.258,2.315,0.572,3.365,0.924l0.465,0.154l0.054-0.484c0.094-0.852,0.141-1.574,0.143-2.213
			c-0.005-3.605-1.123-6.102-3.333-7.424c-0.87-0.504-1.891-0.77-2.988-0.77c0,0,0,0-0.001,0c-2.202,0.059-4.479,0.984-6.962,2.828
			l-0.391,0.289l0.363,0.322C48.873,31.047,49.71,31.875,50.548,32.783z"/>
		<path fill="#FEB672" d="M67.027,42.377c-2.516-2.348-6.648-4.061-11.953-4.957l-0.91-0.152l0.518,0.762
			c0.779,1.148,1.466,2.24,2.104,3.34c0.079,0.139,0.151,0.277,0.225,0.414l0.257,0.473l0.162,0.045
			c1.091,0.291,2.085,0.621,2.953,0.973c1.578,0.639,2.887,1.414,3.686,2.184c0.636,0.623,0.945,1.174,0.95,1.719
			c0.056,0.641-0.853,2.066-3.579,3.359l0.17,0.359l-0.297-0.299l-0.313,0.145l0.103,0.33c0.344,1.096,0.636,2.234,0.868,3.379
			l0.097,0.475l0.569-0.244c0.226-0.094,0.45-0.191,0.661-0.295c3.957-1.924,5.917-4.295,5.993-7.244
			C69.292,44.982,68.062,43.361,67.027,42.377z"/>
		<path fill="#FEB672" d="M32.351,51.52l0.248-0.779l-0.312-0.145c-1.239-0.588-2.223-1.225-2.844-1.848
			c-0.593-0.594-0.881-1.119-0.881-1.611c0-0.508,0.31-1.057,0.951-1.682c0.598-0.6,1.551-1.213,2.759-1.775l0.313-0.145
			l-0.104-0.33c-0.356-1.139-0.652-2.275-0.876-3.377l-0.098-0.475l-0.447,0.191c-1.912,0.834-3.389,1.76-4.514,2.83
			c-1.476,1.41-2.257,3.059-2.257,4.766c0,2.096,1.163,3.682,2.139,4.643c1.14,1.123,2.651,2.088,4.624,2.949l0.446,0.197
			l0.099-0.477c0.154-0.754,0.312-1.42,0.479-2.035l-0.002-0.002C32.156,52.119,32.254,51.822,32.351,51.52z"/>
		<path fill="#FEB672" d="M39.224,52.637l-0.339-0.061L38.67,53.25c-0.098,0.303-0.195,0.602-0.271,0.887
			c-0.191,0.697-0.354,1.424-0.492,2.211l-0.07,0.387l0.388,0.068c2.738,0.494,5.62,0.744,8.565,0.744
			c0.415,0,0.821-0.006,1.223-0.014l0.193-0.004l0.001-0.002c0.452-0.014,0.897-0.039,1.341-0.066l0.584-0.033
			c0.168-0.004,0.335-0.012,0.495-0.021c1.579-0.121,3.172-0.32,4.736-0.602l0.389-0.07l-0.07-0.387
			c-0.188-1.049-0.482-2.203-0.871-3.436l-0.104-0.33l-0.339,0.059c-1.368,0.238-2.732,0.406-4.06,0.502
			c-0.789,0.061-1.592,0.1-2.388,0.117C44.949,53.32,42.015,53.119,39.224,52.637z"/>
		<path fill="#FEB672" d="M45.332,29.584l-0.247-0.178c-2.438-1.68-4.585-2.504-6.587-2.523c-0.838,0-1.645,0.16-2.368,0.477v-0.062
			l-0.598,0.357c-2.204,1.322-3.324,3.82-3.327,7.428c0.01,2.805,0.713,6.174,2.032,9.746l0.321,0.873l0.404-0.836
			c0.629-1.309,1.227-2.453,1.83-3.498c0.08-0.143,0.165-0.277,0.249-0.412l0.283-0.465l-0.042-0.16
			c-0.533-1.988-0.811-3.803-0.806-5.25c-0.001-2.154,0.59-3.418,1.204-3.73c0.234-0.129,0.492-0.191,0.876-0.193
			c0.745,0,2.281,0.477,4.167,1.818c3.167,2.258,6.67,6.406,9.374,11.102c3.106,5.352,5.023,11.145,5,15.125
			c0.013,1.814-0.413,2.945-0.82,3.398c-0.124,0.145-0.239,0.244-0.373,0.32c-0.235,0.133-0.497,0.195-0.841,0.197
			c-0.24,0-0.503-0.031-0.795-0.102c-1.634-0.316-3.937-1.859-6.32-4.227L47.83,58.67l-1.04,0.014c-1.203,0-2.46-0.053-3.954-0.164
			l-0.926-0.07l0.789,0.945c3.535,4.219,7.17,6.9,10.52,7.764l0.116,0.031c0.598,0.135,1.179,0.203,1.729,0.203h0.014
			c1.064,0,2.088-0.264,2.957-0.768c0.565-0.322,1.071-0.748,1.504-1.262c1.227-1.471,1.826-3.49,1.836-6.166
			c-0.016-4.834-2.047-11.123-5.573-17.26C52.744,36.658,49.03,32.279,45.332,29.584z"/>
		<path fill="#FEB672" d="M43.086,61.48l-0.232-0.27l-0.292,0.203c-1.531,1.066-3.02,1.703-4.043,1.703c-0.001,0-0.001,0-0.003,0
			c-0.347-0.002-0.607-0.064-0.836-0.189c-0.248-0.148-0.432-0.35-0.612-0.67l-0.02-0.033c-0.287-0.523-0.477-1.35-0.536-2.328
			l-0.007-0.1c-0.013-0.191-0.027-0.379-0.024-0.594c0-0.09,0.002-0.211,0.003-0.334l0.007-0.174
			c0.064-1.879,0.526-4.152,1.308-6.529l0.06-0.059v-0.1c0.859-2.574,2.111-5.318,3.623-7.934c1.32-2.283,2.777-4.391,4.332-6.26
			l0.222-0.264l-0.232-0.252c-0.812-0.891-1.66-1.709-2.521-2.438l-0.034-0.65l-0.698,0.84c-1.721,2.068-3.324,4.385-4.77,6.887
			c-1.69,2.93-3.035,5.887-3.997,8.781c-0.881,2.646-1.395,5.104-1.533,7.324l-0.028,0.379c-0.009,0.223-0.015,0.559-0.015,0.781
			c0.003,2.09,0.372,3.77,1.131,5.139c0.54,0.977,1.305,1.766,2.204,2.281c0.866,0.506,1.894,0.77,2.974,0.77h0.002h0.003
			c2.162-0.027,4.449-0.957,6.988-2.838l0.4-0.293l-0.38-0.324C44.327,62.922,43.099,61.498,43.086,61.48z"/>
		<path fill="#FEB672" d="M46.79,42.789c-2.397,0-4.35,1.951-4.35,4.348c0,2.4,1.952,4.35,4.35,4.35s4.35-1.949,4.35-4.35
			C51.14,44.74,49.188,42.789,46.79,42.789z"/>
	</g>
</g>
</svg>
