<?xml version="1.0" encoding="UTF-8"?>
<svg width="95px" height="95px" viewBox="0 0 95 95" version="1.1" xmlns="http://www.w3.org/2000/svg" xmlns:xlink="http://www.w3.org/1999/xlink">
    <!-- Generator: Sketch 43.2 (39069) - http://www.bohemiancoding.com/sketch -->
    <title>relationaldb</title>
    <desc>Created with Sketch.</desc>
    <defs></defs>
    <g id="Page-1" stroke="none" stroke-width="1" fill="none" fill-rule="evenodd">
        <g id="relationaldb" transform="translate(2.000000, 2.000000)">
            <circle id="Oval" stroke="#FEB672" stroke-width="2.8347" cx="45.374" cy="45.374" r="45.374"></circle>
            <g id="Relational_database_terms" transform="translate(8.000000, 32.000000)">
                <g id="g3257" transform="translate(0.386912, 0.885010)">
                    <g id="g3230" transform="translate(0.060764, 0.023399)" stroke-linecap="square" stroke-width="2.53857712" stroke="#FEB672">
                        <polyline id="path2416" points="0.318863181 5.90633102 0.318863181 0.201858466 14.7816244 0.201858466"></polyline>
                        <g id="use3188" transform="translate(14.462761, -0.000000)">
                            <polyline id="path2416" points="0.318863181 5.90633102 0.318863181 0.201858466 14.7816244 0.201858466"></polyline>
                        </g>
                        <g id="use3190" transform="translate(28.925522, -0.000000)">
                            <polyline id="path2416" points="0.318863181 5.90633102 0.318863181 0.201858466 14.7816244 0.201858466"></polyline>
                        </g>
                        <g id="use3192" transform="translate(43.388284, -0.000000)">
                            <polyline id="path2416" points="0.318863181 5.90633102 0.318863181 0.201858466 14.7816244 0.201858466"></polyline>
                        </g>
                        <g id="use3194" transform="translate(57.851045, -0.000000)">
                            <polyline id="path2416" points="0.318863181 5.90633102 0.318863181 0.201858466 14.7816244 0.201858466"></polyline>
                        </g>
                        <g id="use3196" transform="translate(0.000001, 5.704472)">
                            <polyline id="path2416" points="0.318863181 5.90633102 0.318863181 0.201858466 14.7816244 0.201858466"></polyline>
                        </g>
                        <g id="use3198" transform="translate(14.462761, 5.704472)">
                            <polyline id="path2416" points="0.318863181 5.90633102 0.318863181 0.201858466 14.7816244 0.201858466"></polyline>
                        </g>
                        <g id="use3200" transform="translate(28.925522, 5.704472)">
                            <polyline id="path2416" points="0.318863181 5.90633102 0.318863181 0.201858466 14.7816244 0.201858466"></polyline>
                        </g>
                        <g id="use3202" transform="translate(43.388284, 5.704472)">
                            <polyline id="path2416" points="0.318863181 5.90633102 0.318863181 0.201858466 14.7816244 0.201858466"></polyline>
                        </g>
                        <g id="use3204" transform="translate(57.851045, 5.704472)">
                            <polyline id="path2416" points="0.318863181 5.90633102 0.318863181 0.201858466 14.7816244 0.201858466"></polyline>
                        </g>
                        <g id="use3206" transform="translate(0.000001, 11.408945)">
                            <polyline id="path2416" points="0.318863181 5.90633102 0.318863181 0.201858466 14.7816244 0.201858466"></polyline>
                        </g>
                        <g id="use3208" transform="translate(14.462761, 11.408945)">
                            <polyline id="path2416" points="0.318863181 5.90633102 0.318863181 0.201858466 14.7816244 0.201858466"></polyline>
                        </g>
                        <g id="use3210" transform="translate(28.925522, 11.408945)">
                            <polyline id="path2416" points="0.318863181 5.90633102 0.318863181 0.201858466 14.7816244 0.201858466"></polyline>
                        </g>
                        <g id="use3212" transform="translate(43.388284, 11.408945)">
                            <polyline id="path2416" points="0.318863181 5.90633102 0.318863181 0.201858466 14.7816244 0.201858466"></polyline>
                        </g>
                        <g id="use3214" transform="translate(57.851045, 11.408945)">
                            <polyline id="path2416" points="0.318863181 5.90633102 0.318863181 0.201858466 14.7816244 0.201858466"></polyline>
                        </g>
                        <g id="use3216" transform="translate(0.000001, 17.113418)">
                            <polyline id="path2416" points="0.318863181 5.90633102 0.318863181 0.201858466 14.7816244 0.201858466"></polyline>
                        </g>
                        <g id="use3218" transform="translate(14.462761, 17.113418)">
                            <polyline id="path2416" points="0.318863181 5.90633102 0.318863181 0.201858466 14.7816244 0.201858466"></polyline>
                        </g>
                        <g id="use3220" transform="translate(28.925522, 17.113418)">
                            <polyline id="path2416" points="0.318863181 5.90633102 0.318863181 0.201858466 14.7816244 0.201858466"></polyline>
                        </g>
                        <g id="use3222" transform="translate(43.388284, 17.113418)">
                            <polyline id="path2416" points="0.318863181 5.90633102 0.318863181 0.201858466 14.7816244 0.201858466"></polyline>
                        </g>
                        <g id="use3224" transform="translate(57.851045, 17.113418)">
                            <polyline id="path2416" points="0.318863181 5.90633102 0.318863181 0.201858466 14.7816244 0.201858466"></polyline>
                        </g>
                        <polyline id="path3228" points="72.6326694 0.201858466 72.6326694 23.0197487 0.318863181 23.0197487"></polyline>
                    </g>
                    <rect id="rect3253" fill-opacity="0.5" fill="#FEB672" fill-rule="nonzero" x="0.371697036" y="11.6546589" width="72.3090431" height="5.67482028"></rect>
                    <rect id="rect3255" fill-opacity="0.5" fill="#FEB672" fill-rule="nonzero" x="14.8312899" y="0.218345915" width="14.4699039" height="22.8238384"></rect>
                </g>
            </g>
        </g>
    </g>
</svg>