<?xml version="1.0" encoding="utf-8"?>
<!-- Generator: Adobe Illustrator 16.0.0, SVG Export Plug-In . SVG Version: 6.00 Build 0)  -->
<!DOCTYPE svg PUBLIC "-//W3C//DTD SVG 1.1//EN" "http://www.w3.org/Graphics/SVG/1.1/DTD/svg11.dtd">
<svg version="1.1" id="Ebene_1" xmlns="http://www.w3.org/2000/svg" xmlns:xlink="http://www.w3.org/1999/xlink" x="0px" y="0px"
	 width="93.58px" height="93.58px" viewBox="0 0 93.58 93.58" enable-background="new 0 0 93.58 93.58" xml:space="preserve">
<g>
	<g>
		<circle fill="none" stroke="#FEB672" stroke-width="2.8347" stroke-miterlimit="10" cx="46.79" cy="46.789" r="45.374"/>
	</g>
	<g>
		<path fill="#FEB672" d="M33.699,48.771l-1.227-0.002v8.578h-3.698V36.605h5.608c1.569,0,2.931,0.562,4.048,1.672
			c1.12,1.107,1.688,2.592,1.688,4.408c0,1.375-0.358,2.59-1.064,3.609c-0.458,0.664-1.011,1.197-1.65,1.596l5.064,7.918
			l-0.84,1.539l-2.537,0.008L33.699,48.771z M34.207,45.064c0.636,0,1.132-0.197,1.562-0.621c0.423-0.416,0.628-0.99,0.628-1.758
			c0-0.742-0.212-1.311-0.648-1.736c-0.442-0.43-0.98-0.641-1.645-0.641h-1.632v4.756H34.207z"/>
		<path fill="#FEB672" d="M39.644,56.354l-5.392-8.582l-2.779-0.002v8.578h-1.698V37.605h4.608c1.3,0,2.415,0.459,3.344,1.381
			c0.928,0.918,1.393,2.154,1.393,3.699c0,1.176-0.298,2.189-0.887,3.039c-0.59,0.855-1.352,1.438-2.28,1.752l5.674,8.871
			L39.644,56.354z M34.104,39.309h-2.632v6.756h2.734c0.894,0,1.648-0.303,2.265-0.91c0.616-0.605,0.926-1.43,0.926-2.469
			c0-1.018-0.317-1.834-0.949-2.451C35.813,39.617,35.032,39.309,34.104,39.309z"/>
		<rect x="43.941" y="36.605" fill="#FEB672" width="3.699" height="20.742"/>
		<path fill="#FEB672" d="M44.941,56.348V37.605h1.699v18.742H44.941z"/>
		<path fill="#FEB672" d="M49.465,57.338l7.38-21.115h1.952l7.387,21.125h-3.838l-1.865-5.26h-5.414l-1.789,5.275L49.465,57.338z
			 M59.211,48.473l-1.417-4.287l-1.437,4.287H59.211z"/>
		<path fill="#FEB672" d="M63.052,56.348l-1.865-5.26H54.35l-1.787,5.27l-1.692-0.01l6.685-19.125h0.532l6.688,19.125H63.052z
			 M58.692,43.717c-0.303-0.842-0.59-1.803-0.857-2.881c-0.151,0.508-0.283,0.936-0.392,1.279c-0.11,0.342-0.293,0.875-0.546,1.6
			l-1.93,5.758h5.627L58.692,43.717z"/>
	</g>
</g>
</svg>
