<?xml version="1.0" encoding="utf-8"?>
<!-- Generator: Adobe Illustrator 16.0.0, SVG Export Plug-In . SVG Version: 6.00 Build 0)  -->
<!DOCTYPE svg PUBLIC "-//W3C//DTD SVG 1.1//EN" "http://www.w3.org/Graphics/SVG/1.1/DTD/svg11.dtd">
<svg version="1.1" id="Layer_1" xmlns="http://www.w3.org/2000/svg" xmlns:xlink="http://www.w3.org/1999/xlink" x="0px" y="0px"
	 width="24px" height="24px" viewBox="0 0 24 24" enable-background="new 0 0 24 24" xml:space="preserve">
<path d="M16.173,13.669c0.458,0,0.843,0.223,1.177,0.678c0.332,0.451,0.501,1.008,0.501,1.667c0,0.661-0.167,1.218-0.501,1.669
	c-0.334,0.45-0.724,0.678-1.177,0.678c-0.481,0-0.896-0.226-1.229-0.678c-0.327-0.451-0.496-1.008-0.496-1.669
	s0.163-1.216,0.496-1.667C15.276,13.892,15.693,13.669,16.173,13.669z M22.067,7.563C23.352,8.956,24,10.645,24,12.624
	c0,1.285-0.152,2.442-0.444,3.471c-0.296,1.022-0.672,1.861-1.118,2.501c-0.457,0.647-1.008,1.215-1.672,1.694
	c-0.664,0.492-1.276,0.843-1.828,1.07c-0.553,0.225-1.188,0.4-1.907,0.523c-0.71,0.125-1.247,0.191-1.621,0.211
	c-0.358,0.017-0.748,0.022-1.17,0.022c-0.095,0-0.412,0.013-0.939,0.027c-0.515,0.021-0.957,0.031-1.301,0.031
	c-0.345,0-0.786-0.013-1.302-0.031c-0.522-0.017-0.843-0.027-0.938-0.027c-0.422,0-0.815-0.004-1.173-0.022
	c-0.373-0.017-0.909-0.086-1.616-0.211c-0.722-0.121-1.354-0.292-1.909-0.523c-0.553-0.226-1.163-0.578-1.824-1.07
	c-0.666-0.486-1.219-1.05-1.674-1.694c-0.448-0.64-0.825-1.479-1.12-2.501C0.152,15.066,0,13.909,0,12.624
	c0-1.979,0.646-3.668,1.934-5.062c-0.142-0.068-0.15-0.761-0.022-2.083c0.114-1.323,0.395-2.543,0.851-3.655
	c1.606,0.171,3.581,1.078,5.946,2.712c0.799-0.206,1.894-0.315,3.288-0.315c1.463,0,2.557,0.109,3.288,0.315
	c1.078-0.726,2.109-1.322,3.094-1.775c0.999-0.448,1.718-0.713,2.171-0.78l0.677-0.156c0.459,1.112,0.739,2.334,0.855,3.655
	c0.131,1.32,0.125,2.015-0.017,2.083H22.067z M12.057,20.97c2.887,0,5.063-0.346,6.542-1.041c1.474-0.694,2.224-2.123,2.224-4.28
	c0-1.249-0.471-2.297-1.411-3.131c-0.486-0.453-1.053-0.729-1.705-0.835c-0.635-0.104-1.616-0.104-2.942,0
	c-1.319,0.106-2.224,0.154-2.709,0.154c-0.661,0-1.379-0.033-2.271-0.104c-0.891-0.065-1.588-0.108-2.087-0.13
	c-0.51-0.017-1.053,0.048-1.642,0.184c-0.596,0.142-1.077,0.382-1.467,0.729c-0.896,0.801-1.353,1.842-1.353,3.131
	c0,2.155,0.731,3.586,2.189,4.278c1.458,0.697,3.629,1.041,6.517,1.041L12.057,20.97z M7.881,13.669
	c0.453,0,0.843,0.223,1.174,0.678c0.33,0.451,0.498,1.008,0.498,1.667c0,0.661-0.165,1.218-0.498,1.669
	c-0.331,0.45-0.723,0.678-1.174,0.678c-0.485,0-0.897-0.226-1.23-0.678c-0.33-0.451-0.499-1.008-0.499-1.669
	s0.165-1.216,0.499-1.667C6.983,13.892,7.397,13.669,7.881,13.669z"/>
</svg>
