<?xml version="1.0" encoding="UTF-8"?>
<svg width="52px" height="23px" viewBox="0 0 52 23" version="1.1" xmlns="http://www.w3.org/2000/svg" xmlns:xlink="http://www.w3.org/1999/xlink">
    <!-- Generator: Sketch 43.2 (39069) - http://www.bohemiancoding.com/sketch -->
    <title>small_githubstar</title>
    <desc>Created with Sketch.</desc>
    <defs></defs>
    <g id="Page-1" stroke="none" stroke-width="1" fill="none" fill-rule="evenodd">
        <g id="small_githubstar" transform="translate(0.000000, -2.000000)" fill-rule="nonzero" fill="#000000">
            <path d="M16.173,15.669 C16.631,15.669 17.016,15.892 17.35,16.347 C17.682,16.798 17.851,17.355 17.851,18.014 C17.851,18.675 17.684,19.232 17.35,19.683 C17.016,20.133 16.626,20.361 16.173,20.361 C15.692,20.361 15.277,20.135 14.944,19.683 C14.617,19.232 14.448,18.675 14.448,18.014 C14.448,17.353 14.611,16.798 14.944,16.347 C15.276,15.892 15.693,15.669 16.173,15.669 Z M22.067,9.563 C23.352,10.956 24,12.645 24,14.624 C24,15.909 23.848,17.066 23.556,18.095 C23.26,19.117 22.884,19.956 22.438,20.596 C21.981,21.243 21.43,21.811 20.766,22.29 C20.102,22.782 19.49,23.133 18.938,23.36 C18.385,23.585 17.75,23.76 17.031,23.883 C16.321,24.008 15.784,24.074 15.41,24.094 C15.052,24.111 14.662,24.116 14.24,24.116 C14.145,24.116 13.828,24.129 13.301,24.143 C12.786,24.164 12.344,24.174 12,24.174 C11.655,24.174 11.214,24.161 10.698,24.143 C10.176,24.126 9.855,24.116 9.76,24.116 C9.338,24.116 8.945,24.112 8.587,24.094 C8.214,24.077 7.678,24.008 6.971,23.883 C6.249,23.762 5.617,23.591 5.062,23.36 C4.509,23.134 3.899,22.782 3.238,22.29 C2.572,21.804 2.019,21.24 1.564,20.596 C1.116,19.956 0.739,19.117 0.444,18.095 C0.152,17.066 0,15.909 0,14.624 C0,12.645 0.646,10.956 1.934,9.562 C1.792,9.494 1.784,8.801 1.912,7.479 C2.026,6.156 2.307,4.936 2.763,3.824 C4.369,3.995 6.344,4.902 8.709,6.536 C9.508,6.33 10.603,6.221 11.997,6.221 C13.46,6.221 14.554,6.33 15.285,6.536 C16.363,5.81 17.394,5.214 18.379,4.761 C19.378,4.313 20.097,4.048 20.55,3.981 L21.227,3.825 C21.686,4.937 21.966,6.159 22.082,7.48 C22.213,8.8 22.207,9.495 22.065,9.563 L22.067,9.563 L22.067,9.563 Z M12.057,22.97 C14.944,22.97 17.12,22.624 18.599,21.929 C20.073,21.235 20.823,19.806 20.823,17.649 C20.823,16.4 20.352,15.352 19.412,14.518 C18.926,14.065 18.359,13.789 17.707,13.683 C17.072,13.579 16.091,13.579 14.765,13.683 C13.446,13.789 12.541,13.837 12.056,13.837 C11.395,13.837 10.677,13.804 9.785,13.733 C8.894,13.668 8.197,13.625 7.698,13.603 C7.188,13.586 6.645,13.651 6.056,13.787 C5.46,13.929 4.979,14.169 4.589,14.516 C3.693,15.317 3.236,16.358 3.236,17.647 C3.236,19.802 3.967,21.233 5.425,21.925 C6.883,22.622 9.054,22.966 11.942,22.966 L12.057,22.97 Z M7.881,15.669 C8.334,15.669 8.724,15.892 9.055,16.347 C9.385,16.798 9.553,17.355 9.553,18.014 C9.553,18.675 9.388,19.232 9.055,19.683 C8.724,20.133 8.332,20.361 7.881,20.361 C7.396,20.361 6.984,20.135 6.651,19.683 C6.321,19.232 6.152,18.675 6.152,18.014 C6.152,17.353 6.317,16.798 6.651,16.347 C6.983,15.892 7.397,15.669 7.881,15.669 Z" id="Shape"></path>
            <path d="M51.9923816,16.9728532 C51.9923816,16.7858792 51.8769499,16.5819075 51.6460866,16.3609382 L46.8112761,11.8480657 L47.9567133,5.47395201 C47.9655926,5.41446028 47.9700323,5.3294721 47.9700323,5.21898746 C47.9700323,5.04051227 47.9234157,4.88965825 47.8301824,4.76642538 C47.7369492,4.64319252 47.601539,4.58157608 47.4239518,4.58157608 C47.255244,4.58157608 47.0776568,4.63256899 46.8911903,4.73455481 L40.9109426,7.74313649 L34.9306949,4.73455481 C34.735349,4.63256899 34.5577618,4.58157608 34.3979334,4.58157608 C34.2114669,4.58157608 34.071617,4.64319252 33.9783837,4.76642538 C33.8851505,4.88965825 33.8385338,5.04051227 33.8385338,5.21898746 C33.8385338,5.26998037 33.8474132,5.35496855 33.8651719,5.47395201 L35.0106091,11.8480657 L30.1624795,16.3609382 C29.9404956,16.5904063 29.8295036,16.794378 29.8295036,16.9728532 C29.8295036,17.2873094 30.0781256,17.4827823 30.5753697,17.5592716 L37.2615264,18.4898922 L40.2583098,24.2903357 C40.4270176,24.6387873 40.6445618,24.813013 40.9109426,24.813013 C41.1773233,24.813013 41.3948676,24.6387873 41.5635754,24.2903357 L44.5603588,18.4898922 L51.2465155,17.5592716 C51.7437595,17.4827823 51.9923816,17.2873094 51.9923816,16.9728532 Z" id="path6" transform="translate(40.910943, 14.697295) rotate(-36.000000) translate(-40.910943, -14.697295) "></path>
        </g>
    </g>
</svg>