<?xml version="1.0" encoding="UTF-8"?>
<svg width="748px" height="800px" viewBox="0 0 748 800" version="1.1" xmlns="http://www.w3.org/2000/svg" xmlns:xlink="http://www.w3.org/1999/xlink">
    <!-- Generator: Sketch 43.2 (39069) - http://www.bohemiancoding.com/sketch -->
    <title>source</title>
    <desc>Created with Sketch.</desc>
    <defs></defs>
    <g id="Page-1" stroke="none" stroke-width="1" fill="none" fill-rule="evenodd">
        <g id="source" fill-rule="nonzero" fill="#000000">
            <path d="M17.52564,475.013088 C7.01624,457.839087 0,423.546013 0,393.500666 C0,363.473629 5.25844,335.607073 18.4008,320.593554 L17.52564,320.593554 C79.7368,230.512441 166.48984,110.404282 224.3252,26.7496872 L224.3252,226.228096 C201.54112,258.397306 170.87312,294.869171 93.7618,395.679457 L94.63696,397.803321 C135.82184,442.862187 183.14032,511.484953 224.3252,571.539028 L224.3252,773.1596 L17.52564,475.013088 Z" id="Shape"></path>
            <path d="M730.47436,324.8779 C740.97628,342.0519 748,376.363284 748,406.390321 C748,436.417359 742.74156,464.283915 729.59172,479.297433 L730.47436,479.297433 C668.2632,569.378546 581.50268,689.486697 523.6748,773.141291 L523.6748,573.662892 C546.45888,541.511991 577.12688,505.040125 654.2382,404.229839 L653.36304,402.105976 C612.18564,357.04711 564.85968,288.424344 523.6748,228.370268 L523.6748,26.7496872 L730.47436,324.8779 Z" id="Shape"></path>
            <polygon id="Shape" points="347.07948 799.890987 294.6372 799.890987 400.0304 -8.32388555e-06 453.3628 -8.32388555e-06"></polygon>
        </g>
    </g>
</svg>