<?xml version="1.0" encoding="UTF-8"?>
<svg width="94px" height="94px" viewBox="0 0 94 94" version="1.1" xmlns="http://www.w3.org/2000/svg" xmlns:xlink="http://www.w3.org/1999/xlink">
    <!-- Generator: Sketch 47.1 (45422) - http://www.bohemiancoding.com/sketch -->
    <title>springboot</title>
    <desc>Created with Sketch.</desc>
    <defs></defs>
    <g id="Page-1" stroke="none" stroke-width="1" fill="none" fill-rule="evenodd">
        <g id="springboot" transform="translate(1.000000, 1.000000)">
            <circle id="Oval" stroke="#FFFFFF" stroke-width="2.8347" cx="45.848" cy="46.075" r="45.374"></circle>
            <g id="Group" transform="translate(23.000000, 26.000000)">
                <path d="M22.884,0.798 C25.631,0.798 28.375,0.837 31.12,0.785 C33.339,0.744 34.868,1.741 35.947,3.619 C37.819,6.874 39.729,10.107 41.617,13.354 C42.518,14.908 43.49,16.431 44.276,18.043 C45.193,19.924 44.971,21.789 43.865,23.587 C42.675,25.523 41.565,27.507 40.424,29.473 C39.32,31.369 38.221,33.265 37.122,35.163 C36.637,36 36.187,36.86 35.666,37.675 C34.736,39.128 33.424,40.025 31.662,40.032 C25.767,40.057 19.874,40.063 13.98,40.029 C12.274,40.018 10.942,39.156 10.076,37.719 C8.331,34.825 6.654,31.891 4.957,28.969 C3.766,26.92 2.503,24.906 1.433,22.793 C0.488,20.929 0.734,19.05 1.841,17.251 C3.032,15.317 4.141,13.331 5.282,11.366 C6.384,9.47 7.484,7.574 8.583,5.676 C9.069,4.838 9.517,3.978 10.039,3.164 C10.969,1.712 12.282,0.825 14.044,0.805 C16.99,0.773 19.938,0.798 22.884,0.798 Z M34.878,19.653 C34.664,18.508 34.539,17.338 34.219,16.223 C33.48,13.642 32,11.549 29.797,9.99 C29.309,9.645 28.54,9.663 28.124,10.004 C27.49,10.525 27.259,11.158 27.599,11.79 C27.799,12.163 28.184,12.437 28.475,12.765 C29.12,13.487 29.848,14.152 30.379,14.95 C31.397,16.476 31.772,18.2 31.706,20.044 C31.632,22.132 30.924,23.97 29.555,25.509 C27.297,28.045 24.434,28.989 21.099,28.411 C18.213,27.909 16.093,26.28 14.76,23.708 C13.805,21.866 13.557,19.891 13.997,17.823 C14.465,15.623 15.58,13.869 17.357,12.522 C17.999,12.037 18.215,11.053 17.785,10.453 C17.224,9.672 16.266,9.495 15.55,10.124 C14.802,10.781 14.064,11.469 13.434,12.236 C11.038,15.146 10.246,18.516 11.033,22.161 C11.818,25.804 13.988,28.519 17.274,30.273 C19.555,31.49 22.013,31.845 24.577,31.453 C27.616,30.99 30.083,29.55 32.031,27.182 C33.824,24.998 34.76,22.517 34.878,19.653 Z M24.428,14.285 C24.428,12.509 24.433,10.733 24.422,8.957 C24.422,8.745 24.396,8.511 24.305,8.326 C23.975,7.659 23.095,7.208 22.468,7.351 C21.628,7.541 21.041,8.233 21.038,9.089 C21.032,12.601 21.032,16.112 21.038,19.623 C21.04,20.525 21.904,21.382 22.784,21.388 C23.659,21.396 24.427,20.569 24.428,19.613 C24.43,17.837 24.428,16.062 24.428,14.285 Z" id="Shape" fill="#FFFFFF"></path>
                <path d="M34.491,19.653 C34.373,22.517 33.437,24.998 31.643,27.18 C29.695,29.548 27.228,30.989 24.189,31.451 C21.625,31.844 19.167,31.488 16.886,30.271 C13.6,28.517 11.431,25.801 10.645,22.159 C9.859,18.514 10.651,15.144 13.046,12.234 C13.676,11.467 14.414,10.779 15.162,10.122 C15.879,9.493 16.836,9.67 17.397,10.451 C17.828,11.051 17.61,12.035 16.969,12.52 C15.192,13.868 14.076,15.622 13.608,17.821 C13.168,19.889 13.417,21.864 14.372,23.706 C15.705,26.278 17.825,27.907 20.711,28.409 C24.046,28.987 26.909,28.043 29.167,25.507 C30.536,23.968 31.244,22.13 31.318,20.042 C31.383,18.199 31.008,16.475 29.991,14.948 C29.46,14.151 28.732,13.485 28.087,12.763 C27.796,12.435 27.411,12.161 27.211,11.788 C26.871,11.157 27.103,10.523 27.737,10.002 C28.152,9.661 28.921,9.643 29.409,9.988 C31.612,11.548 33.092,13.641 33.831,16.221 C34.152,17.338 34.277,18.508 34.491,19.653 Z" id="Shape" fill-opacity="0" fill="#FEB672"></path>
                <path d="M24.041,14.285 C24.041,16.061 24.043,17.837 24.041,19.614 C24.041,20.57 23.273,21.397 22.397,21.389 C21.518,21.383 20.654,20.526 20.651,19.624 C20.645,16.113 20.645,12.602 20.651,9.09 C20.654,8.234 21.241,7.542 22.081,7.352 C22.708,7.208 23.588,7.659 23.918,8.327 C24.009,8.513 24.035,8.746 24.036,8.958 C24.046,10.733 24.041,12.509 24.041,14.285 Z" id="Shape" fill-opacity="0" fill="#FEB672"></path>
            </g>
        </g>
    </g>
</svg>