<?xml version="1.0" encoding="utf-8"?>
<!-- Generator: Adobe Illustrator 16.0.0, SVG Export Plug-In . SVG Version: 6.00 Build 0)  -->
<!DOCTYPE svg PUBLIC "-//W3C//DTD SVG 1.1//EN" "http://www.w3.org/Graphics/SVG/1.1/DTD/svg11.dtd">
<svg version="1.1" id="Ebene_1" xmlns="http://www.w3.org/2000/svg" xmlns:xlink="http://www.w3.org/1999/xlink" x="0px" y="0px"
	 width="35px" height="24px" viewBox="0 0 35 24" enable-background="new 0 0 35 24" xml:space="preserve">
<g>
	<path fill="#FEB672" d="M27.694,12.655c0-0.157-0.027-0.316-0.048-0.541c-10.658,6.702-19.104,0.434-20.214,0.021
		c-0.046,0.09-0.078,0.127-0.078,0.161c-0.006,2.492-0.016,4.984-0.004,7.477c0.004,0.61,0.336,1.032,0.881,1.25
		c0.531,0.212,1.071,0.407,1.614,0.587c2.853,0.949,5.751,1.555,8.775,1.351c2.794-0.189,5.457-0.953,8.076-1.911
		c0.732-0.268,0.996-0.697,0.997-1.549C27.699,17.219,27.698,14.938,27.694,12.655z"/>
	<path fill="#FEB672" d="M1.521,6.432c4.427-1.66,8.848-3.332,13.288-4.95c1.762-0.644,3.583-0.642,5.347,0.002
		c4.438,1.62,8.862,3.289,13.288,4.948c0.283,0.105,0.571,0.239,0.814,0.424c0.468,0.357,0.475,0.792-0.004,1.133
		c-0.312,0.223-0.678,0.392-1.043,0.506c-0.415,0.131-0.597,0.338-0.562,0.808c0.043,0.566,0.011,1.141,0.011,1.711
		c0,0.933,0,1.866,0,2.845c0.549,0.164,0.951,0.688,0.951,1.307c0,0.445-0.208,0.838-0.526,1.088
		c0.237,0.531,0.469,1.063,0.711,1.59c0.185,0.403,0.099,0.674-0.318,0.844c-0.793,0.323-1.576,0.33-2.367-0.003
		c-0.377-0.159-0.493-0.407-0.317-0.795c0.244-0.54,0.484-1.081,0.726-1.618c-0.333-0.248-0.55-0.649-0.55-1.105
		c0-0.631,0.417-1.162,0.984-1.316c-0.006,0-0.012,0-0.016,0c0-1.619,0-3.192,0-4.856c-0.182,0.067-0.361,0.134-0.542,0.2l0,0
		l-13.185,5.113c0,0-0.598,0.268-1.293,0L2.418,8.76h0.005C2.121,8.645,1.817,8.532,1.516,8.418C1.028,8.234,0.386,8.08,0.389,7.422
		C0.394,6.767,1.03,6.614,1.521,6.432z"/>
</g>
</svg>
