<?xml version="1.0" encoding="utf-8"?>
<!-- Generator: Adobe Illustrator 16.0.0, SVG Export Plug-In . SVG Version: 6.00 Build 0)  -->
<!DOCTYPE svg PUBLIC "-//W3C//DTD SVG 1.1//EN" "http://www.w3.org/Graphics/SVG/1.1/DTD/svg11.dtd">
<svg version="1.1" id="Ebene_1" xmlns="http://www.w3.org/2000/svg" xmlns:xlink="http://www.w3.org/1999/xlink" x="0px" y="0px"
	 width="45px" height="45px" viewBox="0 0 45 45" enable-background="new 0 0 45 45" xml:space="preserve">
<path fill="#8C8C8C" d="M22.498,0C10.076,0,0,10.073,0,22.499C0,34.923,10.076,45,22.498,45C34.927,45,45,34.923,45,22.499
	C45,10.073,34.927,0,22.498,0z M32.397,18.315c0.009,0.209,0.017,0.418,0.017,0.631c0,6.511-4.957,14.014-14.013,14.014
	c-2.782,0-5.366-0.814-7.55-2.213c0.389,0.047,0.777,0.072,1.178,0.072c2.308,0,4.426-0.793,6.11-2.111
	c-2.152-0.041-3.971-1.465-4.596-3.42c0.298,0.058,0.607,0.09,0.927,0.09c0.445,0,0.885-0.061,1.294-0.174
	c-2.251-0.452-3.95-2.443-3.95-4.83c0-0.02,0-0.038,0-0.06c0.67,0.366,1.425,0.589,2.234,0.614c-1.32-0.882-2.193-2.389-2.193-4.098
	c0-0.903,0.244-1.748,0.668-2.477c2.429,2.981,6.055,4.941,10.147,5.148c-0.083-0.363-0.129-0.74-0.129-1.127
	c0-2.716,2.21-4.92,4.93-4.92c1.413,0,2.694,0.598,3.591,1.557c1.124-0.225,2.179-0.635,3.127-1.201
	c-0.366,1.154-1.147,2.116-2.163,2.725c0.992-0.113,1.94-0.381,2.827-0.771C34.193,16.751,33.357,17.62,32.397,18.315z"/>
</svg>
