<?xml version="1.0" encoding="utf-8"?>
<!-- Generator: Adobe Illustrator 16.0.0, SVG Export Plug-In . SVG Version: 6.00 Build 0)  -->
<!DOCTYPE svg PUBLIC "-//W3C//DTD SVG 1.1//EN" "http://www.w3.org/Graphics/SVG/1.1/DTD/svg11.dtd">
<svg version="1.1" id="Ebene_1" xmlns="http://www.w3.org/2000/svg" xmlns:xlink="http://www.w3.org/1999/xlink" x="0px" y="0px"
	 width="93.58px" height="93.58px" viewBox="0 0 93.58 93.58" enable-background="new 0 0 93.58 93.58" xml:space="preserve">
<circle fill="none" stroke="#FFFFFF" stroke-width="2.8347" stroke-miterlimit="10" cx="46.848" cy="47.075" r="45.374"/>
<g>
	<path fill-rule="evenodd" clip-rule="evenodd" fill="#FFFFFF" d="M46.884,27.798c2.747,0,5.491,0.039,8.236-0.013
		c2.219-0.041,3.748,0.956,4.827,2.834c1.872,3.255,3.782,6.488,5.67,9.735c0.901,1.554,1.873,3.077,2.659,4.689
		c0.917,1.881,0.695,3.746-0.411,5.544c-1.19,1.936-2.3,3.92-3.441,5.886c-1.104,1.896-2.203,3.792-3.302,5.69
		c-0.485,0.837-0.935,1.697-1.456,2.512c-0.93,1.453-2.242,2.35-4.004,2.357c-5.895,0.025-11.788,0.031-17.682-0.003
		c-1.706-0.011-3.038-0.873-3.904-2.31c-1.745-2.894-3.422-5.828-5.119-8.75c-1.191-2.049-2.454-4.063-3.524-6.176
		c-0.945-1.864-0.699-3.743,0.408-5.542c1.191-1.934,2.3-3.92,3.441-5.885c1.102-1.896,2.202-3.792,3.301-5.69
		c0.486-0.838,0.934-1.698,1.456-2.512c0.93-1.452,2.243-2.339,4.005-2.359C40.99,27.773,43.938,27.798,46.884,27.798z
		 M58.878,46.653c-0.214-1.145-0.339-2.315-0.659-3.43c-0.739-2.581-2.219-4.674-4.422-6.233c-0.488-0.345-1.257-0.327-1.673,0.014
		c-0.634,0.521-0.865,1.154-0.525,1.786c0.2,0.373,0.585,0.647,0.876,0.975c0.645,0.722,1.373,1.387,1.904,2.185
		c1.018,1.526,1.393,3.25,1.327,5.094c-0.074,2.088-0.782,3.926-2.151,5.465c-2.258,2.536-5.121,3.48-8.456,2.902
		c-2.886-0.502-5.006-2.131-6.339-4.703c-0.955-1.842-1.203-3.817-0.763-5.885c0.468-2.2,1.583-3.954,3.36-5.301
		c0.642-0.485,0.858-1.469,0.428-2.069c-0.561-0.781-1.519-0.958-2.235-0.329c-0.748,0.657-1.486,1.345-2.116,2.112
		c-2.396,2.91-3.188,6.28-2.401,9.925c0.785,3.643,2.955,6.358,6.241,8.112c2.281,1.217,4.739,1.572,7.303,1.18
		c3.039-0.463,5.506-1.903,7.454-4.271C57.824,51.998,58.76,49.517,58.878,46.653z M48.428,41.285c0-1.776,0.005-3.552-0.006-5.328
		c0-0.212-0.026-0.446-0.117-0.631c-0.33-0.667-1.21-1.118-1.837-0.975c-0.84,0.19-1.427,0.882-1.43,1.738
		c-0.006,3.512-0.006,7.023,0,10.534c0.002,0.902,0.866,1.759,1.746,1.765c0.875,0.008,1.643-0.819,1.644-1.775
		C48.43,44.837,48.428,43.062,48.428,41.285z"/>
	<path fill-rule="evenodd" clip-rule="evenodd" fill="#FEB672" d="M58.491,46.653c-0.118,2.864-1.054,5.345-2.848,7.527
		c-1.948,2.368-4.415,3.809-7.454,4.271c-2.564,0.393-5.022,0.037-7.303-1.18c-3.286-1.754-5.455-4.47-6.241-8.112
		c-0.786-3.645,0.006-7.015,2.401-9.925c0.63-0.767,1.368-1.455,2.116-2.112c0.717-0.629,1.674-0.452,2.235,0.329
		c0.431,0.6,0.213,1.584-0.428,2.069c-1.777,1.348-2.893,3.102-3.361,5.301c-0.44,2.068-0.191,4.043,0.764,5.885
		c1.333,2.572,3.453,4.201,6.339,4.703c3.335,0.578,6.198-0.366,8.456-2.902c1.369-1.539,2.077-3.377,2.151-5.465
		c0.065-1.843-0.31-3.567-1.327-5.094c-0.531-0.797-1.259-1.463-1.904-2.185c-0.291-0.328-0.676-0.602-0.876-0.975
		c-0.34-0.631-0.108-1.265,0.526-1.786c0.415-0.341,1.184-0.359,1.672-0.014c2.203,1.56,3.683,3.653,4.422,6.233
		C58.152,44.338,58.277,45.508,58.491,46.653z"/>
	<path fill-rule="evenodd" clip-rule="evenodd" fill="#FEB672" d="M48.041,41.285c0,1.776,0.002,3.552,0,5.329
		c0,0.956-0.768,1.783-1.644,1.775c-0.879-0.006-1.743-0.863-1.746-1.765c-0.006-3.511-0.006-7.022,0-10.534
		c0.003-0.856,0.59-1.548,1.43-1.738c0.627-0.144,1.507,0.307,1.837,0.975c0.091,0.186,0.117,0.419,0.118,0.631
		C48.046,37.733,48.041,39.509,48.041,41.285z"/>
</g>
</svg>
