<?xml version="1.0" encoding="UTF-8"?>
<svg width="95px" height="95px" viewBox="0 0 95 95" version="1.1" xmlns="http://www.w3.org/2000/svg" xmlns:xlink="http://www.w3.org/1999/xlink">
    <!-- Generator: Sketch 43.2 (39069) - http://www.bohemiancoding.com/sketch -->
    <title>usergroup</title>
    <desc>Created with Sketch.</desc>
    <defs></defs>
    <g id="Page-1" stroke="none" stroke-width="1" fill="none" fill-rule="evenodd">
        <g id="usergroup" transform="translate(2.000000, 2.000000)">
            <circle id="Oval" stroke="#FEB672" stroke-width="2.8347" cx="45.374" cy="45.374" r="45.374"></circle>
            <path d="M34.7072229,45.2849153 C31.3001739,45.1796887 28.5135443,43.832788 26.3473341,41.2442131 L22.1200695,41.2442131 C20.3955139,41.2442131 18.9443634,41.6703809 17.766618,42.5227165 C16.5888727,43.3750522 16,44.6219876 16,46.2635229 C16,53.6925222 17.3039323,57.4070219 19.911797,57.4070219 C20.037984,57.4070219 20.4954119,57.186046 21.2840807,56.7440942 C22.0727494,56.3021424 23.0980188,55.8549292 24.3598888,55.4024548 C25.6217588,54.9499803 26.8731132,54.7237431 28.1139521,54.7237431 C29.5230403,54.7237431 30.9216129,54.9657643 32.3096699,55.4498067 C32.204514,54.6711298 32.1519361,53.9766341 32.1519361,53.3663197 C32.1519361,50.4410197 33.0036984,47.7472182 34.7072229,45.2849153 Z M68.4937924,25.1761083 C68.4937924,22.6506695 67.7261548,20.656625 66.1908796,19.193975 C64.6556044,17.731325 62.6155813,17 60.0708101,17 L32.4989504,17 C29.9541792,17 27.914156,17.731325 26.3788808,19.193975 C24.8436056,20.656625 24.0759681,22.6506695 24.0759681,25.1761083 C24.0759681,26.2915105 24.1127726,27.380606 24.1863817,28.4433949 C24.2599908,29.5061837 24.4072089,30.6531539 24.6280362,31.8843053 C24.8488634,33.1154568 25.1275264,34.2571656 25.4640251,35.3094318 C25.8005237,36.361698 26.2526938,37.3876575 26.8205353,38.3873104 C27.3883768,39.3869633 28.040343,40.2392989 28.7764338,40.9443173 C29.5125247,41.6493356 30.4116071,42.212298 31.473681,42.6332045 C32.5357549,43.054111 33.7082425,43.2645642 34.9911436,43.2645642 C35.2014553,43.2645642 35.6536254,43.038327 36.3476539,42.5858525 C37.0416824,42.1333781 37.80932,41.6282903 38.6505667,41.0705892 C39.4918133,40.5128881 40.6169808,40.0078003 42.0260689,39.5553259 C43.4351571,39.1028514 44.8547609,38.8766142 46.2848802,38.8766142 C47.7149996,38.8766142 49.1346033,39.1028514 50.5436915,39.5553259 C51.9527797,40.0078003 53.0779471,40.5128881 53.9191938,41.0705892 C54.7604404,41.6282903 55.528078,42.1333781 56.2221065,42.5858525 C56.916135,43.038327 57.3683051,43.2645642 57.5786168,43.2645642 C58.861518,43.2645642 60.0340055,43.054111 61.0960795,42.6332045 C62.1581534,42.212298 63.0572358,41.6493356 63.7933266,40.9443173 C64.5294174,40.2392989 65.1813836,39.3869633 65.7492251,38.3873104 C66.3170666,37.3876575 66.7692367,36.361698 67.1057354,35.3094318 C67.442234,34.2571656 67.720897,33.1154568 67.9417243,31.8843053 C68.1625515,30.6531539 68.3097697,29.5061837 68.3833788,28.4433949 C68.4569878,27.380606 68.4937924,26.2915105 68.4937924,25.1761083 Z M36.1899201,65.4884262 C36.1899201,63.2576219 35.4012514,61.3530201 33.8239139,59.7746208 C32.2465764,58.1962215 30.3432558,57.4070219 28.1139521,57.4070219 C25.8846484,57.4070219 23.9813278,58.1962215 22.4039903,59.7746208 C20.8266528,61.3530201 20.037984,63.2576219 20.037984,65.4884262 C20.037984,67.7192306 20.8266528,69.6238324 22.4039903,71.2022317 C23.9813278,72.780631 25.8846484,73.5698306 28.1139521,73.5698306 C30.3432558,73.5698306 32.2465764,72.780631 33.8239139,71.2022317 C35.4012514,69.6238324 36.1899201,67.7192306 36.1899201,65.4884262 Z M58.3988323,53.3663197 C58.3988323,50.0201132 57.2158292,47.1632105 54.8498229,44.7956115 C52.4838166,42.4280126 49.6288357,41.2442131 46.2848802,41.2442131 C42.9409247,41.2442131 40.0859438,42.4280126 37.7199375,44.7956115 C35.3539313,47.1632105 34.1709281,50.0201132 34.1709281,53.3663197 C34.1709281,56.7125262 35.3539313,59.5694289 37.7199375,61.9370278 C40.0859438,64.3046268 42.9409247,65.4884262 46.2848802,65.4884262 C49.6288357,65.4884262 52.4838166,64.3046268 54.8498229,61.9370278 C57.2158292,59.5694289 58.3988323,56.7125262 58.3988323,53.3663197 Z M76.5697604,46.2635229 C76.5697604,44.6219876 75.9808878,43.3750522 74.8031424,42.5227165 C73.6253971,41.6703809 72.1742466,41.2442131 70.4496909,41.2442131 L66.2224264,41.2442131 C64.0562162,43.832788 61.2695866,45.1796887 57.8625376,45.2849153 C59.5660621,47.7472182 60.4178243,50.4410197 60.4178243,53.3663197 C60.4178243,53.9766341 60.3652464,54.6711298 60.2600906,55.4498067 C61.6481476,54.9657643 63.0467202,54.7237431 64.4558084,54.7237431 C65.6966472,54.7237431 66.9480016,54.9499803 68.2098716,55.4024548 C69.4717416,55.8549292 70.497011,56.3021424 71.2856798,56.7440942 C72.0743485,57.186046 72.5317764,57.4070219 72.6579634,57.4070219 C75.2658281,57.4070219 76.5697604,53.6925222 76.5697604,46.2635229 Z M72.5317764,65.4884262 C72.5317764,63.2576219 71.7431077,61.3530201 70.1657701,59.7746208 C68.5884326,58.1962215 66.685112,57.4070219 64.4558084,57.4070219 C62.2265047,57.4070219 60.3231841,58.1962215 58.7458466,59.7746208 C57.168509,61.3530201 56.3798403,63.2576219 56.3798403,65.4884262 C56.3798403,67.7192306 57.168509,69.6238324 58.7458466,71.2022317 C60.3231841,72.780631 62.2265047,73.5698306 64.4558084,73.5698306 C66.685112,73.5698306 68.5884326,72.780631 70.1657701,71.2022317 C71.7431077,69.6238324 72.5317764,67.7192306 72.5317764,65.4884262 Z" id="path3041" fill="#FEB672" fill-rule="nonzero" transform="translate(46.284880, 45.284915) scale(1, -1) translate(-46.284880, -45.284915) "></path>
        </g>
    </g>
</svg>