<?xml version="1.0" encoding="utf-8"?>
<!-- Generator: Adobe Illustrator 16.0.0, SVG Export Plug-In . SVG Version: 6.00 Build 0)  -->
<!DOCTYPE svg PUBLIC "-//W3C//DTD SVG 1.1//EN" "http://www.w3.org/Graphics/SVG/1.1/DTD/svg11.dtd">
<svg version="1.1" id="Ebene_1" xmlns="http://www.w3.org/2000/svg" xmlns:xlink="http://www.w3.org/1999/xlink" x="0px" y="0px"
	 width="45px" height="45px" viewBox="0 0 45 45" enable-background="new 0 0 45 45" xml:space="preserve">
<g>
	<circle fill="#8C8C8C" cx="22.5" cy="22.499" r="22.5"/>
	<g>
		<path fill="#F5F5F5" d="M34.854,31.716c0,1.637-1.58,2.965-3.529,2.965H13.676c-1.947,0-3.528-1.328-3.528-2.965v-7.41
			c0-1.637,1.581-2.964,3.528-2.964h17.648c1.949,0,3.529,1.327,3.529,2.964V31.716z"/>
		<g>
			<path fill="#FFFFFF" d="M13.863,10.321h1.81l1.165,3.795h0.112l1.112-3.795h1.826l-2.092,5.555v3.938h-1.795v-3.761
				L13.863,10.321z"/>
			<path fill="#FFFFFF" d="M19.808,14.413c0-0.541,0.214-0.977,0.643-1.297c0.431-0.32,1.009-0.482,1.733-0.482
				c0.659,0,1.2,0.17,1.622,0.51c0.421,0.338,0.631,0.777,0.631,1.309v3.618c0,0.598-0.207,1.069-0.618,1.409
				c-0.415,0.343-0.984,0.514-1.709,0.514c-0.697,0-1.256-0.179-1.676-0.529c-0.417-0.35-0.626-0.826-0.626-1.419V14.413z
				 M21.447,18.176c0,0.191,0.059,0.34,0.172,0.446c0.11,0.104,0.275,0.156,0.486,0.156c0.216,0,0.386-0.053,0.516-0.161
				c0.128-0.106,0.19-0.255,0.19-0.441V14.36c0-0.154-0.066-0.277-0.195-0.371c-0.128-0.094-0.3-0.141-0.511-0.141
				c-0.195,0-0.353,0.047-0.474,0.141c-0.122,0.094-0.185,0.217-0.185,0.371V18.176z"/>
			<path fill="#FFFFFF" d="M30.344,12.812v7.003H28.75v-0.773c-0.295,0.286-0.602,0.505-0.919,0.651
				c-0.317,0.147-0.626,0.224-0.926,0.224c-0.368,0-0.646-0.104-0.834-0.311c-0.187-0.21-0.278-0.521-0.278-0.94v-5.854h1.593v5.368
				c0,0.169,0.034,0.285,0.102,0.36c0.067,0.073,0.175,0.113,0.323,0.113c0.118,0,0.268-0.049,0.446-0.148
				c0.178-0.098,0.341-0.225,0.493-0.377v-5.316H30.344z"/>
		</g>
		<path fill="#8C8C8C" d="M17.102,22.164H11.67v1.667h1.829v9.797h1.771v-9.797h1.832V22.164z M19.994,31.591
			c-0.147,0.184-0.308,0.336-0.485,0.455c-0.177,0.117-0.321,0.178-0.438,0.178c-0.148,0-0.255-0.043-0.322-0.135
			c-0.065-0.088-0.098-0.234-0.098-0.438v-6.479h-1.573v7.066c0,0.504,0.095,0.881,0.278,1.135c0.184,0.25,0.458,0.377,0.821,0.377
			c0.295,0,0.6-0.092,0.913-0.271s0.614-0.441,0.903-0.783v0.932h1.572v-8.455h-1.572V31.591z M26.086,25.063
			c-0.245,0-0.485,0.068-0.723,0.203c-0.238,0.135-0.464,0.33-0.676,0.588v-3.69H23.1v11.464h1.588v-0.65
			c0.205,0.256,0.432,0.447,0.67,0.57c0.242,0.127,0.517,0.184,0.823,0.184c0.466,0,0.823-0.154,1.066-0.477
			c0.248-0.318,0.369-0.779,0.369-1.379v-4.693c0-0.689-0.129-1.215-0.392-1.576C26.963,25.244,26.584,25.063,26.086,25.063z
			 M26,31.646c0,0.27-0.045,0.463-0.135,0.584c-0.091,0.117-0.234,0.178-0.424,0.178c-0.136,0-0.263-0.031-0.382-0.094
			c-0.118-0.057-0.244-0.158-0.372-0.295v-5.268c0.106-0.12,0.213-0.203,0.324-0.26c0.109-0.056,0.219-0.082,0.333-0.082
			c0.213,0,0.375,0.072,0.487,0.221C25.943,26.78,26,26.995,26,27.282V31.646z M33.428,29.599v-2.156
			c0-0.799-0.192-1.414-0.578-1.844c-0.387-0.426-0.938-0.641-1.658-0.641c-0.704,0-1.278,0.23-1.722,0.691
			c-0.443,0.464-0.666,1.061-0.666,1.793v3.797c0,0.814,0.202,1.457,0.605,1.918c0.404,0.467,0.959,0.697,1.664,0.697
			c0.78,0,1.372-0.219,1.765-0.656c0.395-0.439,0.59-1.092,0.59-1.959v-0.635h-1.617v0.588c0,0.498-0.052,0.82-0.156,0.965
			c-0.104,0.148-0.285,0.219-0.545,0.219c-0.252,0-0.43-0.086-0.533-0.258c-0.103-0.172-0.154-0.482-0.154-0.926v-1.594H33.428z
			 M30.422,27.427c0-0.35,0.053-0.604,0.162-0.757c0.11-0.155,0.29-0.231,0.54-0.231c0.241,0,0.414,0.076,0.524,0.231
			c0.107,0.153,0.162,0.407,0.162,0.757v0.857h-1.389V27.427z"/>
	</g>
</g>
</svg>
